0
SECTION
2
ENTITIES
0
LINE
8
0
10
1761.1853
20
360.0
30
0.0
11
1761.1853
21
379.75726
31
0.0
0
LINE
8
0
10
1761.1853
20
379.75726
30
0.0
11
1761.1853
21
390.2207
31
0.0
0
LINE
8
0
10
1761.1853
20
390.2207
30
0.0
11
1750.2981
21
379.33347
31
0.0
0
LINE
8
0
10
1750.2981
20
379.33347
30
0.0
11
1733.4221
21
379.33347
31
0.0
0
LINE
8
0
10
1663.9912
20
360.0
30
0.0
11
1663.9912
21
378.97827
31
0.0
0
LINE
8
0
10
1663.9912
20
378.97827
30
0.0
11
1647.9219
21
362.90894
31
0.0
0
LINE
8
0
10
1647.9219
20
362.90894
30
0.0
11
1633.47
21
348.45706
31
0.0
0
LINE
8
0
10
1633.47
20
348.45706
30
0.0
11
1633.47
21
362.9192
31
0.0
0
LINE
8
0
10
1173.7505
20
360.0
30
0.0
11
1156.8649
21
343.1144
31
0.0
0
LINE
8
0
10
1156.8649
20
343.1144
30
0.0
11
1137.9586
21
343.1144
31
0.0
0
LINE
8
0
10
1137.9586
20
343.1144
30
0.0
11
1123.6313
21
328.7871
31
0.0
0
LINE
8
0
10
1123.6313
20
328.7871
30
0.0
11
1123.6313
21
346.6138
31
0.0
0
LINE
8
0
10
681.943
20
360.0
30
0.0
11
671.5448
21
360.0
31
0.0
0
LINE
8
0
10
671.5448
20
360.0
30
0.0
11
651.65735
21
379.88745
31
0.0
0
LINE
8
0
10
651.65735
20
379.88745
30
0.0
11
632.99023
21
361.22034
31
0.0
0
LINE
8
0
10
632.99023
20
361.22034
30
0.0
11
620.7935
21
373.41705
31
0.0
0
LINE
8
0
10
652.62476
20
360.0
30
0.0
11
652.62476
21
378.956
31
0.0
0
LINE
8
0
10
652.62476
20
378.956
30
0.0
11
637.4143
21
394.16644
31
0.0
0
LINE
8
0
10
637.4143
20
394.16644
30
0.0
11
618.6147
21
375.3668
31
0.0
0
LINE
8
0
10
618.6147
20
375.3668
30
0.0
11
607.83386
21
386.14758
31
0.0
0
LINE
8
0
10
695.3795
20
360.0
30
0.0
11
682.5633
21
372.81625
31
0.0
0
LINE
8
0
10
682.5633
20
372.81625
30
0.0
11
664.25555
21
354.5085
31
0.0
0
LINE
8
0
10
664.25555
20
354.5085
30
0.0
11
653.2522
21
365.51184
31
0.0
0
LINE
8
0
10
653.2522
20
365.51184
30
0.0
11
636.71893
21
365.51184
31
0.0
0
LINE
8
0
10
1629.6958
20
360.0
30
0.0
11
1610.8129
21
360.0
31
0.0
0
LINE
8
0
10
1610.8129
20
360.0
30
0.0
11
1596.7615
21
374.05136
31
0.0
0
LINE
8
0
10
1596.7615
20
374.05136
30
0.0
11
1584.9535
21
374.05136
31
0.0
0
LINE
8
0
10
1584.9535
20
374.05136
30
0.0
11
1568.8033
21
357.90125
31
0.0
0
LINE
8
0
10
1638.2246
20
360.0
30
0.0
11
1625.2771
21
360.0
31
0.0
0
LINE
8
0
10
1625.2771
20
360.0
30
0.0
11
1612.738
21
347.4609
31
0.0
0
LINE
8
0
10
1612.738
20
347.4609
30
0.0
11
1596.9963
21
331.71924
31
0.0
0
LINE
8
0
10
1596.9963
20
331.71924
30
0.0
11
1586.7188
21
331.71924
31
0.0
0
LINE
8
0
10
1526.7546
20
360.0
30
0.0
11
1513.6296
21
346.87506
31
0.0
0
LINE
8
0
10
1513.6296
20
346.87506
30
0.0
11
1498.1802
21
331.42563
31
0.0
0
LINE
8
0
10
1498.1802
20
331.42563
30
0.0
11
1483.4496
21
331.42563
31
0.0
0
LINE
8
0
10
1483.4496
20
331.42563
30
0.0
11
1472.6287
21
320.60468
31
0.0
0
LINE
8
0
10
1031.2183
20
360.0
30
0.0
11
1012.9086
21
378.30963
31
0.0
0
LINE
8
0
10
1012.9086
20
378.30963
30
0.0
11
1012.9086
21
392.2155
31
0.0
0
LINE
8
0
10
1012.9086
20
392.2155
30
0.0
11
999.7981
21
405.32602
31
0.0
0
LINE
8
0
10
999.7981
20
405.32602
30
0.0
11
999.7981
21
389.75986
31
0.0
0
LINE
8
0
10
1659.7229
20
360.0
30
0.0
11
1659.7229
21
371.6891
31
0.0
0
LINE
8
0
10
1659.7229
20
371.6891
30
0.0
11
1640.7915
21
352.75775
31
0.0
0
LINE
8
0
10
1640.7915
20
352.75775
30
0.0
11
1625.7592
21
352.75775
31
0.0
0
LINE
8
0
10
1625.7592
20
352.75775
30
0.0
11
1615.1115
21
363.4054
31
0.0
0
LINE
8
0
10
807.56323
20
360.0
30
0.0
11
793.92566
21
373.63757
31
0.0
0
LINE
8
0
10
793.92566
20
373.63757
30
0.0
11
804.65234
21
362.91086
31
0.0
0
LINE
8
0
10
804.65234
20
362.91086
30
0.0
11
818.4143
21
376.67282
31
0.0
0
LINE
8
0
10
818.4143
20
376.67282
30
0.0
11
801.8087
21
360.0672
31
0.0
0
LINE
8
0
10
1317.0913
20
360.0
30
0.0
11
1300.4132
21
376.6781
31
0.0
0
LINE
8
0
10
1300.4132
20
376.6781
30
0.0
11
1300.4132
21
390.37186
31
0.0
0
LINE
8
0
10
1300.4132
20
390.37186
30
0.0
11
1285.9858
21
375.94446
31
0.0
0
LINE
8
0
10
1285.9858
20
375.94446
30
0.0
11
1274.5262
21
364.48483
31
0.0
0
LINE
8
0
10
1881.157
20
360.0
30
0.0
11
1870.8075
21
360.0
31
0.0
0
LINE
8
0
10
1870.8075
20
360.0
30
0.0
11
1855.3835
21
360.0
31
0.0
0
LINE
8
0
10
1855.3835
20
360.0
30
0.0
11
1855.3835
21
377.071
31
0.0
0
LINE
8
0
10
1855.3835
20
377.071
30
0.0
11
1843.6555
21
365.34302
31
0.0
0
LINE
8
0
10
1570.5527
20
360.0
30
0.0
11
1557.1732
21
373.37952
31
0.0
0
LINE
8
0
10
1557.1732
20
373.37952
30
0.0
11
1546.312
21
384.24066
31
0.0
0
LINE
8
0
10
1546.312
20
384.24066
30
0.0
11
1531.99
21
398.5627
31
0.0
0
LINE
8
0
10
1531.99
20
398.5627
30
0.0
11
1531.99
21
410.99554
31
0.0
0
LINE
8
0
10
1528.1375
20
360.0
30
0.0
11
1516.9984
21
371.1391
31
0.0
0
LINE
8
0
10
1516.9984
20
371.1391
30
0.0
11
1516.9984
21
389.31024
31
0.0
0
LINE
8
0
10
1516.9984
20
389.31024
30
0.0
11
1516.9984
21
405.44794
31
0.0
0
LINE
8
0
10
1516.9984
20
405.44794
30
0.0
11
1516.9984
21
388.074
31
0.0
0
LINE
8
0
10
1281.521
20
360.0
30
0.0
11
1268.7672
21
347.2462
31
0.0
0
LINE
8
0
10
1268.7672
20
347.2462
30
0.0
11
1256.3955
21
334.87448
31
0.0
0
LINE
8
0
10
1256.3955
20
334.87448
30
0.0
11
1238.9222
21
334.87448
31
0.0
0
LINE
8
0
10
1238.9222
20
334.87448
30
0.0
11
1238.9222
21
354.038
31
0.0
0
LINE
8
0
10
1674.2927
20
360.0
30
0.0
11
1674.2927
21
379.03903
31
0.0
0
LINE
8
0
10
1674.2927
20
379.03903
30
0.0
11
1654.4762
21
398.8556
31
0.0
0
LINE
8
0
10
1654.4762
20
398.8556
30
0.0
11
1639.699
21
384.07834
31
0.0
0
LINE
8
0
10
1639.699
20
384.07834
30
0.0
11
1629.142
21
373.52133
31
0.0
0
LINE
8
0
10
1300.8506
20
360.0
30
0.0
11
1282.7952
21
378.05542
31
0.0
0
LINE
8
0
10
1282.7952
20
378.05542
30
0.0
11
1266.9569
21
378.05542
31
0.0
0
LINE
8
0
10
1266.9569
20
378.05542
30
0.0
11
1253.9501
21
378.05542
31
0.0
0
LINE
8
0
10
1253.9501
20
378.05542
30
0.0
11
1266.5806
21
390.68594
31
0.0
0
LINE
8
0
10
1295.0209
20
360.0
30
0.0
11
1295.0209
21
376.16797
31
0.0
0
LINE
8
0
10
1295.0209
20
376.16797
30
0.0
11
1295.0209
21
386.75876
31
0.0
0
LINE
8
0
10
1295.0209
20
386.75876
30
0.0
11
1280.9032
21
372.64114
31
0.0
0
LINE
8
0
10
1280.9032
20
372.64114
30
0.0
11
1280.9032
21
383.2292
31
0.0
0
LINE
8
0
10
1787.5715
20
360.0
30
0.0
11
1787.5715
21
378.61078
31
0.0
0
LINE
8
0
10
1787.5715
20
378.61078
30
0.0
11
1770.7266
21
361.76578
31
0.0
0
LINE
8
0
10
1770.7266
20
361.76578
30
0.0
11
1759.5608
21
350.59995
31
0.0
0
LINE
8
0
10
1759.5608
20
350.59995
30
0.0
11
1745.7605
21
364.40027
31
0.0
0
LINE
8
0
10
1580.9126
20
360.0
30
0.0
11
1561.6522
21
340.73962
31
0.0
0
LINE
8
0
10
1561.6522
20
340.73962
30
0.0
11
1542.525
21
340.73962
31
0.0
0
LINE
8
0
10
1542.525
20
340.73962
30
0.0
11
1531.4735
21
351.79117
31
0.0
0
LINE
8
0
10
1531.4735
20
351.79117
30
0.0
11
1512.9583
21
333.27588
31
0.0
0
LINE
8
0
10
1600.027
20
360.0
30
0.0
11
1584.4044
21
360.0
31
0.0
0
LINE
8
0
10
1584.4044
20
360.0
30
0.0
11
1570.8962
21
360.0
31
0.0
0
LINE
8
0
10
1570.8962
20
360.0
30
0.0
11
1555.4897
21
360.0
31
0.0
0
LINE
8
0
10
1555.4897
20
360.0
30
0.0
11
1536.2219
21
379.26785
31
0.0
0
LINE
8
0
10
1604.8969
20
360.0
30
0.0
11
1588.4169
21
343.51996
31
0.0
0
LINE
8
0
10
1588.4169
20
343.51996
30
0.0
11
1570.9818
21
360.95502
31
0.0
0
LINE
8
0
10
1570.9818
20
360.95502
30
0.0
11
1558.395
21
360.95502
31
0.0
0
LINE
8
0
10
1558.395
20
360.95502
30
0.0
11
1558.395
21
377.6941
31
0.0
0
LINE
8
0
10
1815.8557
20
360.0
30
0.0
11
1815.8557
21
377.29144
31
0.0
0
LINE
8
0
10
1815.8557
20
377.29144
30
0.0
11
1801.0629
21
362.49863
31
0.0
0
LINE
8
0
10
1801.0629
20
362.49863
30
0.0
11
1787.1499
21
348.5857
31
0.0
0
LINE
8
0
10
1787.1499
20
348.5857
30
0.0
11
1769.7279
21
331.16367
31
0.0
0
LINE
8
0
10
1515.7375
20
360.0
30
0.0
11
1527.972
21
372.23444
31
0.0
0
LINE
8
0
10
1527.972
20
372.23444
30
0.0
11
1544.2776
21
355.92896
31
0.0
0
LINE
8
0
10
1544.2776
20
355.92896
30
0.0
11
1557.3589
21
355.92896
31
0.0
0
LINE
8
0
10
1557.3589
20
355.92896
30
0.0
11
1547.358
21
355.92896
31
0.0
0
LINE
8
0
10
1626.5706
20
360.0
30
0.0
11
1611.255
21
375.31552
31
0.0
0
LINE
8
0
10
1611.255
20
375.31552
30
0.0
11
1598.1194
21
388.45117
31
0.0
0
LINE
8
0
10
1598.1194
20
388.45117
30
0.0
11
1581.3324
21
405.2381
31
0.0
0
LINE
8
0
10
1581.3324
20
405.2381
30
0.0
11
1565.1292
21
405.2381
31
0.0
0
LINE
8
0
10
1822.3721
20
360.0
30
0.0
11
1803.7655
21
360.0
31
0.0
0
LINE
8
0
10
1803.7655
20
360.0
30
0.0
11
1803.7655
21
374.08475
31
0.0
0
LINE
8
0
10
1803.7655
20
374.08475
30
0.0
11
1784.1432
21
374.08475
31
0.0
0
LINE
8
0
10
1784.1432
20
374.08475
30
0.0
11
1767.4669
21
374.08475
31
0.0
0
LINE
8
0
10
1841.0239
20
360.0
30
0.0
11
1841.0239
21
375.99188
31
0.0
0
LINE
8
0
10
1841.0239
20
375.99188
30
0.0
11
1823.1411
21
358.1091
31
0.0
0
LINE
8
0
10
1823.1411
20
358.1091
30
0.0
11
1811.1289
21
346.09683
31
0.0
0
LINE
8
0
10
1811.1289
20
346.09683
30
0.0
11
1811.1289
21
363.62396
31
0.0
0
LINE
8
0
10
1812.3074
20
360.0
30
0.0
11
1812.3074
21
371.99097
31
0.0
0
LINE
8
0
10
1812.3074
20
371.99097
30
0.0
11
1812.3074
21
389.0538
31
0.0
0
LINE
8
0
10
1812.3074
20
389.0538
30
0.0
11
1812.3074
21
402.17496
31
0.0
0
LINE
8
0
10
1812.3074
20
402.17496
30
0.0
11
1795.0776
21
402.17496
31
0.0
0
LINE
8
0
10
481.75684
20
560.0
30
0.0
11
464.2355
21
560.0
31
0.0
0
LINE
8
0
10
464.2355
20
560.0
30
0.0
11
453.31403
21
560.0
31
0.0
0
LINE
8
0
10
453.31403
20
560.0
30
0.0
11
453.31403
21
572.9422
31
0.0
0
LINE
8
0
10
453.31403
20
572.9422
30
0.0
11
453.31403
21
588.4059
31
0.0
0
LINE
8
0
10
453.31403
20
588.4059
30
0.0
11
437.21918
21
604.50073
31
0.0
0
LINE
8
0
10
664.1449
20
560.0
30
0.0
11
653.3082
21
549.1633
31
0.0
0
LINE
8
0
10
653.3082
20
549.1633
30
0.0
11
653.3082
21
568.75366
31
0.0
0
LINE
8
0
10
653.3082
20
568.75366
30
0.0
11
653.3082
21
587.2618
31
0.0
0
LINE
8
0
10
653.3082
20
587.2618
30
0.0
11
653.3082
21
601.5031
31
0.0
0
LINE
8
0
10
653.3082
20
601.5031
30
0.0
11
634.66003
21
620.1513
31
0.0
0
LINE
8
0
10
1642.909
20
560.0
30
0.0
11
1642.909
21
574.7688
31
0.0
0
LINE
8
0
10
1642.909
20
574.7688
30
0.0
11
1642.909
21
594.0803
31
0.0
0
LINE
8
0
10
1642.909
20
594.0803
30
0.0
11
1625.5239
21
611.46545
31
0.0
0
LINE
8
0
10
1625.5239
20
611.46545
30
0.0
11
1614.048
21
599.98944
31
0.0
0
LINE
8
0
10
1614.048
20
599.98944
30
0.0
11
1599.6176
21
599.98944
31
0.0
0
LINE
8
0
10
549.334
20
560.0
30
0.0
11
549.334
21
572.67413
31
0.0
0
LINE
8
0
10
549.334
20
572.67413
30
0.0
11
530.5957
21
591.4124
31
0.0
0
LINE
8
0
10
530.5957
20
591.4124
30
0.0
11
514.0001
21
574.81683
31
0.0
0
LINE
8
0
10
514.0001
20
574.81683
30
0.0
11
501.48636
21
587.33057
31
0.0
0
LINE
8
0
10
501.48636
20
587.33057
30
0.0
11
518.4203
21
570.39667
31
0.0
0
LINE
8
0
10
1042.2405
20
560.0
30
0.0
11
1042.2405
21
573.09814
31
0.0
0
LINE
8
0
10
1042.2405
20
573.09814
30
0.0
11
1024.0906
21
573.09814
31
0.0
0
LINE
8
0
10
1024.0906
20
573.09814
30
0.0
11
1011.0242
21
560.03174
31
0.0
0
LINE
8
0
10
1011.0242
20
560.03174
30
0.0
11
991.2118
21
540.21936
31
0.0
0
LINE
8
0
10
991.2118
20
540.21936
30
0.0
11
974.74207
21
556.6891
31
0.0
0
LINE
8
0
10
1877.9702
20
560.0
30
0.0
11
1860.5175
21
560.0
31
0.0
0
LINE
8
0
10
1860.5175
20
560.0
30
0.0
11
1860.5175
21
577.57446
31
0.0
0
LINE
8
0
10
1860.5175
20
577.57446
30
0.0
11
1842.0339
21
559.09094
31
0.0
0
LINE
8
0
10
1842.0339
20
559.09094
30
0.0
11
1830.4417
21
559.09094
31
0.0
0
LINE
8
0
10
1830.4417
20
559.09094
30
0.0
11
1817.0432
21
545.6925
31
0.0
0
LINE
8
0
10
1016.88135
20
560.0
30
0.0
11
1016.88135
21
578.3506
31
0.0
0
LINE
8
0
10
1016.88135
20
578.3506
30
0.0
11
1003.51044
21
591.7215
31
0.0
0
LINE
8
0
10
1003.51044
20
591.7215
30
0.0
11
989.23376
21
591.7215
31
0.0
0
LINE
8
0
10
989.23376
20
591.7215
30
0.0
11
970.986
21
591.7215
31
0.0
0
LINE
8
0
10
970.986
20
591.7215
30
0.0
11
951.83154
21
591.7215
31
0.0
0
LINE
8
0
10
922.0659
20
560.0
30
0.0
11
907.85547
21
560.0
31
0.0
0
LINE
8
0
10
907.85547
20
560.0
30
0.0
11
896.3709
21
560.0
31
0.0
0
LINE
8
0
10
896.3709
20
560.0
30
0.0
11
896.3709
21
576.49414
31
0.0
0
LINE
8
0
10
896.3709
20
576.49414
30
0.0
11
896.3709
21
593.86536
31
0.0
0
LINE
8
0
10
896.3709
20
593.86536
30
0.0
11
883.5799
21
593.86536
31
0.0
0
LINE
8
0
10
1883.7295
20
560.0
30
0.0
11
1870.6058
21
560.0
31
0.0
0
LINE
8
0
10
1870.6058
20
560.0
30
0.0
11
1854.4075
21
543.80164
31
0.0
0
LINE
8
0
10
1854.4075
20
543.80164
30
0.0
11
1854.4075
21
554.0082
31
0.0
0
LINE
8
0
10
1854.4075
20
554.0082
30
0.0
11
1841.7471
21
541.34784
31
0.0
0
LINE
8
0
10
1841.7471
20
541.34784
30
0.0
11
1824.5437
21
558.5513
31
0.0
0
LINE
8
0
10
1352.2112
20
560.0
30
0.0
11
1332.8536
21
560.0
31
0.0
0
LINE
8
0
10
1332.8536
20
560.0
30
0.0
11
1322.1102
21
570.74335
31
0.0
0
LINE
8
0
10
1322.1102
20
570.74335
30
0.0
11
1322.1102
21
587.7569
31
0.0
0
LINE
8
0
10
1322.1102
20
587.7569
30
0.0
11
1304.5491
21
570.19574
31
0.0
0
LINE
8
0
10
1304.5491
20
570.19574
30
0.0
11
1304.5491
21
588.4597
31
0.0
0
LINE
8
0
10
1036.6055
20
560.0
30
0.0
11
1026.2201
21
560.0
31
0.0
0
LINE
8
0
10
1026.2201
20
560.0
30
0.0
11
1026.2201
21
577.81573
31
0.0
0
LINE
8
0
10
1026.2201
20
577.81573
30
0.0
11
1008.6627
21
577.81573
31
0.0
0
LINE
8
0
10
1008.6627
20
577.81573
30
0.0
11
992.78
21
593.69836
31
0.0
0
LINE
8
0
10
992.78
20
593.69836
30
0.0
11
980.09937
21
581.0177
31
0.0
0
LINE
8
0
10
1231.3685
20
560.0
30
0.0
11
1231.3685
21
576.8029
31
0.0
0
LINE
8
0
10
1231.3685
20
576.8029
30
0.0
11
1214.7229
21
560.1573
31
0.0
0
LINE
8
0
10
1214.7229
20
560.1573
30
0.0
11
1201.3542
21
546.78864
31
0.0
0
LINE
8
0
10
1201.3542
20
546.78864
30
0.0
11
1189.4426
21
546.78864
31
0.0
0
LINE
8
0
10
1189.4426
20
546.78864
30
0.0
11
1189.4426
21
558.8793
31
0.0
0
LINE
8
0
10
1290.2589
20
560.0
30
0.0
11
1275.6548
21
574.6041
31
0.0
0
LINE
8
0
10
1275.6548
20
574.6041
30
0.0
11
1275.6548
21
585.52856
31
0.0
0
LINE
8
0
10
1275.6548
20
585.52856
30
0.0
11
1256.8174
21
566.6911
31
0.0
0
LINE
8
0
10
1256.8174
20
566.6911
30
0.0
11
1256.8174
21
584.1374
31
0.0
0
LINE
8
0
10
1256.8174
20
584.1374
30
0.0
11
1238.4874
21
584.1374
31
0.0
0
LINE
8
0
10
1602.7032
20
560.0
30
0.0
11
1586.0149
21
560.0
31
0.0
0
LINE
8
0
10
1586.0149
20
560.0
30
0.0
11
1566.957
21
579.0579
31
0.0
0
LINE
8
0
10
1566.957
20
579.0579
30
0.0
11
1555.187
21
590.82794
31
0.0
0
LINE
8
0
10
1555.187
20
590.82794
30
0.0
11
1555.187
21
601.87427
31
0.0
0
LINE
8
0
10
1555.187
20
601.87427
30
0.0
11
1555.187
21
614.23804
31
0.0
0
LINE
8
0
10
1329.8965
20
560.0
30
0.0
11
1314.4614
21
560.0
31
0.0
0
LINE
8
0
10
1314.4614
20
560.0
30
0.0
11
1298.8813
21
544.4199
31
0.0
0
LINE
8
0
10
1298.8813
20
544.4199
30
0.0
11
1282.6288
21
528.1673
31
0.0
0
LINE
8
0
10
1282.6288
20
528.1673
30
0.0
11
1271.848
21
538.9481
31
0.0
0
LINE
8
0
10
1271.848
20
538.9481
30
0.0
11
1253.849
21
556.94714
31
0.0
0
LINE
8
0
10
1497.9033
20
560.0
30
0.0
11
1483.9261
21
573.9771
31
0.0
0
LINE
8
0
10
1483.9261
20
573.9771
30
0.0
11
1465.4084
21
592.4949
31
0.0
0
LINE
8
0
10
1465.4084
20
592.4949
30
0.0
11
1465.4084
21
610.7087
31
0.0
0
LINE
8
0
10
1465.4084
20
610.7087
30
0.0
11
1451.7179
21
624.39923
31
0.0
0
LINE
8
0
10
1451.7179
20
624.39923
30
0.0
11
1432.2366
21
624.39923
31
0.0
0
LINE
8
0
10
1192.1606
20
560.0
30
0.0
11
1180.3954
21
560.0
31
0.0
0
LINE
8
0
10
1180.3954
20
560.0
30
0.0
11
1180.3954
21
574.13416
31
0.0
0
LINE
8
0
10
1180.3954
20
574.13416
30
0.0
11
1165.723
21
574.13416
31
0.0
0
LINE
8
0
10
1165.723
20
574.13416
30
0.0
11
1153.1721
21
561.58325
31
0.0
0
LINE
8
0
10
1153.1721
20
561.58325
30
0.0
11
1137.3236
21
561.58325
31
0.0
0
LINE
8
0
10
1483.6265
20
560.0
30
0.0
11
1466.53
21
542.90356
31
0.0
0
LINE
8
0
10
1466.53
20
542.90356
30
0.0
11
1448.953
21
542.90356
31
0.0
0
LINE
8
0
10
1448.953
20
542.90356
30
0.0
11
1430.7175
21
542.90356
31
0.0
0
LINE
8
0
10
1430.7175
20
542.90356
30
0.0
11
1430.7175
21
560.0032
31
0.0
0
LINE
8
0
10
1430.7175
20
560.0032
30
0.0
11
1414.0016
21
543.28723
31
0.0
0
LINE
8
0
10
1488.5659
20
560.0
30
0.0
11
1475.2238
21
573.34216
31
0.0
0
LINE
8
0
10
1475.2238
20
573.34216
30
0.0
11
1455.6337
21
592.9322
31
0.0
0
LINE
8
0
10
1455.6337
20
592.9322
30
0.0
11
1455.6337
21
607.6057
31
0.0
0
LINE
8
0
10
1455.6337
20
607.6057
30
0.0
11
1436.3934
21
626.846
31
0.0
0
LINE
8
0
10
1436.3934
20
626.846
30
0.0
11
1420.1503
21
643.0892
31
0.0
0
LINE
8
0
10
1363.9958
20
560.0
30
0.0
11
1347.6877
21
560.0
31
0.0
0
LINE
8
0
10
1347.6877
20
560.0
30
0.0
11
1333.4272
21
545.73944
31
0.0
0
LINE
8
0
10
1333.4272
20
545.73944
30
0.0
11
1333.4272
21
556.3796
31
0.0
0
LINE
8
0
10
1333.4272
20
556.3796
30
0.0
11
1314.6511
21
556.3796
31
0.0
0
LINE
8
0
10
1314.6511
20
556.3796
30
0.0
11
1314.6511
21
571.44824
31
0.0
0
LINE
8
0
10
1741.4419
20
560.0
30
0.0
11
1723.374
21
578.0679
31
0.0
0
LINE
8
0
10
1723.374
20
578.0679
30
0.0
11
1707.2965
21
594.1453
31
0.0
0
LINE
8
0
10
1707.2965
20
594.1453
30
0.0
11
1689.9484
21
594.1453
31
0.0
0
LINE
8
0
10
1689.9484
20
594.1453
30
0.0
11
1689.9484
21
611.7726
31
0.0
0
LINE
8
0
10
1689.9484
20
611.7726
30
0.0
11
1689.9484
21
601.73346
31
0.0
0
LINE
8
0
10
1685.4576
20
560.0
30
0.0
11
1675.2477
21
570.20996
31
0.0
0
LINE
8
0
10
1675.2477
20
570.20996
30
0.0
11
1675.2477
21
589.0086
31
0.0
0
LINE
8
0
10
1675.2477
20
589.0086
30
0.0
11
1658.5756
21
605.68066
31
0.0
0
LINE
8
0
10
1658.5756
20
605.68066
30
0.0
11
1658.5756
21
589.56586
31
0.0
0
LINE
8
0
10
1658.5756
20
589.56586
30
0.0
11
1658.5756
21
605.3767
31
0.0
0
LINE
8
0
10
1748.1206
20
560.0
30
0.0
11
1730.444
21
560.0
31
0.0
0
LINE
8
0
10
1730.444
20
560.0
30
0.0
11
1730.444
21
570.0365
31
0.0
0
LINE
8
0
10
1730.444
20
570.0365
30
0.0
11
1716.1113
21
584.36914
31
0.0
0
LINE
8
0
10
1716.1113
20
584.36914
30
0.0
11
1704.9879
21
573.2457
31
0.0
0
LINE
8
0
10
1704.9879
20
573.2457
30
0.0
11
1690.4701
21
573.2457
31
0.0
0
LINE
8
0
10
1780.2566
20
560.0
30
0.0
11
1768.4751
21
560.0
31
0.0
0
LINE
8
0
10
1768.4751
20
560.0
30
0.0
11
1753.7914
21
574.6837
31
0.0
0
LINE
8
0
10
1753.7914
20
574.6837
30
0.0
11
1736.9873
21
574.6837
31
0.0
0
LINE
8
0
10
1736.9873
20
574.6837
30
0.0
11
1718.5629
21
593.1082
31
0.0
0
LINE
8
0
10
1718.5629
20
593.1082
30
0.0
11
1701.212
21
593.1082
31
0.0
0
LINE
8
0
10
1849.6877
20
560.0
30
0.0
11
1849.6877
21
572.6076
31
0.0
0
LINE
8
0
10
1849.6877
20
572.6076
30
0.0
11
1830.1006
21
572.6076
31
0.0
0
LINE
8
0
10
1830.1006
20
572.6076
30
0.0
11
1830.1006
21
587.2706
31
0.0
0
LINE
8
0
10
1830.1006
20
587.2706
30
0.0
11
1813.8986
21
571.0686
31
0.0
0
LINE
8
0
10
1813.8986
20
571.0686
30
0.0
11
1800.3883
21
584.5788
31
0.0
0
LINE
8
0
10
1689.4818
20
560.0
30
0.0
11
1679.0802
21
549.5983
31
0.0
0
LINE
8
0
10
1679.0802
20
549.5983
30
0.0
11
1663.3224
21
533.8405
31
0.0
0
LINE
8
0
10
1663.3224
20
533.8405
30
0.0
11
1650.3584
21
546.8045
31
0.0
0
LINE
8
0
10
1650.3584
20
546.8045
30
0.0
11
1635.1388
21
546.8045
31
0.0
0
LINE
8
0
10
1635.1388
20
546.8045
30
0.0
11
1621.929
21
560.01434
31
0.0
0
LINE
8
0
10
1844.3257
20
560.0
30
0.0
11
1844.3257
21
575.07825
31
0.0
0
LINE
8
0
10
1844.3257
20
575.07825
30
0.0
11
1830.995
21
588.4089
31
0.0
0
LINE
8
0
10
1830.995
20
588.4089
30
0.0
11
1830.995
21
604.14606
31
0.0
0
LINE
8
0
10
1830.995
20
604.14606
30
0.0
11
1816.6865
21
604.14606
31
0.0
0
LINE
8
0
10
1816.6865
20
604.14606
30
0.0
11
1796.9756
21
604.14606
31
0.0
0
LINE
8
0
10
1843.919
20
560.0
30
0.0
11
1833.4653
21
570.45355
31
0.0
0
LINE
8
0
10
1833.4653
20
570.45355
30
0.0
11
1815.4788
21
570.45355
31
0.0
0
LINE
8
0
10
1815.4788
20
570.45355
30
0.0
11
1796.3738
21
551.3486
31
0.0
0
LINE
8
0
10
1796.3738
20
551.3486
30
0.0
11
1780.7867
21
551.3486
31
0.0
0
LINE
8
0
10
1780.7867
20
551.3486
30
0.0
11
1763.9686
21
551.3486
31
0.0
0
LINE
8
0
10
1868.4755
20
560.0
30
0.0
11
1850.5585
21
542.083
31
0.0
0
LINE
8
0
10
1850.5585
20
542.083
30
0.0
11
1850.5585
21
556.3881
31
0.0
0
LINE
8
0
10
1850.5585
20
556.3881
30
0.0
11
1850.5585
21
570.62335
31
0.0
0
LINE
8
0
10
1850.5585
20
570.62335
30
0.0
11
1835.6101
21
555.675
31
0.0
0
LINE
8
0
10
1835.6101
20
555.675
30
0.0
11
1817.2592
21
555.675
31
0.0
0
LINE
8
0
10
1866.2379
20
560.0
30
0.0
11
1849.3076
21
576.93036
31
0.0
0
LINE
8
0
10
1849.3076
20
576.93036
30
0.0
11
1835.2704
21
562.8931
31
0.0
0
LINE
8
0
10
1835.2704
20
562.8931
30
0.0
11
1820.8977
21
548.5205
31
0.0
0
LINE
8
0
10
1820.8977
20
548.5205
30
0.0
11
1810.0155
21
537.63824
31
0.0
0
LINE
8
0
10
1810.0155
20
537.63824
30
0.0
11
1810.0155
21
555.0958
31
0.0
0
LINE
8
0
10
1097.1631
20
760.0
30
0.0
11
1097.1631
21
775.9578
31
0.0
0
LINE
8
0
10
1097.1631
20
775.9578
30
0.0
11
1082.755
21
775.9578
31
0.0
0
LINE
8
0
10
1082.755
20
775.9578
30
0.0
11
1068.8656
21
789.8473
31
0.0
0
LINE
8
0
10
1068.8656
20
789.8473
30
0.0
11
1068.8656
21
805.01184
31
0.0
0
LINE
8
0
10
1068.8656
20
805.01184
30
0.0
11
1052.0745
21
821.803
31
0.0
0
LINE
8
0
10
1052.0745
20
821.803
30
0.0
11
1032.3986
21
841.4788
31
0.0
0
LINE
8
0
10
383.2436
20
760.0
30
0.0
11
383.2436
21
776.0168
31
0.0
0
LINE
8
0
10
383.2436
20
776.0168
30
0.0
11
368.61856
21
790.64185
31
0.0
0
LINE
8
0
10
368.61856
20
790.64185
30
0.0
11
368.61856
21
804.8468
31
0.0
0
LINE
8
0
10
368.61856
20
804.8468
30
0.0
11
357.64822
21
793.87646
31
0.0
0
LINE
8
0
10
357.64822
20
793.87646
30
0.0
11
347.3353
21
793.87646
31
0.0
0
LINE
8
0
10
347.3353
20
793.87646
30
0.0
11
347.3353
21
805.1162
31
0.0
0
LINE
8
0
10
533.76263
20
760.0
30
0.0
11
515.5332
21
778.2295
31
0.0
0
LINE
8
0
10
515.5332
20
778.2295
30
0.0
11
498.38828
21
761.0846
31
0.0
0
LINE
8
0
10
498.38828
20
761.0846
30
0.0
11
485.85596
21
761.0846
31
0.0
0
LINE
8
0
10
485.85596
20
761.0846
30
0.0
11
471.2074
21
775.73315
31
0.0
0
LINE
8
0
10
471.2074
20
775.73315
30
0.0
11
458.17618
21
762.7019
31
0.0
0
LINE
8
0
10
458.17618
20
762.7019
30
0.0
11
444.76154
21
749.2873
31
0.0
0
LINE
8
0
10
1460.1002
20
760.0
30
0.0
11
1460.1002
21
778.69165
31
0.0
0
LINE
8
0
10
1460.1002
20
778.69165
30
0.0
11
1442.5004
21
761.09186
31
0.0
0
LINE
8
0
10
1442.5004
20
761.09186
30
0.0
11
1442.5004
21
778.2207
31
0.0
0
LINE
8
0
10
1442.5004
20
778.2207
30
0.0
11
1426.1597
21
761.88
31
0.0
0
LINE
8
0
10
1426.1597
20
761.88
30
0.0
11
1408.9045
21
761.88
31
0.0
0
LINE
8
0
10
1408.9045
20
761.88
30
0.0
11
1390.5253
21
743.5007
31
0.0
0
LINE
8
0
10
1832.7057
20
760.0
30
0.0
11
1815.8816
21
743.1759
31
0.0
0
LINE
8
0
10
1815.8816
20
743.1759
30
0.0
11
1815.8816
21
761.23206
31
0.0
0
LINE
8
0
10
1815.8816
20
761.23206
30
0.0
11
1802.3947
21
747.74506
31
0.0
0
LINE
8
0
10
1802.3947
20
747.74506
30
0.0
11
1802.3947
21
762.26733
31
0.0
0
LINE
8
0
10
1802.3947
20
762.26733
30
0.0
11
1786.4463
21
746.319
31
0.0
0
LINE
8
0
10
1786.4463
20
746.319
30
0.0
11
1768.32
21
764.4453
31
0.0
0
LINE
8
0
10
1569.7505
20
760.0
30
0.0
11
1555.0502
21
760.0
31
0.0
0
LINE
8
0
10
1555.0502
20
760.0
30
0.0
11
1535.3538
21
740.30365
31
0.0
0
LINE
8
0
10
1535.3538
20
740.30365
30
0.0
11
1535.3538
21
753.4469
31
0.0
0
LINE
8
0
10
1535.3538
20
753.4469
30
0.0
11
1516.3008
21
772.4998
31
0.0
0
LINE
8
0
10
1516.3008
20
772.4998
30
0.0
11
1502.7562
21
786.0444
31
0.0
0
LINE
8
0
10
1502.7562
20
786.0444
30
0.0
11
1486.599
21
786.0444
31
0.0
0
LINE
8
0
10
1217.7325
20
760.0
30
0.0
11
1198.8927
21
741.16016
31
0.0
0
LINE
8
0
10
1198.8927
20
741.16016
30
0.0
11
1198.8927
21
757.9173
31
0.0
0
LINE
8
0
10
1198.8927
20
757.9173
30
0.0
11
1182.54
21
774.26996
31
0.0
0
LINE
8
0
10
1182.54
20
774.26996
30
0.0
11
1171.805
21
774.26996
31
0.0
0
LINE
8
0
10
1171.805
20
774.26996
30
0.0
11
1153.4193
21
755.8842
31
0.0
0
LINE
8
0
10
1153.4193
20
755.8842
30
0.0
11
1153.4193
21
769.1833
31
0.0
0
LINE
8
0
10
1745.0051
20
760.0
30
0.0
11
1727.3031
21
760.0
31
0.0
0
LINE
8
0
10
1727.3031
20
760.0
30
0.0
11
1709.1953
21
741.8922
31
0.0
0
LINE
8
0
10
1709.1953
20
741.8922
30
0.0
11
1697.4066
21
741.8922
31
0.0
0
LINE
8
0
10
1697.4066
20
741.8922
30
0.0
11
1685.8575
21
741.8922
31
0.0
0
LINE
8
0
10
1685.8575
20
741.8922
30
0.0
11
1670.734
21
757.0157
31
0.0
0
LINE
8
0
10
1670.734
20
757.0157
30
0.0
11
1659.3276
21
757.0157
31
0.0
0
LINE
8
0
10
1401.2095
20
760.0
30
0.0
11
1390.5844
21
770.62506
31
0.0
0
LINE
8
0
10
1390.5844
20
770.62506
30
0.0
11
1375.9395
21
785.2699
31
0.0
0
LINE
8
0
10
1375.9395
20
785.2699
30
0.0
11
1375.9395
21
802.1091
31
0.0
0
LINE
8
0
10
1375.9395
20
802.1091
30
0.0
11
1364.0336
21
790.2032
31
0.0
0
LINE
8
0
10
1364.0336
20
790.2032
30
0.0
11
1353.4275
21
800.8092
31
0.0
0
LINE
8
0
10
1353.4275
20
800.8092
30
0.0
11
1353.4275
21
814.41296
31
0.0
0
LINE
8
0
10
1761.3855
20
760.0
30
0.0
11
1743.5082
21
742.1227
31
0.0
0
LINE
8
0
10
1743.5082
20
742.1227
30
0.0
11
1726.956
21
725.5705
31
0.0
0
LINE
8
0
10
1726.956
20
725.5705
30
0.0
11
1715.1133
21
737.4132
31
0.0
0
LINE
8
0
10
1715.1133
20
737.4132
30
0.0
11
1702.2905
21
724.5905
31
0.0
0
LINE
8
0
10
1702.2905
20
724.5905
30
0.0
11
1687.4847
21
739.3963
31
0.0
0
LINE
8
0
10
1687.4847
20
739.3963
30
0.0
11
1671.8887
21
754.99243
31
0.0
0
LINE
8
0
10
1423.971
20
760.0
30
0.0
11
1423.971
21
776.59827
31
0.0
0
LINE
8
0
10
1423.971
20
776.59827
30
0.0
11
1405.3528
21
776.59827
31
0.0
0
LINE
8
0
10
1405.3528
20
776.59827
30
0.0
11
1394.209
21
787.74207
31
0.0
0
LINE
8
0
10
1394.209
20
787.74207
30
0.0
11
1394.209
21
804.3047
31
0.0
0
LINE
8
0
10
1394.209
20
804.3047
30
0.0
11
1394.209
21
820.3824
31
0.0
0
LINE
8
0
10
1394.209
20
820.3824
30
0.0
11
1394.209
21
804.73535
31
0.0
0
LINE
8
0
10
1364.1877
20
760.0
30
0.0
11
1346.5521
21
742.3644
31
0.0
0
LINE
8
0
10
1346.5521
20
742.3644
30
0.0
11
1329.5154
21
742.3644
31
0.0
0
LINE
8
0
10
1329.5154
20
742.3644
30
0.0
11
1329.5154
21
757.1906
31
0.0
0
LINE
8
0
10
1329.5154
20
757.1906
30
0.0
11
1317.9784
21
745.65356
31
0.0
0
LINE
8
0
10
1317.9784
20
745.65356
30
0.0
11
1317.9784
21
760.6875
31
0.0
0
LINE
8
0
10
1317.9784
20
760.6875
30
0.0
11
1317.9784
21
778.5918
31
0.0
0
LINE
8
0
10
1282.8245
20
760.0
30
0.0
11
1282.8245
21
773.87427
31
0.0
0
LINE
8
0
10
1282.8245
20
773.87427
30
0.0
11
1282.8245
21
791.1508
31
0.0
0
LINE
8
0
10
1282.8245
20
791.1508
30
0.0
11
1272.3157
21
791.1508
31
0.0
0
LINE
8
0
10
1272.3157
20
791.1508
30
0.0
11
1254.7745
21
773.6097
31
0.0
0
LINE
8
0
10
1254.7745
20
773.6097
30
0.0
11
1254.7745
21
790.92645
31
0.0
0
LINE
8
0
10
1254.7745
20
790.92645
30
0.0
11
1254.7745
21
807.605
31
0.0
0
LINE
8
0
10
1647.4358
20
760.0
30
0.0
11
1647.4358
21
776.00165
31
0.0
0
LINE
8
0
10
1647.4358
20
776.00165
30
0.0
11
1635.0857
21
788.35175
31
0.0
0
LINE
8
0
10
1635.0857
20
788.35175
30
0.0
11
1622.7468
21
800.6906
31
0.0
0
LINE
8
0
10
1622.7468
20
800.6906
30
0.0
11
1603.0459
21
800.6906
31
0.0
0
LINE
8
0
10
1603.0459
20
800.6906
30
0.0
11
1585.6771
21
800.6906
31
0.0
0
LINE
8
0
10
1585.6771
20
800.6906
30
0.0
11
1571.3071
21
800.6906
31
0.0
0
LINE
8
0
10
948.73145
20
760.0
30
0.0
11
960.1143
21
771.3829
31
0.0
0
LINE
8
0
10
960.1143
20
771.3829
30
0.0
11
949.0701
21
782.42706
31
0.0
0
LINE
8
0
10
949.0701
20
782.42706
30
0.0
11
968.79016
21
762.70703
31
0.0
0
LINE
8
0
10
968.79016
20
762.70703
30
0.0
11
968.79016
21
775.02954
31
0.0
0
LINE
8
0
10
968.79016
20
775.02954
30
0.0
11
953.40594
21
790.41376
31
0.0
0
LINE
8
0
10
953.40594
20
790.41376
30
0.0
11
965.5209
21
778.2988
31
0.0
0
LINE
8
0
10
1303.1326
20
760.0
30
0.0
11
1285.3213
21
777.8113
31
0.0
0
LINE
8
0
10
1285.3213
20
777.8113
30
0.0
11
1272.2699
21
777.8113
31
0.0
0
LINE
8
0
10
1272.2699
20
777.8113
30
0.0
11
1260.4973
21
789.58386
31
0.0
0
LINE
8
0
10
1260.4973
20
789.58386
30
0.0
11
1249.931
21
800.1501
31
0.0
0
LINE
8
0
10
1249.931
20
800.1501
30
0.0
11
1234.7738
21
815.3073
31
0.0
0
LINE
8
0
10
1234.7738
20
815.3073
30
0.0
11
1218.5255
21
831.5556
31
0.0
0
LINE
8
0
10
1585.4026
20
760.0
30
0.0
11
1565.6039
21
740.20123
31
0.0
0
LINE
8
0
10
1565.6039
20
740.20123
30
0.0
11
1552.0283
21
726.6257
31
0.0
0
LINE
8
0
10
1552.0283
20
726.6257
30
0.0
11
1539.0887
21
713.6861
31
0.0
0
LINE
8
0
10
1539.0887
20
713.6861
30
0.0
11
1539.0887
21
733.3577
31
0.0
0
LINE
8
0
10
1539.0887
20
733.3577
30
0.0
11
1519.6713
21
752.7752
31
0.0
0
LINE
8
0
10
1519.6713
20
752.7752
30
0.0
11
1502.4637
21
752.7752
31
0.0
0
LINE
8
0
10
1802.7524
20
760.0
30
0.0
11
1791.2303
21
771.5221
31
0.0
0
LINE
8
0
10
1791.2303
20
771.5221
30
0.0
11
1774.4414
21
771.5221
31
0.0
0
LINE
8
0
10
1774.4414
20
771.5221
30
0.0
11
1774.4414
21
786.207
31
0.0
0
LINE
8
0
10
1774.4414
20
786.207
30
0.0
11
1759.8282
21
786.207
31
0.0
0
LINE
8
0
10
1759.8282
20
786.207
30
0.0
11
1740.0925
21
786.207
31
0.0
0
LINE
8
0
10
1740.0925
20
786.207
30
0.0
11
1722.8737
21
768.98816
31
0.0
0
LINE
8
0
10
1458.3424
20
760.0
30
0.0
11
1442.0123
21
760.0
31
0.0
0
LINE
8
0
10
1442.0123
20
760.0
30
0.0
11
1442.0123
21
775.8644
31
0.0
0
LINE
8
0
10
1442.0123
20
775.8644
30
0.0
11
1423.4506
21
775.8644
31
0.0
0
LINE
8
0
10
1423.4506
20
775.8644
30
0.0
11
1404.3689
21
756.7827
31
0.0
0
LINE
8
0
10
1404.3689
20
756.7827
30
0.0
11
1389.4247
21
741.83856
31
0.0
0
LINE
8
0
10
1389.4247
20
741.83856
30
0.0
11
1370.4971
21
760.7661
31
0.0
0
LINE
8
0
10
1547.6628
20
760.0
30
0.0
11
1529.6439
21
778.0189
31
0.0
0
LINE
8
0
10
1529.6439
20
778.0189
30
0.0
11
1516.3125
21
764.68744
31
0.0
0
LINE
8
0
10
1516.3125
20
764.68744
30
0.0
11
1498.5934
21
764.68744
31
0.0
0
LINE
8
0
10
1498.5934
20
764.68744
30
0.0
11
1485.9496
21
777.3312
31
0.0
0
LINE
8
0
10
1485.9496
20
777.3312
30
0.0
11
1485.9496
21
788.50977
31
0.0
0
LINE
8
0
10
1485.9496
20
788.50977
30
0.0
11
1485.9496
21
807.3577
31
0.0
0
LINE
8
0
10
1669.6067
20
760.0
30
0.0
11
1669.6067
21
771.4524
31
0.0
0
LINE
8
0
10
1669.6067
20
771.4524
30
0.0
11
1669.6067
21
787.95483
31
0.0
0
LINE
8
0
10
1669.6067
20
787.95483
30
0.0
11
1656.8396
21
800.7219
31
0.0
0
LINE
8
0
10
1656.8396
20
800.7219
30
0.0
11
1656.8396
21
810.84485
31
0.0
0
LINE
8
0
10
1656.8396
20
810.84485
30
0.0
11
1639.7848
21
827.8997
31
0.0
0
LINE
8
0
10
1639.7848
20
827.8997
30
0.0
11
1621.1193
21
809.23413
31
0.0
0
LINE
8
0
10
1670.2765
20
760.0
30
0.0
11
1650.3037
21
779.9727
31
0.0
0
LINE
8
0
10
1650.3037
20
779.9727
30
0.0
11
1650.3037
21
798.6998
31
0.0
0
LINE
8
0
10
1650.3037
20
798.6998
30
0.0
11
1650.3037
21
813.1383
31
0.0
0
LINE
8
0
10
1650.3037
20
813.1383
30
0.0
11
1650.3037
21
797.47644
31
0.0
0
LINE
8
0
10
1650.3037
20
797.47644
30
0.0
11
1637.7155
21
784.8882
31
0.0
0
LINE
8
0
10
1637.7155
20
784.8882
30
0.0
11
1622.0745
21
769.2472
31
0.0
0
LINE
8
0
10
1889.6709
20
760.0
30
0.0
11
1874.788
21
745.1171
31
0.0
0
LINE
8
0
10
1874.788
20
745.1171
30
0.0
11
1858.6711
21
761.234
31
0.0
0
LINE
8
0
10
1858.6711
20
761.234
30
0.0
11
1858.6711
21
772.67194
31
0.0
0
LINE
8
0
10
1858.6711
20
772.67194
30
0.0
11
1840.5156
21
754.5165
31
0.0
0
LINE
8
0
10
1840.5156
20
754.5165
30
0.0
11
1840.5156
21
771.98083
31
0.0
0
LINE
8
0
10
1840.5156
20
771.98083
30
0.0
11
1828.0366
21
771.98083
31
0.0
0
LINE
8
0
10
1772.4541
20
760.0
30
0.0
11
1759.7603
21
772.6939
31
0.0
0
LINE
8
0
10
1759.7603
20
772.6939
30
0.0
11
1759.7603
21
786.3297
31
0.0
0
LINE
8
0
10
1759.7603
20
786.3297
30
0.0
11
1746.9014
21
799.1886
31
0.0
0
LINE
8
0
10
1746.9014
20
799.1886
30
0.0
11
1728.1918
21
780.47894
31
0.0
0
LINE
8
0
10
1728.1918
20
780.47894
30
0.0
11
1728.1918
21
791.1753
31
0.0
0
LINE
8
0
10
1728.1918
20
791.1753
30
0.0
11
1715.6464
21
803.72064
31
0.0
0
LINE
8
0
10
1819.791
20
760.0
30
0.0
11
1808.8121
21
760.0
31
0.0
0
LINE
8
0
10
1808.8121
20
760.0
30
0.0
11
1790.4196
21
778.39264
31
0.0
0
LINE
8
0
10
1790.4196
20
778.39264
30
0.0
11
1770.7386
21
778.39264
31
0.0
0
LINE
8
0
10
1770.7386
20
778.39264
30
0.0
11
1770.7386
21
794.2631
31
0.0
0
LINE
8
0
10
1770.7386
20
794.2631
30
0.0
11
1754.1628
21
810.8389
31
0.0
0
LINE
8
0
10
1754.1628
20
810.8389
30
0.0
11
1744.1473
21
810.8389
31
0.0
0
LINE
8
0
10
1890.6638
20
760.0
30
0.0
11
1875.6111
21
744.9473
31
0.0
0
LINE
8
0
10
1875.6111
20
744.9473
30
0.0
11
1857.6041
21
744.9473
31
0.0
0
LINE
8
0
10
1857.6041
20
744.9473
30
0.0
11
1839.9899
21
762.5615
31
0.0
0
LINE
8
0
10
1839.9899
20
762.5615
30
0.0
11
1822.1737
21
762.5615
31
0.0
0
LINE
8
0
10
1822.1737
20
762.5615
30
0.0
11
1806.545
21
762.5615
31
0.0
0
LINE
8
0
10
1806.545
20
762.5615
30
0.0
11
1788.9633
21
744.9798
31
0.0
0
LINE
8
0
10
1697.4978
20
760.0
30
0.0
11
1697.4978
21
778.73987
31
0.0
0
LINE
8
0
10
1697.4978
20
778.73987
30
0.0
11
1697.4978
21
790.03577
31
0.0
0
LINE
8
0
10
1697.4978
20
790.03577
30
0.0
11
1683.8359
21
790.03577
31
0.0
0
LINE
8
0
10
1683.8359
20
790.03577
30
0.0
11
1666.721
21
772.9208
31
0.0
0
LINE
8
0
10
1666.721
20
772.9208
30
0.0
11
1650.1074
21
789.53424
31
0.0
0
LINE
8
0
10
1650.1074
20
789.53424
30
0.0
11
1636.519
21
775.94586
31
0.0
0
LINE
8
0
10
1763.3716
20
760.0
30
0.0
11
1751.6584
21
760.0
31
0.0
0
LINE
8
0
10
1751.6584
20
760.0
30
0.0
11
1751.6584
21
774.91406
31
0.0
0
LINE
8
0
10
1751.6584
20
774.91406
30
0.0
11
1751.6584
21
789.4439
31
0.0
0
LINE
8
0
10
1751.6584
20
789.4439
30
0.0
11
1734.8743
21
806.2281
31
0.0
0
LINE
8
0
10
1734.8743
20
806.2281
30
0.0
11
1734.8743
21
786.5661
31
0.0
0
LINE
8
0
10
1734.8743
20
786.5661
30
0.0
11
1718.0005
21
769.69226
31
0.0
0
LINE
8
0
10
1831.6042
20
760.0
30
0.0
11
1831.6042
21
772.2158
31
0.0
0
LINE
8
0
10
1831.6042
20
772.2158
30
0.0
11
1814.2638
21
754.87537
31
0.0
0
LINE
8
0
10
1814.2638
20
754.87537
30
0.0
11
1794.9032
21
754.87537
31
0.0
0
LINE
8
0
10
1794.9032
20
754.87537
30
0.0
11
1778.6896
21
738.6617
31
0.0
0
LINE
8
0
10
1778.6896
20
738.6617
30
0.0
11
1758.899
21
718.8712
31
0.0
0
LINE
8
0
10
1758.899
20
718.8712
30
0.0
11
1744.5471
21
733.2232
31
0.0
0
LINE
8
0
10
1894.3254
20
760.0
30
0.0
11
1876.1268
21
760.0
31
0.0
0
LINE
8
0
10
1876.1268
20
760.0
30
0.0
11
1865.9772
21
770.14966
31
0.0
0
LINE
8
0
10
1865.9772
20
770.14966
30
0.0
11
1865.9772
21
781.39124
31
0.0
0
LINE
8
0
10
1865.9772
20
781.39124
30
0.0
11
1852.9094
21
768.3234
31
0.0
0
LINE
8
0
10
1852.9094
20
768.3234
30
0.0
11
1838.5317
21
753.9457
31
0.0
0
LINE
8
0
10
1838.5317
20
753.9457
30
0.0
11
1824.9235
21
767.55396
31
0.0
0
LINE
8
0
10
1730.7659
20
960.0
30
0.0
11
1720.6079
21
960.0
31
0.0
0
LINE
8
0
10
1720.6079
20
960.0
30
0.0
11
1720.6079
21
978.7816
31
0.0
0
LINE
8
0
10
1720.6079
20
978.7816
30
0.0
11
1720.6079
21
995.024
31
0.0
0
LINE
8
0
10
1720.6079
20
995.024
30
0.0
11
1707.2607
21
995.024
31
0.0
0
LINE
8
0
10
1707.2607
20
995.024
30
0.0
11
1707.2607
21
1010.6855
31
0.0
0
LINE
8
0
10
1707.2607
20
1010.6855
30
0.0
11
1688.4937
21
991.9184
31
0.0
0
LINE
8
0
10
1688.4937
20
991.9184
30
0.0
11
1671.7297
21
975.1545
31
0.0
0
LINE
8
0
10
1872.8184
20
960.0
30
0.0
11
1860.5791
21
947.76074
31
0.0
0
LINE
8
0
10
1860.5791
20
947.76074
30
0.0
11
1847.9563
21
947.76074
31
0.0
0
LINE
8
0
10
1847.9563
20
947.76074
30
0.0
11
1836.3038
21
936.10834
31
0.0
0
LINE
8
0
10
1836.3038
20
936.10834
30
0.0
11
1822.4651
21
949.947
31
0.0
0
LINE
8
0
10
1822.4651
20
949.947
30
0.0
11
1806.5771
21
965.835
31
0.0
0
LINE
8
0
10
1806.5771
20
965.835
30
0.0
11
1789.542
21
948.79987
31
0.0
0
LINE
8
0
10
1789.542
20
948.79987
30
0.0
11
1789.542
21
968.4712
31
0.0
0
LINE
8
0
10
1757.5203
20
960.0
30
0.0
11
1739.2699
21
941.74963
31
0.0
0
LINE
8
0
10
1739.2699
20
941.74963
30
0.0
11
1739.2699
21
955.91266
31
0.0
0
LINE
8
0
10
1739.2699
20
955.91266
30
0.0
11
1728.7665
21
955.91266
31
0.0
0
LINE
8
0
10
1728.7665
20
955.91266
30
0.0
11
1714.6271
21
970.0521
31
0.0
0
LINE
8
0
10
1714.6271
20
970.0521
30
0.0
11
1698.359
21
986.3202
31
0.0
0
LINE
8
0
10
1698.359
20
986.3202
30
0.0
11
1681.7894
21
969.7507
31
0.0
0
LINE
8
0
10
1681.7894
20
969.7507
30
0.0
11
1671.089
21
959.05023
31
0.0
0
LINE
8
0
10
838.02075
20
960.0
30
0.0
11
824.62366
21
973.3971
31
0.0
0
LINE
8
0
10
824.62366
20
973.3971
30
0.0
11
824.62366
21
984.43005
31
0.0
0
LINE
8
0
10
824.62366
20
984.43005
30
0.0
11
813.43915
21
973.24554
31
0.0
0
LINE
8
0
10
813.43915
20
973.24554
30
0.0
11
798.29254
21
973.24554
31
0.0
0
LINE
8
0
10
798.29254
20
973.24554
30
0.0
11
781.7463
21
956.6993
31
0.0
0
LINE
8
0
10
781.7463
20
956.6993
30
0.0
11
769.46655
21
956.6993
31
0.0
0
LINE
8
0
10
769.46655
20
956.6993
30
0.0
11
753.18976
21
972.9761
31
0.0
0
LINE
8
0
10
1245.4011
20
960.0
30
0.0
11
1227.0852
21
941.6841
31
0.0
0
LINE
8
0
10
1227.0852
20
941.6841
30
0.0
11
1210.2578
21
958.5114
31
0.0
0
LINE
8
0
10
1210.2578
20
958.5114
30
0.0
11
1192.487
21
976.2822
31
0.0
0
LINE
8
0
10
1192.487
20
976.2822
30
0.0
11
1192.487
21
991.33655
31
0.0
0
LINE
8
0
10
1192.487
20
991.33655
30
0.0
11
1181.5675
21
991.33655
31
0.0
0
LINE
8
0
10
1181.5675
20
991.33655
30
0.0
11
1162.9137
21
972.68274
31
0.0
0
LINE
8
0
10
1162.9137
20
972.68274
30
0.0
11
1143.566
21
972.68274
31
0.0
0
LINE
8
0
10
1626.3928
20
960.0
30
0.0
11
1626.3928
21
972.8737
31
0.0
0
LINE
8
0
10
1626.3928
20
972.8737
30
0.0
11
1626.3928
21
988.4528
31
0.0
0
LINE
8
0
10
1626.3928
20
988.4528
30
0.0
11
1609.9799
21
1004.86584
31
0.0
0
LINE
8
0
10
1609.9799
20
1004.86584
30
0.0
11
1597.0098
21
1017.8359
31
0.0
0
LINE
8
0
10
1597.0098
20
1017.8359
30
0.0
11
1577.3958
21
1017.8359
31
0.0
0
LINE
8
0
10
1577.3958
20
1017.8359
30
0.0
11
1559.6533
21
1017.8359
31
0.0
0
LINE
8
0
10
1559.6533
20
1017.8359
30
0.0
11
1559.6533
21
999.0113
31
0.0
0
LINE
8
0
10
1089.9625
20
960.0
30
0.0
11
1079.9275
21
970.035
31
0.0
0
LINE
8
0
10
1079.9275
20
970.035
30
0.0
11
1064.22
21
970.035
31
0.0
0
LINE
8
0
10
1064.22
20
970.035
30
0.0
11
1050.7032
21
983.5517
31
0.0
0
LINE
8
0
10
1050.7032
20
983.5517
30
0.0
11
1036.9695
21
997.28546
31
0.0
0
LINE
8
0
10
1036.9695
20
997.28546
30
0.0
11
1036.9695
21
1011.9404
31
0.0
0
LINE
8
0
10
1036.9695
20
1011.9404
30
0.0
11
1036.9695
21
996.30994
31
0.0
0
LINE
8
0
10
1036.9695
20
996.30994
30
0.0
11
1020.00964
21
1013.2698
31
0.0
0
LINE
8
0
10
1620.7339
20
960.0
30
0.0
11
1609.9443
21
949.2104
31
0.0
0
LINE
8
0
10
1609.9443
20
949.2104
30
0.0
11
1596.6477
21
935.9138
31
0.0
0
LINE
8
0
10
1596.6477
20
935.9138
30
0.0
11
1583.0238
21
922.2899
31
0.0
0
LINE
8
0
10
1583.0238
20
922.2899
30
0.0
11
1565.7491
21
939.5646
31
0.0
0
LINE
8
0
10
1565.7491
20
939.5646
30
0.0
11
1565.7491
21
957.5076
31
0.0
0
LINE
8
0
10
1565.7491
20
957.5076
30
0.0
11
1555.0239
21
957.5076
31
0.0
0
LINE
8
0
10
1555.0239
20
957.5076
30
0.0
11
1543.9104
21
968.62115
31
0.0
0
LINE
8
0
10
1318.8596
20
960.0
30
0.0
11
1307.5255
21
948.6659
31
0.0
0
LINE
8
0
10
1307.5255
20
948.6659
30
0.0
11
1307.5255
21
965.98175
31
0.0
0
LINE
8
0
10
1307.5255
20
965.98175
30
0.0
11
1291.1842
21
965.98175
31
0.0
0
LINE
8
0
10
1291.1842
20
965.98175
30
0.0
11
1291.1842
21
984.93164
31
0.0
0
LINE
8
0
10
1291.1842
20
984.93164
30
0.0
11
1291.1842
21
999.2186
31
0.0
0
LINE
8
0
10
1291.1842
20
999.2186
30
0.0
11
1291.1842
21
1015.2253
31
0.0
0
LINE
8
0
10
1291.1842
20
1015.2253
30
0.0
11
1291.1842
21
998.374
31
0.0
0
LINE
8
0
10
1258.9255
20
960.0
30
0.0
11
1244.6763
21
945.75073
31
0.0
0
LINE
8
0
10
1244.6763
20
945.75073
30
0.0
11
1229.5986
21
960.8283
31
0.0
0
LINE
8
0
10
1229.5986
20
960.8283
30
0.0
11
1214.2067
21
945.4363
31
0.0
0
LINE
8
0
10
1214.2067
20
945.4363
30
0.0
11
1214.2067
21
960.1778
31
0.0
0
LINE
8
0
10
1214.2067
20
960.1778
30
0.0
11
1196.6987
21
977.6858
31
0.0
0
LINE
8
0
10
1196.6987
20
977.6858
30
0.0
11
1196.6987
21
990.6414
31
0.0
0
LINE
8
0
10
1196.6987
20
990.6414
30
0.0
11
1181.3079
21
975.2506
31
0.0
0
LINE
8
0
10
1621.469
20
960.0
30
0.0
11
1607.8247
21
960.0
31
0.0
0
LINE
8
0
10
1607.8247
20
960.0
30
0.0
11
1591.3397
21
943.515
31
0.0
0
LINE
8
0
10
1591.3397
20
943.515
30
0.0
11
1591.3397
21
960.9647
31
0.0
0
LINE
8
0
10
1591.3397
20
960.9647
30
0.0
11
1591.3397
21
975.9
31
0.0
0
LINE
8
0
10
1591.3397
20
975.9
30
0.0
11
1571.9791
21
956.5394
31
0.0
0
LINE
8
0
10
1571.9791
20
956.5394
30
0.0
11
1571.9791
21
972.3817
31
0.0
0
LINE
8
0
10
1571.9791
20
972.3817
30
0.0
11
1556.6621
21
987.6987
31
0.0
0
LINE
8
0
10
1295.3152
20
960.0
30
0.0
11
1275.9601
21
960.0
31
0.0
0
LINE
8
0
10
1275.9601
20
960.0
30
0.0
11
1275.9601
21
978.6861
31
0.0
0
LINE
8
0
10
1275.9601
20
978.6861
30
0.0
11
1257.8894
21
978.6861
31
0.0
0
LINE
8
0
10
1257.8894
20
978.6861
30
0.0
11
1257.8894
21
994.9566
31
0.0
0
LINE
8
0
10
1257.8894
20
994.9566
30
0.0
11
1257.8894
21
1011.1021
31
0.0
0
LINE
8
0
10
1257.8894
20
1011.1021
30
0.0
11
1245.8257
21
1023.16583
31
0.0
0
LINE
8
0
10
1245.8257
20
1023.16583
30
0.0
11
1227.8888
21
1023.16583
31
0.0
0
LINE
8
0
10
1499.064
20
960.0
30
0.0
11
1482.8925
21
943.8284
31
0.0
0
LINE
8
0
10
1482.8925
20
943.8284
30
0.0
11
1468.005
21
958.7159
31
0.0
0
LINE
8
0
10
1468.005
20
958.7159
30
0.0
11
1456.4349
21
958.7159
31
0.0
0
LINE
8
0
10
1456.4349
20
958.7159
30
0.0
11
1443.4419
21
945.7229
31
0.0
0
LINE
8
0
10
1443.4419
20
945.7229
30
0.0
11
1433.0707
21
935.3516
31
0.0
0
LINE
8
0
10
1433.0707
20
935.3516
30
0.0
11
1421.8019
21
935.3516
31
0.0
0
LINE
8
0
10
1421.8019
20
935.3516
30
0.0
11
1404.045
21
917.5948
31
0.0
0
LINE
8
0
10
1733.5515
20
960.0
30
0.0
11
1714.0825
21
960.0
31
0.0
0
LINE
8
0
10
1714.0825
20
960.0
30
0.0
11
1700.4731
21
946.3906
31
0.0
0
LINE
8
0
10
1700.4731
20
946.3906
30
0.0
11
1687.2427
21
946.3906
31
0.0
0
LINE
8
0
10
1687.2427
20
946.3906
30
0.0
11
1687.2427
21
956.55396
31
0.0
0
LINE
8
0
10
1687.2427
20
956.55396
30
0.0
11
1676.2421
21
967.55457
31
0.0
0
LINE
8
0
10
1676.2421
20
967.55457
30
0.0
11
1662.7448
21
981.0519
31
0.0
0
LINE
8
0
10
1662.7448
20
981.0519
30
0.0
11
1662.7448
21
991.49005
31
0.0
0
LINE
8
0
10
1582.6804
20
960.0
30
0.0
11
1582.6804
21
975.8218
31
0.0
0
LINE
8
0
10
1582.6804
20
975.8218
30
0.0
11
1567.6924
21
975.8218
31
0.0
0
LINE
8
0
10
1567.6924
20
975.8218
30
0.0
11
1567.6924
21
987.8589
31
0.0
0
LINE
8
0
10
1567.6924
20
987.8589
30
0.0
11
1552.7445
21
1002.8067
31
0.0
0
LINE
8
0
10
1552.7445
20
1002.8067
30
0.0
11
1533.4708
21
1022.0804
31
0.0
0
LINE
8
0
10
1533.4708
20
1022.0804
30
0.0
11
1533.4708
21
1010.452
31
0.0
0
LINE
8
0
10
1533.4708
20
1010.452
30
0.0
11
1518.9716
21
1010.452
31
0.0
0
LINE
8
0
10
1845.3204
20
960.0
30
0.0
11
1845.3204
21
979.26685
31
0.0
0
LINE
8
0
10
1845.3204
20
979.26685
30
0.0
11
1845.3204
21
993.9669
31
0.0
0
LINE
8
0
10
1845.3204
20
993.9669
30
0.0
11
1827.4677
21
993.9669
31
0.0
0
LINE
8
0
10
1827.4677
20
993.9669
30
0.0
11
1815.2037
21
993.9669
31
0.0
0
LINE
8
0
10
1815.2037
20
993.9669
30
0.0
11
1801.3708
21
993.9669
31
0.0
0
LINE
8
0
10
1801.3708
20
993.9669
30
0.0
11
1790.5765
21
1004.7612
31
0.0
0
LINE
8
0
10
1790.5765
20
1004.7612
30
0.0
11
1777.7668
21
1004.7612
31
0.0
0
LINE
8
0
10
1406.3247
20
960.0
30
0.0
11
1394.3386
21
948.01385
31
0.0
0
LINE
8
0
10
1394.3386
20
948.01385
30
0.0
11
1377.6799
21
931.3551
31
0.0
0
LINE
8
0
10
1377.6799
20
931.3551
30
0.0
11
1367.5768
21
931.3551
31
0.0
0
LINE
8
0
10
1367.5768
20
931.3551
30
0.0
11
1367.5768
21
945.3191
31
0.0
0
LINE
8
0
10
1367.5768
20
945.3191
30
0.0
11
1353.3142
21
931.0566
31
0.0
0
LINE
8
0
10
1353.3142
20
931.0566
30
0.0
11
1340.8322
21
943.53864
31
0.0
0
LINE
8
0
10
1340.8322
20
943.53864
30
0.0
11
1325.0865
21
927.793
31
0.0
0
LINE
8
0
10
1724.9692
20
960.0
30
0.0
11
1724.9692
21
975.897
31
0.0
0
LINE
8
0
10
1724.9692
20
975.897
30
0.0
11
1709.6007
21
960.52844
31
0.0
0
LINE
8
0
10
1709.6007
20
960.52844
30
0.0
11
1691.2333
21
978.8958
31
0.0
0
LINE
8
0
10
1691.2333
20
978.8958
30
0.0
11
1674.7437
21
978.8958
31
0.0
0
LINE
8
0
10
1674.7437
20
978.8958
30
0.0
11
1659.0675
21
978.8958
31
0.0
0
LINE
8
0
10
1659.0675
20
978.8958
30
0.0
11
1659.0675
21
998.25055
31
0.0
0
LINE
8
0
10
1659.0675
20
998.25055
30
0.0
11
1659.0675
21
1014.7222
31
0.0
0
LINE
8
0
10
1764.0636
20
960.0
30
0.0
11
1752.1163
21
960.0
31
0.0
0
LINE
8
0
10
1752.1163
20
960.0
30
0.0
11
1738.8446
21
946.72833
31
0.0
0
LINE
8
0
10
1738.8446
20
946.72833
30
0.0
11
1724.716
21
960.857
31
0.0
0
LINE
8
0
10
1724.716
20
960.857
30
0.0
11
1711.6372
21
947.7782
31
0.0
0
LINE
8
0
10
1711.6372
20
947.7782
30
0.0
11
1711.6372
21
961.37524
31
0.0
0
LINE
8
0
10
1711.6372
20
961.37524
30
0.0
11
1692.0668
21
980.9457
31
0.0
0
LINE
8
0
10
1692.0668
20
980.9457
30
0.0
11
1673.5443
21
999.46814
31
0.0
0
LINE
8
0
10
1460.6692
20
960.0
30
0.0
11
1446.4998
21
945.83057
31
0.0
0
LINE
8
0
10
1446.4998
20
945.83057
30
0.0
11
1427.6764
21
964.654
31
0.0
0
LINE
8
0
10
1427.6764
20
964.654
30
0.0
11
1410.4952
21
981.83514
31
0.0
0
LINE
8
0
10
1410.4952
20
981.83514
30
0.0
11
1410.4952
21
993.65393
31
0.0
0
LINE
8
0
10
1410.4952
20
993.65393
30
0.0
11
1410.4952
21
1012.1858
31
0.0
0
LINE
8
0
10
1410.4952
20
1012.1858
30
0.0
11
1397.0977
21
1025.5834
31
0.0
0
LINE
8
0
10
1397.0977
20
1025.5834
30
0.0
11
1384.299
21
1025.5834
31
0.0
0
LINE
8
0
10
1520.2397
20
960.0
30
0.0
11
1509.9948
21
960.0
31
0.0
0
LINE
8
0
10
1509.9948
20
960.0
30
0.0
11
1495.2561
21
945.26135
31
0.0
0
LINE
8
0
10
1495.2561
20
945.26135
30
0.0
11
1475.5387
21
945.26135
31
0.0
0
LINE
8
0
10
1475.5387
20
945.26135
30
0.0
11
1456.2439
21
925.96655
31
0.0
0
LINE
8
0
10
1456.2439
20
925.96655
30
0.0
11
1437.278
21
944.9325
31
0.0
0
LINE
8
0
10
1437.278
20
944.9325
30
0.0
11
1418.7053
21
926.35986
31
0.0
0
LINE
8
0
10
1418.7053
20
926.35986
30
0.0
11
1401.3127
21
926.35986
31
0.0
0
LINE
8
0
10
1787.951
20
960.0
30
0.0
11
1772.318
21
975.63306
31
0.0
0
LINE
8
0
10
1772.318
20
975.63306
30
0.0
11
1772.318
21
994.7154
31
0.0
0
LINE
8
0
10
1772.318
20
994.7154
30
0.0
11
1757.4963
21
1009.53705
31
0.0
0
LINE
8
0
10
1757.4963
20
1009.53705
30
0.0
11
1743.0638
21
1009.53705
31
0.0
0
LINE
8
0
10
1743.0638
20
1009.53705
30
0.0
11
1731.1744
21
997.6476
31
0.0
0
LINE
8
0
10
1731.1744
20
997.6476
30
0.0
11
1718.3741
21
984.8473
31
0.0
0
LINE
8
0
10
1718.3741
20
984.8473
30
0.0
11
1718.3741
21
996.861
31
0.0
0
LINE
8
0
10
1571.5675
20
960.0
30
0.0
11
1571.5675
21
978.2537
31
0.0
0
LINE
8
0
10
1571.5675
20
978.2537
30
0.0
11
1556.2196
21
962.9059
31
0.0
0
LINE
8
0
10
1556.2196
20
962.9059
30
0.0
11
1541.791
21
962.9059
31
0.0
0
LINE
8
0
10
1541.791
20
962.9059
30
0.0
11
1523.3613
21
944.47614
31
0.0
0
LINE
8
0
10
1523.3613
20
944.47614
30
0.0
11
1510.2131
21
944.47614
31
0.0
0
LINE
8
0
10
1510.2131
20
944.47614
30
0.0
11
1510.2131
21
958.5478
31
0.0
0
LINE
8
0
10
1510.2131
20
958.5478
30
0.0
11
1497.7776
21
970.9833
31
0.0
0
LINE
8
0
10
1543.229
20
960.0
30
0.0
11
1531.5328
21
960.0
31
0.0
0
LINE
8
0
10
1531.5328
20
960.0
30
0.0
11
1531.5328
21
978.43365
31
0.0
0
LINE
8
0
10
1531.5328
20
978.43365
30
0.0
11
1513.8336
21
978.43365
31
0.0
0
LINE
8
0
10
1513.8336
20
978.43365
30
0.0
11
1502.8258
21
989.44147
31
0.0
0
LINE
8
0
10
1502.8258
20
989.44147
30
0.0
11
1486.5006
21
973.1163
31
0.0
0
LINE
8
0
10
1486.5006
20
973.1163
30
0.0
11
1467.7997
21
991.81714
31
0.0
0
LINE
8
0
10
1467.7997
20
991.81714
30
0.0
11
1467.7997
21
1009.41895
31
0.0
0
LINE
8
0
10
1622.7686
20
960.0
30
0.0
11
1604.8286
21
942.06006
31
0.0
0
LINE
8
0
10
1604.8286
20
942.06006
30
0.0
11
1593.0101
21
942.06006
31
0.0
0
LINE
8
0
10
1593.0101
20
942.06006
30
0.0
11
1582.1877
21
942.06006
31
0.0
0
LINE
8
0
10
1582.1877
20
942.06006
30
0.0
11
1582.1877
21
956.6839
31
0.0
0
LINE
8
0
10
1582.1877
20
956.6839
30
0.0
11
1565.714
21
973.15765
31
0.0
0
LINE
8
0
10
1565.714
20
973.15765
30
0.0
11
1554.0548
21
984.81683
31
0.0
0
LINE
8
0
10
1554.0548
20
984.81683
30
0.0
11
1554.0548
21
997.45026
31
0.0
0
LINE
8
0
10
1771.2219
20
960.0
30
0.0
11
1771.2219
21
971.81866
31
0.0
0
LINE
8
0
10
1771.2219
20
971.81866
30
0.0
11
1758.2125
21
958.8092
31
0.0
0
LINE
8
0
10
1758.2125
20
958.8092
30
0.0
11
1758.2125
21
976.19226
31
0.0
0
LINE
8
0
10
1758.2125
20
976.19226
30
0.0
11
1758.2125
21
990.30634
31
0.0
0
LINE
8
0
10
1758.2125
20
990.30634
30
0.0
11
1758.2125
21
1008.47974
31
0.0
0
LINE
8
0
10
1758.2125
20
1008.47974
30
0.0
11
1745.0109
21
995.278
31
0.0
0
LINE
8
0
10
1745.0109
20
995.278
30
0.0
11
1729.0992
21
1011.18964
31
0.0
0
LINE
8
0
10
1517.3634
20
960.0
30
0.0
11
1534.1133
21
960.0
31
0.0
0
LINE
8
0
10
1534.1133
20
960.0
30
0.0
11
1550.7952
21
976.68195
31
0.0
0
LINE
8
0
10
1550.7952
20
976.68195
30
0.0
11
1550.7952
21
992.4381
31
0.0
0
LINE
8
0
10
1550.7952
20
992.4381
30
0.0
11
1568.6179
21
974.6153
31
0.0
0
LINE
8
0
10
1568.6179
20
974.6153
30
0.0
11
1550.4468
21
956.44415
31
0.0
0
LINE
8
0
10
1550.4468
20
956.44415
30
0.0
11
1550.4468
21
971.731
31
0.0
0
LINE
8
0
10
1550.4468
20
971.731
30
0.0
11
1550.4468
21
985.67365
31
0.0
0
LINE
8
0
10
1819.4954
20
960.0
30
0.0
11
1805.3633
21
960.0
31
0.0
0
LINE
8
0
10
1805.3633
20
960.0
30
0.0
11
1785.4836
21
979.87964
31
0.0
0
LINE
8
0
10
1785.4836
20
979.87964
30
0.0
11
1773.5303
21
979.87964
31
0.0
0
LINE
8
0
10
1773.5303
20
979.87964
30
0.0
11
1760.5276
21
979.87964
31
0.0
0
LINE
8
0
10
1760.5276
20
979.87964
30
0.0
11
1742.3687
21
979.87964
31
0.0
0
LINE
8
0
10
1742.3687
20
979.87964
30
0.0
11
1727.0256
21
979.87964
31
0.0
0
LINE
8
0
10
1727.0256
20
979.87964
30
0.0
11
1727.0256
21
994.98114
31
0.0
0
LINE
8
0
10
1702.052
20
960.0
30
0.0
11
1718.9974
21
976.94543
31
0.0
0
LINE
8
0
10
1718.9974
20
976.94543
30
0.0
11
1700.8542
21
976.94543
31
0.0
0
LINE
8
0
10
1700.8542
20
976.94543
30
0.0
11
1719.1754
21
995.26654
31
0.0
0
LINE
8
0
10
1719.1754
20
995.26654
30
0.0
11
1719.1754
21
1006.76447
31
0.0
0
LINE
8
0
10
1719.1754
20
1006.76447
30
0.0
11
1707.8956
21
1006.76447
31
0.0
0
LINE
8
0
10
1707.8956
20
1006.76447
30
0.0
11
1696.4933
21
1018.1668
31
0.0
0
LINE
8
0
10
1696.4933
20
1018.1668
30
0.0
11
1714.5385
21
1000.12164
31
0.0
0
LINE
8
0
10
1713.2592
20
960.0
30
0.0
11
1701.8893
21
960.0
31
0.0
0
LINE
8
0
10
1701.8893
20
960.0
30
0.0
11
1719.8718
21
942.01746
31
0.0
0
LINE
8
0
10
1719.8718
20
942.01746
30
0.0
11
1704.8032
21
926.9488
31
0.0
0
LINE
8
0
10
1704.8032
20
926.9488
30
0.0
11
1724.3191
21
946.4647
31
0.0
0
LINE
8
0
10
1724.3191
20
946.4647
30
0.0
11
1714.1606
21
946.4647
31
0.0
0
LINE
8
0
10
1714.1606
20
946.4647
30
0.0
11
1700.7281
21
946.4647
31
0.0
0
LINE
8
0
10
1700.7281
20
946.4647
30
0.0
11
1711.0005
21
936.1923
31
0.0
0
LINE
8
0
10
1436.0312
20
1160.0
30
0.0
11
1422.228
21
1173.8032
31
0.0
0
LINE
8
0
10
1422.228
20
1173.8032
30
0.0
11
1402.4042
21
1173.8032
31
0.0
0
LINE
8
0
10
1402.4042
20
1173.8032
30
0.0
11
1389.1796
21
1187.0278
31
0.0
0
LINE
8
0
10
1389.1796
20
1187.0278
30
0.0
11
1372.5521
21
1170.4004
31
0.0
0
LINE
8
0
10
1372.5521
20
1170.4004
30
0.0
11
1372.5521
21
1187.9381
31
0.0
0
LINE
8
0
10
1372.5521
20
1187.9381
30
0.0
11
1372.5521
21
1200.0331
31
0.0
0
LINE
8
0
10
883.54517
20
1160.0
30
0.0
11
883.54517
21
1178.2063
31
0.0
0
LINE
8
0
10
883.54517
20
1178.2063
30
0.0
11
867.519
21
1162.18
31
0.0
0
LINE
8
0
10
867.519
20
1162.18
30
0.0
11
867.519
21
1181.0259
31
0.0
0
LINE
8
0
10
867.519
20
1181.0259
30
0.0
11
851.45135
21
1197.0935
31
0.0
0
LINE
8
0
10
851.45135
20
1197.0935
30
0.0
11
834.23126
21
1197.0935
31
0.0
0
LINE
8
0
10
834.23126
20
1197.0935
30
0.0
11
821.4567
21
1209.868
31
0.0
0
LINE
8
0
10
1813.4069
20
1160.0
30
0.0
11
1813.4069
21
1170.2343
31
0.0
0
LINE
8
0
10
1813.4069
20
1170.2343
30
0.0
11
1794.5752
21
1151.4026
31
0.0
0
LINE
8
0
10
1794.5752
20
1151.4026
30
0.0
11
1794.5752
21
1167.9663
31
0.0
0
LINE
8
0
10
1794.5752
20
1167.9663
30
0.0
11
1777.5315
21
1150.9226
31
0.0
0
LINE
8
0
10
1777.5315
20
1150.9226
30
0.0
11
1760.1971
21
1150.9226
31
0.0
0
LINE
8
0
10
1760.1971
20
1150.9226
30
0.0
11
1760.1971
21
1166.8712
31
0.0
0
LINE
8
0
10
747.728
20
1160.0
30
0.0
11
735.2367
21
1172.4913
31
0.0
0
LINE
8
0
10
735.2367
20
1172.4913
30
0.0
11
716.7555
21
1154.0101
31
0.0
0
LINE
8
0
10
716.7555
20
1154.0101
30
0.0
11
703.7319
21
1167.0338
31
0.0
0
LINE
8
0
10
703.7319
20
1167.0338
30
0.0
11
689.5693
21
1152.8712
31
0.0
0
LINE
8
0
10
689.5693
20
1152.8712
30
0.0
11
689.5693
21
1164.1155
31
0.0
0
LINE
8
0
10
689.5693
20
1164.1155
30
0.0
11
679.4714
21
1154.0176
31
0.0
0
LINE
8
0
10
1897.746
20
1160.0
30
0.0
11
1878.7854
21
1178.9606
31
0.0
0
LINE
8
0
10
1878.7854
20
1178.9606
30
0.0
11
1866.3433
21
1191.4027
31
0.0
0
LINE
8
0
10
1866.3433
20
1191.4027
30
0.0
11
1848.9441
21
1174.0035
31
0.0
0
LINE
8
0
10
1848.9441
20
1174.0035
30
0.0
11
1830.1403
21
1155.1997
31
0.0
0
LINE
8
0
10
1830.1403
20
1155.1997
30
0.0
11
1814.3806
21
1155.1997
31
0.0
0
LINE
8
0
10
1814.3806
20
1155.1997
30
0.0
11
1794.4775
21
1175.1028
31
0.0
0
LINE
8
0
10
495.9665
20
1160.0
30
0.0
11
515.15967
21
1179.1931
31
0.0
0
LINE
8
0
10
515.15967
20
1179.1931
30
0.0
11
497.44696
21
1179.1931
31
0.0
0
LINE
8
0
10
497.44696
20
1179.1931
30
0.0
11
507.87482
21
1168.7653
31
0.0
0
LINE
8
0
10
507.87482
20
1168.7653
30
0.0
11
493.04166
21
1153.9321
31
0.0
0
LINE
8
0
10
493.04166
20
1153.9321
30
0.0
11
506.78186
21
1140.1919
31
0.0
0
LINE
8
0
10
506.78186
20
1140.1919
30
0.0
11
495.40546
21
1151.5684
31
0.0
0
LINE
8
0
10
794.07416
20
1160.0
30
0.0
11
774.78326
21
1160.0
31
0.0
0
LINE
8
0
10
774.78326
20
1160.0
30
0.0
11
774.78326
21
1175.0764
31
0.0
0
LINE
8
0
10
774.78326
20
1175.0764
30
0.0
11
757.5556
21
1157.8488
31
0.0
0
LINE
8
0
10
757.5556
20
1157.8488
30
0.0
11
740.8367
21
1157.8488
31
0.0
0
LINE
8
0
10
740.8367
20
1157.8488
30
0.0
11
726.8618
21
1143.8739
31
0.0
0
LINE
8
0
10
726.8618
20
1143.8739
30
0.0
11
726.8618
21
1159.7974
31
0.0
0
LINE
8
0
10
647.7667
20
1160.0
30
0.0
11
666.6229
21
1141.1438
31
0.0
0
LINE
8
0
10
666.6229
20
1141.1438
30
0.0
11
649.9575
21
1157.8092
31
0.0
0
LINE
8
0
10
649.9575
20
1157.8092
30
0.0
11
660.62115
21
1157.8092
31
0.0
0
LINE
8
0
10
660.62115
20
1157.8092
30
0.0
11
641.4344
21
1157.8092
31
0.0
0
LINE
8
0
10
641.4344
20
1157.8092
30
0.0
11
641.4344
21
1173.5597
31
0.0
0
LINE
8
0
10
641.4344
20
1173.5597
30
0.0
11
654.9293
21
1173.5597
31
0.0
0
LINE
8
0
10
1400.6211
20
1160.0
30
0.0
11
1384.9103
21
1175.7108
31
0.0
0
LINE
8
0
10
1384.9103
20
1175.7108
30
0.0
11
1384.9103
21
1191.5774
31
0.0
0
LINE
8
0
10
1384.9103
20
1191.5774
30
0.0
11
1372.958
21
1179.6251
31
0.0
0
LINE
8
0
10
1372.958
20
1179.6251
30
0.0
11
1372.958
21
1192.5881
31
0.0
0
LINE
8
0
10
1372.958
20
1192.5881
30
0.0
11
1353.3629
21
1192.5881
31
0.0
0
LINE
8
0
10
1353.3629
20
1192.5881
30
0.0
11
1340.708
21
1179.9332
31
0.0
0
LINE
8
0
10
1185.127
20
1160.0
30
0.0
11
1185.127
21
1173.8287
31
0.0
0
LINE
8
0
10
1185.127
20
1173.8287
30
0.0
11
1172.9697
21
1173.8287
31
0.0
0
LINE
8
0
10
1172.9697
20
1173.8287
30
0.0
11
1152.9775
21
1193.8209
31
0.0
0
LINE
8
0
10
1152.9775
20
1193.8209
30
0.0
11
1136.4154
21
1193.8209
31
0.0
0
LINE
8
0
10
1136.4154
20
1193.8209
30
0.0
11
1136.4154
21
1212.8584
31
0.0
0
LINE
8
0
10
1136.4154
20
1212.8584
30
0.0
11
1136.4154
21
1202.8129
31
0.0
0
LINE
8
0
10
1580.7014
20
1160.0
30
0.0
11
1566.6484
21
1145.947
31
0.0
0
LINE
8
0
10
1566.6484
20
1145.947
30
0.0
11
1566.6484
21
1165.241
31
0.0
0
LINE
8
0
10
1566.6484
20
1165.241
30
0.0
11
1566.6484
21
1184.5441
31
0.0
0
LINE
8
0
10
1566.6484
20
1184.5441
30
0.0
11
1554.1509
21
1172.0465
31
0.0
0
LINE
8
0
10
1554.1509
20
1172.0465
30
0.0
11
1537.1652
21
1155.0608
31
0.0
0
LINE
8
0
10
1537.1652
20
1155.0608
30
0.0
11
1537.1652
21
1172.0127
31
0.0
0
LINE
8
0
10
1314.886
20
1160.0
30
0.0
11
1302.8524
21
1172.0336
31
0.0
0
LINE
8
0
10
1302.8524
20
1172.0336
30
0.0
11
1288.6187
21
1172.0336
31
0.0
0
LINE
8
0
10
1288.6187
20
1172.0336
30
0.0
11
1272.6105
21
1188.0417
31
0.0
0
LINE
8
0
10
1272.6105
20
1188.0417
30
0.0
11
1261.4845
21
1188.0417
31
0.0
0
LINE
8
0
10
1261.4845
20
1188.0417
30
0.0
11
1247.1835
21
1202.3428
31
0.0
0
LINE
8
0
10
1247.1835
20
1202.3428
30
0.0
11
1229.1958
21
1202.3428
31
0.0
0
LINE
8
0
10
1678.0461
20
1160.0
30
0.0
11
1660.1892
21
1160.0
31
0.0
0
LINE
8
0
10
1660.1892
20
1160.0
30
0.0
11
1643.52
21
1176.6692
31
0.0
0
LINE
8
0
10
1643.52
20
1176.6692
30
0.0
11
1643.52
21
1194.1874
31
0.0
0
LINE
8
0
10
1643.52
20
1194.1874
30
0.0
11
1625.0437
21
1212.6637
31
0.0
0
LINE
8
0
10
1625.0437
20
1212.6637
30
0.0
11
1605.3385
21
1192.9585
31
0.0
0
LINE
8
0
10
1605.3385
20
1192.9585
30
0.0
11
1594.0789
21
1192.9585
31
0.0
0
LINE
8
0
10
1465.5244
20
1160.0
30
0.0
11
1445.8042
21
1179.7202
31
0.0
0
LINE
8
0
10
1445.8042
20
1179.7202
30
0.0
11
1435.1152
21
1190.4092
31
0.0
0
LINE
8
0
10
1435.1152
20
1190.4092
30
0.0
11
1435.1152
21
1202.2587
31
0.0
0
LINE
8
0
10
1435.1152
20
1202.2587
30
0.0
11
1421.9366
21
1215.4373
31
0.0
0
LINE
8
0
10
1421.9366
20
1215.4373
30
0.0
11
1421.9366
21
1203.52
31
0.0
0
LINE
8
0
10
1421.9366
20
1203.52
30
0.0
11
1408.5996
21
1203.52
31
0.0
0
LINE
8
0
10
1885.8099
20
1160.0
30
0.0
11
1868.3759
21
1177.4341
31
0.0
0
LINE
8
0
10
1868.3759
20
1177.4341
30
0.0
11
1852.69
21
1193.12
31
0.0
0
LINE
8
0
10
1852.69
20
1193.12
30
0.0
11
1839.5369
21
1179.9669
31
0.0
0
LINE
8
0
10
1839.5369
20
1179.9669
30
0.0
11
1824.2732
21
1179.9669
31
0.0
0
LINE
8
0
10
1824.2732
20
1179.9669
30
0.0
11
1813.5769
21
1190.6632
31
0.0
0
LINE
8
0
10
1813.5769
20
1190.6632
30
0.0
11
1803.4136
21
1190.6632
31
0.0
0
LINE
8
0
10
1192.8263
20
1160.0
30
0.0
11
1175.6901
21
1177.1362
31
0.0
0
LINE
8
0
10
1175.6901
20
1177.1362
30
0.0
11
1157.377
21
1177.1362
31
0.0
0
LINE
8
0
10
1157.377
20
1177.1362
30
0.0
11
1140.3535
21
1194.1597
31
0.0
0
LINE
8
0
10
1140.3535
20
1194.1597
30
0.0
11
1123.5684
21
1210.9448
31
0.0
0
LINE
8
0
10
1123.5684
20
1210.9448
30
0.0
11
1110.4666
21
1224.0466
31
0.0
0
LINE
8
0
10
1110.4666
20
1224.0466
30
0.0
11
1096.3992
21
1224.0466
31
0.0
0
LINE
8
0
10
1717.1421
20
1160.0
30
0.0
11
1717.1421
21
1172.7327
31
0.0
0
LINE
8
0
10
1717.1421
20
1172.7327
30
0.0
11
1698.4524
21
1154.043
31
0.0
0
LINE
8
0
10
1698.4524
20
1154.043
30
0.0
11
1698.4524
21
1167.5762
31
0.0
0
LINE
8
0
10
1698.4524
20
1167.5762
30
0.0
11
1682.9812
21
1152.105
31
0.0
0
LINE
8
0
10
1682.9812
20
1152.105
30
0.0
11
1665.251
21
1152.105
31
0.0
0
LINE
8
0
10
1665.251
20
1152.105
30
0.0
11
1648.9974
21
1135.8514
31
0.0
0
LINE
8
0
10
1520.5698
20
1160.0
30
0.0
11
1520.5698
21
1170.1344
31
0.0
0
LINE
8
0
10
1520.5698
20
1170.1344
30
0.0
11
1506.2709
21
1155.8354
31
0.0
0
LINE
8
0
10
1506.2709
20
1155.8354
30
0.0
11
1489.5844
21
1155.8354
31
0.0
0
LINE
8
0
10
1489.5844
20
1155.8354
30
0.0
11
1470.497
21
1155.8354
31
0.0
0
LINE
8
0
10
1470.497
20
1155.8354
30
0.0
11
1458.0599
21
1143.3984
31
0.0
0
LINE
8
0
10
1458.0599
20
1143.3984
30
0.0
11
1446.3031
21
1155.1553
31
0.0
0
LINE
8
0
10
1449.6023
20
1160.0
30
0.0
11
1435.6454
21
1146.0431
31
0.0
0
LINE
8
0
10
1435.6454
20
1146.0431
30
0.0
11
1435.6454
21
1157.5608
31
0.0
0
LINE
8
0
10
1435.6454
20
1157.5608
30
0.0
11
1417.5834
21
1157.5608
31
0.0
0
LINE
8
0
10
1417.5834
20
1157.5608
30
0.0
11
1401.3901
21
1157.5608
31
0.0
0
LINE
8
0
10
1401.3901
20
1157.5608
30
0.0
11
1387.417
21
1157.5608
31
0.0
0
LINE
8
0
10
1387.417
20
1157.5608
30
0.0
11
1371.0675
21
1141.2113
31
0.0
0
LINE
8
0
10
1425.5002
20
1160.0
30
0.0
11
1425.5002
21
1174.6451
31
0.0
0
LINE
8
0
10
1425.5002
20
1174.6451
30
0.0
11
1425.5002
21
1186.1199
31
0.0
0
LINE
8
0
10
1425.5002
20
1186.1199
30
0.0
11
1413.1617
21
1173.7814
31
0.0
0
LINE
8
0
10
1413.1617
20
1173.7814
30
0.0
11
1395.5881
21
1191.355
31
0.0
0
LINE
8
0
10
1395.5881
20
1191.355
30
0.0
11
1377.8412
21
1173.608
31
0.0
0
LINE
8
0
10
1377.8412
20
1173.608
30
0.0
11
1377.8412
21
1183.6497
31
0.0
0
LINE
8
0
10
1549.8619
20
1160.0
30
0.0
11
1539.2994
21
1149.4375
31
0.0
0
LINE
8
0
10
1539.2994
20
1149.4375
30
0.0
11
1520.7412
21
1167.9957
31
0.0
0
LINE
8
0
10
1520.7412
20
1167.9957
30
0.0
11
1502.8835
21
1150.1381
31
0.0
0
LINE
8
0
10
1502.8835
20
1150.1381
30
0.0
11
1491.5358
21
1138.7903
31
0.0
0
LINE
8
0
10
1491.5358
20
1138.7903
30
0.0
11
1478.3799
21
1125.6344
31
0.0
0
LINE
8
0
10
1478.3799
20
1125.6344
30
0.0
11
1467.7659
21
1125.6344
31
0.0
0
LINE
8
0
10
1445.9504
20
1160.0
30
0.0
11
1434.3812
21
1171.5692
31
0.0
0
LINE
8
0
10
1434.3812
20
1171.5692
30
0.0
11
1434.3812
21
1187.3396
31
0.0
0
LINE
8
0
10
1434.3812
20
1187.3396
30
0.0
11
1434.3812
21
1201.0242
31
0.0
0
LINE
8
0
10
1434.3812
20
1201.0242
30
0.0
11
1415.0345
21
1181.6775
31
0.0
0
LINE
8
0
10
1415.0345
20
1181.6775
30
0.0
11
1415.0345
21
1201.0563
31
0.0
0
LINE
8
0
10
1415.0345
20
1201.0563
30
0.0
11
1415.0345
21
1211.9412
31
0.0
0
LINE
8
0
10
1847.8029
20
1160.0
30
0.0
11
1847.8029
21
1178.7168
31
0.0
0
LINE
8
0
10
1847.8029
20
1178.7168
30
0.0
11
1836.7021
21
1167.6161
31
0.0
0
LINE
8
0
10
1836.7021
20
1167.6161
30
0.0
11
1818.6058
21
1149.5198
31
0.0
0
LINE
8
0
10
1818.6058
20
1149.5198
30
0.0
11
1808.2178
21
1159.9078
31
0.0
0
LINE
8
0
10
1808.2178
20
1159.9078
30
0.0
11
1796.0479
21
1147.7379
31
0.0
0
LINE
8
0
10
1796.0479
20
1147.7379
30
0.0
11
1785.5337
21
1158.2521
31
0.0
0
LINE
8
0
10
1863.5101
20
1160.0
30
0.0
11
1852.2526
21
1171.2576
31
0.0
0
LINE
8
0
10
1852.2526
20
1171.2576
30
0.0
11
1852.2526
21
1182.7803
31
0.0
0
LINE
8
0
10
1852.2526
20
1182.7803
30
0.0
11
1832.3906
21
1162.9185
31
0.0
0
LINE
8
0
10
1832.3906
20
1162.9185
30
0.0
11
1815.2753
21
1145.8031
31
0.0
0
LINE
8
0
10
1815.2753
20
1145.8031
30
0.0
11
1815.2753
21
1156.402
31
0.0
0
LINE
8
0
10
1815.2753
20
1156.402
30
0.0
11
1803.2826
21
1168.3947
31
0.0
0
LINE
8
0
10
1543.8357
20
1160.0
30
0.0
11
1554.355
21
1160.0
31
0.0
0
LINE
8
0
10
1554.355
20
1160.0
30
0.0
11
1554.355
21
1176.9281
31
0.0
0
LINE
8
0
10
1554.355
20
1176.9281
30
0.0
11
1554.355
21
1195.0468
31
0.0
0
LINE
8
0
10
1554.355
20
1195.0468
30
0.0
11
1572.0388
21
1195.0468
31
0.0
0
LINE
8
0
10
1572.0388
20
1195.0468
30
0.0
11
1561.1682
21
1184.1761
31
0.0
0
LINE
8
0
10
1561.1682
20
1184.1761
30
0.0
11
1544.6018
21
1167.6097
31
0.0
0
LINE
8
0
10
1609.4268
20
1160.0
30
0.0
11
1597.2577
21
1147.8309
31
0.0
0
LINE
8
0
10
1597.2577
20
1147.8309
30
0.0
11
1597.2577
21
1161.978
31
0.0
0
LINE
8
0
10
1597.2577
20
1161.978
30
0.0
11
1583.2051
21
1161.978
31
0.0
0
LINE
8
0
10
1583.2051
20
1161.978
30
0.0
11
1568.552
21
1147.325
31
0.0
0
LINE
8
0
10
1568.552
20
1147.325
30
0.0
11
1553.2194
21
1162.6576
31
0.0
0
LINE
8
0
10
1553.2194
20
1162.6576
30
0.0
11
1553.2194
21
1180.6036
31
0.0
0
LINE
8
0
10
1857.1136
20
1160.0
30
0.0
11
1842.0732
21
1175.0404
31
0.0
0
LINE
8
0
10
1842.0732
20
1175.0404
30
0.0
11
1830.3627
21
1186.751
31
0.0
0
LINE
8
0
10
1830.3627
20
1186.751
30
0.0
11
1830.3627
21
1201.1378
31
0.0
0
LINE
8
0
10
1830.3627
20
1201.1378
30
0.0
11
1815.8251
21
1201.1378
31
0.0
0
LINE
8
0
10
1815.8251
20
1201.1378
30
0.0
11
1805.8077
21
1191.1205
31
0.0
0
LINE
8
0
10
1805.8077
20
1191.1205
30
0.0
11
1786.6624
21
1171.9751
31
0.0
0
LINE
8
0
10
1866.2584
20
1160.0
30
0.0
11
1850.2333
21
1176.0251
31
0.0
0
LINE
8
0
10
1850.2333
20
1176.0251
30
0.0
11
1835.3129
21
1161.1047
31
0.0
0
LINE
8
0
10
1835.3129
20
1161.1047
30
0.0
11
1835.3129
21
1179.2538
31
0.0
0
LINE
8
0
10
1835.3129
20
1179.2538
30
0.0
11
1835.3129
21
1198.72
31
0.0
0
LINE
8
0
10
1835.3129
20
1198.72
30
0.0
11
1817.5105
21
1180.9176
31
0.0
0
LINE
8
0
10
1817.5105
20
1180.9176
30
0.0
11
1802.2064
21
1180.9176
31
0.0
0
LINE
8
0
10
1706.3514
20
1160.0
30
0.0
11
1706.3514
21
1179.0929
31
0.0
0
LINE
8
0
10
1706.3514
20
1179.0929
30
0.0
11
1686.6979
21
1198.7465
31
0.0
0
LINE
8
0
10
1686.6979
20
1198.7465
30
0.0
11
1697.9349
21
1209.9835
31
0.0
0
LINE
8
0
10
1697.9349
20
1209.9835
30
0.0
11
1697.9349
21
1199.7644
31
0.0
0
LINE
8
0
10
1697.9349
20
1199.7644
30
0.0
11
1709.3369
21
1199.7644
31
0.0
0
LINE
8
0
10
1709.3369
20
1199.7644
30
0.0
11
1691.9156
21
1199.7644
31
0.0
0
LINE
8
0
10
1693.4877
20
1160.0
30
0.0
11
1693.4877
21
1176.876
31
0.0
0
LINE
8
0
10
1693.4877
20
1176.876
30
0.0
11
1712.5729
21
1195.9612
31
0.0
0
LINE
8
0
10
1712.5729
20
1195.9612
30
0.0
11
1697.7777
21
1195.9612
31
0.0
0
LINE
8
0
10
1697.7777
20
1195.9612
30
0.0
11
1709.4989
21
1184.24
31
0.0
0
LINE
8
0
10
1709.4989
20
1184.24
30
0.0
11
1696.5682
21
1184.24
31
0.0
0
LINE
8
0
10
1696.5682
20
1184.24
30
0.0
11
1709.238
21
1171.5702
31
0.0
0
LINE
8
0
10
1269.2289
20
1360.0
30
0.0
11
1250.873
21
1360.0
31
0.0
0
LINE
8
0
10
1250.873
20
1360.0
30
0.0
11
1250.873
21
1374.924
31
0.0
0
LINE
8
0
10
1250.873
20
1374.924
30
0.0
11
1239.2202
21
1386.5768
31
0.0
0
LINE
8
0
10
1239.2202
20
1386.5768
30
0.0
11
1224.6404
21
1386.5768
31
0.0
0
LINE
8
0
10
1224.6404
20
1386.5768
30
0.0
11
1224.6404
21
1401.4
31
0.0
0
LINE
8
0
10
1539.5421
20
1360.0
30
0.0
11
1522.5956
21
1376.9465
31
0.0
0
LINE
8
0
10
1522.5956
20
1376.9465
30
0.0
11
1503.0326
21
1396.5095
31
0.0
0
LINE
8
0
10
1503.0326
20
1396.5095
30
0.0
11
1492.6704
21
1396.5095
31
0.0
0
LINE
8
0
10
1492.6704
20
1396.5095
30
0.0
11
1473.5548
21
1377.3939
31
0.0
0
LINE
8
0
10
1473.5548
20
1377.3939
30
0.0
11
1457.0621
21
1360.9012
31
0.0
0
LINE
8
0
10
1562.3123
20
1360.0
30
0.0
11
1546.3728
21
1360.0
31
0.0
0
LINE
8
0
10
1546.3728
20
1360.0
30
0.0
11
1528.9387
21
1377.4341
31
0.0
0
LINE
8
0
10
1528.9387
20
1377.4341
30
0.0
11
1516.8939
21
1365.3893
31
0.0
0
LINE
8
0
10
1516.8939
20
1365.3893
30
0.0
11
1496.976
21
1365.3893
31
0.0
0
LINE
8
0
10
1496.976
20
1365.3893
30
0.0
11
1480.7806
21
1349.194
31
0.0
0
LINE
8
0
10
1571.316
20
1360.0
30
0.0
11
1571.316
21
1375.5261
31
0.0
0
LINE
8
0
10
1571.316
20
1375.5261
30
0.0
11
1571.316
21
1387.0563
31
0.0
0
LINE
8
0
10
1571.316
20
1387.0563
30
0.0
11
1560.5233
21
1397.849
31
0.0
0
LINE
8
0
10
1560.5233
20
1397.849
30
0.0
11
1547.0844
21
1397.849
31
0.0
0
LINE
8
0
10
1547.0844
20
1397.849
30
0.0
11
1547.0844
21
1411.7664
31
0.0
0
LINE
8
0
10
1098.0466
20
1360.0
30
0.0
11
1098.0466
21
1379.8593
31
0.0
0
LINE
8
0
10
1098.0466
20
1379.8593
30
0.0
11
1078.7303
21
1360.543
31
0.0
0
LINE
8
0
10
1078.7303
20
1360.543
30
0.0
11
1062.8732
21
1376.4001
31
0.0
0
LINE
8
0
10
1062.8732
20
1376.4001
30
0.0
11
1062.8732
21
1393.4207
31
0.0
0
LINE
8
0
10
1062.8732
20
1393.4207
30
0.0
11
1045.7142
21
1410.5796
31
0.0
0
LINE
8
0
10
503.05035
20
1360.0
30
0.0
11
503.05035
21
1375.9874
31
0.0
0
LINE
8
0
10
503.05035
20
1375.9874
30
0.0
11
518.7939
21
1375.9874
31
0.0
0
LINE
8
0
10
518.7939
20
1375.9874
30
0.0
11
518.7939
21
1389.1373
31
0.0
0
LINE
8
0
10
518.7939
20
1389.1373
30
0.0
11
507.95947
21
1378.3029
31
0.0
0
LINE
8
0
10
507.95947
20
1378.3029
30
0.0
11
488.51227
21
1397.75
31
0.0
0
LINE
8
0
10
1541.7461
20
1360.0
30
0.0
11
1523.6107
21
1378.1354
31
0.0
0
LINE
8
0
10
1523.6107
20
1378.1354
30
0.0
11
1523.6107
21
1392.8848
31
0.0
0
LINE
8
0
10
1523.6107
20
1392.8848
30
0.0
11
1509.3859
21
1407.1096
31
0.0
0
LINE
8
0
10
1509.3859
20
1407.1096
30
0.0
11
1492.9586
21
1390.6824
31
0.0
0
LINE
8
0
10
1492.9586
20
1390.6824
30
0.0
11
1475.1837
21
1390.6824
31
0.0
0
LINE
8
0
10
1872.7524
20
1360.0
30
0.0
11
1856.3068
21
1343.5543
31
0.0
0
LINE
8
0
10
1856.3068
20
1343.5543
30
0.0
11
1837.9917
21
1325.2393
31
0.0
0
LINE
8
0
10
1837.9917
20
1325.2393
30
0.0
11
1820.4955
21
1307.743
31
0.0
0
LINE
8
0
10
1820.4955
20
1307.743
30
0.0
11
1801.8856
21
1289.1332
31
0.0
0
LINE
8
0
10
1801.8856
20
1289.1332
30
0.0
11
1788.5283
21
1289.1332
31
0.0
0
LINE
8
0
10
1574.0767
20
1360.0
30
0.0
11
1563.3076
21
1370.769
31
0.0
0
LINE
8
0
10
1563.3076
20
1370.769
30
0.0
11
1553.047
21
1360.5084
31
0.0
0
LINE
8
0
10
1553.047
20
1360.5084
30
0.0
11
1539.4213
21
1374.1342
31
0.0
0
LINE
8
0
10
1539.4213
20
1374.1342
30
0.0
11
1525.7909
21
1374.1342
31
0.0
0
LINE
8
0
10
1525.7909
20
1374.1342
30
0.0
11
1512.7356
21
1374.1342
31
0.0
0
LINE
8
0
10
1789.7931
20
1360.0
30
0.0
11
1789.7931
21
1377.1422
31
0.0
0
LINE
8
0
10
1789.7931
20
1377.1422
30
0.0
11
1770.6765
21
1377.1422
31
0.0
0
LINE
8
0
10
1770.6765
20
1377.1422
30
0.0
11
1755.9847
21
1362.4504
31
0.0
0
LINE
8
0
10
1755.9847
20
1362.4504
30
0.0
11
1743.5204
21
1362.4504
31
0.0
0
LINE
8
0
10
1743.5204
20
1362.4504
30
0.0
11
1730.1284
21
1362.4504
31
0.0
0
LINE
8
0
10
1771.2421
20
1360.0
30
0.0
11
1771.2421
21
1379.7626
31
0.0
0
LINE
8
0
10
1771.2421
20
1379.7626
30
0.0
11
1756.1047
21
1364.6252
31
0.0
0
LINE
8
0
10
1756.1047
20
1364.6252
30
0.0
11
1742.4711
21
1350.9916
31
0.0
0
LINE
8
0
10
1742.4711
20
1350.9916
30
0.0
11
1732.2594
21
1361.2032
31
0.0
0
LINE
8
0
10
1732.2594
20
1361.2032
30
0.0
11
1732.2594
21
1380.3864
31
0.0
0
LINE
8
0
10
1213.7197
20
1360.0
30
0.0
11
1198.052
21
1375.6677
31
0.0
0
LINE
8
0
10
1198.052
20
1375.6677
30
0.0
11
1198.052
21
1393.1344
31
0.0
0
LINE
8
0
10
1198.052
20
1393.1344
30
0.0
11
1179.8047
21
1393.1344
31
0.0
0
LINE
8
0
10
1179.8047
20
1393.1344
30
0.0
11
1161.8579
21
1375.1876
31
0.0
0
LINE
8
0
10
1161.8579
20
1375.1876
30
0.0
11
1161.8579
21
1390.1565
31
0.0
0
LINE
8
0
10
1874.9518
20
1360.0
30
0.0
11
1856.6737
21
1360.0
31
0.0
0
LINE
8
0
10
1856.6737
20
1360.0
30
0.0
11
1837.2793
21
1340.6056
31
0.0
0
LINE
8
0
10
1837.2793
20
1340.6056
30
0.0
11
1837.2793
21
1357.5865
31
0.0
0
LINE
8
0
10
1837.2793
20
1357.5865
30
0.0
11
1837.2793
21
1373.5593
31
0.0
0
LINE
8
0
10
1837.2793
20
1373.5593
30
0.0
11
1818.8378
21
1373.5593
31
0.0
0
LINE
8
0
10
1829.5967
20
1360.0
30
0.0
11
1815.5381
21
1345.9414
31
0.0
0
LINE
8
0
10
1815.5381
20
1345.9414
30
0.0
11
1797.1013
21
1345.9414
31
0.0
0
LINE
8
0
10
1797.1013
20
1345.9414
30
0.0
11
1786.3754
21
1345.9414
31
0.0
0
LINE
8
0
10
1786.3754
20
1345.9414
30
0.0
11
1770.7692
21
1330.3352
31
0.0
0
LINE
8
0
10
1770.7692
20
1330.3352
30
0.0
11
1770.7692
21
1344.1641
31
0.0
0
LINE
8
0
10
1586.8223
20
1360.0
30
0.0
11
1586.8223
21
1376.4336
31
0.0
0
LINE
8
0
10
1586.8223
20
1376.4336
30
0.0
11
1574.1014
21
1363.7128
31
0.0
0
LINE
8
0
10
1574.1014
20
1363.7128
30
0.0
11
1563.5177
21
1374.2965
31
0.0
0
LINE
8
0
10
1563.5177
20
1374.2965
30
0.0
11
1550.2354
21
1361.0142
31
0.0
0
LINE
8
0
10
1550.2354
20
1361.0142
30
0.0
11
1533.4258
21
1344.2046
31
0.0
0
LINE
8
0
10
1439.1069
20
1360.0
30
0.0
11
1421.6086
21
1342.5017
31
0.0
0
LINE
8
0
10
1421.6086
20
1342.5017
30
0.0
11
1406.942
21
1357.1683
31
0.0
0
LINE
8
0
10
1406.942
20
1357.1683
30
0.0
11
1388.6512
21
1338.8776
31
0.0
0
LINE
8
0
10
1388.6512
20
1338.8776
30
0.0
11
1388.6512
21
1351.4303
31
0.0
0
LINE
8
0
10
1388.6512
20
1351.4303
30
0.0
11
1371.1711
21
1368.9104
31
0.0
0
LINE
8
0
10
1438.2656
20
1360.0
30
0.0
11
1419.0133
21
1340.7477
31
0.0
0
LINE
8
0
10
1419.0133
20
1340.7477
30
0.0
11
1403.2582
21
1324.9926
31
0.0
0
LINE
8
0
10
1403.2582
20
1324.9926
30
0.0
11
1403.2582
21
1335.8756
31
0.0
0
LINE
8
0
10
1403.2582
20
1335.8756
30
0.0
11
1393.0487
21
1335.8756
31
0.0
0
LINE
8
0
10
1393.0487
20
1335.8756
30
0.0
11
1377.5936
21
1351.3307
31
0.0
0
LINE
8
0
10
1503.0769
20
1360.0
30
0.0
11
1489.9741
21
1373.1028
31
0.0
0
LINE
8
0
10
1489.9741
20
1373.1028
30
0.0
11
1470.8602
21
1373.1028
31
0.0
0
LINE
8
0
10
1470.8602
20
1373.1028
30
0.0
11
1470.8602
21
1385.5992
31
0.0
0
LINE
8
0
10
1470.8602
20
1385.5992
30
0.0
11
1470.8602
21
1397.4258
31
0.0
0
LINE
8
0
10
1470.8602
20
1397.4258
30
0.0
11
1470.8602
21
1412.5343
31
0.0
0
LINE
8
0
10
1676.7795
20
1360.0
30
0.0
11
1664.9486
21
1348.1691
31
0.0
0
LINE
8
0
10
1664.9486
20
1348.1691
30
0.0
11
1664.9486
21
1361.7089
31
0.0
0
LINE
8
0
10
1664.9486
20
1361.7089
30
0.0
11
1651.0205
21
1361.7089
31
0.0
0
LINE
8
0
10
1651.0205
20
1361.7089
30
0.0
11
1651.0205
21
1377.48
31
0.0
0
LINE
8
0
10
1651.0205
20
1377.48
30
0.0
11
1638.9818
21
1389.5187
31
0.0
0
LINE
8
0
10
1730.8654
20
1360.0
30
0.0
11
1716.8738
21
1346.0084
31
0.0
0
LINE
8
0
10
1716.8738
20
1346.0084
30
0.0
11
1699.151
21
1346.0084
31
0.0
0
LINE
8
0
10
1699.151
20
1346.0084
30
0.0
11
1699.151
21
1363.07
31
0.0
0
LINE
8
0
10
1699.151
20
1363.07
30
0.0
11
1681.7123
21
1345.6312
31
0.0
0
LINE
8
0
10
1681.7123
20
1345.6312
30
0.0
11
1681.7123
21
1356.2133
31
0.0
0
LINE
8
0
10
1468.9801
20
1360.0
30
0.0
11
1449.2734
21
1360.0
31
0.0
0
LINE
8
0
10
1449.2734
20
1360.0
30
0.0
11
1435.2878
21
1373.9856
31
0.0
0
LINE
8
0
10
1435.2878
20
1373.9856
30
0.0
11
1418.0336
21
1391.2399
31
0.0
0
LINE
8
0
10
1418.0336
20
1391.2399
30
0.0
11
1400.2808
21
1391.2399
31
0.0
0
LINE
8
0
10
1400.2808
20
1391.2399
30
0.0
11
1400.2808
21
1408.4856
31
0.0
0
LINE
8
0
10
1496.3953
20
1360.0
30
0.0
11
1483.929
21
1360.0
31
0.0
0
LINE
8
0
10
1483.929
20
1360.0
30
0.0
11
1471.2107
21
1372.7183
31
0.0
0
LINE
8
0
10
1471.2107
20
1372.7183
30
0.0
11
1460.7357
21
1383.1932
31
0.0
0
LINE
8
0
10
1460.7357
20
1383.1932
30
0.0
11
1460.7357
21
1401.6992
31
0.0
0
LINE
8
0
10
1460.7357
20
1401.6992
30
0.0
11
1449.5254
21
1401.6992
31
0.0
0
LINE
8
0
10
1388.7454
20
1360.0
30
0.0
11
1404.2406
21
1375.4952
31
0.0
0
LINE
8
0
10
1404.2406
20
1375.4952
30
0.0
11
1404.2406
21
1386.1263
31
0.0
0
LINE
8
0
10
1404.2406
20
1386.1263
30
0.0
11
1421.2408
21
1369.1261
31
0.0
0
LINE
8
0
10
1421.2408
20
1369.1261
30
0.0
11
1407.8079
21
1355.6931
31
0.0
0
LINE
8
0
10
1407.8079
20
1355.6931
30
0.0
11
1388.3733
21
1355.6931
31
0.0
0
LINE
8
0
10
1836.5919
20
1360.0
30
0.0
11
1821.4735
21
1344.8816
31
0.0
0
LINE
8
0
10
1821.4735
20
1344.8816
30
0.0
11
1803.3777
21
1344.8816
31
0.0
0
LINE
8
0
10
1803.3777
20
1344.8816
30
0.0
11
1788.4276
21
1329.9315
31
0.0
0
LINE
8
0
10
1788.4276
20
1329.9315
30
0.0
11
1788.4276
21
1342.3148
31
0.0
0
LINE
8
0
10
1788.4276
20
1342.3148
30
0.0
11
1788.4276
21
1353.6873
31
0.0
0
LINE
8
0
10
1527.9076
20
1360.0
30
0.0
11
1545.2805
21
1377.3729
31
0.0
0
LINE
8
0
10
1545.2805
20
1377.3729
30
0.0
11
1561.6047
21
1393.6971
31
0.0
0
LINE
8
0
10
1561.6047
20
1393.6971
30
0.0
11
1544.6162
21
1393.6971
31
0.0
0
LINE
8
0
10
1544.6162
20
1393.6971
30
0.0
11
1559.8623
21
1378.451
31
0.0
0
LINE
8
0
10
1559.8623
20
1378.451
30
0.0
11
1543.5591
21
1378.451
31
0.0
0
LINE
8
0
10
1633.7319
20
1360.0
30
0.0
11
1633.7319
21
1377.7812
31
0.0
0
LINE
8
0
10
1633.7319
20
1377.7812
30
0.0
11
1633.7319
21
1387.8698
31
0.0
0
LINE
8
0
10
1633.7319
20
1387.8698
30
0.0
11
1614.5889
21
1387.8698
31
0.0
0
LINE
8
0
10
1614.5889
20
1387.8698
30
0.0
11
1601.3951
21
1374.676
31
0.0
0
LINE
8
0
10
1601.3951
20
1374.676
30
0.0
11
1588.0667
21
1361.3475
31
0.0
0
LINE
8
0
10
1678.4486
20
1360.0
30
0.0
11
1661.1489
21
1342.7003
31
0.0
0
LINE
8
0
10
1661.1489
20
1342.7003
30
0.0
11
1647.3225
21
1356.5267
31
0.0
0
LINE
8
0
10
1647.3225
20
1356.5267
30
0.0
11
1628.4148
21
1337.6191
31
0.0
0
LINE
8
0
10
1628.4148
20
1337.6191
30
0.0
11
1615.2422
21
1350.7917
31
0.0
0
LINE
8
0
10
1615.2422
20
1350.7917
30
0.0
11
1597.1578
21
1350.7917
31
0.0
0
LINE
8
0
10
1718.9464
20
1360.0
30
0.0
11
1707.2166
21
1360.0
31
0.0
0
LINE
8
0
10
1707.2166
20
1360.0
30
0.0
11
1695.8066
21
1371.4099
31
0.0
0
LINE
8
0
10
1695.8066
20
1371.4099
30
0.0
11
1713.6604
21
1353.5562
31
0.0
0
LINE
8
0
10
1713.6604
20
1353.5562
30
0.0
11
1700.2136
21
1367.0029
31
0.0
0
LINE
8
0
10
1700.2136
20
1367.0029
30
0.0
11
1713.503
21
1353.7135
31
0.0
0
LINE
8
0
10
1898.8599
20
1360.0
30
0.0
11
1879.6705
21
1379.1893
31
0.0
0
LINE
8
0
10
1879.6705
20
1379.1893
30
0.0
11
1864.538
21
1379.1893
31
0.0
0
LINE
8
0
10
1864.538
20
1379.1893
30
0.0
11
1845.1229
21
1398.6044
31
0.0
0
LINE
8
0
10
1845.1229
20
1398.6044
30
0.0
11
1829.5225
21
1383.0039
31
0.0
0
LINE
8
0
10
1829.5225
20
1383.0039
30
0.0
11
1829.5225
21
1394.3448
31
0.0
0
LINE
8
0
10
1721.0793
20
1360.0
30
0.0
11
1709.4111
21
1360.0
31
0.0
0
LINE
8
0
10
1709.4111
20
1360.0
30
0.0
11
1695.4304
21
1373.9807
31
0.0
0
LINE
8
0
10
1695.4304
20
1373.9807
30
0.0
11
1695.4304
21
1389.9451
31
0.0
0
LINE
8
0
10
1695.4304
20
1389.9451
30
0.0
11
1710.031
21
1389.9451
31
0.0
0
LINE
8
0
10
1710.031
20
1389.9451
30
0.0
11
1697.9631
21
1389.9451
31
0.0
0
LINE
8
0
10
849.16693
20
1560.0
30
0.0
11
849.16693
21
1578.468
31
0.0
0
LINE
8
0
10
849.16693
20
1578.468
30
0.0
11
833.81384
21
1578.468
31
0.0
0
LINE
8
0
10
833.81384
20
1578.468
30
0.0
11
816.9816
21
1561.6357
31
0.0
0
LINE
8
0
10
816.9816
20
1561.6357
30
0.0
11
798.3996
21
1543.0537
31
0.0
0
LINE
8
0
10
398.4923
20
1560.0
30
0.0
11
398.4923
21
1578.779
31
0.0
0
LINE
8
0
10
398.4923
20
1578.779
30
0.0
11
398.4923
21
1591.5348
31
0.0
0
LINE
8
0
10
398.4923
20
1591.5348
30
0.0
11
378.5734
21
1611.4537
31
0.0
0
LINE
8
0
10
378.5734
20
1611.4537
30
0.0
11
366.06067
21
1611.4537
31
0.0
0
LINE
8
0
10
1115.2969
20
1560.0
30
0.0
11
1098.2853
21
1542.9884
31
0.0
0
LINE
8
0
10
1098.2853
20
1542.9884
30
0.0
11
1098.2853
21
1553.3989
31
0.0
0
LINE
8
0
10
1098.2853
20
1553.3989
30
0.0
11
1098.2853
21
1565.3378
31
0.0
0
LINE
8
0
10
1098.2853
20
1565.3378
30
0.0
11
1098.2853
21
1579.9154
31
0.0
0
LINE
8
0
10
1250.8457
20
1560.0
30
0.0
11
1237.4796
21
1560.0
31
0.0
0
LINE
8
0
10
1237.4796
20
1560.0
30
0.0
11
1219.2477
21
1560.0
31
0.0
0
LINE
8
0
10
1219.2477
20
1560.0
30
0.0
11
1206.8732
21
1547.6255
31
0.0
0
LINE
8
0
10
1206.8732
20
1547.6255
30
0.0
11
1206.8732
21
1561.6493
31
0.0
0
LINE
8
0
10
624.2935
20
1560.0
30
0.0
11
624.2935
21
1570.4037
31
0.0
0
LINE
8
0
10
624.2935
20
1570.4037
30
0.0
11
606.91785
21
1553.0281
31
0.0
0
LINE
8
0
10
606.91785
20
1553.0281
30
0.0
11
589.46124
21
1553.0281
31
0.0
0
LINE
8
0
10
589.46124
20
1553.0281
30
0.0
11
577.9218
21
1541.4886
31
0.0
0
LINE
8
0
10
1454.6755
20
1560.0
30
0.0
11
1454.6755
21
1576.9193
31
0.0
0
LINE
8
0
10
1454.6755
20
1576.9193
30
0.0
11
1442.4401
21
1576.9193
31
0.0
0
LINE
8
0
10
1442.4401
20
1576.9193
30
0.0
11
1442.4401
21
1588.0913
31
0.0
0
LINE
8
0
10
1442.4401
20
1588.0913
30
0.0
11
1428.9211
21
1588.0913
31
0.0
0
LINE
8
0
10
1717.3215
20
1560.0
30
0.0
11
1704.6625
21
1572.659
31
0.0
0
LINE
8
0
10
1704.6625
20
1572.659
30
0.0
11
1691.0188
21
1586.3027
31
0.0
0
LINE
8
0
10
1691.0188
20
1586.3027
30
0.0
11
1691.0188
21
1597.6691
31
0.0
0
LINE
8
0
10
1691.0188
20
1597.6691
30
0.0
11
1691.0188
21
1611.1012
31
0.0
0
LINE
8
0
10
1645.4003
20
1560.0
30
0.0
11
1645.4003
21
1573.8704
31
0.0
0
LINE
8
0
10
1645.4003
20
1573.8704
30
0.0
11
1634.9696
21
1563.4397
31
0.0
0
LINE
8
0
10
1634.9696
20
1563.4397
30
0.0
11
1618.8276
21
1563.4397
31
0.0
0
LINE
8
0
10
1618.8276
20
1563.4397
30
0.0
11
1607.4185
21
1574.8489
31
0.0
0
LINE
8
0
10
632.8623
20
1560.0
30
0.0
11
649.742
21
1560.0
31
0.0
0
LINE
8
0
10
649.742
20
1560.0
30
0.0
11
669.70465
21
1560.0
31
0.0
0
LINE
8
0
10
669.70465
20
1560.0
30
0.0
11
651.9882
21
1577.7164
31
0.0
0
LINE
8
0
10
651.9882
20
1577.7164
30
0.0
11
651.9882
21
1596.6974
31
0.0
0
LINE
8
0
10
1727.103
20
1560.0
30
0.0
11
1709.1097
21
1560.0
31
0.0
0
LINE
8
0
10
1709.1097
20
1560.0
30
0.0
11
1709.1097
21
1574.2444
31
0.0
0
LINE
8
0
10
1709.1097
20
1574.2444
30
0.0
11
1693.7229
21
1574.2444
31
0.0
0
LINE
8
0
10
1693.7229
20
1574.2444
30
0.0
11
1682.7462
21
1574.2444
31
0.0
0
LINE
8
0
10
815.6611
20
1560.0
30
0.0
11
815.6611
21
1579.4229
31
0.0
0
LINE
8
0
10
815.6611
20
1579.4229
30
0.0
11
803.3351
21
1579.4229
31
0.0
0
LINE
8
0
10
803.3351
20
1579.4229
30
0.0
11
822.6713
21
1579.4229
31
0.0
0
LINE
8
0
10
822.6713
20
1579.4229
30
0.0
11
806.04333
21
1579.4229
31
0.0
0
LINE
8
0
10
1465.1589
20
1560.0
30
0.0
11
1447.8701
21
1542.7112
31
0.0
0
LINE
8
0
10
1447.8701
20
1542.7112
30
0.0
11
1429.2719
21
1524.1129
31
0.0
0
LINE
8
0
10
1429.2719
20
1524.1129
30
0.0
11
1411.1595
21
1506.0006
31
0.0
0
LINE
8
0
10
1411.1595
20
1506.0006
30
0.0
11
1411.1595
21
1520.8676
31
0.0
0
LINE
8
0
10
1005.54236
20
1560.0
30
0.0
11
1005.54236
21
1570.0127
31
0.0
0
LINE
8
0
10
1005.54236
20
1570.0127
30
0.0
11
991.39386
21
1555.8643
31
0.0
0
LINE
8
0
10
991.39386
20
1555.8643
30
0.0
11
973.2893
21
1555.8643
31
0.0
0
LINE
8
0
10
973.2893
20
1555.8643
30
0.0
11
973.2893
21
1566.0917
31
0.0
0
LINE
8
0
10
1368.1802
20
1560.0
30
0.0
11
1353.0103
21
1544.8301
31
0.0
0
LINE
8
0
10
1353.0103
20
1544.8301
30
0.0
11
1336.6499
21
1544.8301
31
0.0
0
LINE
8
0
10
1336.6499
20
1544.8301
30
0.0
11
1324.912
21
1544.8301
31
0.0
0
LINE
8
0
10
1324.912
20
1544.8301
30
0.0
11
1324.912
21
1561.5479
31
0.0
0
LINE
8
0
10
1008.4712
20
1560.0
30
0.0
11
1008.4712
21
1572.5221
31
0.0
0
LINE
8
0
10
1008.4712
20
1572.5221
30
0.0
11
993.6321
21
1557.683
31
0.0
0
LINE
8
0
10
993.6321
20
1557.683
30
0.0
11
993.6321
21
1574.1716
31
0.0
0
LINE
8
0
10
993.6321
20
1574.1716
30
0.0
11
980.27563
21
1574.1716
31
0.0
0
LINE
8
0
10
1116.3584
20
1560.0
30
0.0
11
1100.811
21
1560.0
31
0.0
0
LINE
8
0
10
1100.811
20
1560.0
30
0.0
11
1117.7012
21
1543.1099
31
0.0
0
LINE
8
0
10
1117.7012
20
1543.1099
30
0.0
11
1105.5658
21
1555.2452
31
0.0
0
LINE
8
0
10
1105.5658
20
1555.2452
30
0.0
11
1105.5658
21
1566.9388
31
0.0
0
LINE
8
0
10
1122.9838
20
1560.0
30
0.0
11
1104.4688
21
1560.0
31
0.0
0
LINE
8
0
10
1104.4688
20
1560.0
30
0.0
11
1120.5724
21
1543.8964
31
0.0
0
LINE
8
0
10
1120.5724
20
1543.8964
30
0.0
11
1120.5724
21
1558.3224
31
0.0
0
LINE
8
0
10
1120.5724
20
1558.3224
30
0.0
11
1109.937
21
1558.3224
31
0.0
0
LINE
8
0
10
1327.0613
20
1560.0
30
0.0
11
1310.8715
21
1543.8102
31
0.0
0
LINE
8
0
10
1310.8715
20
1543.8102
30
0.0
11
1310.8715
21
1556.3335
31
0.0
0
LINE
8
0
10
1310.8715
20
1556.3335
30
0.0
11
1293.8607
21
1573.3442
31
0.0
0
LINE
8
0
10
1293.8607
20
1573.3442
30
0.0
11
1293.8607
21
1587.7758
31
0.0
0
LINE
8
0
10
1699.4224
20
1560.0
30
0.0
11
1681.1552
21
1541.7328
31
0.0
0
LINE
8
0
10
1681.1552
20
1541.7328
30
0.0
11
1664.0634
21
1558.8246
31
0.0
0
LINE
8
0
10
1664.0634
20
1558.8246
30
0.0
11
1664.0634
21
1573.5248
31
0.0
0
LINE
8
0
10
1664.0634
20
1573.5248
30
0.0
11
1647.8528
21
1573.5248
31
0.0
0
LINE
8
0
10
1333.5712
20
1560.0
30
0.0
11
1319.0763
21
1560.0
31
0.0
0
LINE
8
0
10
1319.0763
20
1560.0
30
0.0
11
1319.0763
21
1570.0625
31
0.0
0
LINE
8
0
10
1319.0763
20
1570.0625
30
0.0
11
1319.0763
21
1588.493
31
0.0
0
LINE
8
0
10
1319.0763
20
1588.493
30
0.0
11
1302.8856
21
1604.6837
31
0.0
0
LINE
8
0
10
1823.4297
20
1560.0
30
0.0
11
1809.6515
21
1560.0
31
0.0
0
LINE
8
0
10
1809.6515
20
1560.0
30
0.0
11
1797.4978
21
1572.1537
31
0.0
0
LINE
8
0
10
1797.4978
20
1572.1537
30
0.0
11
1780.171
21
1554.8269
31
0.0
0
LINE
8
0
10
1780.171
20
1554.8269
30
0.0
11
1762.0773
21
1572.9207
31
0.0
0
LINE
8
0
10
1888.9414
20
1560.0
30
0.0
11
1877.418
21
1571.5234
31
0.0
0
LINE
8
0
10
1877.418
20
1571.5234
30
0.0
11
1862.7412
21
1571.5234
31
0.0
0
LINE
8
0
10
1862.7412
20
1571.5234
30
0.0
11
1850.3761
21
1583.8885
31
0.0
0
LINE
8
0
10
1850.3761
20
1583.8885
30
0.0
11
1837.9873
21
1571.4998
31
0.0
0
LINE
8
0
10
1411.9591
20
1560.0
30
0.0
11
1394.4369
21
1542.4778
31
0.0
0
LINE
8
0
10
1394.4369
20
1542.4778
30
0.0
11
1406.0192
21
1530.8955
31
0.0
0
LINE
8
0
10
1406.0192
20
1530.8955
30
0.0
11
1389.4237
21
1547.491
31
0.0
0
LINE
8
0
10
1389.4237
20
1547.491
30
0.0
11
1402.7139
21
1547.491
31
0.0
0
LINE
8
0
10
1667.0635
20
1560.0
30
0.0
11
1647.2423
21
1560.0
31
0.0
0
LINE
8
0
10
1647.2423
20
1560.0
30
0.0
11
1636.1686
21
1571.0737
31
0.0
0
LINE
8
0
10
1636.1686
20
1571.0737
30
0.0
11
1620.9812
21
1571.0737
31
0.0
0
LINE
8
0
10
1620.9812
20
1571.0737
30
0.0
11
1609.456
21
1559.5486
31
0.0
0
LINE
8
0
10
1899.0669
20
1560.0
30
0.0
11
1888.9056
21
1560.0
31
0.0
0
LINE
8
0
10
1888.9056
20
1560.0
30
0.0
11
1875.1226
21
1546.2169
31
0.0
0
LINE
8
0
10
1875.1226
20
1546.2169
30
0.0
11
1855.21
21
1546.2169
31
0.0
0
LINE
8
0
10
1855.21
20
1546.2169
30
0.0
11
1835.6285
21
1526.6355
31
0.0
0
LINE
8
0
10
1537.2963
20
1560.0
30
0.0
11
1549.582
21
1547.7142
31
0.0
0
LINE
8
0
10
1549.582
20
1547.7142
30
0.0
11
1566.327
21
1530.9692
31
0.0
0
LINE
8
0
10
1566.327
20
1530.9692
30
0.0
11
1550.072
21
1547.2242
31
0.0
0
LINE
8
0
10
1550.072
20
1547.2242
30
0.0
11
1565.4774
21
1531.8188
31
0.0
0
LINE
8
0
10
1541.0471
20
1560.0
30
0.0
11
1560.9033
21
1579.8562
31
0.0
0
LINE
8
0
10
1560.9033
20
1579.8562
30
0.0
11
1547.9257
21
1566.8785
31
0.0
0
LINE
8
0
10
1547.9257
20
1566.8785
30
0.0
11
1558.3463
21
1556.4579
31
0.0
0
LINE
8
0
10
1558.3463
20
1556.4579
30
0.0
11
1541.6881
21
1539.7997
31
0.0
0
LINE
8
0
10
1694.2067
20
1560.0
30
0.0
11
1709.212
21
1544.9946
31
0.0
0
LINE
8
0
10
1709.212
20
1544.9946
30
0.0
11
1691.586
21
1544.9946
31
0.0
0
LINE
8
0
10
1691.586
20
1544.9946
30
0.0
11
1706.6884
21
1529.8923
31
0.0
0
LINE
8
0
10
1706.6884
20
1529.8923
30
0.0
11
1688.7615
21
1547.8192
31
0.0
0
LINE
8
0
10
1696.3336
20
1560.0
30
0.0
11
1696.3336
21
1571.2997
31
0.0
0
LINE
8
0
10
1696.3336
20
1571.2997
30
0.0
11
1696.3336
21
1584.9816
31
0.0
0
LINE
8
0
10
1696.3336
20
1584.9816
30
0.0
11
1713.0349
21
1584.9816
31
0.0
0
LINE
8
0
10
1713.0349
20
1584.9816
30
0.0
11
1700.4346
21
1584.9816
31
0.0
0
LINE
8
0
10
1821.5376
20
1560.0
30
0.0
11
1809.6842
21
1560.0
31
0.0
0
LINE
8
0
10
1809.6842
20
1560.0
30
0.0
11
1809.6842
21
1576.1627
31
0.0
0
LINE
8
0
10
1809.6842
20
1576.1627
30
0.0
11
1795.6672
21
1576.1627
31
0.0
0
LINE
8
0
10
1795.6672
20
1576.1627
30
0.0
11
1781.0693
21
1590.7606
31
0.0
0
LINE
8
0
10
1546.9155
20
1760.0
30
0.0
11
1527.2014
21
1760.0
31
0.0
0
LINE
8
0
10
1527.2014
20
1760.0
30
0.0
11
1527.2014
21
1778.5065
31
0.0
0
LINE
8
0
10
1527.2014
20
1778.5065
30
0.0
11
1510.1609
21
1778.5065
31
0.0
0
LINE
8
0
10
772.3186
20
1760.0
30
0.0
11
772.3186
21
1776.1353
31
0.0
0
LINE
8
0
10
772.3186
20
1776.1353
30
0.0
11
772.3186
21
1791.6329
31
0.0
0
LINE
8
0
10
772.3186
20
1791.6329
30
0.0
11
760.7542
21
1791.6329
31
0.0
0
LINE
8
0
10
1635.9337
20
1760.0
30
0.0
11
1635.9337
21
1770.1095
31
0.0
0
LINE
8
0
10
1635.9337
20
1770.1095
30
0.0
11
1623.4896
21
1757.6654
31
0.0
0
LINE
8
0
10
1623.4896
20
1757.6654
30
0.0
11
1606.8987
21
1757.6654
31
0.0
0
LINE
8
0
10
1251.8547
20
1760.0
30
0.0
11
1251.8547
21
1778.6498
31
0.0
0
LINE
8
0
10
1251.8547
20
1778.6498
30
0.0
11
1237.1125
21
1778.6498
31
0.0
0
LINE
8
0
10
1237.1125
20
1778.6498
30
0.0
11
1221.2242
21
1778.6498
31
0.0
0
LINE
8
0
10
694.5779
20
1760.0
30
0.0
11
694.5779
21
1775.0935
31
0.0
0
LINE
8
0
10
694.5779
20
1775.0935
30
0.0
11
681.10846
21
1775.0935
31
0.0
0
LINE
8
0
10
681.10846
20
1775.0935
30
0.0
11
669.4298
21
1763.4148
31
0.0
0
LINE
8
0
10
968.65326
20
1760.0
30
0.0
11
948.9201
21
1760.0
31
0.0
0
LINE
8
0
10
948.9201
20
1760.0
30
0.0
11
948.9201
21
1774.0394
31
0.0
0
LINE
8
0
10
948.9201
20
1774.0394
30
0.0
11
937.5345
21
1762.6538
31
0.0
0
LINE
8
0
10
1867.9845
20
1760.0
30
0.0
11
1857.9459
21
1770.0386
31
0.0
0
LINE
8
0
10
1857.9459
20
1770.0386
30
0.0
11
1857.9459
21
1780.9432
31
0.0
0
LINE
8
0
10
1857.9459
20
1780.9432
30
0.0
11
1837.9965
21
1800.8927
31
0.0
0
LINE
8
0
10
1742.7207
20
1760.0
30
0.0
11
1742.7207
21
1777.3489
31
0.0
0
LINE
8
0
10
1742.7207
20
1777.3489
30
0.0
11
1742.7207
21
1789.1627
31
0.0
0
LINE
8
0
10
1742.7207
20
1789.1627
30
0.0
11
1731.9703
21
1778.4124
31
0.0
0
LINE
8
0
10
825.5291
20
1760.0
30
0.0
11
807.6433
21
1777.8859
31
0.0
0
LINE
8
0
10
807.6433
20
1777.8859
30
0.0
11
789.86835
21
1795.6609
31
0.0
0
LINE
8
0
10
789.86835
20
1795.6609
30
0.0
11
789.86835
21
1806.5654
31
0.0
0
LINE
8
0
10
1850.3156
20
1760.0
30
0.0
11
1832.9478
21
1742.6322
31
0.0
0
LINE
8
0
10
1832.9478
20
1742.6322
30
0.0
11
1832.9478
21
1753.2555
31
0.0
0
LINE
8
0
10
1832.9478
20
1753.2555
30
0.0
11
1818.7379
21
1767.4653
31
0.0
0
LINE
8
0
10
1741.718
20
1760.0
30
0.0
11
1724.0066
21
1777.7114
31
0.0
0
LINE
8
0
10
1724.0066
20
1777.7114
30
0.0
11
1711.094
21
1764.7988
31
0.0
0
LINE
8
0
10
1711.094
20
1764.7988
30
0.0
11
1697.4355
21
1751.1404
31
0.0
0
LINE
8
0
10
1542.3059
20
1760.0
30
0.0
11
1530.5543
21
1760.0
31
0.0
0
LINE
8
0
10
1530.5543
20
1760.0
30
0.0
11
1530.5543
21
1771.283
31
0.0
0
LINE
8
0
10
1530.5543
20
1771.283
30
0.0
11
1530.5543
21
1787.2109
31
0.0
0
LINE
8
0
10
1861.166
20
1760.0
30
0.0
11
1861.166
21
1775.967
31
0.0
0
LINE
8
0
10
1861.166
20
1775.967
30
0.0
11
1847.7435
21
1775.967
31
0.0
0
LINE
8
0
10
1847.7435
20
1775.967
30
0.0
11
1834.7974
21
1788.9132
31
0.0
0
LINE
8
0
10
1546.9597
20
1760.0
30
0.0
11
1533.6556
21
1773.3041
31
0.0
0
LINE
8
0
10
1533.6556
20
1773.3041
30
0.0
11
1522.556
21
1773.3041
31
0.0
0
LINE
8
0
10
1522.556
20
1773.3041
30
0.0
11
1508.625
21
1787.2351
31
0.0
0
LINE
8
0
10
1583.6326
20
1760.0
30
0.0
11
1569.2721
21
1760.0
31
0.0
0
LINE
8
0
10
1569.2721
20
1760.0
30
0.0
11
1554.2511
21
1775.021
31
0.0
0
LINE
8
0
10
1554.2511
20
1775.021
30
0.0
11
1537.7172
21
1775.021
31
0.0
0
LINE
8
0
10
1848.0625
20
1760.0
30
0.0
11
1837.375
21
1760.0
31
0.0
0
LINE
8
0
10
1837.375
20
1760.0
30
0.0
11
1823.4619
21
1746.0869
31
0.0
0
LINE
8
0
10
1823.4619
20
1746.0869
30
0.0
11
1805.6628
21
1746.0869
31
0.0
0
LINE
8
0
10
1334.9688
20
1760.0
30
0.0
11
1321.1494
21
1773.8193
31
0.0
0
LINE
8
0
10
1321.1494
20
1773.8193
30
0.0
11
1321.1494
21
1790.8994
31
0.0
0
LINE
8
0
10
1321.1494
20
1790.8994
30
0.0
11
1321.1494
21
1807.6104
31
0.0
0
LINE
8
0
10
1859.9917
20
1760.0
30
0.0
11
1841.6672
21
1741.6755
31
0.0
0
LINE
8
0
10
1841.6672
20
1741.6755
30
0.0
11
1841.6672
21
1760.2529
31
0.0
0
LINE
8
0
10
1841.6672
20
1760.2529
30
0.0
11
1829.349
21
1772.5712
31
0.0
0
LINE
8
0
10
1333.6152
20
1760.0
30
0.0
11
1333.6152
21
1772.0087
31
0.0
0
LINE
8
0
10
1333.6152
20
1772.0087
30
0.0
11
1320.2004
21
1772.0087
31
0.0
0
LINE
8
0
10
1320.2004
20
1772.0087
30
0.0
11
1306.1212
21
1786.0879
31
0.0
0
LINE
8
0
10
1828.2212
20
1760.0
30
0.0
11
1815.6652
21
1772.556
31
0.0
0
LINE
8
0
10
1815.6652
20
1772.556
30
0.0
11
1796.931
21
1772.556
31
0.0
0
LINE
8
0
10
1796.931
20
1772.556
30
0.0
11
1778.0992
21
1753.7242
31
0.0
0
LINE
8
0
10
1759.4492
20
1760.0
30
0.0
11
1759.4492
21
1777.3627
31
0.0
0
LINE
8
0
10
1759.4492
20
1777.3627
30
0.0
11
1748.4177
21
1766.3312
31
0.0
0
LINE
8
0
10
1748.4177
20
1766.3312
30
0.0
11
1748.4177
21
1779.3643
31
0.0
0
LINE
8
0
10
1544.2933
20
1760.0
30
0.0
11
1529.6371
21
1760.0
31
0.0
0
LINE
8
0
10
1529.6371
20
1760.0
30
0.0
11
1516.8387
21
1747.2017
31
0.0
0
LINE
8
0
10
1516.8387
20
1747.2017
30
0.0
11
1516.8387
21
1759.8041
31
0.0
0
LINE
8
0
10
1551.1172
20
1760.0
30
0.0
11
1537.4966
21
1760.0
31
0.0
0
LINE
8
0
10
1537.4966
20
1760.0
30
0.0
11
1524.5872
21
1772.9094
31
0.0
0
LINE
8
0
10
1524.5872
20
1772.9094
30
0.0
11
1524.5872
21
1785.4163
31
0.0
0
LINE
8
0
10
1871.2842
20
1760.0
30
0.0
11
1857.1311
21
1774.1531
31
0.0
0
LINE
8
0
10
1857.1311
20
1774.1531
30
0.0
11
1841.093
21
1774.1531
31
0.0
0
LINE
8
0
10
1841.093
20
1774.1531
30
0.0
11
1824.0485
21
1774.1531
31
0.0
0
LINE
8
0
10
1853.8738
20
1760.0
30
0.0
11
1853.8738
21
1777.9529
31
0.0
0
LINE
8
0
10
1853.8738
20
1777.9529
30
0.0
11
1843.6025
21
1767.6816
31
0.0
0
LINE
8
0
10
1843.6025
20
1767.6816
30
0.0
11
1831.9937
21
1767.6816
31
0.0
0
LINE
8
0
10
1539.7882
20
1760.0
30
0.0
11
1539.7882
21
1770.0461
31
0.0
0
LINE
8
0
10
1539.7882
20
1770.0461
30
0.0
11
1550.3103
21
1759.524
31
0.0
0
LINE
8
0
10
1550.3103
20
1759.524
30
0.0
11
1566.5168
21
1775.7306
31
0.0
0
LINE
8
0
10
1804.4951
20
1760.0
30
0.0
11
1784.9712
21
1779.5239
31
0.0
0
LINE
8
0
10
1784.9712
20
1779.5239
30
0.0
11
1773.4034
21
1779.5239
31
0.0
0
LINE
8
0
10
1773.4034
20
1779.5239
30
0.0
11
1753.6299
21
1759.7504
31
0.0
0
LINE
8
0
10
1899.708
20
1760.0
30
0.0
11
1885.4962
21
1760.0
31
0.0
0
LINE
8
0
10
1885.4962
20
1760.0
30
0.0
11
1873.7051
21
1748.2089
31
0.0
0
LINE
8
0
10
1873.7051
20
1748.2089
30
0.0
11
1859.5231
21
1734.0269
31
0.0
0
LINE
8
0
10
1690.9805
20
1760.0
30
0.0
11
1709.4669
21
1760.0
31
0.0
0
LINE
8
0
10
1709.4669
20
1760.0
30
0.0
11
1695.4084
21
1760.0
31
0.0
0
LINE
8
0
10
1695.4084
20
1760.0
30
0.0
11
1695.4084
21
1774.5314
31
0.0
0
LINE
8
0
10
1872.1558
20
1760.0
30
0.0
11
1872.1558
21
1773.4371
31
0.0
0
LINE
8
0
10
1872.1558
20
1773.4371
30
0.0
11
1853.6498
21
1754.9312
31
0.0
0
LINE
8
0
10
1853.6498
20
1754.9312
30
0.0
11
1836.0586
21
1772.5223
31
0.0
0
ENDSEC
0
EOF
