0
SECTION
2
ENTITIES
0
3DFACE
8
0
10
310.0
20
360.0
30
0.0
11
306.0
21
367.0
31
0.0
12
314.0
22
367.0
32
0.0
13
314.0001
23
367.0001
33
1.0E-4
0
LINE
8
0
10
310.0
20
360.0
30
0.0
11
331.50345
21
360.0
31
0.0
0
LINE
8
0
10
331.50345
20
360.0
30
0.0
11
368.22382
21
396.72037
31
0.0
0
LINE
8
0
10
368.22382
20
396.72037
30
0.0
11
329.97128
21
434.9729
31
0.0
0
LINE
8
0
10
329.97128
20
434.9729
30
0.0
11
369.05792
21
474.0595
31
0.0
0
3DFACE
8
0
10
345.59048
20
450.59207
30
0.0
11
341.59048
21
457.59207
31
0.0
12
349.59048
22
457.59207
32
0.0
13
349.59058
23
457.59216
33
1.0E-4
0
3DFACE
8
0
10
310.0
20
360.0
30
0.0
11
306.0
21
367.0
31
0.0
12
314.0
22
367.0
32
0.0
13
314.0001
23
367.0001
33
1.0E-4
0
LINE
8
0
10
310.0
20
360.0
30
0.0
11
346.40796
21
360.0
31
0.0
0
LINE
8
0
10
346.40796
20
360.0
30
0.0
11
346.40796
21
394.68903
31
0.0
0
LINE
8
0
10
346.40796
20
394.68903
30
0.0
11
367.32535
21
415.6064
31
0.0
0
LINE
8
0
10
367.32535
20
415.6064
30
0.0
11
367.32535
21
383.30792
31
0.0
0
3DFACE
8
0
10
345.8222
20
361.80478
30
0.0
11
341.8222
21
368.80478
31
0.0
12
349.8222
22
368.80478
32
0.0
13
349.8223
23
368.80487
33
1.0E-4
0
3DFACE
8
0
10
310.0
20
360.0
30
0.0
11
306.0
21
367.0
31
0.0
12
314.0
22
367.0
32
0.0
13
314.0001
23
367.0001
33
1.0E-4
0
LINE
8
0
10
310.0
20
360.0
30
0.0
11
345.88754
21
395.88754
31
0.0
0
LINE
8
0
10
345.88754
20
395.88754
30
0.0
11
382.5095
21
359.2656
31
0.0
0
LINE
8
0
10
382.5095
20
359.2656
30
0.0
11
382.5095
21
391.98236
31
0.0
0
LINE
8
0
10
382.5095
20
391.98236
30
0.0
11
357.52017
21
416.97168
31
0.0
0
3DFACE
8
0
10
319.7134
20
454.77844
30
0.0
11
315.7134
21
461.77844
31
0.0
12
323.7134
22
461.77844
32
0.0
13
323.7135
23
461.77853
33
1.0E-4
0
3DFACE
8
0
10
460.0
20
360.0
30
0.0
11
456.0
21
367.0
31
0.0
12
464.0
22
367.0
32
0.0
13
464.0001
23
367.0001
33
1.0E-4
0
LINE
8
0
10
460.0
20
360.0
30
0.0
11
489.20163
21
330.79837
31
0.0
0
LINE
8
0
10
489.20163
20
330.79837
30
0.0
11
514.5543
21
305.4457
31
0.0
0
LINE
8
0
10
514.5543
20
305.4457
30
0.0
11
476.52362
21
267.415
31
0.0
0
LINE
8
0
10
476.52362
20
267.415
30
0.0
11
514.5234
21
305.4148
31
0.0
0
3DFACE
8
0
10
494.13828
20
325.7999
30
0.0
11
490.13828
21
332.7999
31
0.0
12
498.13828
22
332.7999
32
0.0
13
498.13837
23
332.8
33
1.0E-4
0
3DFACE
8
0
10
460.0
20
360.0
30
0.0
11
456.0
21
367.0
31
0.0
12
464.0
22
367.0
32
0.0
13
464.0001
23
367.0001
33
1.0E-4
0
LINE
8
0
10
460.0
20
360.0
30
0.0
11
495.95987
21
324.04013
31
0.0
0
LINE
8
0
10
495.95987
20
324.04013
30
0.0
11
532.7463
21
287.2537
31
0.0
0
LINE
8
0
10
532.7463
20
287.2537
30
0.0
11
493.5543
21
287.2537
31
0.0
0
LINE
8
0
10
493.5543
20
287.2537
30
0.0
11
532.94867
21
287.2537
31
0.0
0
3DFACE
8
0
10
512.5118
20
266.81677
30
0.0
11
508.51178
21
273.81677
31
0.0
12
516.5118
22
273.81677
32
0.0
13
516.5119
23
273.81686
33
1.0E-4
0
3DFACE
8
0
10
460.0
20
360.0
30
0.0
11
456.0
21
367.0
31
0.0
12
464.0
22
367.0
32
0.0
13
464.0001
23
367.0001
33
1.0E-4
0
LINE
8
0
10
460.0
20
360.0
30
0.0
11
498.69006
21
360.0
31
0.0
0
LINE
8
0
10
498.69006
20
360.0
30
0.0
11
498.69006
21
397.61313
31
0.0
0
LINE
8
0
10
498.69006
20
397.61313
30
0.0
11
498.69006
21
418.86026
31
0.0
0
LINE
8
0
10
498.69006
20
418.86026
30
0.0
11
498.69006
21
394.75995
31
0.0
0
3DFACE
8
0
10
537.46094
20
433.53082
30
0.0
11
533.46094
21
440.53082
31
0.0
12
541.46094
22
440.53082
32
0.0
13
541.46106
23
440.5309
33
1.0E-4
0
3DFACE
8
0
10
610.0
20
360.0
30
0.0
11
606.0
21
367.0
31
0.0
12
614.0
22
367.0
32
0.0
13
614.0001
23
367.0001
33
1.0E-4
0
LINE
8
0
10
610.0
20
360.0
30
0.0
11
633.20764
21
360.0
31
0.0
0
LINE
8
0
10
633.20764
20
360.0
30
0.0
11
654.9517
21
338.25592
31
0.0
0
LINE
8
0
10
654.9517
20
338.25592
30
0.0
11
682.37317
21
365.67734
31
0.0
0
LINE
8
0
10
682.37317
20
365.67734
30
0.0
11
682.37317
21
398.07217
31
0.0
0
3DFACE
8
0
10
654.4423
20
370.14133
30
0.0
11
650.4423
21
377.14133
31
0.0
12
658.4423
22
377.14133
32
0.0
13
658.44244
23
377.14142
33
1.0E-4
0
3DFACE
8
0
10
610.0
20
360.0
30
0.0
11
606.0
21
367.0
31
0.0
12
614.0
22
367.0
32
0.0
13
614.0001
23
367.0001
33
1.0E-4
0
LINE
8
0
10
610.0
20
360.0
30
0.0
11
649.90454
21
360.0
31
0.0
0
LINE
8
0
10
649.90454
20
360.0
30
0.0
11
689.73895
21
320.1656
31
0.0
0
LINE
8
0
10
689.73895
20
320.1656
30
0.0
11
662.5106
21
320.1656
31
0.0
0
LINE
8
0
10
662.5106
20
320.1656
30
0.0
11
629.46686
21
287.12183
31
0.0
0
3DFACE
8
0
10
662.3168
20
254.27194
30
0.0
11
658.3168
21
261.27194
31
0.0
12
666.3168
22
261.27194
32
0.0
13
666.3169
23
261.27203
33
1.0E-4
0
3DFACE
8
0
10
610.0
20
360.0
30
0.0
11
606.0
21
367.0
31
0.0
12
614.0
22
367.0
32
0.0
13
614.0001
23
367.0001
33
1.0E-4
0
LINE
8
0
10
610.0
20
360.0
30
0.0
11
610.0
21
388.24182
31
0.0
0
LINE
8
0
10
610.0
20
388.24182
30
0.0
11
610.0
21
412.52094
31
0.0
0
LINE
8
0
10
610.0
20
412.52094
30
0.0
11
636.653
21
412.52094
31
0.0
0
LINE
8
0
10
636.653
20
412.52094
30
0.0
11
669.65234
21
379.52158
31
0.0
0
3DFACE
8
0
10
642.16345
20
379.52158
30
0.0
11
638.16345
21
386.52158
31
0.0
12
646.16345
22
386.52158
32
0.0
13
646.1636
23
386.52167
33
1.0E-4
0
3DFACE
8
0
10
760.0
20
360.0
30
0.0
11
756.0
21
367.0
31
0.0
12
764.0
22
367.0
32
0.0
13
764.0001
23
367.0001
33
1.0E-4
0
LINE
8
0
10
760.0
20
360.0
30
0.0
11
785.5439
21
360.0
31
0.0
0
LINE
8
0
10
785.5439
20
360.0
30
0.0
11
814.2418
21
388.69794
31
0.0
0
LINE
8
0
10
814.2418
20
388.69794
30
0.0
11
781.3117
21
421.62808
31
0.0
0
LINE
8
0
10
781.3117
20
421.62808
30
0.0
11
817.6587
21
421.62808
31
0.0
0
3DFACE
8
0
10
817.6587
20
397.53424
30
0.0
11
813.6587
21
404.53424
31
0.0
12
821.6587
22
404.53424
32
0.0
13
821.6588
23
404.53433
33
1.0E-4
0
3DFACE
8
0
10
760.0
20
360.0
30
0.0
11
756.0
21
367.0
31
0.0
12
764.0
22
367.0
32
0.0
13
764.0001
23
367.0001
33
1.0E-4
0
LINE
8
0
10
760.0
20
360.0
30
0.0
11
760.0
21
392.17032
31
0.0
0
LINE
8
0
10
760.0
20
392.17032
30
0.0
11
760.0
21
421.53766
31
0.0
0
LINE
8
0
10
760.0
20
421.53766
30
0.0
11
794.442
21
421.53766
31
0.0
0
LINE
8
0
10
794.442
20
421.53766
30
0.0
11
825.79584
21
452.8915
31
0.0
0
3DFACE
8
0
10
799.23773
20
479.4496
30
0.0
11
795.23773
21
486.4496
31
0.0
12
803.23773
22
486.4496
32
0.0
13
803.23785
23
486.44968
33
1.0E-4
0
3DFACE
8
0
10
760.0
20
360.0
30
0.0
11
756.0
21
367.0
31
0.0
12
764.0
22
367.0
32
0.0
13
764.0001
23
367.0001
33
1.0E-4
0
LINE
8
0
10
760.0
20
360.0
30
0.0
11
794.50745
21
360.0
31
0.0
0
LINE
8
0
10
794.50745
20
360.0
30
0.0
11
817.58905
21
383.08163
31
0.0
0
LINE
8
0
10
817.58905
20
383.08163
30
0.0
11
781.70557
21
347.19812
31
0.0
0
LINE
8
0
10
781.70557
20
347.19812
30
0.0
11
814.0426
21
347.19812
31
0.0
0
3DFACE
8
0
10
814.0426
20
377.44046
30
0.0
11
810.0426
21
384.44046
31
0.0
12
818.0426
22
384.44046
32
0.0
13
818.0427
23
384.44055
33
1.0E-4
0
3DFACE
8
0
10
910.0
20
360.0
30
0.0
11
906.0
21
367.0
31
0.0
12
914.0
22
367.0
32
0.0
13
914.0001
23
367.0001
33
1.0E-4
0
LINE
8
0
10
910.0
20
360.0
30
0.0
11
946.0811
21
323.91885
31
0.0
0
LINE
8
0
10
946.0811
20
323.91885
30
0.0
11
974.2232
21
295.77676
31
0.0
0
LINE
8
0
10
974.2232
20
295.77676
30
0.0
11
950.4318
21
319.56818
31
0.0
0
LINE
8
0
10
950.4318
20
319.56818
30
0.0
11
989.2712
21
280.72882
31
0.0
0
3DFACE
8
0
10
963.8144
20
255.27202
30
0.0
11
959.8144
21
262.27203
31
0.0
12
967.8144
22
262.27203
32
0.0
13
967.8145
23
262.27213
33
1.0E-4
0
3DFACE
8
0
10
910.0
20
360.0
30
0.0
11
906.0
21
367.0
31
0.0
12
914.0
22
367.0
32
0.0
13
914.0001
23
367.0001
33
1.0E-4
0
LINE
8
0
10
910.0
20
360.0
30
0.0
11
936.52185
21
386.52188
31
0.0
0
LINE
8
0
10
936.52185
20
386.52188
30
0.0
11
936.52185
21
418.04834
31
0.0
0
LINE
8
0
10
936.52185
20
418.04834
30
0.0
11
968.7672
21
450.2937
31
0.0
0
LINE
8
0
10
968.7672
20
450.2937
30
0.0
11
968.7672
21
429.04425
31
0.0
0
3DFACE
8
0
10
968.7672
20
407.685
30
0.0
11
964.7672
21
414.685
31
0.0
12
972.7672
22
414.685
32
0.0
13
972.76733
23
414.6851
33
1.0E-4
0
3DFACE
8
0
10
910.0
20
360.0
30
0.0
11
906.0
21
367.0
31
0.0
12
914.0
22
367.0
32
0.0
13
914.0001
23
367.0001
33
1.0E-4
0
LINE
8
0
10
910.0
20
360.0
30
0.0
11
945.7424
21
395.7424
31
0.0
0
LINE
8
0
10
945.7424
20
395.7424
30
0.0
11
967.16504
21
417.1651
31
0.0
0
LINE
8
0
10
967.16504
20
417.1651
30
0.0
11
967.16504
21
382.4034
31
0.0
0
LINE
8
0
10
967.16504
20
382.4034
30
0.0
11
931.4811
21
346.71942
31
0.0
0
3DFACE
8
0
10
931.4811
20
373.39175
30
0.0
11
927.4811
21
380.39175
31
0.0
12
935.4811
22
380.39175
32
0.0
13
935.4812
23
380.39185
33
1.0E-4
0
3DFACE
8
0
10
1060.0
20
360.0
30
0.0
11
1056.0
21
367.0
31
0.0
12
1064.0
22
367.0
32
0.0
13
1064.0001
23
367.0001
33
1.0E-4
0
LINE
8
0
10
1060.0
20
360.0
30
0.0
11
1096.986
21
323.01404
31
0.0
0
LINE
8
0
10
1096.986
20
323.01404
30
0.0
11
1117.1217
21
302.8783
31
0.0
0
LINE
8
0
10
1117.1217
20
302.8783
30
0.0
11
1092.979
21
327.02094
31
0.0
0
LINE
8
0
10
1092.979
20
327.02094
30
0.0
11
1092.979
21
366.56384
31
0.0
0
3DFACE
8
0
10
1092.979
20
399.463
30
0.0
11
1088.979
21
406.463
31
0.0
12
1096.979
22
406.463
32
0.0
13
1096.9791
23
406.4631
33
1.0E-4
0
3DFACE
8
0
10
1060.0
20
360.0
30
0.0
11
1056.0
21
367.0
31
0.0
12
1064.0
22
367.0
32
0.0
13
1064.0001
23
367.0001
33
1.0E-4
0
LINE
8
0
10
1060.0
20
360.0
30
0.0
11
1090.4691
21
390.46918
31
0.0
0
LINE
8
0
10
1090.4691
20
390.46918
30
0.0
11
1090.4691
21
425.30264
31
0.0
0
LINE
8
0
10
1090.4691
20
425.30264
30
0.0
11
1118.4675
21
425.30264
31
0.0
0
LINE
8
0
10
1118.4675
20
425.30264
30
0.0
11
1082.3633
21
425.30264
31
0.0
0
3DFACE
8
0
10
1103.9229
20
425.30264
30
0.0
11
1099.9229
21
432.30264
31
0.0
12
1107.9229
22
432.30264
32
0.0
13
1107.923
23
432.30273
33
1.0E-4
0
3DFACE
8
0
10
1060.0
20
360.0
30
0.0
11
1056.0
21
367.0
31
0.0
12
1064.0
22
367.0
32
0.0
13
1064.0001
23
367.0001
33
1.0E-4
0
LINE
8
0
10
1060.0
20
360.0
30
0.0
11
1082.7151
21
360.0
31
0.0
0
LINE
8
0
10
1082.7151
20
360.0
30
0.0
11
1104.8525
21
382.13745
31
0.0
0
LINE
8
0
10
1104.8525
20
382.13745
30
0.0
11
1104.8525
21
408.8285
31
0.0
0
LINE
8
0
10
1104.8525
20
408.8285
30
0.0
11
1133.7417
21
437.7177
31
0.0
0
3DFACE
8
0
10
1105.9391
20
465.52032
30
0.0
11
1101.9391
21
472.52032
31
0.0
12
1109.9391
22
472.52032
32
0.0
13
1109.9392
23
472.52042
33
1.0E-4
0
3DFACE
8
0
10
1210.0
20
360.0
30
0.0
11
1206.0
21
367.0
31
0.0
12
1214.0
22
367.0
32
0.0
13
1214.0001
23
367.0001
33
1.0E-4
0
LINE
8
0
10
1210.0
20
360.0
30
0.0
11
1235.1404
21
385.14038
31
0.0
0
LINE
8
0
10
1235.1404
20
385.14038
30
0.0
11
1260.7225
21
410.7225
31
0.0
0
LINE
8
0
10
1260.7225
20
410.7225
30
0.0
11
1229.117
21
410.7225
31
0.0
0
LINE
8
0
10
1229.117
20
410.7225
30
0.0
11
1229.117
21
374.1817
31
0.0
0
3DFACE
8
0
10
1265.0441
20
410.1088
30
0.0
11
1261.0441
21
417.1088
31
0.0
12
1269.0441
22
417.1088
32
0.0
13
1269.0442
23
417.1089
33
1.0E-4
0
3DFACE
8
0
10
1210.0
20
360.0
30
0.0
11
1206.0
21
367.0
31
0.0
12
1214.0
22
367.0
32
0.0
13
1214.0001
23
367.0001
33
1.0E-4
0
LINE
8
0
10
1210.0
20
360.0
30
0.0
11
1239.6943
21
360.0
31
0.0
0
LINE
8
0
10
1239.6943
20
360.0
30
0.0
11
1260.7166
21
338.97778
31
0.0
0
LINE
8
0
10
1260.7166
20
338.97778
30
0.0
11
1230.1729
21
338.97778
31
0.0
0
LINE
8
0
10
1230.1729
20
338.97778
30
0.0
11
1254.535
21
314.61563
31
0.0
0
3DFACE
8
0
10
1254.535
20
342.76645
30
0.0
11
1250.535
21
349.76645
31
0.0
12
1258.535
22
349.76645
32
0.0
13
1258.5352
23
349.76654
33
1.0E-4
0
3DFACE
8
0
10
1210.0
20
360.0
30
0.0
11
1206.0
21
367.0
31
0.0
12
1214.0
22
367.0
32
0.0
13
1214.0001
23
367.0001
33
1.0E-4
0
LINE
8
0
10
1210.0
20
360.0
30
0.0
11
1210.0
21
390.55975
31
0.0
0
LINE
8
0
10
1210.0
20
390.55975
30
0.0
11
1243.3169
21
390.55975
31
0.0
0
LINE
8
0
10
1243.3169
20
390.55975
30
0.0
11
1273.5516
21
390.55975
31
0.0
0
LINE
8
0
10
1273.5516
20
390.55975
30
0.0
11
1236.1934
21
353.2015
31
0.0
0
3DFACE
8
0
10
1275.2596
20
392.26782
30
0.0
11
1271.2596
21
399.26782
31
0.0
12
1279.2596
22
399.26782
32
0.0
13
1279.2598
23
399.2679
33
1.0E-4
0
3DFACE
8
0
10
1360.0
20
360.0
30
0.0
11
1356.0
21
367.0
31
0.0
12
1364.0
22
367.0
32
0.0
13
1364.0001
23
367.0001
33
1.0E-4
0
LINE
8
0
10
1360.0
20
360.0
30
0.0
11
1392.6294
21
360.0
31
0.0
0
LINE
8
0
10
1392.6294
20
360.0
30
0.0
11
1392.6294
21
387.5711
31
0.0
0
LINE
8
0
10
1392.6294
20
387.5711
30
0.0
11
1420.2534
21
359.94714
31
0.0
0
LINE
8
0
10
1420.2534
20
359.94714
30
0.0
11
1420.2534
21
390.0477
31
0.0
0
3DFACE
8
0
10
1396.3761
20
390.0477
30
0.0
11
1392.3761
21
397.0477
31
0.0
12
1400.3761
22
397.0477
32
0.0
13
1400.3762
23
397.0478
33
1.0E-4
0
3DFACE
8
0
10
1360.0
20
360.0
30
0.0
11
1356.0
21
367.0
31
0.0
12
1364.0
22
367.0
32
0.0
13
1364.0001
23
367.0001
33
1.0E-4
0
LINE
8
0
10
1360.0
20
360.0
30
0.0
11
1391.795
21
360.0
31
0.0
0
LINE
8
0
10
1391.795
20
360.0
30
0.0
11
1391.795
21
399.47888
31
0.0
0
LINE
8
0
10
1391.795
20
399.47888
30
0.0
11
1391.795
21
435.5099
31
0.0
0
LINE
8
0
10
1391.795
20
435.5099
30
0.0
11
1419.8763
21
463.59122
31
0.0
0
3DFACE
8
0
10
1391.0426
20
434.75754
30
0.0
11
1387.0426
21
441.75754
31
0.0
12
1395.0426
22
441.75754
32
0.0
13
1395.0427
23
441.75763
33
1.0E-4
0
3DFACE
8
0
10
1360.0
20
360.0
30
0.0
11
1356.0
21
367.0
31
0.0
12
1364.0
22
367.0
32
0.0
13
1364.0001
23
367.0001
33
1.0E-4
0
LINE
8
0
10
1360.0
20
360.0
30
0.0
11
1383.9838
21
360.0
31
0.0
0
LINE
8
0
10
1383.9838
20
360.0
30
0.0
11
1421.6825
21
360.0
31
0.0
0
LINE
8
0
10
1421.6825
20
360.0
30
0.0
11
1394.593
21
360.0
31
0.0
0
LINE
8
0
10
1394.593
20
360.0
30
0.0
11
1427.0654
21
360.0
31
0.0
0
3DFACE
8
0
10
1427.0654
20
388.03458
30
0.0
11
1423.0654
21
395.03458
31
0.0
12
1431.0654
22
395.03458
32
0.0
13
1431.0656
23
395.03467
33
1.0E-4
0
3DFACE
8
0
10
1510.0
20
360.0
30
0.0
11
1506.0
21
367.0
31
0.0
12
1514.0
22
367.0
32
0.0
13
1514.0001
23
367.0001
33
1.0E-4
0
LINE
8
0
10
1510.0
20
360.0
30
0.0
11
1537.911
21
360.0
31
0.0
0
LINE
8
0
10
1537.911
20
360.0
30
0.0
11
1566.0135
21
360.0
31
0.0
0
LINE
8
0
10
1566.0135
20
360.0
30
0.0
11
1536.9176
21
389.09598
31
0.0
0
LINE
8
0
10
1536.9176
20
389.09598
30
0.0
11
1559.9656
21
366.04803
31
0.0
0
3DFACE
8
0
10
1539.7876
20
366.04803
30
0.0
11
1535.7876
21
373.04803
31
0.0
12
1543.7876
22
373.04803
32
0.0
13
1543.7877
23
373.04813
33
1.0E-4
0
3DFACE
8
0
10
1510.0
20
360.0
30
0.0
11
1506.0
21
367.0
31
0.0
12
1514.0
22
367.0
32
0.0
13
1514.0001
23
367.0001
33
1.0E-4
0
LINE
8
0
10
1510.0
20
360.0
30
0.0
11
1549.8192
21
360.0
31
0.0
0
LINE
8
0
10
1549.8192
20
360.0
30
0.0
11
1577.2284
21
387.40915
31
0.0
0
LINE
8
0
10
1577.2284
20
387.40915
30
0.0
11
1553.8362
21
387.40915
31
0.0
0
LINE
8
0
10
1553.8362
20
387.40915
30
0.0
11
1586.7087
21
420.28177
31
0.0
0
3DFACE
8
0
10
1553.4131
20
386.9861
30
0.0
11
1549.4131
21
393.9861
31
0.0
12
1557.4131
22
393.9861
32
0.0
13
1557.4132
23
393.9862
33
1.0E-4
0
3DFACE
8
0
10
1510.0
20
360.0
30
0.0
11
1506.0
21
367.0
31
0.0
12
1514.0
22
367.0
32
0.0
13
1514.0001
23
367.0001
33
1.0E-4
0
LINE
8
0
10
1510.0
20
360.0
30
0.0
11
1510.0
21
394.8113
31
0.0
0
LINE
8
0
10
1510.0
20
394.8113
30
0.0
11
1510.0
21
434.35852
31
0.0
0
LINE
8
0
10
1510.0
20
434.35852
30
0.0
11
1510.0
21
410.96768
31
0.0
0
LINE
8
0
10
1510.0
20
410.96768
30
0.0
11
1542.0442
21
410.96768
31
0.0
0
3DFACE
8
0
10
1573.853
20
442.77652
30
0.0
11
1569.853
21
449.77652
31
0.0
12
1577.853
22
449.77652
32
0.0
13
1577.8531
23
449.7766
33
1.0E-4
0
3DFACE
8
0
10
1660.0
20
360.0
30
0.0
11
1656.0
21
367.0
31
0.0
12
1664.0
22
367.0
32
0.0
13
1664.0001
23
367.0001
33
1.0E-4
0
LINE
8
0
10
1660.0
20
360.0
30
0.0
11
1680.2115
21
360.0
31
0.0
0
LINE
8
0
10
1680.2115
20
360.0
30
0.0
11
1707.118
21
360.0
31
0.0
0
LINE
8
0
10
1707.118
20
360.0
30
0.0
11
1679.177
21
360.0
31
0.0
0
LINE
8
0
10
1679.177
20
360.0
30
0.0
11
1679.177
21
391.17877
31
0.0
0
3DFACE
8
0
10
1716.6161
20
353.73975
30
0.0
11
1712.6161
21
360.73975
31
0.0
12
1720.6161
22
360.73975
32
0.0
13
1720.6162
23
360.73984
33
1.0E-4
0
3DFACE
8
0
10
1660.0
20
360.0
30
0.0
11
1656.0
21
367.0
31
0.0
12
1664.0
22
367.0
32
0.0
13
1664.0001
23
367.0001
33
1.0E-4
0
LINE
8
0
10
1660.0
20
360.0
30
0.0
11
1689.9614
21
330.03854
31
0.0
0
LINE
8
0
10
1689.9614
20
330.03854
30
0.0
11
1722.1548
21
297.84515
31
0.0
0
LINE
8
0
10
1722.1548
20
297.84515
30
0.0
11
1722.1548
21
327.40088
31
0.0
0
LINE
8
0
10
1722.1548
20
327.40088
30
0.0
11
1682.778
21
327.40088
31
0.0
0
3DFACE
8
0
10
1703.1775
20
327.40088
30
0.0
11
1699.1775
21
334.40088
31
0.0
12
1707.1775
22
334.40088
32
0.0
13
1707.1776
23
334.40097
33
1.0E-4
0
3DFACE
8
0
10
1660.0
20
360.0
30
0.0
11
1656.0
21
367.0
31
0.0
12
1664.0
22
367.0
32
0.0
13
1664.0001
23
367.0001
33
1.0E-4
0
LINE
8
0
10
1660.0
20
360.0
30
0.0
11
1683.9159
21
360.0
31
0.0
0
LINE
8
0
10
1683.9159
20
360.0
30
0.0
11
1709.6112
21
334.3047
31
0.0
0
LINE
8
0
10
1709.6112
20
334.3047
30
0.0
11
1673.3232
21
298.01672
31
0.0
0
LINE
8
0
10
1673.3232
20
298.01672
30
0.0
11
1695.3727
21
298.01672
31
0.0
0
3DFACE
8
0
10
1728.1621
20
265.22733
30
0.0
11
1724.1621
21
272.22733
31
0.0
12
1732.1621
22
272.22733
32
0.0
13
1732.1622
23
272.22742
33
1.0E-4
0
3DFACE
8
0
10
310.0
20
560.0
30
0.0
11
306.0
21
567.0
31
0.0
12
314.0
22
567.0
32
0.0
13
314.0001
23
567.0001
33
1.0E-4
0
LINE
8
0
10
310.0
20
560.0
30
0.0
11
310.0
21
591.875
31
0.0
0
LINE
8
0
10
310.0
20
591.875
30
0.0
11
310.0
21
629.15717
31
0.0
0
LINE
8
0
10
310.0
20
629.15717
30
0.0
11
335.07874
21
654.2359
31
0.0
0
LINE
8
0
10
335.07874
20
654.2359
30
0.0
11
361.90967
21
627.40497
31
0.0
0
LINE
8
0
10
361.90967
20
627.40497
30
0.0
11
339.18503
21
604.6803
31
0.0
0
3DFACE
8
0
10
339.18503
20
642.21967
30
0.0
11
335.18503
21
649.21967
31
0.0
12
343.18503
22
649.21967
32
0.0
13
343.18512
23
649.2198
33
1.0E-4
0
3DFACE
8
0
10
310.0
20
560.0
30
0.0
11
306.0
21
567.0
31
0.0
12
314.0
22
567.0
32
0.0
13
314.0001
23
567.0001
33
1.0E-4
0
LINE
8
0
10
310.0
20
560.0
30
0.0
11
310.0
21
581.0878
31
0.0
0
LINE
8
0
10
310.0
20
581.0878
30
0.0
11
341.47403
21
581.0878
31
0.0
0
LINE
8
0
10
341.47403
20
581.0878
30
0.0
11
370.71045
21
551.8514
31
0.0
0
LINE
8
0
10
370.71045
20
551.8514
30
0.0
11
341.90964
21
580.6522
31
0.0
0
LINE
8
0
10
341.90964
20
580.6522
30
0.0
11
367.6907
21
606.4333
31
0.0
0
3DFACE
8
0
10
345.72708
20
584.46967
30
0.0
11
341.72708
21
591.46967
31
0.0
12
349.72708
22
591.46967
32
0.0
13
349.72717
23
591.4698
33
1.0E-4
0
3DFACE
8
0
10
310.0
20
560.0
30
0.0
11
306.0
21
567.0
31
0.0
12
314.0
22
567.0
32
0.0
13
314.0001
23
567.0001
33
1.0E-4
0
LINE
8
0
10
310.0
20
560.0
30
0.0
11
344.7862
21
560.0
31
0.0
0
LINE
8
0
10
344.7862
20
560.0
30
0.0
11
374.30133
21
530.48486
31
0.0
0
LINE
8
0
10
374.30133
20
530.48486
30
0.0
11
352.85388
21
551.9323
31
0.0
0
LINE
8
0
10
352.85388
20
551.9323
30
0.0
11
380.3474
21
579.42584
31
0.0
0
LINE
8
0
10
380.3474
20
579.42584
30
0.0
11
380.3474
21
604.1301
31
0.0
0
3DFACE
8
0
10
380.3474
20
629.39453
30
0.0
11
376.3474
21
636.39453
31
0.0
12
384.3474
22
636.39453
32
0.0
13
384.3475
23
636.39465
33
1.0E-4
0
3DFACE
8
0
10
460.0
20
560.0
30
0.0
11
456.0
21
567.0
31
0.0
12
464.0
22
567.0
32
0.0
13
464.0001
23
567.0001
33
1.0E-4
0
LINE
8
0
10
460.0
20
560.0
30
0.0
11
496.50153
21
560.0
31
0.0
0
LINE
8
0
10
496.50153
20
560.0
30
0.0
11
519.06647
21
582.56494
31
0.0
0
LINE
8
0
10
519.06647
20
582.56494
30
0.0
11
497.79932
21
582.56494
31
0.0
0
LINE
8
0
10
497.79932
20
582.56494
30
0.0
11
532.7589
21
547.60535
31
0.0
0
LINE
8
0
10
532.7589
20
547.60535
30
0.0
11
492.77682
21
587.5874
31
0.0
0
3DFACE
8
0
10
492.77682
20
626.3095
30
0.0
11
488.77682
21
633.3095
31
0.0
12
496.77682
22
633.3095
32
0.0
13
496.77692
23
633.30963
33
1.0E-4
0
3DFACE
8
0
10
460.0
20
560.0
30
0.0
11
456.0
21
567.0
31
0.0
12
464.0
22
567.0
32
0.0
13
464.0001
23
567.0001
33
1.0E-4
0
LINE
8
0
10
460.0
20
560.0
30
0.0
11
460.0
21
581.9372
31
0.0
0
LINE
8
0
10
460.0
20
581.9372
30
0.0
11
460.0
21
615.7195
31
0.0
0
LINE
8
0
10
460.0
20
615.7195
30
0.0
11
460.0
21
590.54663
31
0.0
0
LINE
8
0
10
460.0
20
590.54663
30
0.0
11
460.0
21
618.66595
31
0.0
0
LINE
8
0
10
460.0
20
618.66595
30
0.0
11
490.26068
21
588.4053
31
0.0
0
3DFACE
8
0
10
520.22406
20
618.36865
30
0.0
11
516.22406
21
625.36865
31
0.0
12
524.22406
22
625.36865
32
0.0
13
524.2242
23
625.3688
33
1.0E-4
0
3DFACE
8
0
10
460.0
20
560.0
30
0.0
11
456.0
21
567.0
31
0.0
12
464.0
22
567.0
32
0.0
13
464.0001
23
567.0001
33
1.0E-4
0
LINE
8
0
10
460.0
20
560.0
30
0.0
11
488.40646
21
588.4065
31
0.0
0
LINE
8
0
10
488.40646
20
588.4065
30
0.0
11
488.40646
21
617.70874
31
0.0
0
LINE
8
0
10
488.40646
20
617.70874
30
0.0
11
488.40646
21
591.6681
31
0.0
0
LINE
8
0
10
488.40646
20
591.6681
30
0.0
11
517.6337
21
562.44086
31
0.0
0
LINE
8
0
10
517.6337
20
562.44086
30
0.0
11
517.6337
21
599.0713
31
0.0
0
3DFACE
8
0
10
517.6337
20
624.2058
30
0.0
11
513.6337
21
631.2058
31
0.0
12
521.6337
22
631.2058
32
0.0
13
521.63385
23
631.20593
33
1.0E-4
0
3DFACE
8
0
10
610.0
20
560.0
30
0.0
11
606.0
21
567.0
31
0.0
12
614.0
22
567.0
32
0.0
13
614.0001
23
567.0001
33
1.0E-4
0
LINE
8
0
10
610.0
20
560.0
30
0.0
11
634.2336
21
560.0
31
0.0
0
LINE
8
0
10
634.2336
20
560.0
30
0.0
11
662.3273
21
560.0
31
0.0
0
LINE
8
0
10
662.3273
20
560.0
30
0.0
11
641.8666
21
560.0
31
0.0
0
LINE
8
0
10
641.8666
20
560.0
30
0.0
11
664.8456
21
582.979
31
0.0
0
LINE
8
0
10
664.8456
20
582.979
30
0.0
11
644.37006
21
562.5035
31
0.0
0
3DFACE
8
0
10
644.37006
20
597.72076
30
0.0
11
640.37006
21
604.72076
31
0.0
12
648.37006
22
604.72076
32
0.0
13
648.3702
23
604.7209
33
1.0E-4
0
3DFACE
8
0
10
610.0
20
560.0
30
0.0
11
606.0
21
567.0
31
0.0
12
614.0
22
567.0
32
0.0
13
614.0001
23
567.0001
33
1.0E-4
0
LINE
8
0
10
610.0
20
560.0
30
0.0
11
638.21466
21
588.21466
31
0.0
0
LINE
8
0
10
638.21466
20
588.21466
30
0.0
11
666.2553
21
616.2553
31
0.0
0
LINE
8
0
10
666.2553
20
616.2553
30
0.0
11
666.2553
21
581.02905
31
0.0
0
LINE
8
0
10
666.2553
20
581.02905
30
0.0
11
637.6963
21
552.47003
31
0.0
0
LINE
8
0
10
637.6963
20
552.47003
30
0.0
11
668.5105
21
583.28424
31
0.0
0
3DFACE
8
0
10
646.3027
20
605.49207
30
0.0
11
642.3027
21
612.49207
31
0.0
12
650.3027
22
612.49207
32
0.0
13
650.3028
23
612.4922
33
1.0E-4
0
3DFACE
8
0
10
610.0
20
560.0
30
0.0
11
606.0
21
567.0
31
0.0
12
614.0
22
567.0
32
0.0
13
614.0001
23
567.0001
33
1.0E-4
0
LINE
8
0
10
610.0
20
560.0
30
0.0
11
638.22534
21
531.77466
31
0.0
0
LINE
8
0
10
638.22534
20
531.77466
30
0.0
11
673.64575
21
567.19507
31
0.0
0
LINE
8
0
10
673.64575
20
567.19507
30
0.0
11
673.64575
21
604.65967
31
0.0
0
LINE
8
0
10
673.64575
20
604.65967
30
0.0
11
650.8703
21
581.8842
31
0.0
0
LINE
8
0
10
650.8703
20
581.8842
30
0.0
11
671.1587
21
602.1726
31
0.0
0
3DFACE
8
0
10
638.9221
20
569.93604
30
0.0
11
634.9221
21
576.93604
31
0.0
12
642.9221
22
576.93604
32
0.0
13
642.92224
23
576.93616
33
1.0E-4
0
3DFACE
8
0
10
760.0
20
560.0
30
0.0
11
756.0
21
567.0
31
0.0
12
764.0
22
567.0
32
0.0
13
764.0001
23
567.0001
33
1.0E-4
0
LINE
8
0
10
760.0
20
560.0
30
0.0
11
787.6626
21
587.6626
31
0.0
0
LINE
8
0
10
787.6626
20
587.6626
30
0.0
11
787.6626
21
625.7751
31
0.0
0
LINE
8
0
10
787.6626
20
625.7751
30
0.0
11
818.0887
21
656.2012
31
0.0
0
LINE
8
0
10
818.0887
20
656.2012
30
0.0
11
796.5776
21
634.69006
31
0.0
0
LINE
8
0
10
796.5776
20
634.69006
30
0.0
11
822.9335
21
608.3341
31
0.0
0
3DFACE
8
0
10
802.2985
20
628.96906
30
0.0
11
798.2985
21
635.96906
31
0.0
12
806.2985
22
635.96906
32
0.0
13
806.29865
23
635.9692
33
1.0E-4
0
3DFACE
8
0
10
760.0
20
560.0
30
0.0
11
756.0
21
567.0
31
0.0
12
764.0
22
567.0
32
0.0
13
764.0001
23
567.0001
33
1.0E-4
0
LINE
8
0
10
760.0
20
560.0
30
0.0
11
792.8534
21
560.0
31
0.0
0
LINE
8
0
10
792.8534
20
560.0
30
0.0
11
827.2431
21
594.3897
31
0.0
0
LINE
8
0
10
827.2431
20
594.3897
30
0.0
11
827.2431
21
620.3594
31
0.0
0
LINE
8
0
10
827.2431
20
620.3594
30
0.0
11
805.8708
21
641.7317
31
0.0
0
LINE
8
0
10
805.8708
20
641.7317
30
0.0
11
805.8708
21
621.0707
31
0.0
0
3DFACE
8
0
10
776.76385
20
591.96375
30
0.0
11
772.76385
21
598.96375
31
0.0
12
780.76385
22
598.96375
32
0.0
13
780.764
23
598.96387
33
1.0E-4
0
3DFACE
8
0
10
760.0
20
560.0
30
0.0
11
756.0
21
567.0
31
0.0
12
764.0
22
567.0
32
0.0
13
764.0001
23
567.0001
33
1.0E-4
0
LINE
8
0
10
760.0
20
560.0
30
0.0
11
791.53613
21
560.0
31
0.0
0
LINE
8
0
10
791.53613
20
560.0
30
0.0
11
826.5027
21
560.0
31
0.0
0
LINE
8
0
10
826.5027
20
560.0
30
0.0
11
795.74805
21
590.75464
31
0.0
0
LINE
8
0
10
795.74805
20
590.75464
30
0.0
11
823.6533
21
562.84937
31
0.0
0
LINE
8
0
10
823.6533
20
562.84937
30
0.0
11
790.3444
21
562.84937
31
0.0
0
3DFACE
8
0
10
819.46094
20
533.73285
30
0.0
11
815.46094
21
540.73285
31
0.0
12
823.46094
22
540.73285
32
0.0
13
823.46106
23
540.733
33
1.0E-4
0
3DFACE
8
0
10
910.0
20
560.0
30
0.0
11
906.0
21
567.0
31
0.0
12
914.0
22
567.0
32
0.0
13
914.0001
23
567.0001
33
1.0E-4
0
LINE
8
0
10
910.0
20
560.0
30
0.0
11
948.124
21
560.0
31
0.0
0
LINE
8
0
10
948.124
20
560.0
30
0.0
11
986.13635
21
521.9877
31
0.0
0
LINE
8
0
10
986.13635
20
521.9877
30
0.0
11
986.13635
21
556.99774
31
0.0
0
LINE
8
0
10
986.13635
20
556.99774
30
0.0
11
947.8522
21
595.2819
31
0.0
0
LINE
8
0
10
947.8522
20
595.2819
30
0.0
11
974.43854
21
595.2819
31
0.0
0
3DFACE
8
0
10
974.43854
20
631.1585
30
0.0
11
970.43854
21
638.1585
31
0.0
12
978.43854
22
638.1585
32
0.0
13
978.43866
23
638.1586
33
1.0E-4
0
3DFACE
8
0
10
910.0
20
560.0
30
0.0
11
906.0
21
567.0
31
0.0
12
914.0
22
567.0
32
0.0
13
914.0001
23
567.0001
33
1.0E-4
0
LINE
8
0
10
910.0
20
560.0
30
0.0
11
935.2566
21
585.2566
31
0.0
0
LINE
8
0
10
935.2566
20
585.2566
30
0.0
11
963.1599
21
613.1599
31
0.0
0
LINE
8
0
10
963.1599
20
613.1599
30
0.0
11
935.3054
21
585.3054
31
0.0
0
LINE
8
0
10
935.3054
20
585.3054
30
0.0
11
973.4044
21
547.2064
31
0.0
0
LINE
8
0
10
973.4044
20
547.2064
30
0.0
11
938.6756
21
512.4776
31
0.0
0
3DFACE
8
0
10
961.0571
20
512.4776
30
0.0
11
957.0571
21
519.4776
31
0.0
12
965.0571
22
519.4776
32
0.0
13
965.05725
23
519.4777
33
1.0E-4
0
3DFACE
8
0
10
910.0
20
560.0
30
0.0
11
906.0
21
567.0
31
0.0
12
914.0
22
567.0
32
0.0
13
914.0001
23
567.0001
33
1.0E-4
0
LINE
8
0
10
910.0
20
560.0
30
0.0
11
941.1135
21
560.0
31
0.0
0
LINE
8
0
10
941.1135
20
560.0
30
0.0
11
978.47626
21
522.63727
31
0.0
0
LINE
8
0
10
978.47626
20
522.63727
30
0.0
11
946.18604
21
554.9275
31
0.0
0
LINE
8
0
10
946.18604
20
554.9275
30
0.0
11
984.0494
21
517.06415
31
0.0
0
LINE
8
0
10
984.0494
20
517.06415
30
0.0
11
962.8026
21
538.3109
31
0.0
0
3DFACE
8
0
10
935.65247
20
565.46106
30
0.0
11
931.65247
21
572.46106
31
0.0
12
939.65247
22
572.46106
32
0.0
13
939.6526
23
572.4612
33
1.0E-4
0
3DFACE
8
0
10
1060.0
20
560.0
30
0.0
11
1056.0
21
567.0
31
0.0
12
1064.0
22
567.0
32
0.0
13
1064.0001
23
567.0001
33
1.0E-4
0
LINE
8
0
10
1060.0
20
560.0
30
0.0
11
1099.5361
21
599.5362
31
0.0
0
LINE
8
0
10
1099.5361
20
599.5362
30
0.0
11
1128.5598
21
570.5126
31
0.0
0
LINE
8
0
10
1128.5598
20
570.5126
30
0.0
11
1103.128
21
570.5126
31
0.0
0
LINE
8
0
10
1103.128
20
570.5126
30
0.0
11
1138.2781
21
570.5126
31
0.0
0
LINE
8
0
10
1138.2781
20
570.5126
30
0.0
11
1113.1329
21
595.6577
31
0.0
0
3DFACE
8
0
10
1085.0497
20
623.74097
30
0.0
11
1081.0497
21
630.74097
31
0.0
12
1089.0497
22
630.74097
32
0.0
13
1089.0498
23
630.7411
33
1.0E-4
0
3DFACE
8
0
10
1060.0
20
560.0
30
0.0
11
1056.0
21
567.0
31
0.0
12
1064.0
22
567.0
32
0.0
13
1064.0001
23
567.0001
33
1.0E-4
0
LINE
8
0
10
1060.0
20
560.0
30
0.0
11
1060.0
21
595.0375
31
0.0
0
LINE
8
0
10
1060.0
20
595.0375
30
0.0
11
1091.9968
21
627.03424
31
0.0
0
LINE
8
0
10
1091.9968
20
627.03424
30
0.0
11
1129.9204
21
627.03424
31
0.0
0
LINE
8
0
10
1129.9204
20
627.03424
30
0.0
11
1106.1268
21
627.03424
31
0.0
0
LINE
8
0
10
1106.1268
20
627.03424
30
0.0
11
1083.5443
21
649.6167
31
0.0
0
3DFACE
8
0
10
1083.5443
20
610.2714
30
0.0
11
1079.5443
21
617.2714
31
0.0
12
1087.5443
22
617.2714
32
0.0
13
1087.5444
23
617.27155
33
1.0E-4
0
3DFACE
8
0
10
1060.0
20
560.0
30
0.0
11
1056.0
21
567.0
31
0.0
12
1064.0
22
567.0
32
0.0
13
1064.0001
23
567.0001
33
1.0E-4
0
LINE
8
0
10
1060.0
20
560.0
30
0.0
11
1090.5824
21
590.5824
31
0.0
0
LINE
8
0
10
1090.5824
20
590.5824
30
0.0
11
1090.5824
21
628.89215
31
0.0
0
LINE
8
0
10
1090.5824
20
628.89215
30
0.0
11
1122.5562
21
628.89215
31
0.0
0
LINE
8
0
10
1122.5562
20
628.89215
30
0.0
11
1093.2812
21
628.89215
31
0.0
0
LINE
8
0
10
1093.2812
20
628.89215
30
0.0
11
1128.3307
21
628.89215
31
0.0
0
3DFACE
8
0
10
1128.3307
20
598.2191
30
0.0
11
1124.3307
21
605.2191
31
0.0
12
1132.3307
22
605.2191
32
0.0
13
1132.3308
23
605.21924
33
1.0E-4
0
3DFACE
8
0
10
1210.0
20
560.0
30
0.0
11
1206.0
21
567.0
31
0.0
12
1214.0
22
567.0
32
0.0
13
1214.0001
23
567.0001
33
1.0E-4
0
LINE
8
0
10
1210.0
20
560.0
30
0.0
11
1234.3252
21
560.0
31
0.0
0
LINE
8
0
10
1234.3252
20
560.0
30
0.0
11
1259.9536
21
534.37164
31
0.0
0
LINE
8
0
10
1259.9536
20
534.37164
30
0.0
11
1225.4321
21
499.85013
31
0.0
0
LINE
8
0
10
1225.4321
20
499.85013
30
0.0
11
1252.4834
21
526.9015
31
0.0
0
LINE
8
0
10
1252.4834
20
526.9015
30
0.0
11
1252.4834
21
558.26685
31
0.0
0
3DFACE
8
0
10
1252.4834
20
585.3972
30
0.0
11
1248.4834
21
592.3972
31
0.0
12
1256.4834
22
592.3972
32
0.0
13
1256.4835
23
592.39734
33
1.0E-4
0
3DFACE
8
0
10
1210.0
20
560.0
30
0.0
11
1206.0
21
567.0
31
0.0
12
1214.0
22
567.0
32
0.0
13
1214.0001
23
567.0001
33
1.0E-4
0
LINE
8
0
10
1210.0
20
560.0
30
0.0
11
1210.0
21
597.4732
31
0.0
0
LINE
8
0
10
1210.0
20
597.4732
30
0.0
11
1239.934
21
597.4732
31
0.0
0
LINE
8
0
10
1239.934
20
597.4732
30
0.0
11
1239.934
21
621.24384
31
0.0
0
LINE
8
0
10
1239.934
20
621.24384
30
0.0
11
1271.9265
21
621.24384
31
0.0
0
LINE
8
0
10
1271.9265
20
621.24384
30
0.0
11
1237.4363
21
586.75354
31
0.0
0
3DFACE
8
0
10
1237.4363
20
617.9089
30
0.0
11
1233.4363
21
624.9089
31
0.0
12
1241.4363
22
624.9089
32
0.0
13
1241.4364
23
624.909
33
1.0E-4
0
3DFACE
8
0
10
1210.0
20
560.0
30
0.0
11
1206.0
21
567.0
31
0.0
12
1214.0
22
567.0
32
0.0
13
1214.0001
23
567.0001
33
1.0E-4
0
LINE
8
0
10
1210.0
20
560.0
30
0.0
11
1232.7244
21
560.0
31
0.0
0
LINE
8
0
10
1232.7244
20
560.0
30
0.0
11
1266.9259
21
525.79846
31
0.0
0
LINE
8
0
10
1266.9259
20
525.79846
30
0.0
11
1236.8665
21
495.73895
31
0.0
0
LINE
8
0
10
1236.8665
20
495.73895
30
0.0
11
1263.7878
21
522.6603
31
0.0
0
LINE
8
0
10
1263.7878
20
522.6603
30
0.0
11
1234.211
21
552.23706
31
0.0
0
3DFACE
8
0
10
1257.0109
20
529.43726
30
0.0
11
1253.0109
21
536.43726
31
0.0
12
1261.0109
22
536.43726
32
0.0
13
1261.011
23
536.4374
33
1.0E-4
0
3DFACE
8
0
10
1360.0
20
560.0
30
0.0
11
1356.0
21
567.0
31
0.0
12
1364.0
22
567.0
32
0.0
13
1364.0001
23
567.0001
33
1.0E-4
0
LINE
8
0
10
1360.0
20
560.0
30
0.0
11
1388.3458
21
560.0
31
0.0
0
LINE
8
0
10
1388.3458
20
560.0
30
0.0
11
1415.2853
21
586.93945
31
0.0
0
LINE
8
0
10
1415.2853
20
586.93945
30
0.0
11
1394.591
21
586.93945
31
0.0
0
LINE
8
0
10
1394.591
20
586.93945
30
0.0
11
1421.7961
21
614.1446
31
0.0
0
LINE
8
0
10
1421.7961
20
614.1446
30
0.0
11
1421.7961
21
579.6403
31
0.0
0
3DFACE
8
0
10
1397.4935
20
603.943
30
0.0
11
1393.4935
21
610.943
31
0.0
12
1401.4935
22
610.943
32
0.0
13
1401.4937
23
610.9431
33
1.0E-4
0
3DFACE
8
0
10
1360.0
20
560.0
30
0.0
11
1356.0
21
567.0
31
0.0
12
1364.0
22
567.0
32
0.0
13
1364.0001
23
567.0001
33
1.0E-4
0
LINE
8
0
10
1360.0
20
560.0
30
0.0
11
1392.4131
21
560.0
31
0.0
0
LINE
8
0
10
1392.4131
20
560.0
30
0.0
11
1426.3942
21
593.9811
31
0.0
0
LINE
8
0
10
1426.3942
20
593.9811
30
0.0
11
1426.3942
21
625.20056
31
0.0
0
LINE
8
0
10
1426.3942
20
625.20056
30
0.0
11
1398.4393
21
653.1554
31
0.0
0
LINE
8
0
10
1398.4393
20
653.1554
30
0.0
11
1422.9133
21
677.62933
31
0.0
0
3DFACE
8
0
10
1389.4568
20
711.0859
30
0.0
11
1385.4568
21
718.0859
31
0.0
12
1393.4568
22
718.0859
32
0.0
13
1393.4569
23
718.086
33
1.0E-4
0
3DFACE
8
0
10
1360.0
20
560.0
30
0.0
11
1356.0
21
567.0
31
0.0
12
1364.0
22
567.0
32
0.0
13
1364.0001
23
567.0001
33
1.0E-4
0
LINE
8
0
10
1360.0
20
560.0
30
0.0
11
1383.9364
21
560.0
31
0.0
0
LINE
8
0
10
1383.9364
20
560.0
30
0.0
11
1383.9364
21
595.36444
31
0.0
0
LINE
8
0
10
1383.9364
20
595.36444
30
0.0
11
1423.33
21
555.97095
31
0.0
0
LINE
8
0
10
1423.33
20
555.97095
30
0.0
11
1385.1227
21
517.7637
31
0.0
0
LINE
8
0
10
1385.1227
20
517.7637
30
0.0
11
1422.7609
21
517.7637
31
0.0
0
3DFACE
8
0
10
1383.3008
20
517.7637
30
0.0
11
1379.3008
21
524.7637
31
0.0
12
1387.3008
22
524.7637
32
0.0
13
1387.3009
23
524.7638
33
1.0E-4
0
3DFACE
8
0
10
1510.0
20
560.0
30
0.0
11
1506.0
21
567.0
31
0.0
12
1514.0
22
567.0
32
0.0
13
1514.0001
23
567.0001
33
1.0E-4
0
LINE
8
0
10
1510.0
20
560.0
30
0.0
11
1539.9363
21
560.0
31
0.0
0
LINE
8
0
10
1539.9363
20
560.0
30
0.0
11
1569.586
21
530.3502
31
0.0
0
LINE
8
0
10
1569.586
20
530.3502
30
0.0
11
1569.586
21
563.39825
31
0.0
0
LINE
8
0
10
1569.586
20
563.39825
30
0.0
11
1548.6533
21
542.4655
31
0.0
0
LINE
8
0
10
1548.6533
20
542.4655
30
0.0
11
1575.8364
21
515.2824
31
0.0
0
3DFACE
8
0
10
1575.8364
20
549.14355
30
0.0
11
1571.8364
21
556.14355
31
0.0
12
1579.8364
22
556.14355
32
0.0
13
1579.8365
23
556.1437
33
1.0E-4
0
3DFACE
8
0
10
1510.0
20
560.0
30
0.0
11
1506.0
21
567.0
31
0.0
12
1514.0
22
567.0
32
0.0
13
1514.0001
23
567.0001
33
1.0E-4
0
LINE
8
0
10
1510.0
20
560.0
30
0.0
11
1540.7767
21
590.77673
31
0.0
0
LINE
8
0
10
1540.7767
20
590.77673
30
0.0
11
1540.7767
21
625.4597
31
0.0
0
LINE
8
0
10
1540.7767
20
625.4597
30
0.0
11
1568.4249
21
625.4597
31
0.0
0
LINE
8
0
10
1568.4249
20
625.4597
30
0.0
11
1545.1974
21
602.2322
31
0.0
0
LINE
8
0
10
1545.1974
20
602.2322
30
0.0
11
1545.1974
21
630.4381
31
0.0
0
3DFACE
8
0
10
1545.1974
20
592.9422
30
0.0
11
1541.1974
21
599.9422
31
0.0
12
1549.1974
22
599.9422
32
0.0
13
1549.1975
23
599.9423
33
1.0E-4
0
3DFACE
8
0
10
1510.0
20
560.0
30
0.0
11
1506.0
21
567.0
31
0.0
12
1514.0
22
567.0
32
0.0
13
1514.0001
23
567.0001
33
1.0E-4
0
LINE
8
0
10
1510.0
20
560.0
30
0.0
11
1539.4808
21
560.0
31
0.0
0
LINE
8
0
10
1539.4808
20
560.0
30
0.0
11
1566.1176
21
560.0
31
0.0
0
LINE
8
0
10
1566.1176
20
560.0
30
0.0
11
1540.325
21
585.79254
31
0.0
0
LINE
8
0
10
1540.325
20
585.79254
30
0.0
11
1540.325
21
608.74115
31
0.0
0
LINE
8
0
10
1540.325
20
608.74115
30
0.0
11
1565.3173
21
608.74115
31
0.0
0
3DFACE
8
0
10
1537.6494
20
581.07336
30
0.0
11
1533.6494
21
588.07336
31
0.0
12
1541.6494
22
588.07336
32
0.0
13
1541.6495
23
588.0735
33
1.0E-4
0
3DFACE
8
0
10
1660.0
20
560.0
30
0.0
11
1656.0
21
567.0
31
0.0
12
1664.0
22
567.0
32
0.0
13
1664.0001
23
567.0001
33
1.0E-4
0
LINE
8
0
10
1660.0
20
560.0
30
0.0
11
1660.0
21
586.9988
31
0.0
0
LINE
8
0
10
1660.0
20
586.9988
30
0.0
11
1689.1082
21
616.1069
31
0.0
0
LINE
8
0
10
1689.1082
20
616.1069
30
0.0
11
1689.1082
21
576.5249
31
0.0
0
LINE
8
0
10
1689.1082
20
576.5249
30
0.0
11
1726.704
21
538.9291
31
0.0
0
LINE
8
0
10
1726.704
20
538.9291
30
0.0
11
1687.5063
21
499.7315
31
0.0
0
3DFACE
8
0
10
1712.2592
20
524.48425
30
0.0
11
1708.2592
21
531.48425
31
0.0
12
1716.2592
22
531.48425
32
0.0
13
1716.2593
23
531.4844
33
1.0E-4
0
3DFACE
8
0
10
1660.0
20
560.0
30
0.0
11
1656.0
21
567.0
31
0.0
12
1664.0
22
567.0
32
0.0
13
1664.0001
23
567.0001
33
1.0E-4
0
LINE
8
0
10
1660.0
20
560.0
30
0.0
11
1695.595
21
524.405
31
0.0
0
LINE
8
0
10
1695.595
20
524.405
30
0.0
11
1723.6113
21
496.3887
31
0.0
0
LINE
8
0
10
1723.6113
20
496.3887
30
0.0
11
1701.9398
21
496.3887
31
0.0
0
LINE
8
0
10
1701.9398
20
496.3887
30
0.0
11
1722.591
21
475.73755
31
0.0
0
LINE
8
0
10
1722.591
20
475.73755
30
0.0
11
1688.8688
21
475.73755
31
0.0
0
3DFACE
8
0
10
1725.377
20
439.22937
30
0.0
11
1721.377
21
446.22937
31
0.0
12
1729.377
22
446.22937
32
0.0
13
1729.3771
23
446.22946
33
1.0E-4
0
3DFACE
8
0
10
1660.0
20
560.0
30
0.0
11
1656.0
21
567.0
31
0.0
12
1664.0
22
567.0
32
0.0
13
1664.0001
23
567.0001
33
1.0E-4
0
LINE
8
0
10
1660.0
20
560.0
30
0.0
11
1681.219
21
560.0
31
0.0
0
LINE
8
0
10
1681.219
20
560.0
30
0.0
11
1715.0763
21
526.1427
31
0.0
0
LINE
8
0
10
1715.0763
20
526.1427
30
0.0
11
1690.8127
21
550.40625
31
0.0
0
LINE
8
0
10
1690.8127
20
550.40625
30
0.0
11
1728.8048
21
588.3984
31
0.0
0
LINE
8
0
10
1728.8048
20
588.3984
30
0.0
11
1702.9039
21
588.3984
31
0.0
0
3DFACE
8
0
10
1737.9375
20
588.3984
30
0.0
11
1733.9375
21
595.3984
31
0.0
12
1741.9375
22
595.3984
32
0.0
13
1741.9376
23
595.3985
33
1.0E-4
0
3DFACE
8
0
10
310.0
20
760.0
30
0.0
11
306.0
21
767.0
31
0.0
12
314.0
22
767.0
32
0.0
13
314.0001
23
767.0001
33
1.0E-4
0
LINE
8
0
10
310.0
20
760.0
30
0.0
11
335.9079
21
734.0921
31
0.0
0
LINE
8
0
10
335.9079
20
734.0921
30
0.0
11
335.9079
21
758.39655
31
0.0
0
LINE
8
0
10
335.9079
20
758.39655
30
0.0
11
369.011
21
725.29346
31
0.0
0
LINE
8
0
10
369.011
20
725.29346
30
0.0
11
369.011
21
756.78015
31
0.0
0
LINE
8
0
10
369.011
20
756.78015
30
0.0
11
348.3758
21
756.78015
31
0.0
0
LINE
8
0
10
348.3758
20
756.78015
30
0.0
11
383.37076
21
791.77515
31
0.0
0
3DFACE
8
0
10
354.00528
20
791.77515
30
0.0
11
350.00528
21
798.77515
31
0.0
12
358.00528
22
798.77515
32
0.0
13
358.00537
23
798.77527
33
1.0E-4
0
3DFACE
8
0
10
310.0
20
760.0
30
0.0
11
306.0
21
767.0
31
0.0
12
314.0
22
767.0
32
0.0
13
314.0001
23
767.0001
33
1.0E-4
0
LINE
8
0
10
310.0
20
760.0
30
0.0
11
331.9042
21
738.09576
31
0.0
0
LINE
8
0
10
331.9042
20
738.09576
30
0.0
11
361.83984
21
768.03143
31
0.0
0
LINE
8
0
10
361.83984
20
768.03143
30
0.0
11
328.36966
21
801.50165
31
0.0
0
LINE
8
0
10
328.36966
20
801.50165
30
0.0
11
328.36966
21
837.816
31
0.0
0
LINE
8
0
10
328.36966
20
837.816
30
0.0
11
328.36966
21
815.1123
31
0.0
0
LINE
8
0
10
328.36966
20
815.1123
30
0.0
11
368.11108
21
854.85376
31
0.0
0
3DFACE
8
0
10
343.7686
20
830.5113
30
0.0
11
339.7686
21
837.5113
31
0.0
12
347.7686
22
837.5113
32
0.0
13
347.76868
23
837.5114
33
1.0E-4
0
3DFACE
8
0
10
310.0
20
760.0
30
0.0
11
306.0
21
767.0
31
0.0
12
314.0
22
767.0
32
0.0
13
314.0001
23
767.0001
33
1.0E-4
0
LINE
8
0
10
310.0
20
760.0
30
0.0
11
339.56308
21
730.43695
31
0.0
0
LINE
8
0
10
339.56308
20
730.43695
30
0.0
11
370.02197
21
699.9781
31
0.0
0
LINE
8
0
10
370.02197
20
699.9781
30
0.0
11
370.02197
21
729.2803
31
0.0
0
LINE
8
0
10
370.02197
20
729.2803
30
0.0
11
349.81393
21
709.07227
31
0.0
0
LINE
8
0
10
349.81393
20
709.07227
30
0.0
11
349.81393
21
734.65625
31
0.0
0
LINE
8
0
10
349.81393
20
734.65625
30
0.0
11
349.81393
21
764.69763
31
0.0
0
3DFACE
8
0
10
382.505
20
732.00653
30
0.0
11
378.505
21
739.00653
31
0.0
12
386.505
22
739.00653
32
0.0
13
386.5051
23
739.00665
33
1.0E-4
0
3DFACE
8
0
10
460.0
20
760.0
30
0.0
11
456.0
21
767.0
31
0.0
12
464.0
22
767.0
32
0.0
13
464.0001
23
767.0001
33
1.0E-4
0
LINE
8
0
10
460.0
20
760.0
30
0.0
11
489.065
21
789.065
31
0.0
0
LINE
8
0
10
489.065
20
789.065
30
0.0
11
524.39294
21
753.73706
31
0.0
0
LINE
8
0
10
524.39294
20
753.73706
30
0.0
11
500.47464
21
729.8187
31
0.0
0
LINE
8
0
10
500.47464
20
729.8187
30
0.0
11
500.47464
21
750.52936
31
0.0
0
LINE
8
0
10
500.47464
20
750.52936
30
0.0
11
527.67194
21
777.7267
31
0.0
0
LINE
8
0
10
527.67194
20
777.7267
30
0.0
11
504.91177
21
754.9665
31
0.0
0
3DFACE
8
0
10
529.38324
20
754.9665
30
0.0
11
525.38324
21
761.9665
31
0.0
12
533.38324
22
761.9665
32
0.0
13
533.38336
23
761.9666
33
1.0E-4
0
3DFACE
8
0
10
460.0
20
760.0
30
0.0
11
456.0
21
767.0
31
0.0
12
464.0
22
767.0
32
0.0
13
464.0001
23
767.0001
33
1.0E-4
0
LINE
8
0
10
460.0
20
760.0
30
0.0
11
460.0
21
795.67456
31
0.0
0
LINE
8
0
10
460.0
20
795.67456
30
0.0
11
460.0
21
822.26105
31
0.0
0
LINE
8
0
10
460.0
20
822.26105
30
0.0
11
481.50223
21
822.26105
31
0.0
0
LINE
8
0
10
481.50223
20
822.26105
30
0.0
11
519.7575
21
822.26105
31
0.0
0
LINE
8
0
10
519.7575
20
822.26105
30
0.0
11
497.88348
21
822.26105
31
0.0
0
LINE
8
0
10
497.88348
20
822.26105
30
0.0
11
518.662
21
801.48254
31
0.0
0
3DFACE
8
0
10
485.24872
20
801.48254
30
0.0
11
481.24872
21
808.48254
31
0.0
12
489.24872
22
808.48254
32
0.0
13
489.2488
23
808.48267
33
1.0E-4
0
3DFACE
8
0
10
460.0
20
760.0
30
0.0
11
456.0
21
767.0
31
0.0
12
464.0
22
767.0
32
0.0
13
464.0001
23
767.0001
33
1.0E-4
0
LINE
8
0
10
460.0
20
760.0
30
0.0
11
498.7849
21
760.0
31
0.0
0
LINE
8
0
10
498.7849
20
760.0
30
0.0
11
498.7849
21
790.493
31
0.0
0
LINE
8
0
10
498.7849
20
790.493
30
0.0
11
537.40466
21
751.8732
31
0.0
0
LINE
8
0
10
537.40466
20
751.8732
30
0.0
11
498.1909
21
791.08704
31
0.0
0
LINE
8
0
10
498.1909
20
791.08704
30
0.0
11
498.1909
21
823.83606
31
0.0
0
LINE
8
0
10
498.1909
20
823.83606
30
0.0
11
537.5115
21
863.1567
31
0.0
0
3DFACE
8
0
10
506.12073
20
863.1567
30
0.0
11
502.12073
21
870.1567
31
0.0
12
510.12073
22
870.1567
32
0.0
13
510.12082
23
870.1568
33
1.0E-4
0
3DFACE
8
0
10
610.0
20
760.0
30
0.0
11
606.0
21
767.0
31
0.0
12
614.0
22
767.0
32
0.0
13
614.0001
23
767.0001
33
1.0E-4
0
LINE
8
0
10
610.0
20
760.0
30
0.0
11
643.1497
21
760.0
31
0.0
0
LINE
8
0
10
643.1497
20
760.0
30
0.0
11
676.6143
21
760.0
31
0.0
0
LINE
8
0
10
676.6143
20
760.0
30
0.0
11
641.7995
21
760.0
31
0.0
0
LINE
8
0
10
641.7995
20
760.0
30
0.0
11
667.40283
21
734.39667
31
0.0
0
LINE
8
0
10
667.40283
20
734.39667
30
0.0
11
636.18896
21
703.1828
31
0.0
0
LINE
8
0
10
636.18896
20
703.1828
30
0.0
11
661.1344
21
728.12823
31
0.0
0
3DFACE
8
0
10
661.1344
20
765.0313
30
0.0
11
657.1344
21
772.0313
31
0.0
12
665.1344
22
772.0313
32
0.0
13
665.1345
23
772.03143
33
1.0E-4
0
3DFACE
8
0
10
610.0
20
760.0
30
0.0
11
606.0
21
767.0
31
0.0
12
614.0
22
767.0
32
0.0
13
614.0001
23
767.0001
33
1.0E-4
0
LINE
8
0
10
610.0
20
760.0
30
0.0
11
641.09094
21
760.0
31
0.0
0
LINE
8
0
10
641.09094
20
760.0
30
0.0
11
641.09094
21
795.5868
31
0.0
0
LINE
8
0
10
641.09094
20
795.5868
30
0.0
11
671.2185
21
825.71436
31
0.0
0
LINE
8
0
10
671.2185
20
825.71436
30
0.0
11
645.85455
21
825.71436
31
0.0
0
LINE
8
0
10
645.85455
20
825.71436
30
0.0
11
645.85455
21
803.70465
31
0.0
0
LINE
8
0
10
645.85455
20
803.70465
30
0.0
11
645.85455
21
830.43243
31
0.0
0
3DFACE
8
0
10
645.85455
20
802.8318
30
0.0
11
641.85455
21
809.8318
31
0.0
12
649.85455
22
809.8318
32
0.0
13
649.8547
23
809.8319
33
1.0E-4
0
3DFACE
8
0
10
610.0
20
760.0
30
0.0
11
606.0
21
767.0
31
0.0
12
614.0
22
767.0
32
0.0
13
614.0001
23
767.0001
33
1.0E-4
0
LINE
8
0
10
610.0
20
760.0
30
0.0
11
640.71545
21
760.0
31
0.0
0
LINE
8
0
10
640.71545
20
760.0
30
0.0
11
640.71545
21
786.98193
31
0.0
0
LINE
8
0
10
640.71545
20
786.98193
30
0.0
11
640.71545
21
825.9244
31
0.0
0
LINE
8
0
10
640.71545
20
825.9244
30
0.0
11
673.33
21
793.3098
31
0.0
0
LINE
8
0
10
673.33
20
793.3098
30
0.0
11
651.08887
21
771.06866
31
0.0
0
LINE
8
0
10
651.08887
20
771.06866
30
0.0
11
651.08887
21
804.9195
31
0.0
0
3DFACE
8
0
10
686.3605
20
769.6479
30
0.0
11
682.3605
21
776.6479
31
0.0
12
690.3605
22
776.6479
32
0.0
13
690.3606
23
776.648
33
1.0E-4
0
3DFACE
8
0
10
760.0
20
760.0
30
0.0
11
756.0
21
767.0
31
0.0
12
764.0
22
767.0
32
0.0
13
764.0001
23
767.0001
33
1.0E-4
0
LINE
8
0
10
760.0
20
760.0
30
0.0
11
790.1866
21
729.8134
31
0.0
0
LINE
8
0
10
790.1866
20
729.8134
30
0.0
11
811.3071
21
750.93396
31
0.0
0
LINE
8
0
10
811.3071
20
750.93396
30
0.0
11
776.9284
21
785.3127
31
0.0
0
LINE
8
0
10
776.9284
20
785.3127
30
0.0
11
776.9284
21
818.5048
31
0.0
0
LINE
8
0
10
776.9284
20
818.5048
30
0.0
11
797.73425
21
797.699
31
0.0
0
LINE
8
0
10
797.73425
20
797.699
30
0.0
11
825.3173
21
797.699
31
0.0
0
3DFACE
8
0
10
800.6061
20
797.699
30
0.0
11
796.6061
21
804.699
31
0.0
12
804.6061
22
804.699
32
0.0
13
804.6062
23
804.6991
33
1.0E-4
0
3DFACE
8
0
10
760.0
20
760.0
30
0.0
11
756.0
21
767.0
31
0.0
12
764.0
22
767.0
32
0.0
13
764.0001
23
767.0001
33
1.0E-4
0
LINE
8
0
10
760.0
20
760.0
30
0.0
11
760.0
21
783.88806
31
0.0
0
LINE
8
0
10
760.0
20
783.88806
30
0.0
11
792.53613
21
783.88806
31
0.0
0
LINE
8
0
10
792.53613
20
783.88806
30
0.0
11
830.1273
21
783.88806
31
0.0
0
LINE
8
0
10
830.1273
20
783.88806
30
0.0
11
791.58765
21
783.88806
31
0.0
0
LINE
8
0
10
791.58765
20
783.88806
30
0.0
11
826.33466
21
749.14105
31
0.0
0
LINE
8
0
10
826.33466
20
749.14105
30
0.0
11
799.09393
21
776.3818
31
0.0
0
3DFACE
8
0
10
835.85547
20
813.1433
30
0.0
11
831.85547
21
820.1433
31
0.0
12
839.85547
22
820.1433
32
0.0
13
839.8556
23
820.14343
33
1.0E-4
0
3DFACE
8
0
10
760.0
20
760.0
30
0.0
11
756.0
21
767.0
31
0.0
12
764.0
22
767.0
32
0.0
13
764.0001
23
767.0001
33
1.0E-4
0
LINE
8
0
10
760.0
20
760.0
30
0.0
11
781.6355
21
738.3645
31
0.0
0
LINE
8
0
10
781.6355
20
738.3645
30
0.0
11
781.6355
21
765.61914
31
0.0
0
LINE
8
0
10
781.6355
20
765.61914
30
0.0
11
781.6355
21
788.8258
31
0.0
0
LINE
8
0
10
781.6355
20
788.8258
30
0.0
11
818.7036
21
825.8939
31
0.0
0
LINE
8
0
10
818.7036
20
825.8939
30
0.0
11
779.91144
21
825.8939
31
0.0
0
LINE
8
0
10
779.91144
20
825.8939
30
0.0
11
800.5169
21
846.4994
31
0.0
0
3DFACE
8
0
10
832.13605
20
846.4994
30
0.0
11
828.13605
21
853.4994
31
0.0
12
836.13605
22
853.4994
32
0.0
13
836.13617
23
853.4995
33
1.0E-4
0
3DFACE
8
0
10
910.0
20
760.0
30
0.0
11
906.0
21
767.0
31
0.0
12
914.0
22
767.0
32
0.0
13
914.0001
23
767.0001
33
1.0E-4
0
LINE
8
0
10
910.0
20
760.0
30
0.0
11
935.326
21
760.0
31
0.0
0
LINE
8
0
10
935.326
20
760.0
30
0.0
11
935.326
21
797.19836
31
0.0
0
LINE
8
0
10
935.326
20
797.19836
30
0.0
11
960.4434
21
797.19836
31
0.0
0
LINE
8
0
10
960.4434
20
797.19836
30
0.0
11
940.304
21
777.05896
31
0.0
0
LINE
8
0
10
940.304
20
777.05896
30
0.0
11
961.8421
21
777.05896
31
0.0
0
LINE
8
0
10
961.8421
20
777.05896
30
0.0
11
927.9623
21
777.05896
31
0.0
0
3DFACE
8
0
10
966.8944
20
815.9911
30
0.0
11
962.8944
21
822.9911
31
0.0
12
970.8944
22
822.9911
32
0.0
13
970.89453
23
822.9912
33
1.0E-4
0
3DFACE
8
0
10
910.0
20
760.0
30
0.0
11
906.0
21
767.0
31
0.0
12
914.0
22
767.0
32
0.0
13
914.0001
23
767.0001
33
1.0E-4
0
LINE
8
0
10
910.0
20
760.0
30
0.0
11
943.26373
21
726.73627
31
0.0
0
LINE
8
0
10
943.26373
20
726.73627
30
0.0
11
943.26373
21
766.6293
31
0.0
0
LINE
8
0
10
943.26373
20
766.6293
30
0.0
11
972.34985
21
795.7154
31
0.0
0
LINE
8
0
10
972.34985
20
795.7154
30
0.0
11
945.8468
21
822.21844
31
0.0
0
LINE
8
0
10
945.8468
20
822.21844
30
0.0
11
945.8468
21
786.025
31
0.0
0
LINE
8
0
10
945.8468
20
786.025
30
0.0
11
945.8468
21
811.56006
31
0.0
0
3DFACE
8
0
10
978.20667
20
779.2002
30
0.0
11
974.20667
21
786.2002
31
0.0
12
982.20667
22
786.2002
32
0.0
13
982.2068
23
786.2003
33
1.0E-4
0
3DFACE
8
0
10
910.0
20
760.0
30
0.0
11
906.0
21
767.0
31
0.0
12
914.0
22
767.0
32
0.0
13
914.0001
23
767.0001
33
1.0E-4
0
LINE
8
0
10
910.0
20
760.0
30
0.0
11
910.0
21
798.01654
31
0.0
0
LINE
8
0
10
910.0
20
798.01654
30
0.0
11
936.6199
21
771.3966
31
0.0
0
LINE
8
0
10
936.6199
20
771.3966
30
0.0
11
962.8044
21
745.2121
31
0.0
0
LINE
8
0
10
962.8044
20
745.2121
30
0.0
11
962.8044
21
768.7293
31
0.0
0
LINE
8
0
10
962.8044
20
768.7293
30
0.0
11
962.8044
21
793.89215
31
0.0
0
LINE
8
0
10
962.8044
20
793.89215
30
0.0
11
925.67285
21
793.89215
31
0.0
0
3DFACE
8
0
10
954.93994
20
823.15924
30
0.0
11
950.93994
21
830.15924
31
0.0
12
958.93994
22
830.15924
32
0.0
13
958.94006
23
830.15936
33
1.0E-4
0
3DFACE
8
0
10
1060.0
20
760.0
30
0.0
11
1056.0
21
767.0
31
0.0
12
1064.0
22
767.0
32
0.0
13
1064.0001
23
767.0001
33
1.0E-4
0
LINE
8
0
10
1060.0
20
760.0
30
0.0
11
1060.0
21
796.8786
31
0.0
0
LINE
8
0
10
1060.0
20
796.8786
30
0.0
11
1060.0
21
817.4442
31
0.0
0
LINE
8
0
10
1060.0
20
817.4442
30
0.0
11
1089.8724
21
787.5718
31
0.0
0
LINE
8
0
10
1089.8724
20
787.5718
30
0.0
11
1089.8724
21
819.99176
31
0.0
0
LINE
8
0
10
1089.8724
20
819.99176
30
0.0
11
1123.7021
21
853.8215
31
0.0
0
LINE
8
0
10
1123.7021
20
853.8215
30
0.0
11
1088.0007
21
853.8215
31
0.0
0
3DFACE
8
0
10
1112.6378
20
878.45856
30
0.0
11
1108.6378
21
885.45856
31
0.0
12
1116.6378
22
885.45856
32
0.0
13
1116.638
23
885.4587
33
1.0E-4
0
3DFACE
8
0
10
1060.0
20
760.0
30
0.0
11
1056.0
21
767.0
31
0.0
12
1064.0
22
767.0
32
0.0
13
1064.0001
23
767.0001
33
1.0E-4
0
LINE
8
0
10
1060.0
20
760.0
30
0.0
11
1060.0
21
798.0735
31
0.0
0
LINE
8
0
10
1060.0
20
798.0735
30
0.0
11
1096.1534
21
798.0735
31
0.0
0
LINE
8
0
10
1096.1534
20
798.0735
30
0.0
11
1131.4353
21
833.35535
31
0.0
0
LINE
8
0
10
1131.4353
20
833.35535
30
0.0
11
1109.6785
21
811.59845
31
0.0
0
LINE
8
0
10
1109.6785
20
811.59845
30
0.0
11
1109.6785
21
780.3349
31
0.0
0
LINE
8
0
10
1109.6785
20
780.3349
30
0.0
11
1109.6785
21
810.8993
31
0.0
0
3DFACE
8
0
10
1084.8352
20
786.05597
30
0.0
11
1080.8352
21
793.05597
31
0.0
12
1088.8352
22
793.05597
32
0.0
13
1088.8353
23
793.0561
33
1.0E-4
0
3DFACE
8
0
10
1060.0
20
760.0
30
0.0
11
1056.0
21
767.0
31
0.0
12
1064.0
22
767.0
32
0.0
13
1064.0001
23
767.0001
33
1.0E-4
0
LINE
8
0
10
1060.0
20
760.0
30
0.0
11
1060.0
21
781.9394
31
0.0
0
LINE
8
0
10
1060.0
20
781.9394
30
0.0
11
1093.9136
21
748.02576
31
0.0
0
LINE
8
0
10
1093.9136
20
748.02576
30
0.0
11
1117.4023
21
748.02576
31
0.0
0
LINE
8
0
10
1117.4023
20
748.02576
30
0.0
11
1094.7206
21
748.02576
31
0.0
0
LINE
8
0
10
1094.7206
20
748.02576
30
0.0
11
1094.7206
21
774.6691
31
0.0
0
LINE
8
0
10
1094.7206
20
774.6691
30
0.0
11
1123.2512
21
803.19977
31
0.0
0
3DFACE
8
0
10
1123.2512
20
827.57104
30
0.0
11
1119.2512
21
834.57104
31
0.0
12
1127.2512
22
834.57104
32
0.0
13
1127.2513
23
834.57117
33
1.0E-4
0
3DFACE
8
0
10
1210.0
20
760.0
30
0.0
11
1206.0
21
767.0
31
0.0
12
1214.0
22
767.0
32
0.0
13
1214.0001
23
767.0001
33
1.0E-4
0
LINE
8
0
10
1210.0
20
760.0
30
0.0
11
1247.2908
21
760.0
31
0.0
0
LINE
8
0
10
1247.2908
20
760.0
30
0.0
11
1271.9165
21
760.0
31
0.0
0
LINE
8
0
10
1271.9165
20
760.0
30
0.0
11
1271.9165
21
789.5918
31
0.0
0
LINE
8
0
10
1271.9165
20
789.5918
30
0.0
11
1271.9165
21
815.247
31
0.0
0
LINE
8
0
10
1271.9165
20
815.247
30
0.0
11
1234.8105
21
852.35297
31
0.0
0
LINE
8
0
10
1234.8105
20
852.35297
30
0.0
11
1234.8105
21
819.3816
31
0.0
0
3DFACE
8
0
10
1266.6674
20
851.23834
30
0.0
11
1262.6674
21
858.23834
31
0.0
12
1270.6674
22
858.23834
32
0.0
13
1270.6675
23
858.23846
33
1.0E-4
0
3DFACE
8
0
10
1210.0
20
760.0
30
0.0
11
1206.0
21
767.0
31
0.0
12
1214.0
22
767.0
32
0.0
13
1214.0001
23
767.0001
33
1.0E-4
0
LINE
8
0
10
1210.0
20
760.0
30
0.0
11
1238.0679
21
788.0678
31
0.0
0
LINE
8
0
10
1238.0679
20
788.0678
30
0.0
11
1258.6935
21
788.0678
31
0.0
0
LINE
8
0
10
1258.6935
20
788.0678
30
0.0
11
1258.6935
21
812.28595
31
0.0
0
LINE
8
0
10
1258.6935
20
812.28595
30
0.0
11
1237.2728
21
812.28595
31
0.0
0
LINE
8
0
10
1237.2728
20
812.28595
30
0.0
11
1237.2728
21
781.3271
31
0.0
0
LINE
8
0
10
1237.2728
20
781.3271
30
0.0
11
1269.1492
21
781.3271
31
0.0
0
3DFACE
8
0
10
1234.0355
20
781.3271
30
0.0
11
1230.0355
21
788.3271
31
0.0
12
1238.0355
22
788.3271
32
0.0
13
1238.0356
23
788.3272
33
1.0E-4
0
3DFACE
8
0
10
1210.0
20
760.0
30
0.0
11
1206.0
21
767.0
31
0.0
12
1214.0
22
767.0
32
0.0
13
1214.0001
23
767.0001
33
1.0E-4
0
LINE
8
0
10
1210.0
20
760.0
30
0.0
11
1247.5314
21
722.4687
31
0.0
0
LINE
8
0
10
1247.5314
20
722.4687
30
0.0
11
1247.5314
21
751.64526
31
0.0
0
LINE
8
0
10
1247.5314
20
751.64526
30
0.0
11
1247.5314
21
790.3536
31
0.0
0
LINE
8
0
10
1247.5314
20
790.3536
30
0.0
11
1284.6252
21
753.2597
31
0.0
0
LINE
8
0
10
1284.6252
20
753.2597
30
0.0
11
1263.599
21
753.2597
31
0.0
0
LINE
8
0
10
1263.599
20
753.2597
30
0.0
11
1263.599
21
783.58923
31
0.0
0
3DFACE
8
0
10
1224.0482
20
744.03845
30
0.0
11
1220.0482
21
751.03845
31
0.0
12
1228.0482
22
751.03845
32
0.0
13
1228.0483
23
751.0386
33
1.0E-4
0
3DFACE
8
0
10
1360.0
20
760.0
30
0.0
11
1356.0
21
767.0
31
0.0
12
1364.0
22
767.0
32
0.0
13
1364.0001
23
767.0001
33
1.0E-4
0
LINE
8
0
10
1360.0
20
760.0
30
0.0
11
1393.7467
21
760.0
31
0.0
0
LINE
8
0
10
1393.7467
20
760.0
30
0.0
11
1393.7467
21
798.7001
31
0.0
0
LINE
8
0
10
1393.7467
20
798.7001
30
0.0
11
1423.0178
21
769.429
31
0.0
0
LINE
8
0
10
1423.0178
20
769.429
30
0.0
11
1394.9897
21
769.429
31
0.0
0
LINE
8
0
10
1394.9897
20
769.429
30
0.0
11
1431.3158
21
733.10297
31
0.0
0
LINE
8
0
10
1431.3158
20
733.10297
30
0.0
11
1431.3158
21
765.1016
31
0.0
0
3DFACE
8
0
10
1401.0598
20
765.1016
30
0.0
11
1397.0598
21
772.1016
31
0.0
12
1405.0598
22
772.1016
32
0.0
13
1405.0599
23
772.10175
33
1.0E-4
0
3DFACE
8
0
10
1360.0
20
760.0
30
0.0
11
1356.0
21
767.0
31
0.0
12
1364.0
22
767.0
32
0.0
13
1364.0001
23
767.0001
33
1.0E-4
0
LINE
8
0
10
1360.0
20
760.0
30
0.0
11
1360.0
21
784.23065
31
0.0
0
LINE
8
0
10
1360.0
20
784.23065
30
0.0
11
1394.8071
21
784.23065
31
0.0
0
LINE
8
0
10
1394.8071
20
784.23065
30
0.0
11
1417.9463
21
761.09155
31
0.0
0
LINE
8
0
10
1417.9463
20
761.09155
30
0.0
11
1386.4888
21
729.63403
31
0.0
0
LINE
8
0
10
1386.4888
20
729.63403
30
0.0
11
1386.4888
21
766.0894
31
0.0
0
LINE
8
0
10
1386.4888
20
766.0894
30
0.0
11
1386.4888
21
795.1139
31
0.0
0
3DFACE
8
0
10
1408.579
20
817.20416
30
0.0
11
1404.579
21
824.20416
31
0.0
12
1412.579
22
824.20416
32
0.0
13
1412.5791
23
824.2043
33
1.0E-4
0
3DFACE
8
0
10
1360.0
20
760.0
30
0.0
11
1356.0
21
767.0
31
0.0
12
1364.0
22
767.0
32
0.0
13
1364.0001
23
767.0001
33
1.0E-4
0
LINE
8
0
10
1360.0
20
760.0
30
0.0
11
1381.3964
21
738.6037
31
0.0
0
LINE
8
0
10
1381.3964
20
738.6037
30
0.0
11
1409.2697
21
738.6037
31
0.0
0
LINE
8
0
10
1409.2697
20
738.6037
30
0.0
11
1409.2697
21
770.7144
31
0.0
0
LINE
8
0
10
1409.2697
20
770.7144
30
0.0
11
1375.4664
21
804.5177
31
0.0
0
LINE
8
0
10
1375.4664
20
804.5177
30
0.0
11
1397.7871
21
826.8383
31
0.0
0
LINE
8
0
10
1397.7871
20
826.8383
30
0.0
11
1426.6399
21
797.98553
31
0.0
0
3DFACE
8
0
10
1426.6399
20
824.7387
30
0.0
11
1422.6399
21
831.7387
31
0.0
12
1430.6399
22
831.7387
32
0.0
13
1430.64
23
831.73883
33
1.0E-4
0
3DFACE
8
0
10
1510.0
20
760.0
30
0.0
11
1506.0
21
767.0
31
0.0
12
1514.0
22
767.0
32
0.0
13
1514.0001
23
767.0001
33
1.0E-4
0
LINE
8
0
10
1510.0
20
760.0
30
0.0
11
1510.0
21
786.665
31
0.0
0
LINE
8
0
10
1510.0
20
786.665
30
0.0
11
1541.6912
21
786.665
31
0.0
0
LINE
8
0
10
1541.6912
20
786.665
30
0.0
11
1541.6912
21
824.2274
31
0.0
0
LINE
8
0
10
1541.6912
20
824.2274
30
0.0
11
1565.4045
21
800.51404
31
0.0
0
LINE
8
0
10
1565.4045
20
800.51404
30
0.0
11
1535.0519
21
800.51404
31
0.0
0
LINE
8
0
10
1535.0519
20
800.51404
30
0.0
11
1574.7134
21
800.51404
31
0.0
0
3DFACE
8
0
10
1545.7197
20
771.5204
30
0.0
11
1541.7197
21
778.5204
31
0.0
12
1549.7197
22
778.5204
32
0.0
13
1549.7198
23
778.5205
33
1.0E-4
0
3DFACE
8
0
10
1510.0
20
760.0
30
0.0
11
1506.0
21
767.0
31
0.0
12
1514.0
22
767.0
32
0.0
13
1514.0001
23
767.0001
33
1.0E-4
0
LINE
8
0
10
1510.0
20
760.0
30
0.0
11
1531.6038
21
738.39624
31
0.0
0
LINE
8
0
10
1531.6038
20
738.39624
30
0.0
11
1555.7063
21
762.49884
31
0.0
0
LINE
8
0
10
1555.7063
20
762.49884
30
0.0
11
1517.8977
21
762.49884
31
0.0
0
LINE
8
0
10
1517.8977
20
762.49884
30
0.0
11
1517.8977
21
788.1897
31
0.0
0
LINE
8
0
10
1517.8977
20
788.1897
30
0.0
11
1517.8977
21
825.28125
31
0.0
0
LINE
8
0
10
1517.8977
20
825.28125
30
0.0
11
1552.7574
21
860.141
31
0.0
0
3DFACE
8
0
10
1575.1138
20
837.7847
30
0.0
11
1571.1138
21
844.7847
31
0.0
12
1579.1138
22
844.7847
32
0.0
13
1579.1139
23
844.78485
33
1.0E-4
0
3DFACE
8
0
10
1510.0
20
760.0
30
0.0
11
1506.0
21
767.0
31
0.0
12
1514.0
22
767.0
32
0.0
13
1514.0001
23
767.0001
33
1.0E-4
0
LINE
8
0
10
1510.0
20
760.0
30
0.0
11
1542.2457
21
727.7542
31
0.0
0
LINE
8
0
10
1542.2457
20
727.7542
30
0.0
11
1567.7483
21
702.2517
31
0.0
0
LINE
8
0
10
1567.7483
20
702.2517
30
0.0
11
1538.8883
21
702.2517
31
0.0
0
LINE
8
0
10
1538.8883
20
702.2517
30
0.0
11
1538.8883
21
735.99976
31
0.0
0
LINE
8
0
10
1538.8883
20
735.99976
30
0.0
11
1538.8883
21
756.0059
31
0.0
0
LINE
8
0
10
1538.8883
20
756.0059
30
0.0
11
1562.1084
21
779.226
31
0.0
0
3DFACE
8
0
10
1532.2075
20
809.12695
30
0.0
11
1528.2075
21
816.12695
31
0.0
12
1536.2075
22
816.12695
32
0.0
13
1536.2076
23
816.1271
33
1.0E-4
0
3DFACE
8
0
10
1660.0
20
760.0
30
0.0
11
1656.0
21
767.0
31
0.0
12
1664.0
22
767.0
32
0.0
13
1664.0001
23
767.0001
33
1.0E-4
0
LINE
8
0
10
1660.0
20
760.0
30
0.0
11
1683.663
21
760.0
31
0.0
0
LINE
8
0
10
1683.663
20
760.0
30
0.0
11
1712.1323
21
760.0
31
0.0
0
LINE
8
0
10
1712.1323
20
760.0
30
0.0
11
1712.1323
21
795.32904
31
0.0
0
LINE
8
0
10
1712.1323
20
795.32904
30
0.0
11
1679.2394
21
762.4361
31
0.0
0
LINE
8
0
10
1679.2394
20
762.4361
30
0.0
11
1699.6719
21
762.4361
31
0.0
0
LINE
8
0
10
1699.6719
20
762.4361
30
0.0
11
1725.1475
21
787.9116
31
0.0
0
3DFACE
8
0
10
1700.5211
20
787.9116
30
0.0
11
1696.5211
21
794.9116
31
0.0
12
1704.5211
22
794.9116
32
0.0
13
1704.5212
23
794.91174
33
1.0E-4
0
3DFACE
8
0
10
1660.0
20
760.0
30
0.0
11
1656.0
21
767.0
31
0.0
12
1664.0
22
767.0
32
0.0
13
1664.0001
23
767.0001
33
1.0E-4
0
LINE
8
0
10
1660.0
20
760.0
30
0.0
11
1682.2346
21
737.7654
31
0.0
0
LINE
8
0
10
1682.2346
20
737.7654
30
0.0
11
1716.5394
21
737.7654
31
0.0
0
LINE
8
0
10
1716.5394
20
737.7654
30
0.0
11
1676.9541
21
698.18005
31
0.0
0
LINE
8
0
10
1676.9541
20
698.18005
30
0.0
11
1676.9541
21
729.6049
31
0.0
0
LINE
8
0
10
1676.9541
20
729.6049
30
0.0
11
1708.0964
21
698.4625
31
0.0
0
LINE
8
0
10
1708.0964
20
698.4625
30
0.0
11
1708.0964
21
723.5776
31
0.0
0
3DFACE
8
0
10
1683.176
20
723.5776
30
0.0
11
1679.176
21
730.5776
31
0.0
12
1687.176
22
730.5776
32
0.0
13
1687.1761
23
730.5777
33
1.0E-4
0
3DFACE
8
0
10
1660.0
20
760.0
30
0.0
11
1656.0
21
767.0
31
0.0
12
1664.0
22
767.0
32
0.0
13
1664.0001
23
767.0001
33
1.0E-4
0
LINE
8
0
10
1660.0
20
760.0
30
0.0
11
1687.4982
21
732.50183
31
0.0
0
LINE
8
0
10
1687.4982
20
732.50183
30
0.0
11
1717.7684
21
702.23157
31
0.0
0
LINE
8
0
10
1717.7684
20
702.23157
30
0.0
11
1691.1096
21
702.23157
31
0.0
0
LINE
8
0
10
1691.1096
20
702.23157
30
0.0
11
1712.3751
21
702.23157
31
0.0
0
LINE
8
0
10
1712.3751
20
702.23157
30
0.0
11
1712.3751
21
724.3017
31
0.0
0
LINE
8
0
10
1712.3751
20
724.3017
30
0.0
11
1680.5889
21
724.3017
31
0.0
0
3DFACE
8
0
10
1705.0198
20
724.3017
30
0.0
11
1701.0198
21
731.3017
31
0.0
12
1709.0198
22
731.3017
32
0.0
13
1709.0199
23
731.3018
33
1.0E-4
0
3DFACE
8
0
10
310.0
20
960.0
30
0.0
11
306.0
21
967.0
31
0.0
12
314.0
22
967.0
32
0.0
13
314.0001
23
967.0001
33
1.0E-4
0
LINE
8
0
10
310.0
20
960.0
30
0.0
11
340.3754
21
960.0
31
0.0
0
LINE
8
0
10
340.3754
20
960.0
30
0.0
11
373.29886
21
927.07654
31
0.0
0
LINE
8
0
10
373.29886
20
927.07654
30
0.0
11
373.29886
21
965.607
31
0.0
0
LINE
8
0
10
373.29886
20
965.607
30
0.0
11
373.29886
21
1001.9837
31
0.0
0
LINE
8
0
10
373.29886
20
1001.9837
30
0.0
11
373.29886
21
1025.182
31
0.0
0
LINE
8
0
10
373.29886
20
1025.182
30
0.0
11
341.79242
21
1056.6885
31
0.0
0
LINE
8
0
10
341.79242
20
1056.6885
30
0.0
11
378.75476
21
1019.72614
31
0.0
0
3DFACE
8
0
10
378.75476
20
989.80615
30
0.0
11
374.75476
21
996.80615
31
0.0
12
382.75476
22
996.80615
32
0.0
13
382.75485
23
996.8063
33
1.0E-4
0
3DFACE
8
0
10
310.0
20
960.0
30
0.0
11
306.0
21
967.0
31
0.0
12
314.0
22
967.0
32
0.0
13
314.0001
23
967.0001
33
1.0E-4
0
LINE
8
0
10
310.0
20
960.0
30
0.0
11
332.12408
21
982.1241
31
0.0
0
LINE
8
0
10
332.12408
20
982.1241
30
0.0
11
359.46472
21
982.1241
31
0.0
0
LINE
8
0
10
359.46472
20
982.1241
30
0.0
11
332.15527
21
1009.43353
31
0.0
0
LINE
8
0
10
332.15527
20
1009.43353
30
0.0
11
354.92215
21
1032.2004
31
0.0
0
LINE
8
0
10
354.92215
20
1032.2004
30
0.0
11
354.92215
21
1004.8177
31
0.0
0
LINE
8
0
10
354.92215
20
1004.8177
30
0.0
11
389.0058
21
1038.9014
31
0.0
0
LINE
8
0
10
389.0058
20
1038.9014
30
0.0
11
364.34158
21
1038.9014
31
0.0
0
3DFACE
8
0
10
324.4915
20
999.0513
30
0.0
11
320.4915
21
1006.0513
31
0.0
12
328.4915
22
1006.0513
32
0.0
13
328.49158
23
1006.0514
33
1.0E-4
0
3DFACE
8
0
10
310.0
20
960.0
30
0.0
11
306.0
21
967.0
31
0.0
12
314.0
22
967.0
32
0.0
13
314.0001
23
967.0001
33
1.0E-4
0
LINE
8
0
10
310.0
20
960.0
30
0.0
11
347.36493
21
960.0
31
0.0
0
LINE
8
0
10
347.36493
20
960.0
30
0.0
11
384.64194
21
922.72296
31
0.0
0
LINE
8
0
10
384.64194
20
922.72296
30
0.0
11
353.91022
21
922.72296
31
0.0
0
LINE
8
0
10
353.91022
20
922.72296
30
0.0
11
353.91022
21
956.98883
31
0.0
0
LINE
8
0
10
353.91022
20
956.98883
30
0.0
11
382.81497
21
956.98883
31
0.0
0
LINE
8
0
10
382.81497
20
956.98883
30
0.0
11
360.7053
21
956.98883
31
0.0
0
LINE
8
0
10
360.7053
20
956.98883
30
0.0
11
333.19275
21
956.98883
31
0.0
0
3DFACE
8
0
10
359.3612
20
930.8204
30
0.0
11
355.3612
21
937.8204
31
0.0
12
363.3612
22
937.8204
32
0.0
13
363.3613
23
937.8205
33
1.0E-4
0
3DFACE
8
0
10
460.0
20
960.0
30
0.0
11
456.0
21
967.0
31
0.0
12
464.0
22
967.0
32
0.0
13
464.0001
23
967.0001
33
1.0E-4
0
LINE
8
0
10
460.0
20
960.0
30
0.0
11
460.0
21
995.4605
31
0.0
0
LINE
8
0
10
460.0
20
995.4605
30
0.0
11
460.0
21
1033.9143
31
0.0
0
LINE
8
0
10
460.0
20
1033.9143
30
0.0
11
481.41296
21
1055.3273
31
0.0
0
LINE
8
0
10
481.41296
20
1055.3273
30
0.0
11
511.7397
21
1025.0006
31
0.0
0
LINE
8
0
10
511.7397
20
1025.0006
30
0.0
11
483.0921
21
1025.0006
31
0.0
0
LINE
8
0
10
483.0921
20
1025.0006
30
0.0
11
483.0921
21
985.02045
31
0.0
0
LINE
8
0
10
483.0921
20
985.02045
30
0.0
11
483.0921
21
1014.1269
31
0.0
0
3DFACE
8
0
10
513.50116
20
983.71783
30
0.0
11
509.50116
21
990.71783
31
0.0
12
517.50116
22
990.71783
32
0.0
13
517.5013
23
990.71796
33
1.0E-4
0
3DFACE
8
0
10
460.0
20
960.0
30
0.0
11
456.0
21
967.0
31
0.0
12
464.0
22
967.0
32
0.0
13
464.0001
23
967.0001
33
1.0E-4
0
LINE
8
0
10
460.0
20
960.0
30
0.0
11
491.72302
21
960.0
31
0.0
0
LINE
8
0
10
491.72302
20
960.0
30
0.0
11
526.05865
21
925.66437
31
0.0
0
LINE
8
0
10
526.05865
20
925.66437
30
0.0
11
501.13162
21
900.7373
31
0.0
0
LINE
8
0
10
501.13162
20
900.7373
30
0.0
11
537.1843
21
936.79
31
0.0
0
LINE
8
0
10
537.1843
20
936.79
30
0.0
11
537.1843
21
969.1806
31
0.0
0
LINE
8
0
10
537.1843
20
969.1806
30
0.0
11
515.017
21
969.1806
31
0.0
0
LINE
8
0
10
515.017
20
969.1806
30
0.0
11
491.35962
21
945.5232
31
0.0
0
3DFACE
8
0
10
518.74457
20
945.5232
30
0.0
11
514.74457
21
952.5232
31
0.0
12
522.74457
22
952.5232
32
0.0
13
522.7447
23
952.5233
33
1.0E-4
0
3DFACE
8
0
10
460.0
20
960.0
30
0.0
11
456.0
21
967.0
31
0.0
12
464.0
22
967.0
32
0.0
13
464.0001
23
967.0001
33
1.0E-4
0
LINE
8
0
10
460.0
20
960.0
30
0.0
11
496.6895
21
996.6895
31
0.0
0
LINE
8
0
10
496.6895
20
996.6895
30
0.0
11
520.892
21
1020.892
31
0.0
0
LINE
8
0
10
520.892
20
1020.892
30
0.0
11
488.60977
21
1053.1743
31
0.0
0
LINE
8
0
10
488.60977
20
1053.1743
30
0.0
11
519.51447
21
1053.1743
31
0.0
0
LINE
8
0
10
519.51447
20
1053.1743
30
0.0
11
483.76517
21
1088.9236
31
0.0
0
LINE
8
0
10
483.76517
20
1088.9236
30
0.0
11
521.41016
21
1088.9236
31
0.0
0
LINE
8
0
10
521.41016
20
1088.9236
30
0.0
11
491.802
21
1118.5317
31
0.0
0
3DFACE
8
0
10
512.2946
20
1098.0391
30
0.0
11
508.29462
21
1105.0391
31
0.0
12
516.2946
22
1105.0391
32
0.0
13
516.29474
23
1105.0392
33
1.0E-4
0
3DFACE
8
0
10
610.0
20
960.0
30
0.0
11
606.0
21
967.0
31
0.0
12
614.0
22
967.0
32
0.0
13
614.0001
23
967.0001
33
1.0E-4
0
LINE
8
0
10
610.0
20
960.0
30
0.0
11
632.83936
21
982.83936
31
0.0
0
LINE
8
0
10
632.83936
20
982.83936
30
0.0
11
658.6627
21
957.016
31
0.0
0
LINE
8
0
10
658.6627
20
957.016
30
0.0
11
635.05334
21
957.016
31
0.0
0
LINE
8
0
10
635.05334
20
957.016
30
0.0
11
672.8634
21
919.20593
31
0.0
0
LINE
8
0
10
672.8634
20
919.20593
30
0.0
11
633.4548
21
919.20593
31
0.0
0
LINE
8
0
10
633.4548
20
919.20593
30
0.0
11
661.78406
21
947.5352
31
0.0
0
LINE
8
0
10
661.78406
20
947.5352
30
0.0
11
661.78406
21
980.476
31
0.0
0
3DFACE
8
0
10
624.3268
20
980.476
30
0.0
11
620.3268
21
987.476
31
0.0
12
628.3268
22
987.476
32
0.0
13
628.3269
23
987.47614
33
1.0E-4
0
3DFACE
8
0
10
610.0
20
960.0
30
0.0
11
606.0
21
967.0
31
0.0
12
614.0
22
967.0
32
0.0
13
614.0001
23
967.0001
33
1.0E-4
0
LINE
8
0
10
610.0
20
960.0
30
0.0
11
635.7079
21
960.0
31
0.0
0
LINE
8
0
10
635.7079
20
960.0
30
0.0
11
658.51544
21
960.0
31
0.0
0
LINE
8
0
10
658.51544
20
960.0
30
0.0
11
658.51544
21
981.2653
31
0.0
0
LINE
8
0
10
658.51544
20
981.2653
30
0.0
11
658.51544
21
1005.26666
31
0.0
0
LINE
8
0
10
658.51544
20
1005.26666
30
0.0
11
634.4106
21
1005.26666
31
0.0
0
LINE
8
0
10
634.4106
20
1005.26666
30
0.0
11
668.5222
21
1039.3783
31
0.0
0
LINE
8
0
10
668.5222
20
1039.3783
30
0.0
11
647.6454
21
1018.50146
31
0.0
0
3DFACE
8
0
10
667.9925
20
998.15436
30
0.0
11
663.9925
21
1005.15436
31
0.0
12
671.9925
22
1005.15436
32
0.0
13
671.9926
23
1005.1545
33
1.0E-4
0
3DFACE
8
0
10
610.0
20
960.0
30
0.0
11
606.0
21
967.0
31
0.0
12
614.0
22
967.0
32
0.0
13
614.0001
23
967.0001
33
1.0E-4
0
LINE
8
0
10
610.0
20
960.0
30
0.0
11
641.34863
21
960.0
31
0.0
0
LINE
8
0
10
641.34863
20
960.0
30
0.0
11
673.063
21
991.71436
31
0.0
0
LINE
8
0
10
673.063
20
991.71436
30
0.0
11
637.50806
21
991.71436
31
0.0
0
LINE
8
0
10
637.50806
20
991.71436
30
0.0
11
667.42065
21
961.80176
31
0.0
0
LINE
8
0
10
667.42065
20
961.80176
30
0.0
11
627.6137
21
1001.6087
31
0.0
0
LINE
8
0
10
627.6137
20
1001.6087
30
0.0
11
649.677
21
1001.6087
31
0.0
0
LINE
8
0
10
649.677
20
1001.6087
30
0.0
11
649.677
21
1033.2802
31
0.0
0
3DFACE
8
0
10
678.36096
20
1033.2802
30
0.0
11
674.36096
21
1040.2802
31
0.0
12
682.36096
22
1040.2802
32
0.0
13
682.3611
23
1040.2803
33
1.0E-4
0
3DFACE
8
0
10
760.0
20
960.0
30
0.0
11
756.0
21
967.0
31
0.0
12
764.0
22
967.0
32
0.0
13
764.0001
23
967.0001
33
1.0E-4
0
LINE
8
0
10
760.0
20
960.0
30
0.0
11
760.0
21
987.09766
31
0.0
0
LINE
8
0
10
760.0
20
987.09766
30
0.0
11
760.0
21
1016.09467
31
0.0
0
LINE
8
0
10
760.0
20
1016.09467
30
0.0
11
791.2743
21
1016.09467
31
0.0
0
LINE
8
0
10
791.2743
20
1016.09467
30
0.0
11
818.7365
21
988.63245
31
0.0
0
LINE
8
0
10
818.7365
20
988.63245
30
0.0
11
790.18463
21
960.08057
31
0.0
0
LINE
8
0
10
790.18463
20
960.08057
30
0.0
11
812.5735
21
982.4694
31
0.0
0
LINE
8
0
10
812.5735
20
982.4694
30
0.0
11
781.3665
21
951.26245
31
0.0
0
3DFACE
8
0
10
820.8461
20
951.26245
30
0.0
11
816.8461
21
958.26245
31
0.0
12
824.8461
22
958.26245
32
0.0
13
824.84625
23
958.2626
33
1.0E-4
0
3DFACE
8
0
10
760.0
20
960.0
30
0.0
11
756.0
21
967.0
31
0.0
12
764.0
22
967.0
32
0.0
13
764.0001
23
967.0001
33
1.0E-4
0
LINE
8
0
10
760.0
20
960.0
30
0.0
11
797.5932
21
960.0
31
0.0
0
LINE
8
0
10
797.5932
20
960.0
30
0.0
11
797.5932
21
982.86035
31
0.0
0
LINE
8
0
10
797.5932
20
982.86035
30
0.0
11
825.87256
21
954.58105
31
0.0
0
LINE
8
0
10
825.87256
20
954.58105
30
0.0
11
791.82355
21
988.63007
31
0.0
0
LINE
8
0
10
791.82355
20
988.63007
30
0.0
11
817.2101
21
963.2435
31
0.0
0
LINE
8
0
10
817.2101
20
963.2435
30
0.0
11
778.5024
21
1001.95123
31
0.0
0
LINE
8
0
10
778.5024
20
1001.95123
30
0.0
11
810.589
21
969.8646
31
0.0
0
3DFACE
8
0
10
810.589
20
1002.88947
30
0.0
11
806.589
21
1009.88947
31
0.0
12
814.589
22
1009.88947
32
0.0
13
814.5891
23
1009.8896
33
1.0E-4
0
3DFACE
8
0
10
760.0
20
960.0
30
0.0
11
756.0
21
967.0
31
0.0
12
764.0
22
967.0
32
0.0
13
764.0001
23
967.0001
33
1.0E-4
0
LINE
8
0
10
760.0
20
960.0
30
0.0
11
793.00305
21
993.00305
31
0.0
0
LINE
8
0
10
793.00305
20
993.00305
30
0.0
11
813.11316
21
993.00305
31
0.0
0
LINE
8
0
10
813.11316
20
993.00305
30
0.0
11
778.8321
21
1027.2842
31
0.0
0
LINE
8
0
10
778.8321
20
1027.2842
30
0.0
11
812.42377
21
993.6925
31
0.0
0
LINE
8
0
10
812.42377
20
993.6925
30
0.0
11
785.55414
21
1020.56213
31
0.0
0
LINE
8
0
10
785.55414
20
1020.56213
30
0.0
11
810.7944
21
1045.8024
31
0.0
0
LINE
8
0
10
810.7944
20
1045.8024
30
0.0
11
774.86145
21
1009.86945
31
0.0
0
3DFACE
8
0
10
813.1215
20
971.6094
30
0.0
11
809.1215
21
978.6094
31
0.0
12
817.1215
22
978.6094
32
0.0
13
817.12164
23
978.6095
33
1.0E-4
0
3DFACE
8
0
10
910.0
20
960.0
30
0.0
11
906.0
21
967.0
31
0.0
12
914.0
22
967.0
32
0.0
13
914.0001
23
967.0001
33
1.0E-4
0
LINE
8
0
10
910.0
20
960.0
30
0.0
11
910.0
21
981.4139
31
0.0
0
LINE
8
0
10
910.0
20
981.4139
30
0.0
11
933.0713
21
1004.48517
31
0.0
0
LINE
8
0
10
933.0713
20
1004.48517
30
0.0
11
933.0713
21
1037.5581
31
0.0
0
LINE
8
0
10
933.0713
20
1037.5581
30
0.0
11
954.0087
21
1058.4956
31
0.0
0
LINE
8
0
10
954.0087
20
1058.4956
30
0.0
11
975.5949
21
1036.9094
31
0.0
0
LINE
8
0
10
975.5949
20
1036.9094
30
0.0
11
947.1166
21
1065.3878
31
0.0
0
LINE
8
0
10
947.1166
20
1065.3878
30
0.0
11
971.7105
21
1089.9817
31
0.0
0
3DFACE
8
0
10
935.15546
20
1089.9817
30
0.0
11
931.15546
21
1096.9817
31
0.0
12
939.15546
22
1096.9817
32
0.0
13
939.1556
23
1096.9818
33
1.0E-4
0
3DFACE
8
0
10
910.0
20
960.0
30
0.0
11
906.0
21
967.0
31
0.0
12
914.0
22
967.0
32
0.0
13
914.0001
23
967.0001
33
1.0E-4
0
LINE
8
0
10
910.0
20
960.0
30
0.0
11
932.3348
21
960.0
31
0.0
0
LINE
8
0
10
932.3348
20
960.0
30
0.0
11
968.9895
21
960.0
31
0.0
0
LINE
8
0
10
968.9895
20
960.0
30
0.0
11
932.5982
21
996.3913
31
0.0
0
LINE
8
0
10
932.5982
20
996.3913
30
0.0
11
963.56836
21
996.3913
31
0.0
0
LINE
8
0
10
963.56836
20
996.3913
30
0.0
11
941.4399
21
1018.5198
31
0.0
0
LINE
8
0
10
941.4399
20
1018.5198
30
0.0
11
941.4399
21
982.6024
31
0.0
0
LINE
8
0
10
941.4399
20
982.6024
30
0.0
11
941.4399
21
1013.5619
31
0.0
0
3DFACE
8
0
10
969.16644
20
985.8353
30
0.0
11
965.16644
21
992.8353
31
0.0
12
973.16644
22
992.8353
32
0.0
13
973.16656
23
992.83545
33
1.0E-4
0
3DFACE
8
0
10
910.0
20
960.0
30
0.0
11
906.0
21
967.0
31
0.0
12
914.0
22
967.0
32
0.0
13
914.0001
23
967.0001
33
1.0E-4
0
LINE
8
0
10
910.0
20
960.0
30
0.0
11
910.0
21
983.2684
31
0.0
0
LINE
8
0
10
910.0
20
983.2684
30
0.0
11
910.0
21
1013.9176
31
0.0
0
LINE
8
0
10
910.0
20
1013.9176
30
0.0
11
942.6135
21
1013.9176
31
0.0
0
LINE
8
0
10
942.6135
20
1013.9176
30
0.0
11
981.3577
21
1013.9176
31
0.0
0
LINE
8
0
10
981.3577
20
1013.9176
30
0.0
11
958.3619
21
990.92175
31
0.0
0
LINE
8
0
10
958.3619
20
990.92175
30
0.0
11
918.93384
21
1030.3497
31
0.0
0
LINE
8
0
10
918.93384
20
1030.3497
30
0.0
11
944.02527
21
1055.4412
31
0.0
0
3DFACE
8
0
10
944.02527
20
1028.3197
30
0.0
11
940.02527
21
1035.3197
31
0.0
12
948.02527
22
1035.3197
32
0.0
13
948.0254
23
1035.3198
33
1.0E-4
0
3DFACE
8
0
10
1060.0
20
960.0
30
0.0
11
1056.0
21
967.0
31
0.0
12
1064.0
22
967.0
32
0.0
13
1064.0001
23
967.0001
33
1.0E-4
0
LINE
8
0
10
1060.0
20
960.0
30
0.0
11
1086.303
21
986.303
31
0.0
0
LINE
8
0
10
1086.303
20
986.303
30
0.0
11
1113.6206
21
958.98535
31
0.0
0
LINE
8
0
10
1113.6206
20
958.98535
30
0.0
11
1083.1244
21
958.98535
31
0.0
0
LINE
8
0
10
1083.1244
20
958.98535
30
0.0
11
1105.0983
21
980.9593
31
0.0
0
LINE
8
0
10
1105.0983
20
980.9593
30
0.0
11
1071.2312
21
947.0922
31
0.0
0
LINE
8
0
10
1071.2312
20
947.0922
30
0.0
11
1097.0774
21
972.9384
31
0.0
0
LINE
8
0
10
1097.0774
20
972.9384
30
0.0
11
1133.4485
21
936.5674
31
0.0
0
3DFACE
8
0
10
1105.8547
20
908.97363
30
0.0
11
1101.8547
21
915.97363
31
0.0
12
1109.8547
22
915.97363
32
0.0
13
1109.8549
23
915.97375
33
1.0E-4
0
3DFACE
8
0
10
1060.0
20
960.0
30
0.0
11
1056.0
21
967.0
31
0.0
12
1064.0
22
967.0
32
0.0
13
1064.0001
23
967.0001
33
1.0E-4
0
LINE
8
0
10
1060.0
20
960.0
30
0.0
11
1096.6783
21
960.0
31
0.0
0
LINE
8
0
10
1096.6783
20
960.0
30
0.0
11
1126.0535
21
989.3751
31
0.0
0
LINE
8
0
10
1126.0535
20
989.3751
30
0.0
11
1104.8964
21
1010.5322
31
0.0
0
LINE
8
0
10
1104.8964
20
1010.5322
30
0.0
11
1127.1017
21
988.32697
31
0.0
0
LINE
8
0
10
1127.1017
20
988.32697
30
0.0
11
1104.4037
21
1011.025
31
0.0
0
LINE
8
0
10
1104.4037
20
1011.025
30
0.0
11
1136.763
21
1011.025
31
0.0
0
LINE
8
0
10
1136.763
20
1011.025
30
0.0
11
1099.3973
21
1048.3906
31
0.0
0
3DFACE
8
0
10
1124.6005
20
1048.3906
30
0.0
11
1120.6005
21
1055.3906
31
0.0
12
1128.6005
22
1055.3906
32
0.0
13
1128.6006
23
1055.3907
33
1.0E-4
0
3DFACE
8
0
10
1060.0
20
960.0
30
0.0
11
1056.0
21
967.0
31
0.0
12
1064.0
22
967.0
32
0.0
13
1064.0001
23
967.0001
33
1.0E-4
0
LINE
8
0
10
1060.0
20
960.0
30
0.0
11
1090.2786
21
960.0
31
0.0
0
LINE
8
0
10
1090.2786
20
960.0
30
0.0
11
1118.7064
21
988.42786
31
0.0
0
LINE
8
0
10
1118.7064
20
988.42786
30
0.0
11
1118.7064
21
1014.9308
31
0.0
0
LINE
8
0
10
1118.7064
20
1014.9308
30
0.0
11
1092.7076
21
1014.9308
31
0.0
0
LINE
8
0
10
1092.7076
20
1014.9308
30
0.0
11
1120.8057
21
1014.9308
31
0.0
0
LINE
8
0
10
1120.8057
20
1014.9308
30
0.0
11
1091.5397
21
1044.1968
31
0.0
0
LINE
8
0
10
1091.5397
20
1044.1968
30
0.0
11
1091.5397
21
1024.0779
31
0.0
0
3DFACE
8
0
10
1124.004
20
1056.5422
30
0.0
11
1120.004
21
1063.5422
31
0.0
12
1128.004
22
1063.5422
32
0.0
13
1128.0042
23
1063.5424
33
1.0E-4
0
3DFACE
8
0
10
1210.0
20
960.0
30
0.0
11
1206.0
21
967.0
31
0.0
12
1214.0
22
967.0
32
0.0
13
1214.0001
23
967.0001
33
1.0E-4
0
LINE
8
0
10
1210.0
20
960.0
30
0.0
11
1232.0046
21
937.9953
31
0.0
0
LINE
8
0
10
1232.0046
20
937.9953
30
0.0
11
1270.9539
21
937.9953
31
0.0
0
LINE
8
0
10
1270.9539
20
937.9953
30
0.0
11
1243.6464
21
965.3028
31
0.0
0
LINE
8
0
10
1243.6464
20
965.3028
30
0.0
11
1276.0978
21
932.8514
31
0.0
0
LINE
8
0
10
1276.0978
20
932.8514
30
0.0
11
1250.6604
21
958.2888
31
0.0
0
LINE
8
0
10
1250.6604
20
958.2888
30
0.0
11
1250.6604
21
995.9787
31
0.0
0
LINE
8
0
10
1250.6604
20
995.9787
30
0.0
11
1271.2279
21
975.4112
31
0.0
0
3DFACE
8
0
10
1243.2539
20
975.4112
30
0.0
11
1239.2539
21
982.4112
31
0.0
12
1247.2539
22
982.4112
32
0.0
13
1247.254
23
982.4113
33
1.0E-4
0
3DFACE
8
0
10
1210.0
20
960.0
30
0.0
11
1206.0
21
967.0
31
0.0
12
1214.0
22
967.0
32
0.0
13
1214.0001
23
967.0001
33
1.0E-4
0
LINE
8
0
10
1210.0
20
960.0
30
0.0
11
1231.9816
21
960.0
31
0.0
0
LINE
8
0
10
1231.9816
20
960.0
30
0.0
11
1259.8552
21
960.0
31
0.0
0
LINE
8
0
10
1259.8552
20
960.0
30
0.0
11
1230.7128
21
989.1424
31
0.0
0
LINE
8
0
10
1230.7128
20
989.1424
30
0.0
11
1269.0988
21
1027.5284
31
0.0
0
LINE
8
0
10
1269.0988
20
1027.5284
30
0.0
11
1232.9576
21
991.3873
31
0.0
0
LINE
8
0
10
1232.9576
20
991.3873
30
0.0
11
1232.9576
21
1026.2092
31
0.0
0
LINE
8
0
10
1232.9576
20
1026.2092
30
0.0
11
1264.744
21
1026.2092
31
0.0
0
3DFACE
8
0
10
1228.5
20
989.9653
30
0.0
11
1224.5
21
996.9653
31
0.0
12
1232.5
22
996.9653
32
0.0
13
1232.5001
23
996.9654
33
1.0E-4
0
3DFACE
8
0
10
1210.0
20
960.0
30
0.0
11
1206.0
21
967.0
31
0.0
12
1214.0
22
967.0
32
0.0
13
1214.0001
23
967.0001
33
1.0E-4
0
LINE
8
0
10
1210.0
20
960.0
30
0.0
11
1210.0
21
991.5501
31
0.0
0
LINE
8
0
10
1210.0
20
991.5501
30
0.0
11
1210.0
21
1026.4341
31
0.0
0
LINE
8
0
10
1210.0
20
1026.4341
30
0.0
11
1210.0
21
997.0707
31
0.0
0
LINE
8
0
10
1210.0
20
997.0707
30
0.0
11
1247.5358
21
1034.6064
31
0.0
0
LINE
8
0
10
1247.5358
20
1034.6064
30
0.0
11
1282.1543
21
1069.225
31
0.0
0
LINE
8
0
10
1282.1543
20
1069.225
30
0.0
11
1257.8818
21
1069.225
31
0.0
0
LINE
8
0
10
1257.8818
20
1069.225
30
0.0
11
1226.1147
21
1037.4579
31
0.0
0
3DFACE
8
0
10
1226.1147
20
1000.8885
30
0.0
11
1222.1147
21
1007.8885
31
0.0
12
1230.1147
22
1007.8885
32
0.0
13
1230.1149
23
1007.8886
33
1.0E-4
0
3DFACE
8
0
10
1360.0
20
960.0
30
0.0
11
1356.0
21
967.0
31
0.0
12
1364.0
22
967.0
32
0.0
13
1364.0001
23
967.0001
33
1.0E-4
0
LINE
8
0
10
1360.0
20
960.0
30
0.0
11
1395.9993
21
960.0
31
0.0
0
LINE
8
0
10
1395.9993
20
960.0
30
0.0
11
1419.4713
21
960.0
31
0.0
0
LINE
8
0
10
1419.4713
20
960.0
30
0.0
11
1419.4713
21
993.3561
31
0.0
0
LINE
8
0
10
1419.4713
20
993.3561
30
0.0
11
1384.419
21
1028.4084
31
0.0
0
LINE
8
0
10
1384.419
20
1028.4084
30
0.0
11
1384.419
21
996.12274
31
0.0
0
LINE
8
0
10
1384.419
20
996.12274
30
0.0
11
1418.5293
21
996.12274
31
0.0
0
LINE
8
0
10
1418.5293
20
996.12274
30
0.0
11
1418.5293
21
1032.5547
31
0.0
0
3DFACE
8
0
10
1393.7705
20
1057.3135
30
0.0
11
1389.7705
21
1064.3135
31
0.0
12
1397.7705
22
1064.3135
32
0.0
13
1397.7706
23
1064.3136
33
1.0E-4
0
3DFACE
8
0
10
1360.0
20
960.0
30
0.0
11
1356.0
21
967.0
31
0.0
12
1364.0
22
967.0
32
0.0
13
1364.0001
23
967.0001
33
1.0E-4
0
LINE
8
0
10
1360.0
20
960.0
30
0.0
11
1360.0
21
995.99097
31
0.0
0
LINE
8
0
10
1360.0
20
995.99097
30
0.0
11
1387.8502
21
1023.84125
31
0.0
0
LINE
8
0
10
1387.8502
20
1023.84125
30
0.0
11
1421.094
21
1057.085
31
0.0
0
LINE
8
0
10
1421.094
20
1057.085
30
0.0
11
1397.4286
21
1057.085
31
0.0
0
LINE
8
0
10
1397.4286
20
1057.085
30
0.0
11
1397.4286
21
1033.9535
31
0.0
0
LINE
8
0
10
1397.4286
20
1033.9535
30
0.0
11
1427.5946
21
1003.7874
31
0.0
0
LINE
8
0
10
1427.5946
20
1003.7874
30
0.0
11
1394.0088
21
1037.3732
31
0.0
0
3DFACE
8
0
10
1430.5641
20
1073.9285
30
0.0
11
1426.5641
21
1080.9285
31
0.0
12
1434.5641
22
1080.9285
32
0.0
13
1434.5642
23
1080.9286
33
1.0E-4
0
3DFACE
8
0
10
1360.0
20
960.0
30
0.0
11
1356.0
21
967.0
31
0.0
12
1364.0
22
967.0
32
0.0
13
1364.0001
23
967.0001
33
1.0E-4
0
LINE
8
0
10
1360.0
20
960.0
30
0.0
11
1384.6306
21
935.3693
31
0.0
0
LINE
8
0
10
1384.6306
20
935.3693
30
0.0
11
1384.6306
21
961.1609
31
0.0
0
LINE
8
0
10
1384.6306
20
961.1609
30
0.0
11
1411.8909
21
961.1609
31
0.0
0
LINE
8
0
10
1411.8909
20
961.1609
30
0.0
11
1379.0686
21
928.3386
31
0.0
0
LINE
8
0
10
1379.0686
20
928.3386
30
0.0
11
1399.3488
21
948.6188
31
0.0
0
LINE
8
0
10
1399.3488
20
948.6188
30
0.0
11
1399.3488
21
985.79694
31
0.0
0
LINE
8
0
10
1399.3488
20
985.79694
30
0.0
11
1437.8599
21
947.2858
31
0.0
0
3DFACE
8
0
10
1437.8599
20
973.8622
30
0.0
11
1433.8599
21
980.8622
31
0.0
12
1441.8599
22
980.8622
32
0.0
13
1441.86
23
980.8623
33
1.0E-4
0
3DFACE
8
0
10
1510.0
20
960.0
30
0.0
11
1506.0
21
967.0
31
0.0
12
1514.0
22
967.0
32
0.0
13
1514.0001
23
967.0001
33
1.0E-4
0
LINE
8
0
10
1510.0
20
960.0
30
0.0
11
1532.1365
21
982.1364
31
0.0
0
LINE
8
0
10
1532.1365
20
982.1364
30
0.0
11
1564.6136
21
1014.6135
31
0.0
0
LINE
8
0
10
1564.6136
20
1014.6135
30
0.0
11
1541.6222
21
991.62213
31
0.0
0
LINE
8
0
10
1541.6222
20
991.62213
30
0.0
11
1568.7572
21
964.4871
31
0.0
0
LINE
8
0
10
1568.7572
20
964.4871
30
0.0
11
1568.7572
21
1002.493
31
0.0
0
LINE
8
0
10
1568.7572
20
1002.493
30
0.0
11
1543.3958
21
1027.8545
31
0.0
0
LINE
8
0
10
1543.3958
20
1027.8545
30
0.0
11
1543.3958
21
990.94763
31
0.0
0
3DFACE
8
0
10
1543.3958
20
1012.5484
30
0.0
11
1539.3958
21
1019.5484
31
0.0
12
1547.3958
22
1019.5484
32
0.0
13
1547.3959
23
1019.5485
33
1.0E-4
0
3DFACE
8
0
10
1510.0
20
960.0
30
0.0
11
1506.0
21
967.0
31
0.0
12
1514.0
22
967.0
32
0.0
13
1514.0001
23
967.0001
33
1.0E-4
0
LINE
8
0
10
1510.0
20
960.0
30
0.0
11
1510.0
21
985.0605
31
0.0
0
LINE
8
0
10
1510.0
20
985.0605
30
0.0
11
1545.4286
21
1020.4891
31
0.0
0
LINE
8
0
10
1545.4286
20
1020.4891
30
0.0
11
1545.4286
21
987.8007
31
0.0
0
LINE
8
0
10
1545.4286
20
987.8007
30
0.0
11
1580.8925
21
952.3369
31
0.0
0
LINE
8
0
10
1580.8925
20
952.3369
30
0.0
11
1542.2428
21
913.68726
31
0.0
0
LINE
8
0
10
1542.2428
20
913.68726
30
0.0
11
1567.2166
21
913.68726
31
0.0
0
LINE
8
0
10
1567.2166
20
913.68726
30
0.0
11
1541.3406
21
939.56323
31
0.0
0
3DFACE
8
0
10
1573.3706
20
907.5332
30
0.0
11
1569.3706
21
914.5332
31
0.0
12
1577.3706
22
914.5332
32
0.0
13
1577.3707
23
914.5333
33
1.0E-4
0
3DFACE
8
0
10
1510.0
20
960.0
30
0.0
11
1506.0
21
967.0
31
0.0
12
1514.0
22
967.0
32
0.0
13
1514.0001
23
967.0001
33
1.0E-4
0
LINE
8
0
10
1510.0
20
960.0
30
0.0
11
1542.0159
21
927.9842
31
0.0
0
LINE
8
0
10
1542.0159
20
927.9842
30
0.0
11
1577.62
21
927.9842
31
0.0
0
LINE
8
0
10
1577.62
20
927.9842
30
0.0
11
1543.7653
21
927.9842
31
0.0
0
LINE
8
0
10
1543.7653
20
927.9842
30
0.0
11
1580.7297
21
891.0197
31
0.0
0
LINE
8
0
10
1580.7297
20
891.0197
30
0.0
11
1580.7297
21
919.9129
31
0.0
0
LINE
8
0
10
1580.7297
20
919.9129
30
0.0
11
1580.7297
21
956.37274
31
0.0
0
LINE
8
0
10
1580.7297
20
956.37274
30
0.0
11
1552.0654
21
985.037
31
0.0
0
3DFACE
8
0
10
1552.0654
20
1015.39075
30
0.0
11
1548.0654
21
1022.39075
31
0.0
12
1556.0654
22
1022.39075
32
0.0
13
1556.0656
23
1022.39087
33
1.0E-4
0
3DFACE
8
0
10
1660.0
20
960.0
30
0.0
11
1656.0
21
967.0
31
0.0
12
1664.0
22
967.0
32
0.0
13
1664.0001
23
967.0001
33
1.0E-4
0
LINE
8
0
10
1660.0
20
960.0
30
0.0
11
1660.0
21
992.86066
31
0.0
0
LINE
8
0
10
1660.0
20
992.86066
30
0.0
11
1660.0
21
1017.5967
31
0.0
0
LINE
8
0
10
1660.0
20
1017.5967
30
0.0
11
1660.0
21
984.2843
31
0.0
0
LINE
8
0
10
1660.0
20
984.2843
30
0.0
11
1695.4277
21
984.2843
31
0.0
0
LINE
8
0
10
1695.4277
20
984.2843
30
0.0
11
1730.2706
21
1019.12714
31
0.0
0
LINE
8
0
10
1730.2706
20
1019.12714
30
0.0
11
1701.5184
21
990.375
31
0.0
0
LINE
8
0
10
1701.5184
20
990.375
30
0.0
11
1725.3713
21
1014.22797
31
0.0
0
3DFACE
8
0
10
1725.3713
20
983.7823
30
0.0
11
1721.3713
21
990.7823
31
0.0
12
1729.3713
22
990.7823
32
0.0
13
1729.3715
23
990.7824
33
1.0E-4
0
3DFACE
8
0
10
1660.0
20
960.0
30
0.0
11
1656.0
21
967.0
31
0.0
12
1664.0
22
967.0
32
0.0
13
1664.0001
23
967.0001
33
1.0E-4
0
LINE
8
0
10
1660.0
20
960.0
30
0.0
11
1660.0
21
993.2947
31
0.0
0
LINE
8
0
10
1660.0
20
993.2947
30
0.0
11
1660.0
21
1027.2819
31
0.0
0
LINE
8
0
10
1660.0
20
1027.2819
30
0.0
11
1697.9475
21
989.3344
31
0.0
0
LINE
8
0
10
1697.9475
20
989.3344
30
0.0
11
1736.187
21
1027.5739
31
0.0
0
LINE
8
0
10
1736.187
20
1027.5739
30
0.0
11
1736.187
21
997.19745
31
0.0
0
LINE
8
0
10
1736.187
20
997.19745
30
0.0
11
1712.8833
21
1020.50116
31
0.0
0
LINE
8
0
10
1712.8833
20
1020.50116
30
0.0
11
1678.1738
21
1020.50116
31
0.0
0
3DFACE
8
0
10
1704.6934
20
1047.0208
30
0.0
11
1700.6934
21
1054.0208
31
0.0
12
1708.6934
22
1054.0208
32
0.0
13
1708.6935
23
1054.0209
33
1.0E-4
0
3DFACE
8
0
10
1660.0
20
960.0
30
0.0
11
1656.0
21
967.0
31
0.0
12
1664.0
22
967.0
32
0.0
13
1664.0001
23
967.0001
33
1.0E-4
0
LINE
8
0
10
1660.0
20
960.0
30
0.0
11
1691.8198
21
991.81976
31
0.0
0
LINE
8
0
10
1691.8198
20
991.81976
30
0.0
11
1725.826
21
1025.8259
31
0.0
0
LINE
8
0
10
1725.826
20
1025.8259
30
0.0
11
1705.485
21
1046.167
31
0.0
0
LINE
8
0
10
1705.485
20
1046.167
30
0.0
11
1705.485
21
1024.8779
31
0.0
0
LINE
8
0
10
1705.485
20
1024.8779
30
0.0
11
1705.485
21
986.67224
31
0.0
0
LINE
8
0
10
1705.485
20
986.67224
30
0.0
11
1705.485
21
1013.1057
31
0.0
0
LINE
8
0
10
1705.485
20
1013.1057
30
0.0
11
1705.485
21
983.7072
31
0.0
0
3DFACE
8
0
10
1669.9126
20
1019.27954
30
0.0
11
1665.9126
21
1026.2795
31
0.0
12
1673.9126
22
1026.2795
32
0.0
13
1673.9127
23
1026.2797
33
1.0E-4
0
3DFACE
8
0
10
310.0
20
1160.0
30
0.0
11
306.0
21
1167.0
31
0.0
12
314.0
22
1167.0
32
0.0
13
314.0001
23
1167.0001
33
1.0E-4
0
LINE
8
0
10
310.0
20
1160.0
30
0.0
11
341.01816
21
1160.0
31
0.0
0
LINE
8
0
10
341.01816
20
1160.0
30
0.0
11
341.01816
21
1191.4573
31
0.0
0
LINE
8
0
10
341.01816
20
1191.4573
30
0.0
11
373.5046
21
1223.9437
31
0.0
0
LINE
8
0
10
373.5046
20
1223.9437
30
0.0
11
373.5046
21
1197.789
31
0.0
0
LINE
8
0
10
373.5046
20
1197.789
30
0.0
11
345.3958
21
1197.789
31
0.0
0
LINE
8
0
10
345.3958
20
1197.789
30
0.0
11
345.3958
21
1235.3508
31
0.0
0
3DFACE
8
0
10
373.15225
20
1263.1073
30
0.0
11
369.15225
21
1270.1073
31
0.0
12
377.15225
22
1270.1073
32
0.0
13
377.15234
23
1270.1074
33
1.0E-4
0
3DFACE
8
0
10
310.0
20
1160.0
30
0.0
11
306.0
21
1167.0
31
0.0
12
314.0
22
1167.0
32
0.0
13
314.0001
23
1167.0001
33
1.0E-4
0
LINE
8
0
10
310.0
20
1160.0
30
0.0
11
342.143
21
1160.0
31
0.0
0
LINE
8
0
10
342.143
20
1160.0
30
0.0
11
342.143
21
1190.1013
31
0.0
0
LINE
8
0
10
342.143
20
1190.1013
30
0.0
11
374.24844
21
1190.1013
31
0.0
0
LINE
8
0
10
374.24844
20
1190.1013
30
0.0
11
374.24844
21
1215.8984
31
0.0
0
LINE
8
0
10
374.24844
20
1215.8984
30
0.0
11
374.24844
21
1195.0056
31
0.0
0
LINE
8
0
10
374.24844
20
1195.0056
30
0.0
11
352.4644
21
1173.2216
31
0.0
0
3DFACE
8
0
10
352.4644
20
1199.1351
30
0.0
11
348.4644
21
1206.1351
31
0.0
12
356.4644
22
1206.1351
32
0.0
13
356.46448
23
1206.1353
33
1.0E-4
0
3DFACE
8
0
10
310.0
20
1160.0
30
0.0
11
306.0
21
1167.0
31
0.0
12
314.0
22
1167.0
32
0.0
13
314.0001
23
1167.0001
33
1.0E-4
0
LINE
8
0
10
310.0
20
1160.0
30
0.0
11
345.33334
21
1124.6666
31
0.0
0
LINE
8
0
10
345.33334
20
1124.6666
30
0.0
11
374.54877
21
1153.8821
31
0.0
0
LINE
8
0
10
374.54877
20
1153.8821
30
0.0
11
343.86563
21
1123.199
31
0.0
0
LINE
8
0
10
343.86563
20
1123.199
30
0.0
11
343.86563
21
1148.7313
31
0.0
0
LINE
8
0
10
343.86563
20
1148.7313
30
0.0
11
364.47354
21
1169.3392
31
0.0
0
LINE
8
0
10
364.47354
20
1169.3392
30
0.0
11
343.71246
21
1148.5781
31
0.0
0
3DFACE
8
0
10
382.49255
20
1109.7981
30
0.0
11
378.49255
21
1116.7981
31
0.0
12
386.49255
22
1116.7981
32
0.0
13
386.49265
23
1116.7982
33
1.0E-4
0
3DFACE
8
0
10
460.0
20
1160.0
30
0.0
11
456.0
21
1167.0
31
0.0
12
464.0
22
1167.0
32
0.0
13
464.0001
23
1167.0001
33
1.0E-4
0
LINE
8
0
10
460.0
20
1160.0
30
0.0
11
493.26724
21
1126.7328
31
0.0
0
LINE
8
0
10
493.26724
20
1126.7328
30
0.0
11
523.67163
21
1126.7328
31
0.0
0
LINE
8
0
10
523.67163
20
1126.7328
30
0.0
11
523.67163
21
1150.8258
31
0.0
0
LINE
8
0
10
523.67163
20
1150.8258
30
0.0
11
490.9422
21
1150.8258
31
0.0
0
LINE
8
0
10
490.9422
20
1150.8258
30
0.0
11
490.9422
21
1182.3892
31
0.0
0
LINE
8
0
10
490.9422
20
1182.3892
30
0.0
11
524.3148
21
1182.3892
31
0.0
0
3DFACE
8
0
10
494.11304
20
1212.591
30
0.0
11
490.11304
21
1219.591
31
0.0
12
498.11304
22
1219.591
32
0.0
13
498.11313
23
1219.5911
33
1.0E-4
0
3DFACE
8
0
10
460.0
20
1160.0
30
0.0
11
456.0
21
1167.0
31
0.0
12
464.0
22
1167.0
32
0.0
13
464.0001
23
1167.0001
33
1.0E-4
0
LINE
8
0
10
460.0
20
1160.0
30
0.0
11
482.95392
21
1182.954
31
0.0
0
LINE
8
0
10
482.95392
20
1182.954
30
0.0
11
508.2826
21
1157.6254
31
0.0
0
LINE
8
0
10
508.2826
20
1157.6254
30
0.0
11
473.6281
21
1157.6254
31
0.0
0
LINE
8
0
10
473.6281
20
1157.6254
30
0.0
11
506.70154
21
1190.6987
31
0.0
0
LINE
8
0
10
506.70154
20
1190.6987
30
0.0
11
484.06335
21
1190.6987
31
0.0
0
LINE
8
0
10
484.06335
20
1190.6987
30
0.0
11
517.5457
21
1224.1812
31
0.0
0
3DFACE
8
0
10
482.78424
20
1189.4197
30
0.0
11
478.78424
21
1196.4197
31
0.0
12
486.78424
22
1196.4197
32
0.0
13
486.78433
23
1196.4198
33
1.0E-4
0
3DFACE
8
0
10
460.0
20
1160.0
30
0.0
11
456.0
21
1167.0
31
0.0
12
464.0
22
1167.0
32
0.0
13
464.0001
23
1167.0001
33
1.0E-4
0
LINE
8
0
10
460.0
20
1160.0
30
0.0
11
492.41495
21
1160.0
31
0.0
0
LINE
8
0
10
492.41495
20
1160.0
30
0.0
11
492.41495
21
1193.9111
31
0.0
0
LINE
8
0
10
492.41495
20
1193.9111
30
0.0
11
531.7222
21
1233.2184
31
0.0
0
LINE
8
0
10
531.7222
20
1233.2184
30
0.0
11
508.48288
21
1233.2184
31
0.0
0
LINE
8
0
10
508.48288
20
1233.2184
30
0.0
11
508.48288
21
1209.4672
31
0.0
0
LINE
8
0
10
508.48288
20
1209.4672
30
0.0
11
488.08005
21
1189.0643
31
0.0
0
3DFACE
8
0
10
516.1938
20
1217.1781
30
0.0
11
512.1938
21
1224.1781
31
0.0
12
520.1938
22
1224.1781
32
0.0
13
520.1939
23
1224.1782
33
1.0E-4
0
3DFACE
8
0
10
610.0
20
1160.0
30
0.0
11
606.0
21
1167.0
31
0.0
12
614.0
22
1167.0
32
0.0
13
614.0001
23
1167.0001
33
1.0E-4
0
LINE
8
0
10
610.0
20
1160.0
30
0.0
11
610.0
21
1196.8616
31
0.0
0
LINE
8
0
10
610.0
20
1196.8616
30
0.0
11
647.848
21
1234.7096
31
0.0
0
LINE
8
0
10
647.848
20
1234.7096
30
0.0
11
680.7284
21
1267.59
31
0.0
0
LINE
8
0
10
680.7284
20
1267.59
30
0.0
11
660.45605
21
1267.59
31
0.0
0
LINE
8
0
10
660.45605
20
1267.59
30
0.0
11
660.45605
21
1232.6644
31
0.0
0
LINE
8
0
10
660.45605
20
1232.6644
30
0.0
11
660.45605
21
1193.887
31
0.0
0
3DFACE
8
0
10
660.45605
20
1231.6986
30
0.0
11
656.45605
21
1238.6986
31
0.0
12
664.45605
22
1238.6986
32
0.0
13
664.4562
23
1238.6987
33
1.0E-4
0
3DFACE
8
0
10
610.0
20
1160.0
30
0.0
11
606.0
21
1167.0
31
0.0
12
614.0
22
1167.0
32
0.0
13
614.0001
23
1167.0001
33
1.0E-4
0
LINE
8
0
10
610.0
20
1160.0
30
0.0
11
637.8478
21
1160.0
31
0.0
0
LINE
8
0
10
637.8478
20
1160.0
30
0.0
11
637.8478
21
1192.6825
31
0.0
0
LINE
8
0
10
637.8478
20
1192.6825
30
0.0
11
665.7793
21
1220.614
31
0.0
0
LINE
8
0
10
665.7793
20
1220.614
30
0.0
11
628.3028
21
1183.1376
31
0.0
0
LINE
8
0
10
628.3028
20
1183.1376
30
0.0
11
628.3028
21
1207.0059
31
0.0
0
LINE
8
0
10
628.3028
20
1207.0059
30
0.0
11
628.3028
21
1178.9924
31
0.0
0
3DFACE
8
0
10
658.20557
20
1149.0897
30
0.0
11
654.20557
21
1156.0897
31
0.0
12
662.20557
22
1156.0897
32
0.0
13
662.2057
23
1156.0898
33
1.0E-4
0
3DFACE
8
0
10
610.0
20
1160.0
30
0.0
11
606.0
21
1167.0
31
0.0
12
614.0
22
1167.0
32
0.0
13
614.0001
23
1167.0001
33
1.0E-4
0
LINE
8
0
10
610.0
20
1160.0
30
0.0
11
634.6373
21
1184.6373
31
0.0
0
LINE
8
0
10
634.6373
20
1184.6373
30
0.0
11
669.32733
21
1149.9473
31
0.0
0
LINE
8
0
10
669.32733
20
1149.9473
30
0.0
11
633.15546
21
1113.7754
31
0.0
0
LINE
8
0
10
633.15546
20
1113.7754
30
0.0
11
668.5431
21
1113.7754
31
0.0
0
LINE
8
0
10
668.5431
20
1113.7754
30
0.0
11
643.7391
21
1138.5795
31
0.0
0
LINE
8
0
10
643.7391
20
1138.5795
30
0.0
11
671.7057
21
1138.5795
31
0.0
0
3DFACE
8
0
10
671.7057
20
1171.3246
30
0.0
11
667.7057
21
1178.3246
31
0.0
12
675.7057
22
1178.3246
32
0.0
13
675.7058
23
1178.3247
33
1.0E-4
0
3DFACE
8
0
10
760.0
20
1160.0
30
0.0
11
756.0
21
1167.0
31
0.0
12
764.0
22
1167.0
32
0.0
13
764.0001
23
1167.0001
33
1.0E-4
0
LINE
8
0
10
760.0
20
1160.0
30
0.0
11
786.13403
21
1186.134
31
0.0
0
LINE
8
0
10
786.13403
20
1186.134
30
0.0
11
810.9022
21
1186.134
31
0.0
0
LINE
8
0
10
810.9022
20
1186.134
30
0.0
11
779.4917
21
1186.134
31
0.0
0
LINE
8
0
10
779.4917
20
1186.134
30
0.0
11
815.43414
21
1222.0765
31
0.0
0
LINE
8
0
10
815.43414
20
1222.0765
30
0.0
11
787.99335
21
1222.0765
31
0.0
0
LINE
8
0
10
787.99335
20
1222.0765
30
0.0
11
815.34875
21
1249.4319
31
0.0
0
3DFACE
8
0
10
794.51624
20
1270.2644
30
0.0
11
790.51624
21
1277.2644
31
0.0
12
798.51624
22
1277.2644
32
0.0
13
798.51636
23
1277.2645
33
1.0E-4
0
3DFACE
8
0
10
760.0
20
1160.0
30
0.0
11
756.0
21
1167.0
31
0.0
12
764.0
22
1167.0
32
0.0
13
764.0001
23
1167.0001
33
1.0E-4
0
LINE
8
0
10
760.0
20
1160.0
30
0.0
11
760.0
21
1195.9021
31
0.0
0
LINE
8
0
10
760.0
20
1195.9021
30
0.0
11
784.8309
21
1195.9021
31
0.0
0
LINE
8
0
10
784.8309
20
1195.9021
30
0.0
11
814.06696
21
1166.666
31
0.0
0
LINE
8
0
10
814.06696
20
1166.666
30
0.0
11
814.06696
21
1206.5386
31
0.0
0
LINE
8
0
10
814.06696
20
1206.5386
30
0.0
11
814.06696
21
1185.6239
31
0.0
0
LINE
8
0
10
814.06696
20
1185.6239
30
0.0
11
790.8089
21
1208.882
31
0.0
0
3DFACE
8
0
10
821.96497
20
1240.0381
30
0.0
11
817.96497
21
1247.0381
31
0.0
12
825.96497
22
1247.0381
32
0.0
13
825.9651
23
1247.0382
33
1.0E-4
0
3DFACE
8
0
10
760.0
20
1160.0
30
0.0
11
756.0
21
1167.0
31
0.0
12
764.0
22
1167.0
32
0.0
13
764.0001
23
1167.0001
33
1.0E-4
0
LINE
8
0
10
760.0
20
1160.0
30
0.0
11
798.38513
21
1160.0
31
0.0
0
LINE
8
0
10
798.38513
20
1160.0
30
0.0
11
836.6784
21
1121.7067
31
0.0
0
LINE
8
0
10
836.6784
20
1121.7067
30
0.0
11
797.1072
21
1121.7067
31
0.0
0
LINE
8
0
10
797.1072
20
1121.7067
30
0.0
11
797.1072
21
1159.7993
31
0.0
0
LINE
8
0
10
797.1072
20
1159.7993
30
0.0
11
818.72565
21
1181.4177
31
0.0
0
LINE
8
0
10
818.72565
20
1181.4177
30
0.0
11
797.64813
21
1160.3402
31
0.0
0
3DFACE
8
0
10
819.5949
20
1160.3402
30
0.0
11
815.5949
21
1167.3402
31
0.0
12
823.5949
22
1167.3402
32
0.0
13
823.59503
23
1167.3403
33
1.0E-4
0
3DFACE
8
0
10
910.0
20
1160.0
30
0.0
11
906.0
21
1167.0
31
0.0
12
914.0
22
1167.0
32
0.0
13
914.0001
23
1167.0001
33
1.0E-4
0
LINE
8
0
10
910.0
20
1160.0
30
0.0
11
940.61053
21
1190.6105
31
0.0
0
LINE
8
0
10
940.61053
20
1190.6105
30
0.0
11
940.61053
21
1218.7386
31
0.0
0
LINE
8
0
10
940.61053
20
1218.7386
30
0.0
11
971.4503
21
1187.8989
31
0.0
0
LINE
8
0
10
971.4503
20
1187.8989
30
0.0
11
971.4503
21
1211.5132
31
0.0
0
LINE
8
0
10
971.4503
20
1211.5132
30
0.0
11
943.3625
21
1211.5132
31
0.0
0
LINE
8
0
10
943.3625
20
1211.5132
30
0.0
11
964.1525
21
1211.5132
31
0.0
0
3DFACE
8
0
10
932.58105
20
1243.0847
30
0.0
11
928.58105
21
1250.0847
31
0.0
12
936.58105
22
1250.0847
32
0.0
13
936.5812
23
1250.0848
33
1.0E-4
0
3DFACE
8
0
10
910.0
20
1160.0
30
0.0
11
906.0
21
1167.0
31
0.0
12
914.0
22
1167.0
32
0.0
13
914.0001
23
1167.0001
33
1.0E-4
0
LINE
8
0
10
910.0
20
1160.0
30
0.0
11
932.4391
21
1182.4391
31
0.0
0
LINE
8
0
10
932.4391
20
1182.4391
30
0.0
11
971.94037
21
1142.9379
31
0.0
0
LINE
8
0
10
971.94037
20
1142.9379
30
0.0
11
949.6101
21
1165.2681
31
0.0
0
LINE
8
0
10
949.6101
20
1165.2681
30
0.0
11
989.5662
21
1165.2681
31
0.0
0
LINE
8
0
10
989.5662
20
1165.2681
30
0.0
11
956.7787
21
1198.0555
31
0.0
0
LINE
8
0
10
956.7787
20
1198.0555
30
0.0
11
956.7787
21
1226.1588
31
0.0
0
3DFACE
8
0
10
922.3155
20
1260.6221
30
0.0
11
918.3155
21
1267.6221
31
0.0
12
926.3155
22
1267.6221
32
0.0
13
926.3156
23
1267.6222
33
1.0E-4
0
3DFACE
8
0
10
910.0
20
1160.0
30
0.0
11
906.0
21
1167.0
31
0.0
12
914.0
22
1167.0
32
0.0
13
914.0001
23
1167.0001
33
1.0E-4
0
LINE
8
0
10
910.0
20
1160.0
30
0.0
11
943.2952
21
1193.2952
31
0.0
0
LINE
8
0
10
943.2952
20
1193.2952
30
0.0
11
943.2952
21
1214.8849
31
0.0
0
LINE
8
0
10
943.2952
20
1214.8849
30
0.0
11
965.8903
21
1214.8849
31
0.0
0
LINE
8
0
10
965.8903
20
1214.8849
30
0.0
11
965.8903
21
1186.8522
31
0.0
0
LINE
8
0
10
965.8903
20
1186.8522
30
0.0
11
927.9565
21
1224.786
31
0.0
0
LINE
8
0
10
927.9565
20
1224.786
30
0.0
11
964.5844
21
1188.1581
31
0.0
0
3DFACE
8
0
10
935.2905
20
1158.8643
30
0.0
11
931.2905
21
1165.8643
31
0.0
12
939.2905
22
1165.8643
32
0.0
13
939.29065
23
1165.8644
33
1.0E-4
0
3DFACE
8
0
10
1060.0
20
1160.0
30
0.0
11
1056.0
21
1167.0
31
0.0
12
1064.0
22
1167.0
32
0.0
13
1064.0001
23
1167.0001
33
1.0E-4
0
LINE
8
0
10
1060.0
20
1160.0
30
0.0
11
1080.4734
21
1180.4734
31
0.0
0
LINE
8
0
10
1080.4734
20
1180.4734
30
0.0
11
1108.7141
21
1208.7141
31
0.0
0
LINE
8
0
10
1108.7141
20
1208.7141
30
0.0
11
1086.8975
21
1208.7141
31
0.0
0
LINE
8
0
10
1086.8975
20
1208.7141
30
0.0
11
1124.2063
21
1171.4053
31
0.0
0
LINE
8
0
10
1124.2063
20
1171.4053
30
0.0
11
1097.7435
21
1197.868
31
0.0
0
LINE
8
0
10
1097.7435
20
1197.868
30
0.0
11
1136.7722
21
1236.8967
31
0.0
0
3DFACE
8
0
10
1105.1683
20
1236.8967
30
0.0
11
1101.1683
21
1243.8967
31
0.0
12
1109.1683
22
1243.8967
32
0.0
13
1109.1685
23
1243.8969
33
1.0E-4
0
3DFACE
8
0
10
1060.0
20
1160.0
30
0.0
11
1056.0
21
1167.0
31
0.0
12
1064.0
22
1167.0
32
0.0
13
1064.0001
23
1167.0001
33
1.0E-4
0
LINE
8
0
10
1060.0
20
1160.0
30
0.0
11
1081.8916
21
1138.1084
31
0.0
0
LINE
8
0
10
1081.8916
20
1138.1084
30
0.0
11
1119.7021
21
1175.919
31
0.0
0
LINE
8
0
10
1119.7021
20
1175.919
30
0.0
11
1086.943
21
1143.1598
31
0.0
0
LINE
8
0
10
1086.943
20
1143.1598
30
0.0
11
1086.943
21
1167.7715
31
0.0
0
LINE
8
0
10
1086.943
20
1167.7715
30
0.0
11
1126.8312
21
1167.7715
31
0.0
0
LINE
8
0
10
1126.8312
20
1167.7715
30
0.0
11
1087.4014
21
1207.2013
31
0.0
0
3DFACE
8
0
10
1087.4014
20
1180.2454
30
0.0
11
1083.4014
21
1187.2454
31
0.0
12
1091.4014
22
1187.2454
32
0.0
13
1091.4015
23
1187.2455
33
1.0E-4
0
3DFACE
8
0
10
1060.0
20
1160.0
30
0.0
11
1056.0
21
1167.0
31
0.0
12
1064.0
22
1167.0
32
0.0
13
1064.0001
23
1167.0001
33
1.0E-4
0
LINE
8
0
10
1060.0
20
1160.0
30
0.0
11
1060.0
21
1195.2466
31
0.0
0
LINE
8
0
10
1060.0
20
1195.2466
30
0.0
11
1060.0
21
1230.8689
31
0.0
0
LINE
8
0
10
1060.0
20
1230.8689
30
0.0
11
1099.6628
21
1270.5317
31
0.0
0
LINE
8
0
10
1099.6628
20
1270.5317
30
0.0
11
1099.6628
21
1233.5709
31
0.0
0
LINE
8
0
10
1099.6628
20
1233.5709
30
0.0
11
1130.9126
21
1202.3212
31
0.0
0
LINE
8
0
10
1130.9126
20
1202.3212
30
0.0
11
1095.3604
21
1202.3212
31
0.0
0
3DFACE
8
0
10
1095.3604
20
1227.6061
30
0.0
11
1091.3604
21
1234.6061
31
0.0
12
1099.3604
22
1234.6061
32
0.0
13
1099.3605
23
1234.6062
33
1.0E-4
0
3DFACE
8
0
10
1210.0
20
1160.0
30
0.0
11
1206.0
21
1167.0
31
0.0
12
1214.0
22
1167.0
32
0.0
13
1214.0001
23
1167.0001
33
1.0E-4
0
LINE
8
0
10
1210.0
20
1160.0
30
0.0
11
1234.4957
21
1135.5043
31
0.0
0
LINE
8
0
10
1234.4957
20
1135.5043
30
0.0
11
1259.515
21
1135.5043
31
0.0
0
LINE
8
0
10
1259.515
20
1135.5043
30
0.0
11
1233.8231
21
1161.1962
31
0.0
0
LINE
8
0
10
1233.8231
20
1161.1962
30
0.0
11
1233.8231
21
1185.3806
31
0.0
0
LINE
8
0
10
1233.8231
20
1185.3806
30
0.0
11
1257.2753
21
1161.9285
31
0.0
0
LINE
8
0
10
1257.2753
20
1161.9285
30
0.0
11
1220.2502
21
1124.9034
31
0.0
0
3DFACE
8
0
10
1257.308
20
1087.8457
30
0.0
11
1253.308
21
1094.8457
31
0.0
12
1261.308
22
1094.8457
32
0.0
13
1261.3081
23
1094.8458
33
1.0E-4
0
3DFACE
8
0
10
1210.0
20
1160.0
30
0.0
11
1206.0
21
1167.0
31
0.0
12
1214.0
22
1167.0
32
0.0
13
1214.0001
23
1167.0001
33
1.0E-4
0
LINE
8
0
10
1210.0
20
1160.0
30
0.0
11
1210.0
21
1192.0184
31
0.0
0
LINE
8
0
10
1210.0
20
1192.0184
30
0.0
11
1230.9124
21
1192.0184
31
0.0
0
LINE
8
0
10
1230.9124
20
1192.0184
30
0.0
11
1261.6641
21
1161.2667
31
0.0
0
LINE
8
0
10
1261.6641
20
1161.2667
30
0.0
11
1261.6641
21
1192.5582
31
0.0
0
LINE
8
0
10
1261.6641
20
1192.5582
30
0.0
11
1228.5951
21
1192.5582
31
0.0
0
LINE
8
0
10
1228.5951
20
1192.5582
30
0.0
11
1252.2079
21
1192.5582
31
0.0
0
3DFACE
8
0
10
1282.5488
20
1192.5582
30
0.0
11
1278.5488
21
1199.5582
31
0.0
12
1286.5488
22
1199.5582
32
0.0
13
1286.549
23
1199.5583
33
1.0E-4
0
3DFACE
8
0
10
1210.0
20
1160.0
30
0.0
11
1206.0
21
1167.0
31
0.0
12
1214.0
22
1167.0
32
0.0
13
1214.0001
23
1167.0001
33
1.0E-4
0
LINE
8
0
10
1210.0
20
1160.0
30
0.0
11
1231.1356
21
1160.0
31
0.0
0
LINE
8
0
10
1231.1356
20
1160.0
30
0.0
11
1251.2126
21
1139.923
31
0.0
0
LINE
8
0
10
1251.2126
20
1139.923
30
0.0
11
1289.1034
21
1102.0322
31
0.0
0
LINE
8
0
10
1289.1034
20
1102.0322
30
0.0
11
1254.6343
21
1102.0322
31
0.0
0
LINE
8
0
10
1254.6343
20
1102.0322
30
0.0
11
1293.2122
21
1102.0322
31
0.0
0
LINE
8
0
10
1293.2122
20
1102.0322
30
0.0
11
1260.2083
21
1135.0361
31
0.0
0
3DFACE
8
0
10
1260.2083
20
1169.653
30
0.0
11
1256.2083
21
1176.653
31
0.0
12
1264.2083
22
1176.653
32
0.0
13
1264.2084
23
1176.6531
33
1.0E-4
0
3DFACE
8
0
10
1360.0
20
1160.0
30
0.0
11
1356.0
21
1167.0
31
0.0
12
1364.0
22
1167.0
32
0.0
13
1364.0001
23
1167.0001
33
1.0E-4
0
LINE
8
0
10
1360.0
20
1160.0
30
0.0
11
1392.9844
21
1192.9844
31
0.0
0
LINE
8
0
10
1392.9844
20
1192.9844
30
0.0
11
1430.2368
21
1230.2368
31
0.0
0
LINE
8
0
10
1430.2368
20
1230.2368
30
0.0
11
1397.7611
21
1197.7611
31
0.0
0
LINE
8
0
10
1397.7611
20
1197.7611
30
0.0
11
1397.7611
21
1237.4531
31
0.0
0
LINE
8
0
10
1397.7611
20
1237.4531
30
0.0
11
1434.2029
21
1201.0115
31
0.0
0
LINE
8
0
10
1434.2029
20
1201.0115
30
0.0
11
1409.1226
21
1201.0115
31
0.0
0
3DFACE
8
0
10
1409.1226
20
1221.097
30
0.0
11
1405.1226
21
1228.097
31
0.0
12
1413.1226
22
1228.097
32
0.0
13
1413.1227
23
1228.0972
33
1.0E-4
0
3DFACE
8
0
10
1360.0
20
1160.0
30
0.0
11
1356.0
21
1167.0
31
0.0
12
1364.0
22
1167.0
32
0.0
13
1364.0001
23
1167.0001
33
1.0E-4
0
LINE
8
0
10
1360.0
20
1160.0
30
0.0
11
1385.3998
21
1185.3998
31
0.0
0
LINE
8
0
10
1385.3998
20
1185.3998
30
0.0
11
1408.309
21
1162.4906
31
0.0
0
LINE
8
0
10
1408.309
20
1162.4906
30
0.0
11
1408.309
21
1190.6411
31
0.0
0
LINE
8
0
10
1408.309
20
1190.6411
30
0.0
11
1373.5232
21
1155.8553
31
0.0
0
LINE
8
0
10
1373.5232
20
1155.8553
30
0.0
11
1373.5232
21
1194.0885
31
0.0
0
LINE
8
0
10
1373.5232
20
1194.0885
30
0.0
11
1404.8096
21
1194.0885
31
0.0
0
3DFACE
8
0
10
1432.2969
20
1194.0885
30
0.0
11
1428.2969
21
1201.0885
31
0.0
12
1436.2969
22
1201.0885
32
0.0
13
1436.297
23
1201.0886
33
1.0E-4
0
3DFACE
8
0
10
1360.0
20
1160.0
30
0.0
11
1356.0
21
1167.0
31
0.0
12
1364.0
22
1167.0
32
0.0
13
1364.0001
23
1167.0001
33
1.0E-4
0
LINE
8
0
10
1360.0
20
1160.0
30
0.0
11
1392.2728
21
1192.2728
31
0.0
0
LINE
8
0
10
1392.2728
20
1192.2728
30
0.0
11
1392.2728
21
1217.0482
31
0.0
0
LINE
8
0
10
1392.2728
20
1217.0482
30
0.0
11
1418.1338
21
1191.1873
31
0.0
0
LINE
8
0
10
1418.1338
20
1191.1873
30
0.0
11
1391.5132
21
1191.1873
31
0.0
0
LINE
8
0
10
1391.5132
20
1191.1873
30
0.0
11
1424.086
21
1191.1873
31
0.0
0
LINE
8
0
10
1424.086
20
1191.1873
30
0.0
11
1424.086
21
1219.9796
31
0.0
0
3DFACE
8
0
10
1401.1416
20
1197.0352
30
0.0
11
1397.1416
21
1204.0352
31
0.0
12
1405.1416
22
1204.0352
32
0.0
13
1405.1417
23
1204.0353
33
1.0E-4
0
3DFACE
8
0
10
1510.0
20
1160.0
30
0.0
11
1506.0
21
1167.0
31
0.0
12
1514.0
22
1167.0
32
0.0
13
1514.0001
23
1167.0001
33
1.0E-4
0
LINE
8
0
10
1510.0
20
1160.0
30
0.0
11
1549.7676
21
1160.0
31
0.0
0
LINE
8
0
10
1549.7676
20
1160.0
30
0.0
11
1589.724
21
1120.0436
31
0.0
0
LINE
8
0
10
1589.724
20
1120.0436
30
0.0
11
1559.8184
21
1149.9492
31
0.0
0
LINE
8
0
10
1559.8184
20
1149.9492
30
0.0
11
1559.8184
21
1177.1156
31
0.0
0
LINE
8
0
10
1559.8184
20
1177.1156
30
0.0
11
1521.8601
21
1177.1156
31
0.0
0
LINE
8
0
10
1521.8601
20
1177.1156
30
0.0
11
1560.7278
21
1215.9833
31
0.0
0
3DFACE
8
0
10
1560.7278
20
1178.9397
30
0.0
11
1556.7278
21
1185.9397
31
0.0
12
1564.7278
22
1185.9397
32
0.0
13
1564.7279
23
1185.9398
33
1.0E-4
0
3DFACE
8
0
10
1510.0
20
1160.0
30
0.0
11
1506.0
21
1167.0
31
0.0
12
1514.0
22
1167.0
32
0.0
13
1514.0001
23
1167.0001
33
1.0E-4
0
LINE
8
0
10
1510.0
20
1160.0
30
0.0
11
1542.3671
21
1127.6329
31
0.0
0
LINE
8
0
10
1542.3671
20
1127.6329
30
0.0
11
1542.3671
21
1161.2089
31
0.0
0
LINE
8
0
10
1542.3671
20
1161.2089
30
0.0
11
1572.0907
21
1190.9325
31
0.0
0
LINE
8
0
10
1572.0907
20
1190.9325
30
0.0
11
1533.7644
21
1152.6062
31
0.0
0
LINE
8
0
10
1533.7644
20
1152.6062
30
0.0
11
1533.7644
21
1172.6271
31
0.0
0
LINE
8
0
10
1533.7644
20
1172.6271
30
0.0
11
1556.3231
21
1150.0684
31
0.0
0
3DFACE
8
0
10
1527.0791
20
1150.0684
30
0.0
11
1523.0791
21
1157.0684
31
0.0
12
1531.0791
22
1157.0684
32
0.0
13
1531.0792
23
1157.0685
33
1.0E-4
0
3DFACE
8
0
10
1510.0
20
1160.0
30
0.0
11
1506.0
21
1167.0
31
0.0
12
1514.0
22
1167.0
32
0.0
13
1514.0001
23
1167.0001
33
1.0E-4
0
LINE
8
0
10
1510.0
20
1160.0
30
0.0
11
1510.0
21
1183.124
31
0.0
0
LINE
8
0
10
1510.0
20
1183.124
30
0.0
11
1546.7343
21
1146.3898
31
0.0
0
LINE
8
0
10
1546.7343
20
1146.3898
30
0.0
11
1584.6339
21
1108.4901
31
0.0
0
LINE
8
0
10
1584.6339
20
1108.4901
30
0.0
11
1563.2386
21
1087.0948
31
0.0
0
LINE
8
0
10
1563.2386
20
1087.0948
30
0.0
11
1531.5072
21
1118.8263
31
0.0
0
LINE
8
0
10
1531.5072
20
1118.8263
30
0.0
11
1563.1042
21
1087.2292
31
0.0
0
3DFACE
8
0
10
1525.0016
20
1087.2292
30
0.0
11
1521.0016
21
1094.2292
31
0.0
12
1529.0016
22
1094.2292
32
0.0
13
1529.0017
23
1094.2294
33
1.0E-4
0
3DFACE
8
0
10
1660.0
20
1160.0
30
0.0
11
1656.0
21
1167.0
31
0.0
12
1664.0
22
1167.0
32
0.0
13
1664.0001
23
1167.0001
33
1.0E-4
0
LINE
8
0
10
1660.0
20
1160.0
30
0.0
11
1687.0841
21
1187.0841
31
0.0
0
LINE
8
0
10
1687.0841
20
1187.0841
30
0.0
11
1687.0841
21
1220.5211
31
0.0
0
LINE
8
0
10
1687.0841
20
1220.5211
30
0.0
11
1711.1212
21
1244.5582
31
0.0
0
LINE
8
0
10
1711.1212
20
1244.5582
30
0.0
11
1671.2235
21
1284.4559
31
0.0
0
LINE
8
0
10
1671.2235
20
1284.4559
30
0.0
11
1694.6368
21
1284.4559
31
0.0
0
LINE
8
0
10
1694.6368
20
1284.4559
30
0.0
11
1719.357
21
1284.4559
31
0.0
0
3DFACE
8
0
10
1719.357
20
1251.1494
30
0.0
11
1715.357
21
1258.1494
31
0.0
12
1723.357
22
1258.1494
32
0.0
13
1723.3572
23
1258.1495
33
1.0E-4
0
3DFACE
8
0
10
1660.0
20
1160.0
30
0.0
11
1656.0
21
1167.0
31
0.0
12
1664.0
22
1167.0
32
0.0
13
1664.0001
23
1167.0001
33
1.0E-4
0
LINE
8
0
10
1660.0
20
1160.0
30
0.0
11
1660.0
21
1185.7864
31
0.0
0
LINE
8
0
10
1660.0
20
1185.7864
30
0.0
11
1686.6086
21
1159.1777
31
0.0
0
LINE
8
0
10
1686.6086
20
1159.1777
30
0.0
11
1686.6086
21
1195.0709
31
0.0
0
LINE
8
0
10
1686.6086
20
1195.0709
30
0.0
11
1718.4591
21
1226.9214
31
0.0
0
LINE
8
0
10
1718.4591
20
1226.9214
30
0.0
11
1684.5742
21
1193.0365
31
0.0
0
LINE
8
0
10
1684.5742
20
1193.0365
30
0.0
11
1721.2325
21
1193.0365
31
0.0
0
3DFACE
8
0
10
1684.5232
20
1229.7458
30
0.0
11
1680.5232
21
1236.7458
31
0.0
12
1688.5232
22
1236.7458
32
0.0
13
1688.5233
23
1236.746
33
1.0E-4
0
3DFACE
8
0
10
1660.0
20
1160.0
30
0.0
11
1656.0
21
1167.0
31
0.0
12
1664.0
22
1167.0
32
0.0
13
1664.0001
23
1167.0001
33
1.0E-4
0
LINE
8
0
10
1660.0
20
1160.0
30
0.0
11
1686.5408
21
1186.5408
31
0.0
0
LINE
8
0
10
1686.5408
20
1186.5408
30
0.0
11
1716.5901
21
1156.4915
31
0.0
0
LINE
8
0
10
1716.5901
20
1156.4915
30
0.0
11
1690.3401
21
1182.7415
31
0.0
0
LINE
8
0
10
1690.3401
20
1182.7415
30
0.0
11
1729.6346
21
1143.4469
31
0.0
0
LINE
8
0
10
1729.6346
20
1143.4469
30
0.0
11
1729.6346
21
1167.5708
31
0.0
0
LINE
8
0
10
1729.6346
20
1167.5708
30
0.0
11
1699.2192
21
1137.1554
31
0.0
0
3DFACE
8
0
10
1720.992
20
1137.1554
30
0.0
11
1716.992
21
1144.1554
31
0.0
12
1724.992
22
1144.1554
32
0.0
13
1724.9921
23
1144.1555
33
1.0E-4
0
3DFACE
8
0
10
310.0
20
1360.0
30
0.0
11
306.0
21
1367.0
31
0.0
12
314.0
22
1367.0
32
0.0
13
314.0001
23
1367.0001
33
1.0E-4
0
LINE
8
0
10
310.0
20
1360.0
30
0.0
11
340.2132
21
1360.0
31
0.0
0
LINE
8
0
10
340.2132
20
1360.0
30
0.0
11
340.2132
21
1380.22
31
0.0
0
LINE
8
0
10
340.2132
20
1380.22
30
0.0
11
340.2132
21
1406.4711
31
0.0
0
LINE
8
0
10
340.2132
20
1406.4711
30
0.0
11
370.1595
21
1436.4174
31
0.0
0
LINE
8
0
10
370.1595
20
1436.4174
30
0.0
11
347.59723
21
1413.8551
31
0.0
0
3DFACE
8
0
10
347.59723
20
1389.0344
30
0.0
11
343.59723
21
1396.0344
31
0.0
12
351.59723
22
1396.0344
32
0.0
13
351.59732
23
1396.0345
33
1.0E-4
0
3DFACE
8
0
10
310.0
20
1360.0
30
0.0
11
306.0
21
1367.0
31
0.0
12
314.0
22
1367.0
32
0.0
13
314.0001
23
1367.0001
33
1.0E-4
0
LINE
8
0
10
310.0
20
1360.0
30
0.0
11
332.41797
21
1337.582
31
0.0
0
LINE
8
0
10
332.41797
20
1337.582
30
0.0
11
332.41797
21
1367.6526
31
0.0
0
LINE
8
0
10
332.41797
20
1367.6526
30
0.0
11
356.11392
21
1343.9567
31
0.0
0
LINE
8
0
10
356.11392
20
1343.9567
30
0.0
11
334.63605
21
1343.9567
31
0.0
0
LINE
8
0
10
334.63605
20
1343.9567
30
0.0
11
334.63605
21
1379.7104
31
0.0
0
3DFACE
8
0
10
373.5714
20
1418.6459
30
0.0
11
369.5714
21
1425.6459
31
0.0
12
377.5714
22
1425.6459
32
0.0
13
377.5715
23
1425.646
33
1.0E-4
0
3DFACE
8
0
10
310.0
20
1360.0
30
0.0
11
306.0
21
1367.0
31
0.0
12
314.0
22
1367.0
32
0.0
13
314.0001
23
1367.0001
33
1.0E-4
0
LINE
8
0
10
310.0
20
1360.0
30
0.0
11
334.5132
21
1360.0
31
0.0
0
LINE
8
0
10
334.5132
20
1360.0
30
0.0
11
366.74353
21
1392.2303
31
0.0
0
LINE
8
0
10
366.74353
20
1392.2303
30
0.0
11
336.4065
21
1392.2303
31
0.0
0
LINE
8
0
10
336.4065
20
1392.2303
30
0.0
11
359.51593
21
1369.1208
31
0.0
0
LINE
8
0
10
359.51593
20
1369.1208
30
0.0
11
327.3175
21
1336.9225
31
0.0
0
3DFACE
8
0
10
353.12833
20
1311.1117
30
0.0
11
349.12833
21
1318.1117
31
0.0
12
357.12833
22
1318.1117
32
0.0
13
357.12842
23
1318.1118
33
1.0E-4
0
3DFACE
8
0
10
460.0
20
1360.0
30
0.0
11
456.0
21
1367.0
31
0.0
12
464.0
22
1367.0
32
0.0
13
464.0001
23
1367.0001
33
1.0E-4
0
LINE
8
0
10
460.0
20
1360.0
30
0.0
11
492.85947
21
1392.8595
31
0.0
0
LINE
8
0
10
492.85947
20
1392.8595
30
0.0
11
492.85947
21
1414.4847
31
0.0
0
LINE
8
0
10
492.85947
20
1414.4847
30
0.0
11
522.74756
21
1414.4847
31
0.0
0
LINE
8
0
10
522.74756
20
1414.4847
30
0.0
11
499.9617
21
1391.6989
31
0.0
0
LINE
8
0
10
499.9617
20
1391.6989
30
0.0
11
533.1927
21
1391.6989
31
0.0
0
3DFACE
8
0
10
502.18784
20
1422.7037
30
0.0
11
498.18784
21
1429.7037
31
0.0
12
506.18784
22
1429.7037
32
0.0
13
506.18793
23
1429.7039
33
1.0E-4
0
3DFACE
8
0
10
460.0
20
1360.0
30
0.0
11
456.0
21
1367.0
31
0.0
12
464.0
22
1367.0
32
0.0
13
464.0001
23
1367.0001
33
1.0E-4
0
LINE
8
0
10
460.0
20
1360.0
30
0.0
11
493.94238
21
1393.9424
31
0.0
0
LINE
8
0
10
493.94238
20
1393.9424
30
0.0
11
531.9611
21
1431.9612
31
0.0
0
LINE
8
0
10
531.9611
20
1431.9612
30
0.0
11
498.90317
21
1465.0192
31
0.0
0
LINE
8
0
10
498.90317
20
1465.0192
30
0.0
11
533.024
21
1430.8983
31
0.0
0
LINE
8
0
10
533.024
20
1430.8983
30
0.0
11
533.024
21
1398.5653
31
0.0
0
3DFACE
8
0
10
494.8126
20
1360.3539
30
0.0
11
490.8126
21
1367.3539
31
0.0
12
498.8126
22
1367.3539
32
0.0
13
498.81268
23
1367.354
33
1.0E-4
0
3DFACE
8
0
10
460.0
20
1360.0
30
0.0
11
456.0
21
1367.0
31
0.0
12
464.0
22
1367.0
32
0.0
13
464.0001
23
1367.0001
33
1.0E-4
0
LINE
8
0
10
460.0
20
1360.0
30
0.0
11
460.0
21
1397.7825
31
0.0
0
LINE
8
0
10
460.0
20
1397.7825
30
0.0
11
484.56335
21
1397.7825
31
0.0
0
LINE
8
0
10
484.56335
20
1397.7825
30
0.0
11
484.56335
21
1423.8986
31
0.0
0
LINE
8
0
10
484.56335
20
1423.8986
30
0.0
11
484.56335
21
1403.6317
31
0.0
0
LINE
8
0
10
484.56335
20
1403.6317
30
0.0
11
484.56335
21
1440.6697
31
0.0
0
3DFACE
8
0
10
513.5473
20
1469.6537
30
0.0
11
509.5473
21
1476.6537
31
0.0
12
517.5473
22
1476.6537
32
0.0
13
517.5474
23
1476.6538
33
1.0E-4
0
3DFACE
8
0
10
610.0
20
1360.0
30
0.0
11
606.0
21
1367.0
31
0.0
12
614.0
22
1367.0
32
0.0
13
614.0001
23
1367.0001
33
1.0E-4
0
LINE
8
0
10
610.0
20
1360.0
30
0.0
11
630.0394
21
1360.0
31
0.0
0
LINE
8
0
10
630.0394
20
1360.0
30
0.0
11
630.0394
21
1394.8293
31
0.0
0
LINE
8
0
10
630.0394
20
1394.8293
30
0.0
11
652.2126
21
1417.0026
31
0.0
0
LINE
8
0
10
652.2126
20
1417.0026
30
0.0
11
652.2126
21
1395.6885
31
0.0
0
LINE
8
0
10
652.2126
20
1395.6885
30
0.0
11
690.2561
21
1357.645
31
0.0
0
3DFACE
8
0
10
661.66064
20
1386.2405
30
0.0
11
657.66064
21
1393.2405
31
0.0
12
665.66064
22
1393.2405
32
0.0
13
665.66077
23
1393.2406
33
1.0E-4
0
3DFACE
8
0
10
610.0
20
1360.0
30
0.0
11
606.0
21
1367.0
31
0.0
12
614.0
22
1367.0
32
0.0
13
614.0001
23
1367.0001
33
1.0E-4
0
LINE
8
0
10
610.0
20
1360.0
30
0.0
11
610.0
21
1389.9137
31
0.0
0
LINE
8
0
10
610.0
20
1389.9137
30
0.0
11
644.8052
21
1389.9137
31
0.0
0
LINE
8
0
10
644.8052
20
1389.9137
30
0.0
11
679.5489
21
1389.9137
31
0.0
0
LINE
8
0
10
679.5489
20
1389.9137
30
0.0
11
640.6937
21
1351.0585
31
0.0
0
LINE
8
0
10
640.6937
20
1351.0585
30
0.0
11
677.47
21
1387.8347
31
0.0
0
3DFACE
8
0
10
646.9546
20
1387.8347
30
0.0
11
642.9546
21
1394.8347
31
0.0
12
650.9546
22
1394.8347
32
0.0
13
650.9547
23
1394.8348
33
1.0E-4
0
3DFACE
8
0
10
610.0
20
1360.0
30
0.0
11
606.0
21
1367.0
31
0.0
12
614.0
22
1367.0
32
0.0
13
614.0001
23
1367.0001
33
1.0E-4
0
LINE
8
0
10
610.0
20
1360.0
30
0.0
11
610.0
21
1394.9412
31
0.0
0
LINE
8
0
10
610.0
20
1394.9412
30
0.0
11
610.0
21
1419.1482
31
0.0
0
LINE
8
0
10
610.0
20
1419.1482
30
0.0
11
630.121
21
1399.0272
31
0.0
0
LINE
8
0
10
630.121
20
1399.0272
30
0.0
11
664.28656
21
1399.0272
31
0.0
0
LINE
8
0
10
664.28656
20
1399.0272
30
0.0
11
664.28656
21
1438.8187
31
0.0
0
3DFACE
8
0
10
627.77826
20
1402.3104
30
0.0
11
623.77826
21
1409.3104
31
0.0
12
631.77826
22
1409.3104
32
0.0
13
631.7784
23
1409.3105
33
1.0E-4
0
3DFACE
8
0
10
760.0
20
1360.0
30
0.0
11
756.0
21
1367.0
31
0.0
12
764.0
22
1367.0
32
0.0
13
764.0001
23
1367.0001
33
1.0E-4
0
LINE
8
0
10
760.0
20
1360.0
30
0.0
11
760.0
21
1388.619
31
0.0
0
LINE
8
0
10
760.0
20
1388.619
30
0.0
11
760.0
21
1415.8354
31
0.0
0
LINE
8
0
10
760.0
20
1415.8354
30
0.0
11
790.46484
21
1415.8354
31
0.0
0
LINE
8
0
10
790.46484
20
1415.8354
30
0.0
11
821.3219
21
1446.6925
31
0.0
0
LINE
8
0
10
821.3219
20
1446.6925
30
0.0
11
793.88617
21
1419.2568
31
0.0
0
3DFACE
8
0
10
826.45276
20
1386.6902
30
0.0
11
822.45276
21
1393.6902
31
0.0
12
830.45276
22
1393.6902
32
0.0
13
830.4529
23
1393.6903
33
1.0E-4
0
3DFACE
8
0
10
760.0
20
1360.0
30
0.0
11
756.0
21
1367.0
31
0.0
12
764.0
22
1367.0
32
0.0
13
764.0001
23
1367.0001
33
1.0E-4
0
LINE
8
0
10
760.0
20
1360.0
30
0.0
11
797.968
21
1322.032
31
0.0
0
LINE
8
0
10
797.968
20
1322.032
30
0.0
11
797.968
21
1354.798
31
0.0
0
LINE
8
0
10
797.968
20
1354.798
30
0.0
11
797.968
21
1376.3683
31
0.0
0
LINE
8
0
10
797.968
20
1376.3683
30
0.0
11
828.4176
21
1345.9187
31
0.0
0
LINE
8
0
10
828.4176
20
1345.9187
30
0.0
11
797.16785
21
1314.669
31
0.0
0
3DFACE
8
0
10
831.8465
20
1314.669
30
0.0
11
827.8465
21
1321.669
31
0.0
12
835.8465
22
1321.669
32
0.0
13
835.8466
23
1321.6691
33
1.0E-4
0
3DFACE
8
0
10
760.0
20
1360.0
30
0.0
11
756.0
21
1367.0
31
0.0
12
764.0
22
1367.0
32
0.0
13
764.0001
23
1367.0001
33
1.0E-4
0
LINE
8
0
10
760.0
20
1360.0
30
0.0
11
794.56744
21
1394.5675
31
0.0
0
LINE
8
0
10
794.56744
20
1394.5675
30
0.0
11
830.47327
21
1430.4733
31
0.0
0
LINE
8
0
10
830.47327
20
1430.4733
30
0.0
11
805.6742
21
1455.2723
31
0.0
0
LINE
8
0
10
805.6742
20
1455.2723
30
0.0
11
805.6742
21
1417.6829
31
0.0
0
LINE
8
0
10
805.6742
20
1417.6829
30
0.0
11
805.6742
21
1388.4788
31
0.0
0
3DFACE
8
0
10
805.6742
20
1414.1129
30
0.0
11
801.6742
21
1421.1129
31
0.0
12
809.6742
22
1421.1129
32
0.0
13
809.6743
23
1421.113
33
1.0E-4
0
3DFACE
8
0
10
910.0
20
1360.0
30
0.0
11
906.0
21
1367.0
31
0.0
12
914.0
22
1367.0
32
0.0
13
914.0001
23
1367.0001
33
1.0E-4
0
LINE
8
0
10
910.0
20
1360.0
30
0.0
11
910.0
21
1381.6476
31
0.0
0
LINE
8
0
10
910.0
20
1381.6476
30
0.0
11
937.76764
21
1381.6476
31
0.0
0
LINE
8
0
10
937.76764
20
1381.6476
30
0.0
11
959.5496
21
1403.4296
31
0.0
0
LINE
8
0
10
959.5496
20
1403.4296
30
0.0
11
920.47253
21
1403.4296
31
0.0
0
LINE
8
0
10
920.47253
20
1403.4296
30
0.0
11
948.4969
21
1403.4296
31
0.0
0
3DFACE
8
0
10
948.4969
20
1426.8802
30
0.0
11
944.4969
21
1433.8802
31
0.0
12
952.4969
22
1433.8802
32
0.0
13
952.497
23
1433.8804
33
1.0E-4
0
3DFACE
8
0
10
910.0
20
1360.0
30
0.0
11
906.0
21
1367.0
31
0.0
12
914.0
22
1367.0
32
0.0
13
914.0001
23
1367.0001
33
1.0E-4
0
LINE
8
0
10
910.0
20
1360.0
30
0.0
11
932.29364
21
1360.0
31
0.0
0
LINE
8
0
10
932.29364
20
1360.0
30
0.0
11
968.56165
21
1360.0
31
0.0
0
LINE
8
0
10
968.56165
20
1360.0
30
0.0
11
946.6988
21
1360.0
31
0.0
0
LINE
8
0
10
946.6988
20
1360.0
30
0.0
11
946.6988
21
1381.857
31
0.0
0
LINE
8
0
10
946.6988
20
1381.857
30
0.0
11
975.704
21
1381.857
31
0.0
0
3DFACE
8
0
10
975.704
20
1415.1305
30
0.0
11
971.704
21
1422.1305
31
0.0
12
979.704
22
1422.1305
32
0.0
13
979.7041
23
1422.1306
33
1.0E-4
0
3DFACE
8
0
10
910.0
20
1360.0
30
0.0
11
906.0
21
1367.0
31
0.0
12
914.0
22
1367.0
32
0.0
13
914.0001
23
1367.0001
33
1.0E-4
0
LINE
8
0
10
910.0
20
1360.0
30
0.0
11
938.9479
21
1360.0
31
0.0
0
LINE
8
0
10
938.9479
20
1360.0
30
0.0
11
961.93414
21
1337.0137
31
0.0
0
LINE
8
0
10
961.93414
20
1337.0137
30
0.0
11
961.93414
21
1374.9026
31
0.0
0
LINE
8
0
10
961.93414
20
1374.9026
30
0.0
11
961.93414
21
1409.8877
31
0.0
0
LINE
8
0
10
961.93414
20
1409.8877
30
0.0
11
924.2421
21
1447.5797
31
0.0
0
3DFACE
8
0
10
947.6503
20
1470.9879
30
0.0
11
943.6503
21
1477.9879
31
0.0
12
951.6503
22
1477.9879
32
0.0
13
951.65045
23
1477.988
33
1.0E-4
0
3DFACE
8
0
10
1060.0
20
1360.0
30
0.0
11
1056.0
21
1367.0
31
0.0
12
1064.0
22
1367.0
32
0.0
13
1064.0001
23
1367.0001
33
1.0E-4
0
LINE
8
0
10
1060.0
20
1360.0
30
0.0
11
1094.8622
21
1325.1378
31
0.0
0
LINE
8
0
10
1094.8622
20
1325.1378
30
0.0
11
1119.4319
21
1349.7075
31
0.0
0
LINE
8
0
10
1119.4319
20
1349.7075
30
0.0
11
1093.0651
21
1323.3407
31
0.0
0
LINE
8
0
10
1093.0651
20
1323.3407
30
0.0
11
1113.6738
21
1323.3407
31
0.0
0
LINE
8
0
10
1113.6738
20
1323.3407
30
0.0
11
1091.7435
21
1345.271
31
0.0
0
3DFACE
8
0
10
1120.8025
20
1345.271
30
0.0
11
1116.8025
21
1352.271
31
0.0
12
1124.8025
22
1352.271
32
0.0
13
1124.8026
23
1352.2711
33
1.0E-4
0
3DFACE
8
0
10
1060.0
20
1360.0
30
0.0
11
1056.0
21
1367.0
31
0.0
12
1064.0
22
1367.0
32
0.0
13
1064.0001
23
1367.0001
33
1.0E-4
0
LINE
8
0
10
1060.0
20
1360.0
30
0.0
11
1085.0688
21
1360.0
31
0.0
0
LINE
8
0
10
1085.0688
20
1360.0
30
0.0
11
1111.5172
21
1386.4484
31
0.0
0
LINE
8
0
10
1111.5172
20
1386.4484
30
0.0
11
1084.4135
21
1413.5521
31
0.0
0
LINE
8
0
10
1084.4135
20
1413.5521
30
0.0
11
1084.4135
21
1392.1874
31
0.0
0
LINE
8
0
10
1084.4135
20
1392.1874
30
0.0
11
1084.4135
21
1420.9711
31
0.0
0
3DFACE
8
0
10
1084.4135
20
1384.0701
30
0.0
11
1080.4135
21
1391.0701
31
0.0
12
1088.4135
22
1391.0701
32
0.0
13
1088.4136
23
1391.0702
33
1.0E-4
0
3DFACE
8
0
10
1060.0
20
1360.0
30
0.0
11
1056.0
21
1367.0
31
0.0
12
1064.0
22
1367.0
32
0.0
13
1064.0001
23
1367.0001
33
1.0E-4
0
LINE
8
0
10
1060.0
20
1360.0
30
0.0
11
1060.0
21
1382.3516
31
0.0
0
LINE
8
0
10
1060.0
20
1382.3516
30
0.0
11
1080.4274
21
1382.3516
31
0.0
0
LINE
8
0
10
1080.4274
20
1382.3516
30
0.0
11
1118.0458
21
1419.97
31
0.0
0
LINE
8
0
10
1118.0458
20
1419.97
30
0.0
11
1118.0458
21
1395.4894
31
0.0
0
LINE
8
0
10
1118.0458
20
1395.4894
30
0.0
11
1094.1713
21
1395.4894
31
0.0
0
3DFACE
8
0
10
1094.1713
20
1428.7488
30
0.0
11
1090.1713
21
1435.7488
31
0.0
12
1098.1713
22
1435.7488
32
0.0
13
1098.1714
23
1435.7489
33
1.0E-4
0
3DFACE
8
0
10
1210.0
20
1360.0
30
0.0
11
1206.0
21
1367.0
31
0.0
12
1214.0
22
1367.0
32
0.0
13
1214.0001
23
1367.0001
33
1.0E-4
0
LINE
8
0
10
1210.0
20
1360.0
30
0.0
11
1210.0
21
1385.6035
31
0.0
0
LINE
8
0
10
1210.0
20
1385.6035
30
0.0
11
1210.0
21
1415.2284
31
0.0
0
LINE
8
0
10
1210.0
20
1415.2284
30
0.0
11
1244.6259
21
1415.2284
31
0.0
0
LINE
8
0
10
1244.6259
20
1415.2284
30
0.0
11
1269.9445
21
1440.547
31
0.0
0
LINE
8
0
10
1269.9445
20
1440.547
30
0.0
11
1239.5206
21
1470.9708
31
0.0
0
3DFACE
8
0
10
1267.3167
20
1470.9708
30
0.0
11
1263.3167
21
1477.9708
31
0.0
12
1271.3167
22
1477.9708
32
0.0
13
1271.3168
23
1477.971
33
1.0E-4
0
3DFACE
8
0
10
1210.0
20
1360.0
30
0.0
11
1206.0
21
1367.0
31
0.0
12
1214.0
22
1367.0
32
0.0
13
1214.0001
23
1367.0001
33
1.0E-4
0
LINE
8
0
10
1210.0
20
1360.0
30
0.0
11
1240.275
21
1360.0
31
0.0
0
LINE
8
0
10
1240.275
20
1360.0
30
0.0
11
1269.2252
21
1388.9502
31
0.0
0
LINE
8
0
10
1269.2252
20
1388.9502
30
0.0
11
1236.2053
21
1355.9303
31
0.0
0
LINE
8
0
10
1236.2053
20
1355.9303
30
0.0
11
1256.374
21
1335.7616
31
0.0
0
LINE
8
0
10
1256.374
20
1335.7616
30
0.0
11
1229.6665
21
1309.0541
31
0.0
0
3DFACE
8
0
10
1253.2236
20
1332.6112
30
0.0
11
1249.2236
21
1339.6112
31
0.0
12
1257.2236
22
1339.6112
32
0.0
13
1257.2238
23
1339.6113
33
1.0E-4
0
3DFACE
8
0
10
1210.0
20
1360.0
30
0.0
11
1206.0
21
1367.0
31
0.0
12
1214.0
22
1367.0
32
0.0
13
1214.0001
23
1367.0001
33
1.0E-4
0
LINE
8
0
10
1210.0
20
1360.0
30
0.0
11
1248.2073
21
1398.2073
31
0.0
0
LINE
8
0
10
1248.2073
20
1398.2073
30
0.0
11
1285.7229
21
1360.6917
31
0.0
0
LINE
8
0
10
1285.7229
20
1360.6917
30
0.0
11
1246.0521
21
1360.6917
31
0.0
0
LINE
8
0
10
1246.0521
20
1360.6917
30
0.0
11
1246.0521
21
1386.4076
31
0.0
0
LINE
8
0
10
1246.0521
20
1386.4076
30
0.0
11
1281.3455
21
1421.7009
31
0.0
0
3DFACE
8
0
10
1281.3455
20
1382.436
30
0.0
11
1277.3455
21
1389.436
31
0.0
12
1285.3455
22
1389.436
32
0.0
13
1285.3456
23
1389.4362
33
1.0E-4
0
3DFACE
8
0
10
1360.0
20
1360.0
30
0.0
11
1356.0
21
1367.0
31
0.0
12
1364.0
22
1367.0
32
0.0
13
1364.0001
23
1367.0001
33
1.0E-4
0
LINE
8
0
10
1360.0
20
1360.0
30
0.0
11
1395.322
21
1395.322
31
0.0
0
LINE
8
0
10
1395.322
20
1395.322
30
0.0
11
1427.9469
21
1427.9469
31
0.0
0
LINE
8
0
10
1427.9469
20
1427.9469
30
0.0
11
1427.9469
21
1396.8164
31
0.0
0
LINE
8
0
10
1427.9469
20
1396.8164
30
0.0
11
1395.2573
21
1429.506
31
0.0
0
LINE
8
0
10
1395.2573
20
1429.506
30
0.0
11
1429.4597
21
1463.7084
31
0.0
0
3DFACE
8
0
10
1401.3848
20
1491.7833
30
0.0
11
1397.3848
21
1498.7833
31
0.0
12
1405.3848
22
1498.7833
32
0.0
13
1405.3849
23
1498.7834
33
1.0E-4
0
3DFACE
8
0
10
1360.0
20
1360.0
30
0.0
11
1356.0
21
1367.0
31
0.0
12
1364.0
22
1367.0
32
0.0
13
1364.0001
23
1367.0001
33
1.0E-4
0
LINE
8
0
10
1360.0
20
1360.0
30
0.0
11
1387.1233
21
1387.1233
31
0.0
0
LINE
8
0
10
1387.1233
20
1387.1233
30
0.0
11
1417.9276
21
1417.9276
31
0.0
0
LINE
8
0
10
1417.9276
20
1417.9276
30
0.0
11
1387.3689
21
1448.4863
31
0.0
0
LINE
8
0
10
1387.3689
20
1448.4863
30
0.0
11
1413.9287
21
1448.4863
31
0.0
0
LINE
8
0
10
1413.9287
20
1448.4863
30
0.0
11
1377.5126
21
1412.0702
31
0.0
0
3DFACE
8
0
10
1377.5126
20
1380.2867
30
0.0
11
1373.5126
21
1387.2867
31
0.0
12
1381.5126
22
1387.2867
32
0.0
13
1381.5127
23
1387.2869
33
1.0E-4
0
3DFACE
8
0
10
1360.0
20
1360.0
30
0.0
11
1356.0
21
1367.0
31
0.0
12
1364.0
22
1367.0
32
0.0
13
1364.0001
23
1367.0001
33
1.0E-4
0
LINE
8
0
10
1360.0
20
1360.0
30
0.0
11
1383.949
21
1360.0
31
0.0
0
LINE
8
0
10
1383.949
20
1360.0
30
0.0
11
1422.1409
21
1360.0
31
0.0
0
LINE
8
0
10
1422.1409
20
1360.0
30
0.0
11
1422.1409
21
1387.8201
31
0.0
0
LINE
8
0
10
1422.1409
20
1387.8201
30
0.0
11
1384.5659
21
1387.8201
31
0.0
0
LINE
8
0
10
1384.5659
20
1387.8201
30
0.0
11
1415.2844
21
1387.8201
31
0.0
0
3DFACE
8
0
10
1390.5189
20
1363.0546
30
0.0
11
1386.5189
21
1370.0546
31
0.0
12
1394.5189
22
1370.0546
32
0.0
13
1394.519
23
1370.0547
33
1.0E-4
0
3DFACE
8
0
10
1510.0
20
1360.0
30
0.0
11
1506.0
21
1367.0
31
0.0
12
1514.0
22
1367.0
32
0.0
13
1514.0001
23
1367.0001
33
1.0E-4
0
LINE
8
0
10
1510.0
20
1360.0
30
0.0
11
1548.9941
21
1398.9941
31
0.0
0
LINE
8
0
10
1548.9941
20
1398.9941
30
0.0
11
1583.8713
21
1364.117
31
0.0
0
LINE
8
0
10
1583.8713
20
1364.117
30
0.0
11
1583.8713
21
1393.3147
31
0.0
0
LINE
8
0
10
1583.8713
20
1393.3147
30
0.0
11
1558.2593
21
1418.9268
31
0.0
0
LINE
8
0
10
1558.2593
20
1418.9268
30
0.0
11
1535.2823
21
1418.9268
31
0.0
0
3DFACE
8
0
10
1573.0366
20
1456.681
30
0.0
11
1569.0366
21
1463.681
31
0.0
12
1577.0366
22
1463.681
32
0.0
13
1577.0367
23
1463.6812
33
1.0E-4
0
3DFACE
8
0
10
1510.0
20
1360.0
30
0.0
11
1506.0
21
1367.0
31
0.0
12
1514.0
22
1367.0
32
0.0
13
1514.0001
23
1367.0001
33
1.0E-4
0
LINE
8
0
10
1510.0
20
1360.0
30
0.0
11
1544.3696
21
1394.3696
31
0.0
0
LINE
8
0
10
1544.3696
20
1394.3696
30
0.0
11
1565.1838
21
1394.3696
31
0.0
0
LINE
8
0
10
1565.1838
20
1394.3696
30
0.0
11
1565.1838
21
1433.7454
31
0.0
0
LINE
8
0
10
1565.1838
20
1433.7454
30
0.0
11
1527.2761
21
1433.7454
31
0.0
0
LINE
8
0
10
1527.2761
20
1433.7454
30
0.0
11
1562.5508
21
1469.02
31
0.0
0
3DFACE
8
0
10
1533.6495
20
1440.1188
30
0.0
11
1529.6495
21
1447.1188
31
0.0
12
1537.6495
22
1447.1188
32
0.0
13
1537.6497
23
1447.1189
33
1.0E-4
0
3DFACE
8
0
10
1510.0
20
1360.0
30
0.0
11
1506.0
21
1367.0
31
0.0
12
1514.0
22
1367.0
32
0.0
13
1514.0001
23
1367.0001
33
1.0E-4
0
LINE
8
0
10
1510.0
20
1360.0
30
0.0
11
1544.3461
21
1325.6539
31
0.0
0
LINE
8
0
10
1544.3461
20
1325.6539
30
0.0
11
1570.3293
21
1325.6539
31
0.0
0
LINE
8
0
10
1570.3293
20
1325.6539
30
0.0
11
1548.7646
21
1304.0892
31
0.0
0
LINE
8
0
10
1548.7646
20
1304.0892
30
0.0
11
1548.7646
21
1330.4075
31
0.0
0
LINE
8
0
10
1548.7646
20
1330.4075
30
0.0
11
1580.7228
21
1362.3656
31
0.0
0
3DFACE
8
0
10
1545.4418
20
1327.0846
30
0.0
11
1541.4418
21
1334.0846
31
0.0
12
1549.4418
22
1334.0846
32
0.0
13
1549.4419
23
1334.0847
33
1.0E-4
0
3DFACE
8
0
10
1660.0
20
1360.0
30
0.0
11
1656.0
21
1367.0
31
0.0
12
1664.0
22
1367.0
32
0.0
13
1664.0001
23
1367.0001
33
1.0E-4
0
LINE
8
0
10
1660.0
20
1360.0
30
0.0
11
1694.3866
21
1394.3866
31
0.0
0
LINE
8
0
10
1694.3866
20
1394.3866
30
0.0
11
1721.1554
21
1421.1554
31
0.0
0
LINE
8
0
10
1721.1554
20
1421.1554
30
0.0
11
1697.5322
21
1444.7786
31
0.0
0
LINE
8
0
10
1697.5322
20
1444.7786
30
0.0
11
1735.3815
21
1444.7786
31
0.0
0
LINE
8
0
10
1735.3815
20
1444.7786
30
0.0
11
1714.2091
21
1444.7786
31
0.0
0
3DFACE
8
0
10
1684.2594
20
1414.8289
30
0.0
11
1680.2594
21
1421.8289
31
0.0
12
1688.2594
22
1421.8289
32
0.0
13
1688.2595
23
1421.829
33
1.0E-4
0
3DFACE
8
0
10
1660.0
20
1360.0
30
0.0
11
1656.0
21
1367.0
31
0.0
12
1664.0
22
1367.0
32
0.0
13
1664.0001
23
1367.0001
33
1.0E-4
0
LINE
8
0
10
1660.0
20
1360.0
30
0.0
11
1660.0
21
1391.9639
31
0.0
0
LINE
8
0
10
1660.0
20
1391.9639
30
0.0
11
1692.1826
21
1424.1465
31
0.0
0
LINE
8
0
10
1692.1826
20
1424.1465
30
0.0
11
1692.1826
21
1390.2161
31
0.0
0
LINE
8
0
10
1692.1826
20
1390.2161
30
0.0
11
1713.4359
21
1390.2161
31
0.0
0
LINE
8
0
10
1713.4359
20
1390.2161
30
0.0
11
1692.5939
21
1411.0581
31
0.0
0
3DFACE
8
0
10
1714.2001
20
1432.6643
30
0.0
11
1710.2001
21
1439.6643
31
0.0
12
1718.2001
22
1439.6643
32
0.0
13
1718.2002
23
1439.6644
33
1.0E-4
0
3DFACE
8
0
10
1660.0
20
1360.0
30
0.0
11
1656.0
21
1367.0
31
0.0
12
1664.0
22
1367.0
32
0.0
13
1664.0001
23
1367.0001
33
1.0E-4
0
LINE
8
0
10
1660.0
20
1360.0
30
0.0
11
1686.2772
21
1360.0
31
0.0
0
LINE
8
0
10
1686.2772
20
1360.0
30
0.0
11
1722.9626
21
1396.6854
31
0.0
0
LINE
8
0
10
1722.9626
20
1396.6854
30
0.0
11
1698.7462
21
1420.9019
31
0.0
0
LINE
8
0
10
1698.7462
20
1420.9019
30
0.0
11
1731.662
21
1453.8176
31
0.0
0
LINE
8
0
10
1731.662
20
1453.8176
30
0.0
11
1695.9408
21
1453.8176
31
0.0
0
3DFACE
8
0
10
1716.4877
20
1453.8176
30
0.0
11
1712.4877
21
1460.8176
31
0.0
12
1720.4877
22
1460.8176
32
0.0
13
1720.4878
23
1460.8177
33
1.0E-4
0
3DFACE
8
0
10
310.0
20
1560.0
30
0.0
11
306.0
21
1567.0
31
0.0
12
314.0
22
1567.0
32
0.0
13
314.0001
23
1567.0001
33
1.0E-4
0
LINE
8
0
10
310.0
20
1560.0
30
0.0
11
343.08273
21
1560.0
31
0.0
0
LINE
8
0
10
343.08273
20
1560.0
30
0.0
11
369.0442
21
1560.0
31
0.0
0
LINE
8
0
10
369.0442
20
1560.0
30
0.0
11
344.445
21
1584.5991
31
0.0
0
LINE
8
0
10
344.445
20
1584.5991
30
0.0
11
344.445
21
1621.9556
31
0.0
0
3DFACE
8
0
10
376.40225
20
1621.9556
30
0.0
11
372.40225
21
1628.9556
31
0.0
12
380.40225
22
1628.9556
32
0.0
13
380.40234
23
1628.9557
33
1.0E-4
0
3DFACE
8
0
10
310.0
20
1560.0
30
0.0
11
306.0
21
1567.0
31
0.0
12
314.0
22
1567.0
32
0.0
13
314.0001
23
1567.0001
33
1.0E-4
0
LINE
8
0
10
310.0
20
1560.0
30
0.0
11
310.0
21
1596.5929
31
0.0
0
LINE
8
0
10
310.0
20
1596.5929
30
0.0
11
345.5925
21
1596.5929
31
0.0
0
LINE
8
0
10
345.5925
20
1596.5929
30
0.0
11
379.6312
21
1596.5929
31
0.0
0
LINE
8
0
10
379.6312
20
1596.5929
30
0.0
11
345.4343
21
1630.7898
31
0.0
0
3DFACE
8
0
10
383.19
20
1668.5455
30
0.0
11
379.19
21
1675.5455
31
0.0
12
387.19
22
1675.5455
32
0.0
13
387.1901
23
1675.5457
33
1.0E-4
0
3DFACE
8
0
10
310.0
20
1560.0
30
0.0
11
306.0
21
1567.0
31
0.0
12
314.0
22
1567.0
32
0.0
13
314.0001
23
1567.0001
33
1.0E-4
0
LINE
8
0
10
310.0
20
1560.0
30
0.0
11
345.88788
21
1595.888
31
0.0
0
LINE
8
0
10
345.88788
20
1595.888
30
0.0
11
345.88788
21
1619.4678
31
0.0
0
LINE
8
0
10
345.88788
20
1619.4678
30
0.0
11
374.79266
21
1648.3726
31
0.0
0
LINE
8
0
10
374.79266
20
1648.3726
30
0.0
11
374.79266
21
1611.8618
31
0.0
0
3DFACE
8
0
10
374.79266
20
1574.0396
30
0.0
11
370.79266
21
1581.0396
31
0.0
12
378.79266
22
1581.0396
32
0.0
13
378.79276
23
1581.0397
33
1.0E-4
0
3DFACE
8
0
10
460.0
20
1560.0
30
0.0
11
456.0
21
1567.0
31
0.0
12
464.0
22
1567.0
32
0.0
13
464.0001
23
1567.0001
33
1.0E-4
0
LINE
8
0
10
460.0
20
1560.0
30
0.0
11
497.1542
21
1522.8458
31
0.0
0
LINE
8
0
10
497.1542
20
1522.8458
30
0.0
11
518.40717
21
1522.8458
31
0.0
0
LINE
8
0
10
518.40717
20
1522.8458
30
0.0
11
490.0424
21
1551.2106
31
0.0
0
LINE
8
0
10
490.0424
20
1551.2106
30
0.0
11
490.0424
21
1584.4541
31
0.0
0
3DFACE
8
0
10
518.19165
20
1556.3048
30
0.0
11
514.19165
21
1563.3048
31
0.0
12
522.19165
22
1563.3048
32
0.0
13
522.1918
23
1563.3049
33
1.0E-4
0
3DFACE
8
0
10
460.0
20
1560.0
30
0.0
11
456.0
21
1567.0
31
0.0
12
464.0
22
1567.0
32
0.0
13
464.0001
23
1567.0001
33
1.0E-4
0
LINE
8
0
10
460.0
20
1560.0
30
0.0
11
460.0
21
1582.7616
31
0.0
0
LINE
8
0
10
460.0
20
1582.7616
30
0.0
11
460.0
21
1607.2986
31
0.0
0
LINE
8
0
10
460.0
20
1607.2986
30
0.0
11
460.0
21
1583.4613
31
0.0
0
LINE
8
0
10
460.0
20
1583.4613
30
0.0
11
488.56833
21
1583.4613
31
0.0
0
3DFACE
8
0
10
488.56833
20
1611.8657
30
0.0
11
484.56833
21
1618.8657
31
0.0
12
492.56833
22
1618.8657
32
0.0
13
492.56842
23
1618.8658
33
1.0E-4
0
3DFACE
8
0
10
460.0
20
1560.0
30
0.0
11
456.0
21
1567.0
31
0.0
12
464.0
22
1567.0
32
0.0
13
464.0001
23
1567.0001
33
1.0E-4
0
LINE
8
0
10
460.0
20
1560.0
30
0.0
11
492.65182
21
1560.0
31
0.0
0
LINE
8
0
10
492.65182
20
1560.0
30
0.0
11
492.65182
21
1590.318
31
0.0
0
LINE
8
0
10
492.65182
20
1590.318
30
0.0
11
492.65182
21
1626.2838
31
0.0
0
LINE
8
0
10
492.65182
20
1626.2838
30
0.0
11
516.02155
21
1626.2838
31
0.0
0
3DFACE
8
0
10
489.18732
20
1626.2838
30
0.0
11
485.18732
21
1633.2838
31
0.0
12
493.18732
22
1633.2838
32
0.0
13
493.1874
23
1633.2839
33
1.0E-4
0
3DFACE
8
0
10
610.0
20
1560.0
30
0.0
11
606.0
21
1567.0
31
0.0
12
614.0
22
1567.0
32
0.0
13
614.0001
23
1567.0001
33
1.0E-4
0
LINE
8
0
10
610.0
20
1560.0
30
0.0
11
649.6488
21
1520.3512
31
0.0
0
LINE
8
0
10
649.6488
20
1520.3512
30
0.0
11
649.6488
21
1547.7227
31
0.0
0
LINE
8
0
10
649.6488
20
1547.7227
30
0.0
11
683.5331
21
1513.8384
31
0.0
0
LINE
8
0
10
683.5331
20
1513.8384
30
0.0
11
654.23553
21
1513.8384
31
0.0
0
3DFACE
8
0
10
675.58484
20
1535.1877
30
0.0
11
671.58484
21
1542.1877
31
0.0
12
679.58484
22
1542.1877
32
0.0
13
679.58496
23
1542.1879
33
1.0E-4
0
3DFACE
8
0
10
610.0
20
1560.0
30
0.0
11
606.0
21
1567.0
31
0.0
12
614.0
22
1567.0
32
0.0
13
614.0001
23
1567.0001
33
1.0E-4
0
LINE
8
0
10
610.0
20
1560.0
30
0.0
11
610.0
21
1595.5839
31
0.0
0
LINE
8
0
10
610.0
20
1595.5839
30
0.0
11
643.71985
21
1561.864
31
0.0
0
LINE
8
0
10
643.71985
20
1561.864
30
0.0
11
665.97345
21
1539.6105
31
0.0
0
LINE
8
0
10
665.97345
20
1539.6105
30
0.0
11
634.4994
21
1508.1365
31
0.0
0
3DFACE
8
0
10
657.26544
20
1508.1365
30
0.0
11
653.26544
21
1515.1365
31
0.0
12
661.26544
22
1515.1365
32
0.0
13
661.26556
23
1515.1366
33
1.0E-4
0
3DFACE
8
0
10
610.0
20
1560.0
30
0.0
11
606.0
21
1567.0
31
0.0
12
614.0
22
1567.0
32
0.0
13
614.0001
23
1567.0001
33
1.0E-4
0
LINE
8
0
10
610.0
20
1560.0
30
0.0
11
610.0
21
1580.8289
31
0.0
0
LINE
8
0
10
610.0
20
1580.8289
30
0.0
11
610.0
21
1617.1655
31
0.0
0
LINE
8
0
10
610.0
20
1617.1655
30
0.0
11
635.98206
21
1643.1476
31
0.0
0
LINE
8
0
10
635.98206
20
1643.1476
30
0.0
11
662.434
21
1669.5995
31
0.0
0
3DFACE
8
0
10
662.434
20
1642.5835
30
0.0
11
658.434
21
1649.5835
31
0.0
12
666.434
22
1649.5835
32
0.0
13
666.43414
23
1649.5836
33
1.0E-4
0
3DFACE
8
0
10
760.0
20
1560.0
30
0.0
11
756.0
21
1567.0
31
0.0
12
764.0
22
1567.0
32
0.0
13
764.0001
23
1567.0001
33
1.0E-4
0
LINE
8
0
10
760.0
20
1560.0
30
0.0
11
799.7215
21
1560.0
31
0.0
0
LINE
8
0
10
799.7215
20
1560.0
30
0.0
11
823.7163
21
1583.9948
31
0.0
0
LINE
8
0
10
823.7163
20
1583.9948
30
0.0
11
789.8453
21
1583.9948
31
0.0
0
LINE
8
0
10
789.8453
20
1583.9948
30
0.0
11
827.47943
21
1583.9948
31
0.0
0
3DFACE
8
0
10
806.7505
20
1563.2657
30
0.0
11
802.7505
21
1570.2657
31
0.0
12
810.7505
22
1570.2657
32
0.0
13
810.7506
23
1570.2659
33
1.0E-4
0
3DFACE
8
0
10
760.0
20
1560.0
30
0.0
11
756.0
21
1567.0
31
0.0
12
764.0
22
1567.0
32
0.0
13
764.0001
23
1567.0001
33
1.0E-4
0
LINE
8
0
10
760.0
20
1560.0
30
0.0
11
795.828
21
1560.0
31
0.0
0
LINE
8
0
10
795.828
20
1560.0
30
0.0
11
817.75476
21
1538.0732
31
0.0
0
LINE
8
0
10
817.75476
20
1538.0732
30
0.0
11
779.756
21
1500.0745
31
0.0
0
LINE
8
0
10
779.756
20
1500.0745
30
0.0
11
815.70734
21
1500.0745
31
0.0
0
3DFACE
8
0
10
795.0001
20
1500.0745
30
0.0
11
791.0001
21
1507.0745
31
0.0
12
799.0001
22
1507.0745
32
0.0
13
799.00024
23
1507.0746
33
1.0E-4
0
3DFACE
8
0
10
760.0
20
1560.0
30
0.0
11
756.0
21
1567.0
31
0.0
12
764.0
22
1567.0
32
0.0
13
764.0001
23
1567.0001
33
1.0E-4
0
LINE
8
0
10
760.0
20
1560.0
30
0.0
11
782.2142
21
1560.0
31
0.0
0
LINE
8
0
10
782.2142
20
1560.0
30
0.0
11
810.7621
21
1560.0
31
0.0
0
LINE
8
0
10
810.7621
20
1560.0
30
0.0
11
784.9695
21
1534.2074
31
0.0
0
LINE
8
0
10
784.9695
20
1534.2074
30
0.0
11
809.68805
21
1509.4889
31
0.0
0
3DFACE
8
0
10
776.5508
20
1476.3516
30
0.0
11
772.5508
21
1483.3516
31
0.0
12
780.5508
22
1483.3516
32
0.0
13
780.5509
23
1483.3517
33
1.0E-4
0
3DFACE
8
0
10
910.0
20
1560.0
30
0.0
11
906.0
21
1567.0
31
0.0
12
914.0
22
1567.0
32
0.0
13
914.0001
23
1567.0001
33
1.0E-4
0
LINE
8
0
10
910.0
20
1560.0
30
0.0
11
931.732
21
1581.7319
31
0.0
0
LINE
8
0
10
931.732
20
1581.7319
30
0.0
11
971.5382
21
1541.9258
31
0.0
0
LINE
8
0
10
971.5382
20
1541.9258
30
0.0
11
940.7221
21
1572.742
31
0.0
0
LINE
8
0
10
940.7221
20
1572.742
30
0.0
11
965.2107
21
1597.2305
31
0.0
0
3DFACE
8
0
10
935.01086
20
1627.4303
30
0.0
11
931.01086
21
1634.4303
31
0.0
12
939.01086
22
1634.4303
32
0.0
13
939.011
23
1634.4304
33
1.0E-4
0
3DFACE
8
0
10
910.0
20
1560.0
30
0.0
11
906.0
21
1567.0
31
0.0
12
914.0
22
1567.0
32
0.0
13
914.0001
23
1567.0001
33
1.0E-4
0
LINE
8
0
10
910.0
20
1560.0
30
0.0
11
935.3284
21
1534.6715
31
0.0
0
LINE
8
0
10
935.3284
20
1534.6715
30
0.0
11
964.9322
21
1505.0677
31
0.0
0
LINE
8
0
10
964.9322
20
1505.0677
30
0.0
11
964.9322
21
1528.8461
31
0.0
0
LINE
8
0
10
964.9322
20
1528.8461
30
0.0
11
926.8791
21
1490.793
31
0.0
0
3DFACE
8
0
10
961.5203
20
1525.4342
30
0.0
11
957.5203
21
1532.4342
31
0.0
12
965.5203
22
1532.4342
32
0.0
13
965.52045
23
1532.4343
33
1.0E-4
0
3DFACE
8
0
10
910.0
20
1560.0
30
0.0
11
906.0
21
1567.0
31
0.0
12
914.0
22
1567.0
32
0.0
13
914.0001
23
1567.0001
33
1.0E-4
0
LINE
8
0
10
910.0
20
1560.0
30
0.0
11
942.1261
21
1592.1261
31
0.0
0
LINE
8
0
10
942.1261
20
1592.1261
30
0.0
11
980.27826
21
1630.2782
31
0.0
0
LINE
8
0
10
980.27826
20
1630.2782
30
0.0
11
980.27826
21
1595.5037
31
0.0
0
LINE
8
0
10
980.27826
20
1595.5037
30
0.0
11
980.27826
21
1633.7666
31
0.0
0
3DFACE
8
0
10
946.2287
20
1599.717
30
0.0
11
942.2287
21
1606.717
31
0.0
12
950.2287
22
1606.717
32
0.0
13
950.2288
23
1606.7172
33
1.0E-4
0
3DFACE
8
0
10
1060.0
20
1560.0
30
0.0
11
1056.0
21
1567.0
31
0.0
12
1064.0
22
1567.0
32
0.0
13
1064.0001
23
1567.0001
33
1.0E-4
0
LINE
8
0
10
1060.0
20
1560.0
30
0.0
11
1060.0
21
1590.911
31
0.0
0
LINE
8
0
10
1060.0
20
1590.911
30
0.0
11
1060.0
21
1615.8042
31
0.0
0
LINE
8
0
10
1060.0
20
1615.8042
30
0.0
11
1060.0
21
1580.85
31
0.0
0
LINE
8
0
10
1060.0
20
1580.85
30
0.0
11
1084.3838
21
1580.85
31
0.0
0
3DFACE
8
0
10
1084.3838
20
1618.2987
30
0.0
11
1080.3838
21
1625.2987
31
0.0
12
1088.3838
22
1625.2987
32
0.0
13
1088.3839
23
1625.2988
33
1.0E-4
0
3DFACE
8
0
10
1060.0
20
1560.0
30
0.0
11
1056.0
21
1567.0
31
0.0
12
1064.0
22
1567.0
32
0.0
13
1064.0001
23
1567.0001
33
1.0E-4
0
LINE
8
0
10
1060.0
20
1560.0
30
0.0
11
1085.5288
21
1534.4712
31
0.0
0
LINE
8
0
10
1085.5288
20
1534.4712
30
0.0
11
1108.1669
21
1534.4712
31
0.0
0
LINE
8
0
10
1108.1669
20
1534.4712
30
0.0
11
1076.8795
21
1503.1838
31
0.0
0
LINE
8
0
10
1076.8795
20
1503.1838
30
0.0
11
1108.7279
21
1503.1838
31
0.0
0
3DFACE
8
0
10
1080.0597
20
1531.852
30
0.0
11
1076.0597
21
1538.852
31
0.0
12
1084.0597
22
1538.852
32
0.0
13
1084.0598
23
1538.8522
33
1.0E-4
0
3DFACE
8
0
10
1060.0
20
1560.0
30
0.0
11
1056.0
21
1567.0
31
0.0
12
1064.0
22
1567.0
32
0.0
13
1064.0001
23
1567.0001
33
1.0E-4
0
LINE
8
0
10
1060.0
20
1560.0
30
0.0
11
1098.6722
21
1521.3278
31
0.0
0
LINE
8
0
10
1098.6722
20
1521.3278
30
0.0
11
1131.1951
21
1488.8049
31
0.0
0
LINE
8
0
10
1131.1951
20
1488.8049
30
0.0
11
1108.767
21
1488.8049
31
0.0
0
LINE
8
0
10
1108.767
20
1488.8049
30
0.0
11
1073.4102
21
1524.1616
31
0.0
0
3DFACE
8
0
10
1073.4102
20
1556.9377
30
0.0
11
1069.4102
21
1563.9377
31
0.0
12
1077.4102
22
1563.9377
32
0.0
13
1077.4103
23
1563.9379
33
1.0E-4
0
3DFACE
8
0
10
1210.0
20
1560.0
30
0.0
11
1206.0
21
1567.0
31
0.0
12
1214.0
22
1567.0
32
0.0
13
1214.0001
23
1567.0001
33
1.0E-4
0
LINE
8
0
10
1210.0
20
1560.0
30
0.0
11
1238.7684
21
1588.7684
31
0.0
0
LINE
8
0
10
1238.7684
20
1588.7684
30
0.0
11
1260.9733
21
1566.5636
31
0.0
0
LINE
8
0
10
1260.9733
20
1566.5636
30
0.0
11
1236.0292
21
1591.5077
31
0.0
0
LINE
8
0
10
1236.0292
20
1591.5077
30
0.0
11
1236.0292
21
1612.909
31
0.0
0
3DFACE
8
0
10
1260.2954
20
1637.1753
30
0.0
11
1256.2954
21
1644.1753
31
0.0
12
1264.2954
22
1644.1753
32
0.0
13
1264.2955
23
1644.1754
33
1.0E-4
0
3DFACE
8
0
10
1210.0
20
1560.0
30
0.0
11
1206.0
21
1567.0
31
0.0
12
1214.0
22
1567.0
32
0.0
13
1214.0001
23
1567.0001
33
1.0E-4
0
LINE
8
0
10
1210.0
20
1560.0
30
0.0
11
1238.5435
21
1588.5435
31
0.0
0
LINE
8
0
10
1238.5435
20
1588.5435
30
0.0
11
1262.6508
21
1564.4362
31
0.0
0
LINE
8
0
10
1262.6508
20
1564.4362
30
0.0
11
1234.2026
21
1564.4362
31
0.0
0
LINE
8
0
10
1234.2026
20
1564.4362
30
0.0
11
1255.3799
21
1543.2589
31
0.0
0
3DFACE
8
0
10
1255.3799
20
1578.4448
30
0.0
11
1251.3799
21
1585.4448
31
0.0
12
1259.3799
22
1585.4448
32
0.0
13
1259.38
23
1585.445
33
1.0E-4
0
3DFACE
8
0
10
1210.0
20
1560.0
30
0.0
11
1206.0
21
1567.0
31
0.0
12
1214.0
22
1567.0
32
0.0
13
1214.0001
23
1567.0001
33
1.0E-4
0
LINE
8
0
10
1210.0
20
1560.0
30
0.0
11
1210.0
21
1587.581
31
0.0
0
LINE
8
0
10
1210.0
20
1587.581
30
0.0
11
1233.9705
21
1587.581
31
0.0
0
LINE
8
0
10
1233.9705
20
1587.581
30
0.0
11
1233.9705
21
1619.1194
31
0.0
0
LINE
8
0
10
1233.9705
20
1619.1194
30
0.0
11
1233.9705
21
1589.7151
31
0.0
0
3DFACE
8
0
10
1269.3252
20
1589.7151
30
0.0
11
1265.3252
21
1596.7151
31
0.0
12
1273.3252
22
1596.7151
32
0.0
13
1273.3253
23
1596.7152
33
1.0E-4
0
3DFACE
8
0
10
1360.0
20
1560.0
30
0.0
11
1356.0
21
1567.0
31
0.0
12
1364.0
22
1567.0
32
0.0
13
1364.0001
23
1567.0001
33
1.0E-4
0
LINE
8
0
10
1360.0
20
1560.0
30
0.0
11
1389.8729
21
1589.8729
31
0.0
0
LINE
8
0
10
1389.8729
20
1589.8729
30
0.0
11
1413.7281
21
1613.7281
31
0.0
0
LINE
8
0
10
1413.7281
20
1613.7281
30
0.0
11
1413.7281
21
1576.5292
31
0.0
0
LINE
8
0
10
1413.7281
20
1576.5292
30
0.0
11
1384.1708
21
1606.0865
31
0.0
0
3DFACE
8
0
10
1413.7642
20
1635.6799
30
0.0
11
1409.7642
21
1642.6799
31
0.0
12
1417.7642
22
1642.6799
32
0.0
13
1417.7643
23
1642.68
33
1.0E-4
0
3DFACE
8
0
10
1360.0
20
1560.0
30
0.0
11
1356.0
21
1567.0
31
0.0
12
1364.0
22
1567.0
32
0.0
13
1364.0001
23
1567.0001
33
1.0E-4
0
LINE
8
0
10
1360.0
20
1560.0
30
0.0
11
1360.0
21
1590.1395
31
0.0
0
LINE
8
0
10
1360.0
20
1590.1395
30
0.0
11
1360.0
21
1620.4027
31
0.0
0
LINE
8
0
10
1360.0
20
1620.4027
30
0.0
11
1398.3276
21
1658.7303
31
0.0
0
LINE
8
0
10
1398.3276
20
1658.7303
30
0.0
11
1435.7037
21
1621.3542
31
0.0
0
3DFACE
8
0
10
1412.114
20
1597.7645
30
0.0
11
1408.114
21
1604.7645
31
0.0
12
1416.114
22
1604.7645
32
0.0
13
1416.1141
23
1604.7646
33
1.0E-4
0
3DFACE
8
0
10
1360.0
20
1560.0
30
0.0
11
1356.0
21
1567.0
31
0.0
12
1364.0
22
1567.0
32
0.0
13
1364.0001
23
1567.0001
33
1.0E-4
0
LINE
8
0
10
1360.0
20
1560.0
30
0.0
11
1360.0
21
1599.8606
31
0.0
0
LINE
8
0
10
1360.0
20
1599.8606
30
0.0
11
1360.0
21
1623.5393
31
0.0
0
LINE
8
0
10
1360.0
20
1623.5393
30
0.0
11
1360.0
21
1591.5582
31
0.0
0
LINE
8
0
10
1360.0
20
1591.5582
30
0.0
11
1397.1371
21
1554.4211
31
0.0
0
3DFACE
8
0
10
1431.9514
20
1589.2355
30
0.0
11
1427.9514
21
1596.2355
31
0.0
12
1435.9514
22
1596.2355
32
0.0
13
1435.9515
23
1596.2356
33
1.0E-4
0
3DFACE
8
0
10
1510.0
20
1560.0
30
0.0
11
1506.0
21
1567.0
31
0.0
12
1514.0
22
1567.0
32
0.0
13
1514.0001
23
1567.0001
33
1.0E-4
0
LINE
8
0
10
1510.0
20
1560.0
30
0.0
11
1535.6975
21
1560.0
31
0.0
0
LINE
8
0
10
1535.6975
20
1560.0
30
0.0
11
1535.6975
21
1599.5365
31
0.0
0
LINE
8
0
10
1535.6975
20
1599.5365
30
0.0
11
1564.418
21
1570.816
31
0.0
0
LINE
8
0
10
1564.418
20
1570.816
30
0.0
11
1530.9374
21
1537.3354
31
0.0
0
3DFACE
8
0
10
1530.9374
20
1573.7081
30
0.0
11
1526.9374
21
1580.7081
31
0.0
12
1534.9374
22
1580.7081
32
0.0
13
1534.9375
23
1580.7083
33
1.0E-4
0
3DFACE
8
0
10
1510.0
20
1560.0
30
0.0
11
1506.0
21
1567.0
31
0.0
12
1514.0
22
1567.0
32
0.0
13
1514.0001
23
1567.0001
33
1.0E-4
0
LINE
8
0
10
1510.0
20
1560.0
30
0.0
11
1530.7299
21
1580.7299
31
0.0
0
LINE
8
0
10
1530.7299
20
1580.7299
30
0.0
11
1530.7299
21
1611.1554
31
0.0
0
LINE
8
0
10
1530.7299
20
1611.1554
30
0.0
11
1563.6116
21
1578.2737
31
0.0
0
LINE
8
0
10
1563.6116
20
1578.2737
30
0.0
11
1540.6792
21
1601.206
31
0.0
0
3DFACE
8
0
10
1579.3274
20
1562.5579
30
0.0
11
1575.3274
21
1569.5579
31
0.0
12
1583.3274
22
1569.5579
32
0.0
13
1583.3275
23
1569.558
33
1.0E-4
0
3DFACE
8
0
10
1510.0
20
1560.0
30
0.0
11
1506.0
21
1567.0
31
0.0
12
1514.0
22
1567.0
32
0.0
13
1514.0001
23
1567.0001
33
1.0E-4
0
LINE
8
0
10
1510.0
20
1560.0
30
0.0
11
1535.5165
21
1534.4835
31
0.0
0
LINE
8
0
10
1535.5165
20
1534.4835
30
0.0
11
1567.6154
21
1534.4835
31
0.0
0
LINE
8
0
10
1567.6154
20
1534.4835
30
0.0
11
1534.8396
21
1501.7078
31
0.0
0
LINE
8
0
10
1534.8396
20
1501.7078
30
0.0
11
1570.1533
21
1466.394
31
0.0
0
3DFACE
8
0
10
1570.1533
20
1506.303
30
0.0
11
1566.1533
21
1513.303
31
0.0
12
1574.1533
22
1513.303
32
0.0
13
1574.1534
23
1513.3031
33
1.0E-4
0
3DFACE
8
0
10
1660.0
20
1560.0
30
0.0
11
1656.0
21
1567.0
31
0.0
12
1664.0
22
1567.0
32
0.0
13
1664.0001
23
1567.0001
33
1.0E-4
0
LINE
8
0
10
1660.0
20
1560.0
30
0.0
11
1681.5752
21
1560.0
31
0.0
0
LINE
8
0
10
1681.5752
20
1560.0
30
0.0
11
1711.4915
21
1530.0837
31
0.0
0
LINE
8
0
10
1711.4915
20
1530.0837
30
0.0
11
1684.1652
21
1557.41
31
0.0
0
LINE
8
0
10
1684.1652
20
1557.41
30
0.0
11
1716.9424
21
1524.6328
31
0.0
0
3DFACE
8
0
10
1716.9424
20
1549.7887
30
0.0
11
1712.9424
21
1556.7887
31
0.0
12
1720.9424
22
1556.7887
32
0.0
13
1720.9425
23
1556.7888
33
1.0E-4
0
3DFACE
8
0
10
1660.0
20
1560.0
30
0.0
11
1656.0
21
1567.0
31
0.0
12
1664.0
22
1567.0
32
0.0
13
1664.0001
23
1567.0001
33
1.0E-4
0
LINE
8
0
10
1660.0
20
1560.0
30
0.0
11
1696.3119
21
1560.0
31
0.0
0
LINE
8
0
10
1696.3119
20
1560.0
30
0.0
11
1720.3228
21
1584.0109
31
0.0
0
LINE
8
0
10
1720.3228
20
1584.0109
30
0.0
11
1695.5642
21
1584.0109
31
0.0
0
LINE
8
0
10
1695.5642
20
1584.0109
30
0.0
11
1733.0577
21
1584.0109
31
0.0
0
3DFACE
8
0
10
1712.5194
20
1584.0109
30
0.0
11
1708.5194
21
1591.0109
31
0.0
12
1716.5194
22
1591.0109
32
0.0
13
1716.5195
23
1591.011
33
1.0E-4
0
3DFACE
8
0
10
1660.0
20
1560.0
30
0.0
11
1656.0
21
1567.0
31
0.0
12
1664.0
22
1567.0
32
0.0
13
1664.0001
23
1567.0001
33
1.0E-4
0
LINE
8
0
10
1660.0
20
1560.0
30
0.0
11
1695.0846
21
1524.9154
31
0.0
0
LINE
8
0
10
1695.0846
20
1524.9154
30
0.0
11
1726.6952
21
1493.3048
31
0.0
0
LINE
8
0
10
1726.6952
20
1493.3048
30
0.0
11
1690.8234
21
1529.1766
31
0.0
0
LINE
8
0
10
1690.8234
20
1529.1766
30
0.0
11
1721.7922
21
1529.1766
31
0.0
0
3DFACE
8
0
10
1692.702
20
1500.0864
30
0.0
11
1688.702
21
1507.0864
31
0.0
12
1696.702
22
1507.0864
32
0.0
13
1696.7021
23
1507.0865
33
1.0E-4
0
3DFACE
8
0
10
310.0
20
1760.0
30
0.0
11
306.0
21
1767.0
31
0.0
12
314.0
22
1767.0
32
0.0
13
314.0001
23
1767.0001
33
1.0E-4
0
LINE
8
0
10
310.0
20
1760.0
30
0.0
11
346.19977
21
1723.8002
31
0.0
0
LINE
8
0
10
346.19977
20
1723.8002
30
0.0
11
346.19977
21
1746.351
31
0.0
0
LINE
8
0
10
346.19977
20
1746.351
30
0.0
11
377.15662
21
1715.394
31
0.0
0
3DFACE
8
0
10
348.44275
20
1744.1079
30
0.0
11
344.44275
21
1751.1079
31
0.0
12
352.44275
22
1751.1079
32
0.0
13
352.44284
23
1751.108
33
1.0E-4
0
3DFACE
8
0
10
310.0
20
1760.0
30
0.0
11
306.0
21
1767.0
31
0.0
12
314.0
22
1767.0
32
0.0
13
314.0001
23
1767.0001
33
1.0E-4
0
LINE
8
0
10
310.0
20
1760.0
30
0.0
11
310.0
21
1792.3411
31
0.0
0
LINE
8
0
10
310.0
20
1792.3411
30
0.0
11
341.41525
21
1792.3411
31
0.0
0
LINE
8
0
10
341.41525
20
1792.3411
30
0.0
11
380.88895
21
1831.8148
31
0.0
0
3DFACE
8
0
10
356.30206
20
1831.8148
30
0.0
11
352.30206
21
1838.8148
31
0.0
12
360.30206
22
1838.8148
32
0.0
13
360.30215
23
1838.815
33
1.0E-4
0
3DFACE
8
0
10
310.0
20
1760.0
30
0.0
11
306.0
21
1767.0
31
0.0
12
314.0
22
1767.0
32
0.0
13
314.0001
23
1767.0001
33
1.0E-4
0
LINE
8
0
10
310.0
20
1760.0
30
0.0
11
340.2797
21
1760.0
31
0.0
0
LINE
8
0
10
340.2797
20
1760.0
30
0.0
11
340.2797
21
1791.0054
31
0.0
0
LINE
8
0
10
340.2797
20
1791.0054
30
0.0
11
372.51675
21
1758.7683
31
0.0
0
3DFACE
8
0
10
337.2294
20
1794.0557
30
0.0
11
333.2294
21
1801.0557
31
0.0
12
341.2294
22
1801.0557
32
0.0
13
341.2295
23
1801.0558
33
1.0E-4
0
3DFACE
8
0
10
460.0
20
1760.0
30
0.0
11
456.0
21
1767.0
31
0.0
12
464.0
22
1767.0
32
0.0
13
464.0001
23
1767.0001
33
1.0E-4
0
LINE
8
0
10
460.0
20
1760.0
30
0.0
11
485.50082
21
1734.4991
31
0.0
0
LINE
8
0
10
485.50082
20
1734.4991
30
0.0
11
520.43823
21
1699.5618
31
0.0
0
LINE
8
0
10
520.43823
20
1699.5618
30
0.0
11
484.86758
21
1699.5618
31
0.0
0
3DFACE
8
0
10
484.86758
20
1737.5579
30
0.0
11
480.86758
21
1744.5579
31
0.0
12
488.86758
22
1744.5579
32
0.0
13
488.86768
23
1744.558
33
1.0E-4
0
3DFACE
8
0
10
460.0
20
1760.0
30
0.0
11
456.0
21
1767.0
31
0.0
12
464.0
22
1767.0
32
0.0
13
464.0001
23
1767.0001
33
1.0E-4
0
LINE
8
0
10
460.0
20
1760.0
30
0.0
11
480.07037
21
1739.9297
31
0.0
0
LINE
8
0
10
480.07037
20
1739.9297
30
0.0
11
510.34036
21
1709.6597
31
0.0
0
LINE
8
0
10
510.34036
20
1709.6597
30
0.0
11
510.34036
21
1737.7299
31
0.0
0
3DFACE
8
0
10
488.71698
20
1716.1064
30
0.0
11
484.71698
21
1723.1064
31
0.0
12
492.71698
22
1723.1064
32
0.0
13
492.71707
23
1723.1066
33
1.0E-4
0
3DFACE
8
0
10
460.0
20
1760.0
30
0.0
11
456.0
21
1767.0
31
0.0
12
464.0
22
1767.0
32
0.0
13
464.0001
23
1767.0001
33
1.0E-4
0
LINE
8
0
10
460.0
20
1760.0
30
0.0
11
488.85797
21
1788.858
31
0.0
0
LINE
8
0
10
488.85797
20
1788.858
30
0.0
11
488.85797
21
1823.4094
31
0.0
0
LINE
8
0
10
488.85797
20
1823.4094
30
0.0
11
488.85797
21
1789.8036
31
0.0
0
3DFACE
8
0
10
521.0693
20
1757.5923
30
0.0
11
517.0693
21
1764.5923
31
0.0
12
525.0693
22
1764.5923
32
0.0
13
525.0694
23
1764.5924
33
1.0E-4
0
3DFACE
8
0
10
610.0
20
1760.0
30
0.0
11
606.0
21
1767.0
31
0.0
12
614.0
22
1767.0
32
0.0
13
614.0001
23
1767.0001
33
1.0E-4
0
LINE
8
0
10
610.0
20
1760.0
30
0.0
11
631.7596
21
1760.0
31
0.0
0
LINE
8
0
10
631.7596
20
1760.0
30
0.0
11
631.7596
21
1793.0795
31
0.0
0
LINE
8
0
10
631.7596
20
1793.0795
30
0.0
11
655.0339
21
1793.0795
31
0.0
0
3DFACE
8
0
10
626.002
20
1822.1113
30
0.0
11
622.002
21
1829.1113
31
0.0
12
630.002
22
1829.1113
32
0.0
13
630.00214
23
1829.1115
33
1.0E-4
0
3DFACE
8
0
10
610.0
20
1760.0
30
0.0
11
606.0
21
1767.0
31
0.0
12
614.0
22
1767.0
32
0.0
13
614.0001
23
1767.0001
33
1.0E-4
0
LINE
8
0
10
610.0
20
1760.0
30
0.0
11
637.4335
21
1732.5665
31
0.0
0
LINE
8
0
10
637.4335
20
1732.5665
30
0.0
11
666.7681
21
1732.5665
31
0.0
0
LINE
8
0
10
666.7681
20
1732.5665
30
0.0
11
643.14777
21
1732.5665
31
0.0
0
3DFACE
8
0
10
672.1836
20
1761.6024
30
0.0
11
668.1836
21
1768.6024
31
0.0
12
676.1836
22
1768.6024
32
0.0
13
676.1837
23
1768.6025
33
1.0E-4
0
3DFACE
8
0
10
610.0
20
1760.0
30
0.0
11
606.0
21
1767.0
31
0.0
12
614.0
22
1767.0
32
0.0
13
614.0001
23
1767.0001
33
1.0E-4
0
LINE
8
0
10
610.0
20
1760.0
30
0.0
11
644.08276
21
1725.9172
31
0.0
0
LINE
8
0
10
644.08276
20
1725.9172
30
0.0
11
667.6793
21
1702.3207
31
0.0
0
LINE
8
0
10
667.6793
20
1702.3207
30
0.0
11
633.89905
21
1702.3207
31
0.0
0
3DFACE
8
0
10
661.0728
20
1729.4945
30
0.0
11
657.0728
21
1736.4945
31
0.0
12
665.0728
22
1736.4945
32
0.0
13
665.07294
23
1736.4946
33
1.0E-4
0
3DFACE
8
0
10
760.0
20
1760.0
30
0.0
11
756.0
21
1767.0
31
0.0
12
764.0
22
1767.0
32
0.0
13
764.0001
23
1767.0001
33
1.0E-4
0
LINE
8
0
10
760.0
20
1760.0
30
0.0
11
788.4611
21
1788.4612
31
0.0
0
LINE
8
0
10
788.4611
20
1788.4612
30
0.0
11
788.4611
21
1825.892
31
0.0
0
LINE
8
0
10
788.4611
20
1825.892
30
0.0
11
813.6166
21
1825.892
31
0.0
0
3DFACE
8
0
10
793.0195
20
1846.489
30
0.0
11
789.0195
21
1853.489
31
0.0
12
797.0195
22
1853.489
32
0.0
13
797.0196
23
1853.4891
33
1.0E-4
0
3DFACE
8
0
10
760.0
20
1760.0
30
0.0
11
756.0
21
1767.0
31
0.0
12
764.0
22
1767.0
32
0.0
13
764.0001
23
1767.0001
33
1.0E-4
0
LINE
8
0
10
760.0
20
1760.0
30
0.0
11
795.5492
21
1795.5492
31
0.0
0
LINE
8
0
10
795.5492
20
1795.5492
30
0.0
11
820.58026
21
1820.5802
31
0.0
0
LINE
8
0
10
820.58026
20
1820.5802
30
0.0
11
786.77264
21
1854.3878
31
0.0
0
3DFACE
8
0
10
822.63367
20
1890.2488
30
0.0
11
818.63367
21
1897.2488
31
0.0
12
826.63367
22
1897.2488
32
0.0
13
826.6338
23
1897.2489
33
1.0E-4
0
3DFACE
8
0
10
760.0
20
1760.0
30
0.0
11
756.0
21
1767.0
31
0.0
12
764.0
22
1767.0
32
0.0
13
764.0001
23
1767.0001
33
1.0E-4
0
LINE
8
0
10
760.0
20
1760.0
30
0.0
11
798.2431
21
1721.7568
31
0.0
0
LINE
8
0
10
798.2431
20
1721.7568
30
0.0
11
798.2431
21
1758.0887
31
0.0
0
LINE
8
0
10
798.2431
20
1758.0887
30
0.0
11
836.2168
21
1758.0887
31
0.0
0
3DFACE
8
0
10
796.22736
20
1798.0782
30
0.0
11
792.22736
21
1805.0782
31
0.0
12
800.22736
22
1805.0782
32
0.0
13
800.2275
23
1805.0784
33
1.0E-4
0
3DFACE
8
0
10
910.0
20
1760.0
30
0.0
11
906.0
21
1767.0
31
0.0
12
914.0
22
1767.0
32
0.0
13
914.0001
23
1767.0001
33
1.0E-4
0
LINE
8
0
10
910.0
20
1760.0
30
0.0
11
910.0
21
1788.9154
31
0.0
0
LINE
8
0
10
910.0
20
1788.9154
30
0.0
11
931.35333
21
1767.5621
31
0.0
0
LINE
8
0
10
931.35333
20
1767.5621
30
0.0
11
952.2842
21
1746.6312
31
0.0
0
3DFACE
8
0
10
980.90924
20
1746.6312
30
0.0
11
976.90924
21
1753.6312
31
0.0
12
984.90924
22
1753.6312
32
0.0
13
984.90936
23
1753.6313
33
1.0E-4
0
3DFACE
8
0
10
910.0
20
1760.0
30
0.0
11
906.0
21
1767.0
31
0.0
12
914.0
22
1767.0
32
0.0
13
914.0001
23
1767.0001
33
1.0E-4
0
LINE
8
0
10
910.0
20
1760.0
30
0.0
11
942.85474
21
1727.1453
31
0.0
0
LINE
8
0
10
942.85474
20
1727.1453
30
0.0
11
973.2722
21
1727.1453
31
0.0
0
LINE
8
0
10
973.2722
20
1727.1453
30
0.0
11
940.3746
21
1727.1453
31
0.0
0
3DFACE
8
0
10
967.8503
20
1754.621
30
0.0
11
963.8503
21
1761.621
31
0.0
12
971.8503
22
1761.621
32
0.0
13
971.8504
23
1761.6211
33
1.0E-4
0
3DFACE
8
0
10
910.0
20
1760.0
30
0.0
11
906.0
21
1767.0
31
0.0
12
914.0
22
1767.0
32
0.0
13
914.0001
23
1767.0001
33
1.0E-4
0
LINE
8
0
10
910.0
20
1760.0
30
0.0
11
937.35895
21
1732.6411
31
0.0
0
LINE
8
0
10
937.35895
20
1732.6411
30
0.0
11
968.03723
21
1701.9629
31
0.0
0
LINE
8
0
10
968.03723
20
1701.9629
30
0.0
11
943.2953
21
1726.7048
31
0.0
0
3DFACE
8
0
10
943.2953
20
1763.5876
30
0.0
11
939.2953
21
1770.5876
31
0.0
12
947.2953
22
1770.5876
32
0.0
13
947.2954
23
1770.5878
33
1.0E-4
0
3DFACE
8
0
10
1060.0
20
1760.0
30
0.0
11
1056.0
21
1767.0
31
0.0
12
1064.0
22
1767.0
32
0.0
13
1064.0001
23
1767.0001
33
1.0E-4
0
LINE
8
0
10
1060.0
20
1760.0
30
0.0
11
1099.6508
21
1720.3492
31
0.0
0
LINE
8
0
10
1099.6508
20
1720.3492
30
0.0
11
1099.6508
21
1746.1771
31
0.0
0
LINE
8
0
10
1099.6508
20
1746.1771
30
0.0
11
1130.6213
21
1715.2065
31
0.0
0
3DFACE
8
0
10
1097.0474
20
1748.7805
30
0.0
11
1093.0474
21
1755.7805
31
0.0
12
1101.0474
22
1755.7805
32
0.0
13
1101.0475
23
1755.7806
33
1.0E-4
0
3DFACE
8
0
10
1060.0
20
1760.0
30
0.0
11
1056.0
21
1767.0
31
0.0
12
1064.0
22
1767.0
32
0.0
13
1064.0001
23
1767.0001
33
1.0E-4
0
LINE
8
0
10
1060.0
20
1760.0
30
0.0
11
1081.806
21
1760.0
31
0.0
0
LINE
8
0
10
1081.806
20
1760.0
30
0.0
11
1081.806
21
1792.8986
31
0.0
0
LINE
8
0
10
1081.806
20
1792.8986
30
0.0
11
1111.6161
21
1822.7086
31
0.0
0
3DFACE
8
0
10
1073.089
20
1861.2357
30
0.0
11
1069.089
21
1868.2357
31
0.0
12
1077.089
22
1868.2357
32
0.0
13
1077.0891
23
1868.2358
33
1.0E-4
0
3DFACE
8
0
10
1060.0
20
1760.0
30
0.0
11
1056.0
21
1767.0
31
0.0
12
1064.0
22
1767.0
32
0.0
13
1064.0001
23
1767.0001
33
1.0E-4
0
LINE
8
0
10
1060.0
20
1760.0
30
0.0
11
1091.527
21
1791.527
31
0.0
0
LINE
8
0
10
1091.527
20
1791.527
30
0.0
11
1091.527
21
1829.2787
31
0.0
0
LINE
8
0
10
1091.527
20
1829.2787
30
0.0
11
1115.6691
21
1829.2787
31
0.0
0
3DFACE
8
0
10
1090.3097
20
1803.9193
30
0.0
11
1086.3097
21
1810.9193
31
0.0
12
1094.3097
22
1810.9193
32
0.0
13
1094.3098
23
1810.9194
33
1.0E-4
0
3DFACE
8
0
10
1210.0
20
1760.0
30
0.0
11
1206.0
21
1767.0
31
0.0
12
1214.0
22
1767.0
32
0.0
13
1214.0001
23
1767.0001
33
1.0E-4
0
LINE
8
0
10
1210.0
20
1760.0
30
0.0
11
1243.8654
21
1760.0
31
0.0
0
LINE
8
0
10
1243.8654
20
1760.0
30
0.0
11
1283.0112
21
1720.8541
31
0.0
0
LINE
8
0
10
1283.0112
20
1720.8541
30
0.0
11
1254.3682
21
1749.4972
31
0.0
0
3DFACE
8
0
10
1294.1389
20
1749.4972
30
0.0
11
1290.1389
21
1756.4972
31
0.0
12
1298.1389
22
1756.4972
32
0.0
13
1298.139
23
1756.4973
33
1.0E-4
0
3DFACE
8
0
10
1210.0
20
1760.0
30
0.0
11
1206.0
21
1767.0
31
0.0
12
1214.0
22
1767.0
32
0.0
13
1214.0001
23
1767.0001
33
1.0E-4
0
LINE
8
0
10
1210.0
20
1760.0
30
0.0
11
1210.0
21
1780.8905
31
0.0
0
LINE
8
0
10
1210.0
20
1780.8905
30
0.0
11
1210.0
21
1801.0957
31
0.0
0
LINE
8
0
10
1210.0
20
1801.0957
30
0.0
11
1210.0
21
1836.7764
31
0.0
0
3DFACE
8
0
10
1210.0
20
1809.4694
30
0.0
11
1206.0
21
1816.4694
31
0.0
12
1214.0
22
1816.4694
32
0.0
13
1214.0001
23
1816.4695
33
1.0E-4
0
3DFACE
8
0
10
1210.0
20
1760.0
30
0.0
11
1206.0
21
1767.0
31
0.0
12
1214.0
22
1767.0
32
0.0
13
1214.0001
23
1767.0001
33
1.0E-4
0
LINE
8
0
10
1210.0
20
1760.0
30
0.0
11
1210.0
21
1783.8226
31
0.0
0
LINE
8
0
10
1210.0
20
1783.8226
30
0.0
11
1245.6564
21
1748.1663
31
0.0
0
LINE
8
0
10
1245.6564
20
1748.1663
30
0.0
11
1271.0096
21
1748.1663
31
0.0
0
3DFACE
8
0
10
1246.9377
20
1772.2382
30
0.0
11
1242.9377
21
1779.2382
31
0.0
12
1250.9377
22
1779.2382
32
0.0
13
1250.9379
23
1779.2383
33
1.0E-4
0
3DFACE
8
0
10
1360.0
20
1760.0
30
0.0
11
1356.0
21
1767.0
31
0.0
12
1364.0
22
1767.0
32
0.0
13
1364.0001
23
1767.0001
33
1.0E-4
0
LINE
8
0
10
1360.0
20
1760.0
30
0.0
11
1385.2905
21
1785.2905
31
0.0
0
LINE
8
0
10
1385.2905
20
1785.2905
30
0.0
11
1418.6703
21
1818.6703
31
0.0
0
LINE
8
0
10
1418.6703
20
1818.6703
30
0.0
11
1395.1523
21
1818.6703
31
0.0
0
3DFACE
8
0
10
1428.1589
20
1785.6637
30
0.0
11
1424.1589
21
1792.6637
31
0.0
12
1432.1589
22
1792.6637
32
0.0
13
1432.159
23
1792.6638
33
1.0E-4
0
3DFACE
8
0
10
1360.0
20
1760.0
30
0.0
11
1356.0
21
1767.0
31
0.0
12
1364.0
22
1767.0
32
0.0
13
1364.0001
23
1767.0001
33
1.0E-4
0
LINE
8
0
10
1360.0
20
1760.0
30
0.0
11
1388.1467
21
1731.8533
31
0.0
0
LINE
8
0
10
1388.1467
20
1731.8533
30
0.0
11
1388.1467
21
1771.4747
31
0.0
0
LINE
8
0
10
1388.1467
20
1771.4747
30
0.0
11
1423.8766
21
1735.7449
31
0.0
0
3DFACE
8
0
10
1396.9086
20
1762.7129
30
0.0
11
1392.9086
21
1769.7129
31
0.0
12
1400.9086
22
1769.7129
32
0.0
13
1400.9087
23
1769.713
33
1.0E-4
0
3DFACE
8
0
10
1360.0
20
1760.0
30
0.0
11
1356.0
21
1767.0
31
0.0
12
1364.0
22
1767.0
32
0.0
13
1364.0001
23
1767.0001
33
1.0E-4
0
LINE
8
0
10
1360.0
20
1760.0
30
0.0
11
1381.6644
21
1738.3356
31
0.0
0
LINE
8
0
10
1381.6644
20
1738.3356
30
0.0
11
1410.3029
21
1738.3356
31
0.0
0
LINE
8
0
10
1410.3029
20
1738.3356
30
0.0
11
1375.5759
21
1703.6086
31
0.0
0
3DFACE
8
0
10
1375.5759
20
1732.6826
30
0.0
11
1371.5759
21
1739.6826
31
0.0
12
1379.5759
22
1739.6826
32
0.0
13
1379.576
23
1739.6827
33
1.0E-4
0
3DFACE
8
0
10
1510.0
20
1760.0
30
0.0
11
1506.0
21
1767.0
31
0.0
12
1514.0
22
1767.0
32
0.0
13
1514.0001
23
1767.0001
33
1.0E-4
0
LINE
8
0
10
1510.0
20
1760.0
30
0.0
11
1510.0
21
1785.9631
31
0.0
0
LINE
8
0
10
1510.0
20
1785.9631
30
0.0
11
1539.599
21
1756.3641
31
0.0
0
LINE
8
0
10
1539.599
20
1756.3641
30
0.0
11
1574.0227
21
1790.7878
31
0.0
0
3DFACE
8
0
10
1553.3738
20
1790.7878
30
0.0
11
1549.3738
21
1797.7878
31
0.0
12
1557.3738
22
1797.7878
32
0.0
13
1557.3739
23
1797.788
33
1.0E-4
0
3DFACE
8
0
10
1510.0
20
1760.0
30
0.0
11
1506.0
21
1767.0
31
0.0
12
1514.0
22
1767.0
32
0.0
13
1514.0001
23
1767.0001
33
1.0E-4
0
LINE
8
0
10
1510.0
20
1760.0
30
0.0
11
1541.1511
21
1760.0
31
0.0
0
LINE
8
0
10
1541.1511
20
1760.0
30
0.0
11
1541.1511
21
1796.2379
31
0.0
0
LINE
8
0
10
1541.1511
20
1796.2379
30
0.0
11
1565.4878
21
1820.5746
31
0.0
0
3DFACE
8
0
10
1527.8969
20
1782.9836
30
0.0
11
1523.8969
21
1789.9836
31
0.0
12
1531.8969
22
1789.9836
32
0.0
13
1531.897
23
1789.9838
33
1.0E-4
0
3DFACE
8
0
10
1510.0
20
1760.0
30
0.0
11
1506.0
21
1767.0
31
0.0
12
1514.0
22
1767.0
32
0.0
13
1514.0001
23
1767.0001
33
1.0E-4
0
LINE
8
0
10
1510.0
20
1760.0
30
0.0
11
1548.9459
21
1721.0541
31
0.0
0
LINE
8
0
10
1548.9459
20
1721.0541
30
0.0
11
1587.011
21
1759.1191
31
0.0
0
LINE
8
0
10
1587.011
20
1759.1191
30
0.0
11
1587.011
21
1784.0629
31
0.0
0
3DFACE
8
0
10
1587.011
20
1821.1569
30
0.0
11
1583.011
21
1828.1569
31
0.0
12
1591.011
22
1828.1569
32
0.0
13
1591.0111
23
1828.157
33
1.0E-4
0
3DFACE
8
0
10
1660.0
20
1760.0
30
0.0
11
1656.0
21
1767.0
31
0.0
12
1664.0
22
1767.0
32
0.0
13
1664.0001
23
1767.0001
33
1.0E-4
0
LINE
8
0
10
1660.0
20
1760.0
30
0.0
11
1681.4252
21
1738.5748
31
0.0
0
LINE
8
0
10
1681.4252
20
1738.5748
30
0.0
11
1681.4252
21
1764.4288
31
0.0
0
LINE
8
0
10
1681.4252
20
1764.4288
30
0.0
11
1718.1134
21
1764.4288
31
0.0
0
3DFACE
8
0
10
1689.7152
20
1736.0306
30
0.0
11
1685.7152
21
1743.0306
31
0.0
12
1693.7152
22
1743.0306
32
0.0
13
1693.7153
23
1743.0308
33
1.0E-4
0
3DFACE
8
0
10
1660.0
20
1760.0
30
0.0
11
1656.0
21
1767.0
31
0.0
12
1664.0
22
1767.0
32
0.0
13
1664.0001
23
1767.0001
33
1.0E-4
0
LINE
8
0
10
1660.0
20
1760.0
30
0.0
11
1694.0823
21
1725.9177
31
0.0
0
LINE
8
0
10
1694.0823
20
1725.9177
30
0.0
11
1694.0823
21
1764.6014
31
0.0
0
LINE
8
0
10
1694.0823
20
1764.6014
30
0.0
11
1727.254
21
1731.4297
31
0.0
0
3DFACE
8
0
10
1703.6503
20
1731.4297
30
0.0
11
1699.6503
21
1738.4297
31
0.0
12
1707.6503
22
1738.4297
32
0.0
13
1707.6504
23
1738.4298
33
1.0E-4
0
3DFACE
8
0
10
1660.0
20
1760.0
30
0.0
11
1656.0
21
1767.0
31
0.0
12
1664.0
22
1767.0
32
0.0
13
1664.0001
23
1767.0001
33
1.0E-4
0
LINE
8
0
10
1660.0
20
1760.0
30
0.0
11
1698.5048
21
1798.5048
31
0.0
0
LINE
8
0
10
1698.5048
20
1798.5048
30
0.0
11
1733.4945
21
1763.515
31
0.0
0
LINE
8
0
10
1733.4945
20
1763.515
30
0.0
11
1700.9614
21
1730.9819
31
0.0
0
3DFACE
8
0
10
1738.5338
20
1693.4095
30
0.0
11
1734.5338
21
1700.4095
31
0.0
12
1742.5338
22
1700.4095
32
0.0
13
1742.5339
23
1700.4097
33
1.0E-4
0
ENDSEC
0
EOF
