0
SECTION
2
ENTITIES
0
3DFACE
8
0
10
609.1016
20
360.0
30
0.0
11
605.1016
21
367.0
31
0.0
12
613.1016
22
367.0
32
0.0
13
613.10175
23
367.0001
33
1.0E-4
0
LINE
8
0
10
609.1016
20
360.0
30
0.0
11
572.52386
21
360.0
31
0.0
0
LINE
8
0
10
572.52386
20
360.0
30
0.0
11
545.3753
21
387.1486
31
0.0
0
LINE
8
0
10
545.3753
20
387.1486
30
0.0
11
516.42725
21
358.20056
31
0.0
0
LINE
8
0
10
516.42725
20
358.20056
30
0.0
11
516.42725
21
391.15268
31
0.0
0
3DFACE
8
0
10
487.50806
20
391.15268
30
0.0
11
483.50806
21
398.15268
31
0.0
12
491.50806
22
398.15268
32
0.0
13
491.50815
23
398.15277
33
1.0E-4
0
3DFACE
8
0
10
1161.1738
20
360.0
30
0.0
11
1157.1738
21
367.0
31
0.0
12
1165.1738
22
367.0
32
0.0
13
1165.174
23
367.0001
33
1.0E-4
0
LINE
8
0
10
1161.1738
20
360.0
30
0.0
11
1161.1738
21
388.7559
31
0.0
0
LINE
8
0
10
1161.1738
20
388.7559
30
0.0
11
1130.6359
21
388.7559
31
0.0
0
LINE
8
0
10
1130.6359
20
388.7559
30
0.0
11
1109.3146
21
388.7559
31
0.0
0
LINE
8
0
10
1109.3146
20
388.7559
30
0.0
11
1079.8932
21
418.17728
31
0.0
0
3DFACE
8
0
10
1051.9612
20
446.10934
30
0.0
11
1047.9612
21
453.10934
31
0.0
12
1055.9612
22
453.10934
32
0.0
13
1055.9613
23
453.10944
33
1.0E-4
0
3DFACE
8
0
10
776.8447
20
360.0
30
0.0
11
772.8447
21
367.0
31
0.0
12
780.8447
22
367.0
32
0.0
13
780.84485
23
367.0001
33
1.0E-4
0
LINE
8
0
10
776.8447
20
360.0
30
0.0
11
756.36566
21
339.52094
31
0.0
0
LINE
8
0
10
756.36566
20
339.52094
30
0.0
11
733.87805
21
317.03333
31
0.0
0
LINE
8
0
10
733.87805
20
317.03333
30
0.0
11
701.39966
21
317.03333
31
0.0
0
LINE
8
0
10
701.39966
20
317.03333
30
0.0
11
675.407
21
291.04068
31
0.0
0
3DFACE
8
0
10
641.02673
20
256.6604
30
0.0
11
637.02673
21
263.6604
31
0.0
12
645.02673
22
263.6604
32
0.0
13
645.02686
23
263.6605
33
1.0E-4
0
3DFACE
8
0
10
1626.1676
20
360.0
30
0.0
11
1622.1676
21
367.0
31
0.0
12
1630.1676
22
367.0
32
0.0
13
1630.1677
23
367.0001
33
1.0E-4
0
LINE
8
0
10
1626.1676
20
360.0
30
0.0
11
1595.069
21
360.0
31
0.0
0
LINE
8
0
10
1595.069
20
360.0
30
0.0
11
1572.7158
21
337.64685
31
0.0
0
LINE
8
0
10
1572.7158
20
337.64685
30
0.0
11
1572.7158
21
372.11182
31
0.0
0
LINE
8
0
10
1572.7158
20
372.11182
30
0.0
11
1572.7158
21
409.1432
31
0.0
0
3DFACE
8
0
10
1572.7158
20
384.23547
30
0.0
11
1568.7158
21
391.23547
31
0.0
12
1576.7158
22
391.23547
32
0.0
13
1576.716
23
391.23557
33
1.0E-4
0
3DFACE
8
0
10
1215.2263
20
360.0
30
0.0
11
1211.2263
21
367.0
31
0.0
12
1219.2263
22
367.0
32
0.0
13
1219.2264
23
367.0001
33
1.0E-4
0
LINE
8
0
10
1215.2263
20
360.0
30
0.0
11
1191.6836
21
383.54266
31
0.0
0
LINE
8
0
10
1191.6836
20
383.54266
30
0.0
11
1154.3615
21
383.54266
31
0.0
0
LINE
8
0
10
1154.3615
20
383.54266
30
0.0
11
1154.3615
21
418.86337
31
0.0
0
LINE
8
0
10
1154.3615
20
418.86337
30
0.0
11
1128.923
21
418.86337
31
0.0
0
3DFACE
8
0
10
1128.923
20
391.08383
30
0.0
11
1124.923
21
398.08383
31
0.0
12
1132.923
22
398.08383
32
0.0
13
1132.9231
23
398.08392
33
1.0E-4
0
3DFACE
8
0
10
1888.7457
20
360.0
30
0.0
11
1884.7457
21
367.0
31
0.0
12
1892.7457
22
367.0
32
0.0
13
1892.7458
23
367.0001
33
1.0E-4
0
LINE
8
0
10
1888.7457
20
360.0
30
0.0
11
1855.0415
21
326.2958
31
0.0
0
LINE
8
0
10
1855.0415
20
326.2958
30
0.0
11
1816.9843
21
288.2386
31
0.0
0
LINE
8
0
10
1816.9843
20
288.2386
30
0.0
11
1787.3757
21
317.84714
31
0.0
0
LINE
8
0
10
1787.3757
20
317.84714
30
0.0
11
1787.3757
21
353.99905
31
0.0
0
3DFACE
8
0
10
1787.3757
20
378.56937
30
0.0
11
1783.3757
21
385.56937
31
0.0
12
1791.3757
22
385.56937
32
0.0
13
1791.3759
23
385.56946
33
1.0E-4
0
3DFACE
8
0
10
1769.8745
20
360.0
30
0.0
11
1765.8745
21
367.0
31
0.0
12
1773.8745
22
367.0
32
0.0
13
1773.8746
23
367.0001
33
1.0E-4
0
LINE
8
0
10
1769.8745
20
360.0
30
0.0
11
1739.9315
21
330.05704
31
0.0
0
LINE
8
0
10
1739.9315
20
330.05704
30
0.0
11
1739.9315
21
352.67233
31
0.0
0
LINE
8
0
10
1739.9315
20
352.67233
30
0.0
11
1717.3698
21
375.23407
31
0.0
0
LINE
8
0
10
1717.3698
20
375.23407
30
0.0
11
1717.3698
21
414.80002
31
0.0
0
3DFACE
8
0
10
1717.3698
20
375.11166
30
0.0
11
1713.3698
21
382.11166
31
0.0
12
1721.3698
22
382.11166
32
0.0
13
1721.3699
23
382.11176
33
1.0E-4
0
3DFACE
8
0
10
1056.5425
20
360.0
30
0.0
11
1052.5425
21
367.0
31
0.0
12
1060.5425
22
367.0
32
0.0
13
1060.5426
23
367.0001
33
1.0E-4
0
LINE
8
0
10
1056.5425
20
360.0
30
0.0
11
1022.34393
21
360.0
31
0.0
0
LINE
8
0
10
1022.34393
20
360.0
30
0.0
11
985.37714
21
323.0332
31
0.0
0
LINE
8
0
10
985.37714
20
323.0332
30
0.0
11
947.2567
21
284.91278
31
0.0
0
LINE
8
0
10
947.2567
20
284.91278
30
0.0
11
911.2994
21
248.95547
31
0.0
0
3DFACE
8
0
10
875.3876
20
213.04364
30
0.0
11
871.3876
21
220.04364
31
0.0
12
879.3876
22
220.04364
32
0.0
13
879.3877
23
220.04375
33
1.0E-4
0
3DFACE
8
0
10
626.76
20
360.0
30
0.0
11
622.76
21
367.0
31
0.0
12
630.76
22
367.0
32
0.0
13
630.76013
23
367.0001
33
1.0E-4
0
LINE
8
0
10
626.76
20
360.0
30
0.0
11
663.2326
21
323.52744
31
0.0
0
LINE
8
0
10
663.2326
20
323.52744
30
0.0
11
635.3242
21
295.61905
31
0.0
0
LINE
8
0
10
635.3242
20
295.61905
30
0.0
11
635.3242
21
333.01477
31
0.0
0
LINE
8
0
10
635.3242
20
333.01477
30
0.0
11
666.2153
21
333.01477
31
0.0
0
3DFACE
8
0
10
666.2153
20
362.75757
30
0.0
11
662.2153
21
369.75757
31
0.0
12
670.2153
22
369.75757
32
0.0
13
670.2154
23
369.75766
33
1.0E-4
0
3DFACE
8
0
10
1601.151
20
360.0
30
0.0
11
1597.151
21
367.0
31
0.0
12
1605.151
22
367.0
32
0.0
13
1605.1511
23
367.0001
33
1.0E-4
0
LINE
8
0
10
1601.151
20
360.0
30
0.0
11
1567.8651
21
393.28583
31
0.0
0
LINE
8
0
10
1567.8651
20
393.28583
30
0.0
11
1567.8651
21
415.35037
31
0.0
0
LINE
8
0
10
1567.8651
20
415.35037
30
0.0
11
1531.8363
21
379.32156
31
0.0
0
LINE
8
0
10
1531.8363
20
379.32156
30
0.0
11
1531.8363
21
408.0996
31
0.0
0
3DFACE
8
0
10
1492.5908
20
408.0996
30
0.0
11
1488.5908
21
415.0996
31
0.0
12
1496.5908
22
415.0996
32
0.0
13
1496.591
23
415.0997
33
1.0E-4
0
3DFACE
8
0
10
1539.4714
20
360.0
30
0.0
11
1535.4714
21
367.0
31
0.0
12
1543.4714
22
367.0
32
0.0
13
1543.4716
23
367.0001
33
1.0E-4
0
LINE
8
0
10
1539.4714
20
360.0
30
0.0
11
1518.5381
21
360.0
31
0.0
0
LINE
8
0
10
1518.5381
20
360.0
30
0.0
11
1488.9979
21
389.54013
31
0.0
0
LINE
8
0
10
1488.9979
20
389.54013
30
0.0
11
1488.9979
21
421.20154
31
0.0
0
LINE
8
0
10
1488.9979
20
421.20154
30
0.0
11
1456.9014
21
389.10498
31
0.0
0
3DFACE
8
0
10
1433.8877
20
412.1186
30
0.0
11
1429.8877
21
419.1186
31
0.0
12
1437.8877
22
419.1186
32
0.0
13
1437.8878
23
419.11868
33
1.0E-4
0
3DFACE
8
0
10
1781.1505
20
360.0
30
0.0
11
1777.1505
21
367.0
31
0.0
12
1785.1505
22
367.0
32
0.0
13
1785.1506
23
367.0001
33
1.0E-4
0
LINE
8
0
10
1781.1505
20
360.0
30
0.0
11
1759.1686
21
381.98193
31
0.0
0
LINE
8
0
10
1759.1686
20
381.98193
30
0.0
11
1759.1686
21
418.85367
31
0.0
0
LINE
8
0
10
1759.1686
20
418.85367
30
0.0
11
1723.5897
21
383.27478
31
0.0
0
LINE
8
0
10
1723.5897
20
383.27478
30
0.0
11
1689.2534
21
417.6111
31
0.0
0
3DFACE
8
0
10
1651.2037
20
379.5614
30
0.0
11
1647.2037
21
386.5614
31
0.0
12
1655.2037
22
386.5614
32
0.0
13
1655.2039
23
386.5615
33
1.0E-4
0
3DFACE
8
0
10
1785.2979
20
360.0
30
0.0
11
1781.2979
21
367.0
31
0.0
12
1789.2979
22
367.0
32
0.0
13
1789.298
23
367.0001
33
1.0E-4
0
LINE
8
0
10
1785.2979
20
360.0
30
0.0
11
1785.2979
21
380.10678
31
0.0
0
LINE
8
0
10
1785.2979
20
380.10678
30
0.0
11
1746.401
21
380.10678
31
0.0
0
LINE
8
0
10
1746.401
20
380.10678
30
0.0
11
1746.401
21
410.47903
31
0.0
0
LINE
8
0
10
1746.401
20
410.47903
30
0.0
11
1713.7039
21
410.47903
31
0.0
0
3DFACE
8
0
10
1692.827
20
389.6022
30
0.0
11
1688.827
21
396.6022
31
0.0
12
1696.827
22
396.6022
32
0.0
13
1696.8271
23
396.6023
33
1.0E-4
0
3DFACE
8
0
10
1250.6604
20
360.0
30
0.0
11
1246.6604
21
367.0
31
0.0
12
1254.6604
22
367.0
32
0.0
13
1254.6605
23
367.0001
33
1.0E-4
0
LINE
8
0
10
1250.6604
20
360.0
30
0.0
11
1217.5643
21
326.90396
31
0.0
0
LINE
8
0
10
1217.5643
20
326.90396
30
0.0
11
1217.5643
21
359.36017
31
0.0
0
LINE
8
0
10
1217.5643
20
359.36017
30
0.0
11
1182.9338
21
324.7297
31
0.0
0
LINE
8
0
10
1182.9338
20
324.7297
30
0.0
11
1146.8177
21
360.84576
31
0.0
0
3DFACE
8
0
10
1121.6803
20
360.84576
30
0.0
11
1117.6803
21
367.84576
31
0.0
12
1125.6803
22
367.84576
32
0.0
13
1125.6804
23
367.84586
33
1.0E-4
0
3DFACE
8
0
10
1186.5936
20
360.0
30
0.0
11
1182.5936
21
367.0
31
0.0
12
1190.5936
22
367.0
32
0.0
13
1190.5938
23
367.0001
33
1.0E-4
0
LINE
8
0
10
1186.5936
20
360.0
30
0.0
11
1186.5936
21
399.27307
31
0.0
0
LINE
8
0
10
1186.5936
20
399.27307
30
0.0
11
1153.8186
21
399.27307
31
0.0
0
LINE
8
0
10
1153.8186
20
399.27307
30
0.0
11
1125.4943
21
427.5974
31
0.0
0
LINE
8
0
10
1125.4943
20
427.5974
30
0.0
11
1087.1697
21
389.27283
31
0.0
0
3DFACE
8
0
10
1087.1697
20
418.1306
30
0.0
11
1083.1697
21
425.1306
31
0.0
12
1091.1697
22
425.1306
32
0.0
13
1091.1698
23
425.1307
33
1.0E-4
0
3DFACE
8
0
10
1874.3313
20
360.0
30
0.0
11
1870.3313
21
367.0
31
0.0
12
1878.3313
22
367.0
32
0.0
13
1878.3314
23
367.0001
33
1.0E-4
0
LINE
8
0
10
1874.3313
20
360.0
30
0.0
11
1834.8154
21
320.4842
31
0.0
0
LINE
8
0
10
1834.8154
20
320.4842
30
0.0
11
1812.0575
21
297.7262
31
0.0
0
LINE
8
0
10
1812.0575
20
297.7262
30
0.0
11
1777.1785
21
297.7262
31
0.0
0
LINE
8
0
10
1777.1785
20
297.7262
30
0.0
11
1777.1785
21
325.3572
31
0.0
0
3DFACE
8
0
10
1748.6826
20
353.85303
30
0.0
11
1744.6826
21
360.85303
31
0.0
12
1752.6826
22
360.85303
32
0.0
13
1752.6827
23
360.85312
33
1.0E-4
0
3DFACE
8
0
10
1673.7744
20
360.0
30
0.0
11
1669.7744
21
367.0
31
0.0
12
1677.7744
22
367.0
32
0.0
13
1677.7745
23
367.0001
33
1.0E-4
0
LINE
8
0
10
1673.7744
20
360.0
30
0.0
11
1644.6649
21
389.10947
31
0.0
0
LINE
8
0
10
1644.6649
20
389.10947
30
0.0
11
1644.6649
21
423.15198
31
0.0
0
LINE
8
0
10
1644.6649
20
423.15198
30
0.0
11
1622.6549
21
401.14197
31
0.0
0
LINE
8
0
10
1622.6549
20
401.14197
30
0.0
11
1586.1283
21
364.61536
31
0.0
0
3DFACE
8
0
10
1553.0426
20
397.701
30
0.0
11
1549.0426
21
404.701
31
0.0
12
1557.0426
22
404.701
32
0.0
13
1557.0427
23
404.70108
33
1.0E-4
0
3DFACE
8
0
10
1212.6318
20
360.0
30
0.0
11
1208.6318
21
367.0
31
0.0
12
1216.6318
22
367.0
32
0.0
13
1216.632
23
367.0001
33
1.0E-4
0
LINE
8
0
10
1212.6318
20
360.0
30
0.0
11
1212.6318
21
383.7758
31
0.0
0
LINE
8
0
10
1212.6318
20
383.7758
30
0.0
11
1212.6318
21
408.96228
31
0.0
0
LINE
8
0
10
1212.6318
20
408.96228
30
0.0
11
1174.7291
21
371.05963
31
0.0
0
LINE
8
0
10
1174.7291
20
371.05963
30
0.0
11
1137.0553
21
371.05963
31
0.0
0
3DFACE
8
0
10
1098.6909
20
332.6952
30
0.0
11
1094.6909
21
339.6952
31
0.0
12
1102.6909
22
339.6952
32
0.0
13
1102.691
23
339.69528
33
1.0E-4
0
3DFACE
8
0
10
1233.1627
20
360.0
30
0.0
11
1229.1627
21
367.0
31
0.0
12
1237.1627
22
367.0
32
0.0
13
1237.1628
23
367.0001
33
1.0E-4
0
LINE
8
0
10
1233.1627
20
360.0
30
0.0
11
1265.5737
21
360.0
31
0.0
0
LINE
8
0
10
1265.5737
20
360.0
30
0.0
11
1236.3788
21
389.19492
31
0.0
0
LINE
8
0
10
1236.3788
20
389.19492
30
0.0
11
1266.9137
21
389.19492
31
0.0
0
LINE
8
0
10
1266.9137
20
389.19492
30
0.0
11
1266.9137
21
414.4311
31
0.0
0
3DFACE
8
0
10
1266.9137
20
392.7172
30
0.0
11
1262.9137
21
399.7172
31
0.0
12
1270.9137
22
399.7172
32
0.0
13
1270.9138
23
399.7173
33
1.0E-4
0
3DFACE
8
0
10
1727.3987
20
360.0
30
0.0
11
1723.3987
21
367.0
31
0.0
12
1731.3987
22
367.0
32
0.0
13
1731.3988
23
367.0001
33
1.0E-4
0
LINE
8
0
10
1727.3987
20
360.0
30
0.0
11
1727.3987
21
394.99323
31
0.0
0
LINE
8
0
10
1727.3987
20
394.99323
30
0.0
11
1704.7028
21
372.29733
31
0.0
0
LINE
8
0
10
1704.7028
20
372.29733
30
0.0
11
1670.4136
21
372.29733
31
0.0
0
LINE
8
0
10
1670.4136
20
372.29733
30
0.0
11
1636.4545
21
406.25638
31
0.0
0
3DFACE
8
0
10
1604.5541
20
374.35602
30
0.0
11
1600.5541
21
381.35602
31
0.0
12
1608.5541
22
381.35602
32
0.0
13
1608.5542
23
381.3561
33
1.0E-4
0
3DFACE
8
0
10
1517.2316
20
360.0
30
0.0
11
1513.2316
21
367.0
31
0.0
12
1521.2316
22
367.0
32
0.0
13
1521.2317
23
367.0001
33
1.0E-4
0
LINE
8
0
10
1517.2316
20
360.0
30
0.0
11
1481.8573
21
324.62573
31
0.0
0
LINE
8
0
10
1481.8573
20
324.62573
30
0.0
11
1451.264
21
294.03247
31
0.0
0
LINE
8
0
10
1451.264
20
294.03247
30
0.0
11
1426.1382
21
268.90662
31
0.0
0
LINE
8
0
10
1426.1382
20
268.90662
30
0.0
11
1389.8275
21
232.59601
31
0.0
0
3DFACE
8
0
10
1356.5885
20
232.59601
30
0.0
11
1352.5885
21
239.59601
31
0.0
12
1360.5885
22
239.59601
32
0.0
13
1360.5886
23
239.59612
33
1.0E-4
0
3DFACE
8
0
10
1581.151
20
360.0
30
0.0
11
1577.151
21
367.0
31
0.0
12
1585.151
22
367.0
32
0.0
13
1585.1511
23
367.0001
33
1.0E-4
0
LINE
8
0
10
1581.151
20
360.0
30
0.0
11
1542.318
21
321.16702
31
0.0
0
LINE
8
0
10
1542.318
20
321.16702
30
0.0
11
1515.7734
21
294.6224
31
0.0
0
LINE
8
0
10
1515.7734
20
294.6224
30
0.0
11
1515.7734
21
325.46027
31
0.0
0
LINE
8
0
10
1515.7734
20
325.46027
30
0.0
11
1484.569
21
356.6648
31
0.0
0
3DFACE
8
0
10
1449.2711
20
356.6648
30
0.0
11
1445.2711
21
363.6648
31
0.0
12
1453.2711
22
363.6648
32
0.0
13
1453.2712
23
363.6649
33
1.0E-4
0
3DFACE
8
0
10
1526.0205
20
360.0
30
0.0
11
1522.0205
21
367.0
31
0.0
12
1530.0205
22
367.0
32
0.0
13
1530.0206
23
367.0001
33
1.0E-4
0
LINE
8
0
10
1526.0205
20
360.0
30
0.0
11
1489.3041
21
396.71643
31
0.0
0
LINE
8
0
10
1489.3041
20
396.71643
30
0.0
11
1456.3514
21
396.71643
31
0.0
0
LINE
8
0
10
1456.3514
20
396.71643
30
0.0
11
1421.9951
21
396.71643
31
0.0
0
LINE
8
0
10
1421.9951
20
396.71643
30
0.0
11
1382.0509
21
356.7722
31
0.0
0
3DFACE
8
0
10
1409.0135
20
329.80957
30
0.0
11
1405.0135
21
336.80957
31
0.0
12
1413.0135
22
336.80957
32
0.0
13
1413.0137
23
336.80966
33
1.0E-4
0
3DFACE
8
0
10
1553.4922
20
360.0
30
0.0
11
1549.4922
21
367.0
31
0.0
12
1557.4922
22
367.0
32
0.0
13
1557.4923
23
367.0001
33
1.0E-4
0
LINE
8
0
10
1553.4922
20
360.0
30
0.0
11
1521.0403
21
327.5481
31
0.0
0
LINE
8
0
10
1521.0403
20
327.5481
30
0.0
11
1487.1761
21
293.68402
31
0.0
0
LINE
8
0
10
1487.1761
20
293.68402
30
0.0
11
1448.2617
21
293.68402
31
0.0
0
LINE
8
0
10
1448.2617
20
293.68402
30
0.0
11
1414.9348
21
293.68402
31
0.0
0
3DFACE
8
0
10
1385.8684
20
322.75046
30
0.0
11
1381.8684
21
329.75046
31
0.0
12
1389.8684
22
329.75046
32
0.0
13
1389.8685
23
329.75055
33
1.0E-4
0
3DFACE
8
0
10
1516.3137
20
360.0
30
0.0
11
1512.3137
21
367.0
31
0.0
12
1520.3137
22
367.0
32
0.0
13
1520.3138
23
367.0001
33
1.0E-4
0
LINE
8
0
10
1516.3137
20
360.0
30
0.0
11
1536.7856
21
380.47186
31
0.0
0
LINE
8
0
10
1536.7856
20
380.47186
30
0.0
11
1561.6162
21
405.30243
31
0.0
0
LINE
8
0
10
1561.6162
20
405.30243
30
0.0
11
1523.2063
21
366.89246
31
0.0
0
LINE
8
0
10
1523.2063
20
366.89246
30
0.0
11
1550.8695
21
339.2292
31
0.0
0
3DFACE
8
0
10
1572.1847
20
317.91403
30
0.0
11
1568.1847
21
324.91403
31
0.0
12
1576.1847
22
324.91403
32
0.0
13
1576.1848
23
324.91412
33
1.0E-4
0
3DFACE
8
0
10
1875.176
20
360.0
30
0.0
11
1871.176
21
367.0
31
0.0
12
1879.176
22
367.0
32
0.0
13
1879.1761
23
367.0001
33
1.0E-4
0
LINE
8
0
10
1875.176
20
360.0
30
0.0
11
1840.1625
21
395.01352
31
0.0
0
LINE
8
0
10
1840.1625
20
395.01352
30
0.0
11
1808.7429
21
395.01352
31
0.0
0
LINE
8
0
10
1808.7429
20
395.01352
30
0.0
11
1808.7429
21
426.1999
31
0.0
0
LINE
8
0
10
1808.7429
20
426.1999
30
0.0
11
1770.277
21
426.1999
31
0.0
0
3DFACE
8
0
10
1770.277
20
395.89285
30
0.0
11
1766.277
21
402.89285
31
0.0
12
1774.277
22
402.89285
32
0.0
13
1774.2771
23
402.89294
33
1.0E-4
0
3DFACE
8
0
10
1537.4403
20
360.0
30
0.0
11
1533.4403
21
367.0
31
0.0
12
1541.4403
22
367.0
32
0.0
13
1541.4404
23
367.0001
33
1.0E-4
0
LINE
8
0
10
1537.4403
20
360.0
30
0.0
11
1562.3038
21
335.1365
31
0.0
0
LINE
8
0
10
1562.3038
20
335.1365
30
0.0
11
1541.5017
21
355.93866
31
0.0
0
LINE
8
0
10
1541.5017
20
355.93866
30
0.0
11
1564.8489
21
379.28577
31
0.0
0
LINE
8
0
10
1564.8489
20
379.28577
30
0.0
11
1564.8489
21
410.48743
31
0.0
0
3DFACE
8
0
10
1535.9054
20
410.48743
30
0.0
11
1531.9054
21
417.48743
31
0.0
12
1539.9054
22
417.48743
32
0.0
13
1539.9055
23
417.48752
33
1.0E-4
0
3DFACE
8
0
10
1812.0363
20
360.0
30
0.0
11
1808.0363
21
367.0
31
0.0
12
1816.0363
22
367.0
32
0.0
13
1816.0364
23
367.0001
33
1.0E-4
0
LINE
8
0
10
1812.0363
20
360.0
30
0.0
11
1784.5598
21
360.0
31
0.0
0
LINE
8
0
10
1784.5598
20
360.0
30
0.0
11
1754.1465
21
390.41327
31
0.0
0
LINE
8
0
10
1754.1465
20
390.41327
30
0.0
11
1729.8516
21
390.41327
31
0.0
0
LINE
8
0
10
1729.8516
20
390.41327
30
0.0
11
1692.2684
21
352.8301
31
0.0
0
3DFACE
8
0
10
1732.2568
20
352.8301
30
0.0
11
1728.2568
21
359.8301
31
0.0
12
1736.2568
22
359.8301
32
0.0
13
1736.257
23
359.8302
33
1.0E-4
0
3DFACE
8
0
10
1859.8264
20
360.0
30
0.0
11
1855.8264
21
367.0
31
0.0
12
1863.8264
22
367.0
32
0.0
13
1863.8265
23
367.0001
33
1.0E-4
0
LINE
8
0
10
1859.8264
20
360.0
30
0.0
11
1824.4722
21
324.64578
31
0.0
0
LINE
8
0
10
1824.4722
20
324.64578
30
0.0
11
1800.7856
21
348.3323
31
0.0
0
LINE
8
0
10
1800.7856
20
348.3323
30
0.0
11
1767.0659
21
348.3323
31
0.0
0
LINE
8
0
10
1767.0659
20
348.3323
30
0.0
11
1731.9398
21
383.4584
31
0.0
0
3DFACE
8
0
10
1708.299
20
359.81754
30
0.0
11
1704.299
21
366.81754
31
0.0
12
1712.299
22
366.81754
32
0.0
13
1712.2991
23
366.81763
33
1.0E-4
0
3DFACE
8
0
10
1868.5071
20
360.0
30
0.0
11
1864.5071
21
367.0
31
0.0
12
1872.5071
22
367.0
32
0.0
13
1872.5072
23
367.0001
33
1.0E-4
0
LINE
8
0
10
1868.5071
20
360.0
30
0.0
11
1836.2633
21
360.0
31
0.0
0
LINE
8
0
10
1836.2633
20
360.0
30
0.0
11
1816.0151
21
339.75177
31
0.0
0
LINE
8
0
10
1816.0151
20
339.75177
30
0.0
11
1791.9114
21
315.648
31
0.0
0
LINE
8
0
10
1791.9114
20
315.648
30
0.0
11
1757.1517
21
280.8883
31
0.0
0
3DFACE
8
0
10
1719.3545
20
243.09106
30
0.0
11
1715.3545
21
250.09106
31
0.0
12
1723.3545
22
250.09106
32
0.0
13
1723.3546
23
250.09117
33
1.0E-4
0
3DFACE
8
0
10
480.47943
20
560.0
30
0.0
11
476.47943
21
567.0
31
0.0
12
484.47943
22
567.0
32
0.0
13
484.47952
23
567.0001
33
1.0E-4
0
LINE
8
0
10
480.47943
20
560.0
30
0.0
11
448.0416
21
592.4378
31
0.0
0
LINE
8
0
10
448.0416
20
592.4378
30
0.0
11
413.536
21
592.4378
31
0.0
0
LINE
8
0
10
413.536
20
592.4378
30
0.0
11
413.536
21
613.97284
31
0.0
0
LINE
8
0
10
413.536
20
613.97284
30
0.0
11
413.536
21
588.3816
31
0.0
0
LINE
8
0
10
413.536
20
588.3816
30
0.0
11
376.50467
21
588.3816
31
0.0
0
3DFACE
8
0
10
350.58942
20
588.3816
30
0.0
11
346.58942
21
595.3816
31
0.0
12
354.58942
22
595.3816
32
0.0
13
354.5895
23
595.3817
33
1.0E-4
0
3DFACE
8
0
10
1714.2703
20
560.0
30
0.0
11
1710.2703
21
567.0
31
0.0
12
1718.2703
22
567.0
32
0.0
13
1718.2704
23
567.0001
33
1.0E-4
0
LINE
8
0
10
1714.2703
20
560.0
30
0.0
11
1685.3949
21
588.8754
31
0.0
0
LINE
8
0
10
1685.3949
20
588.8754
30
0.0
11
1647.7102
21
588.8754
31
0.0
0
LINE
8
0
10
1647.7102
20
588.8754
30
0.0
11
1647.7102
21
626.02997
31
0.0
0
LINE
8
0
10
1647.7102
20
626.02997
30
0.0
11
1613.4033
21
660.3368
31
0.0
0
LINE
8
0
10
1613.4033
20
660.3368
30
0.0
11
1580.7626
21
692.97754
31
0.0
0
3DFACE
8
0
10
1560.6802
20
672.89514
30
0.0
11
1556.6802
21
679.89514
31
0.0
12
1564.6802
22
679.89514
32
0.0
13
1564.6803
23
679.89526
33
1.0E-4
0
3DFACE
8
0
10
825.83655
20
560.0
30
0.0
11
821.83655
21
567.0
31
0.0
12
829.83655
22
567.0
32
0.0
13
829.8367
23
567.0001
33
1.0E-4
0
LINE
8
0
10
825.83655
20
560.0
30
0.0
11
791.4613
21
594.37524
31
0.0
0
LINE
8
0
10
791.4613
20
594.37524
30
0.0
11
758.3718
21
594.37524
31
0.0
0
LINE
8
0
10
758.3718
20
594.37524
30
0.0
11
758.3718
21
631.0932
31
0.0
0
LINE
8
0
10
758.3718
20
631.0932
30
0.0
11
722.4878
21
595.20917
31
0.0
0
LINE
8
0
10
722.4878
20
595.20917
30
0.0
11
692.3575
21
565.07886
31
0.0
0
3DFACE
8
0
10
672.02765
20
565.07886
30
0.0
11
668.02765
21
572.07886
31
0.0
12
676.02765
22
572.07886
32
0.0
13
676.0278
23
572.079
33
1.0E-4
0
3DFACE
8
0
10
737.26355
20
560.0
30
0.0
11
733.26355
21
567.0
31
0.0
12
741.26355
22
567.0
32
0.0
13
741.2637
23
567.0001
33
1.0E-4
0
LINE
8
0
10
737.26355
20
560.0
30
0.0
11
697.6909
21
560.0
31
0.0
0
LINE
8
0
10
697.6909
20
560.0
30
0.0
11
673.02985
21
560.0
31
0.0
0
LINE
8
0
10
673.02985
20
560.0
30
0.0
11
652.20807
21
580.8218
31
0.0
0
LINE
8
0
10
652.20807
20
580.8218
30
0.0
11
618.71564
21
547.32935
31
0.0
0
LINE
8
0
10
618.71564
20
547.32935
30
0.0
11
579.84
21
586.20496
31
0.0
0
3DFACE
8
0
10
579.84
20
615.6571
30
0.0
11
575.84
21
622.6571
31
0.0
12
583.84
22
622.6571
32
0.0
13
583.84015
23
622.6572
33
1.0E-4
0
3DFACE
8
0
10
1421.841
20
560.0
30
0.0
11
1417.841
21
567.0
31
0.0
12
1425.841
22
567.0
32
0.0
13
1425.8411
23
567.0001
33
1.0E-4
0
LINE
8
0
10
1421.841
20
560.0
30
0.0
11
1384.6721
21
522.8312
31
0.0
0
LINE
8
0
10
1384.6721
20
522.8312
30
0.0
11
1357.147
21
522.8312
31
0.0
0
LINE
8
0
10
1357.147
20
522.8312
30
0.0
11
1333.9185
21
499.6027
31
0.0
0
LINE
8
0
10
1333.9185
20
499.6027
30
0.0
11
1297.6279
21
535.89325
31
0.0
0
LINE
8
0
10
1297.6279
20
535.89325
30
0.0
11
1297.6279
21
556.7103
31
0.0
0
3DFACE
8
0
10
1266.6996
20
587.6387
30
0.0
11
1262.6996
21
594.6387
31
0.0
12
1270.6996
22
594.6387
32
0.0
13
1270.6997
23
594.6388
33
1.0E-4
0
3DFACE
8
0
10
468.79395
20
560.0
30
0.0
11
464.79395
21
567.0
31
0.0
12
472.79395
22
567.0
32
0.0
13
472.79404
23
567.0001
33
1.0E-4
0
LINE
8
0
10
468.79395
20
560.0
30
0.0
11
494.50403
21
585.7101
31
0.0
0
LINE
8
0
10
494.50403
20
585.7101
30
0.0
11
494.50403
21
609.4121
31
0.0
0
LINE
8
0
10
494.50403
20
609.4121
30
0.0
11
517.7999
21
586.1162
31
0.0
0
LINE
8
0
10
517.7999
20
586.1162
30
0.0
11
485.61188
21
618.30426
31
0.0
0
LINE
8
0
10
485.61188
20
618.30426
30
0.0
11
521.8615
21
618.30426
31
0.0
0
3DFACE
8
0
10
493.7199
20
646.44586
30
0.0
11
489.7199
21
653.44586
31
0.0
12
497.7199
22
653.44586
32
0.0
13
497.72
23
653.446
33
1.0E-4
0
3DFACE
8
0
10
1701.9163
20
560.0
30
0.0
11
1697.9163
21
567.0
31
0.0
12
1705.9163
22
567.0
32
0.0
13
1705.9164
23
567.0001
33
1.0E-4
0
LINE
8
0
10
1701.9163
20
560.0
30
0.0
11
1663.9141
21
598.00226
31
0.0
0
LINE
8
0
10
1663.9141
20
598.00226
30
0.0
11
1636.351
21
625.5654
31
0.0
0
LINE
8
0
10
1636.351
20
625.5654
30
0.0
11
1600.4957
21
625.5654
31
0.0
0
LINE
8
0
10
1600.4957
20
625.5654
30
0.0
11
1600.4957
21
586.84436
31
0.0
0
LINE
8
0
10
1600.4957
20
586.84436
30
0.0
11
1563.1643
21
586.84436
31
0.0
0
3DFACE
8
0
10
1534.2207
20
557.9007
30
0.0
11
1530.2207
21
564.9007
31
0.0
12
1538.2207
22
564.9007
32
0.0
13
1538.2208
23
564.9008
33
1.0E-4
0
3DFACE
8
0
10
1185.6311
20
560.0
30
0.0
11
1181.6311
21
567.0
31
0.0
12
1189.6311
22
567.0
32
0.0
13
1189.6312
23
567.0001
33
1.0E-4
0
LINE
8
0
10
1185.6311
20
560.0
30
0.0
11
1145.6929
21
560.0
31
0.0
0
LINE
8
0
10
1145.6929
20
560.0
30
0.0
11
1112.2126
21
526.5198
31
0.0
0
LINE
8
0
10
1112.2126
20
526.5198
30
0.0
11
1076.058
21
562.67444
31
0.0
0
LINE
8
0
10
1076.058
20
562.67444
30
0.0
11
1052.7305
21
562.67444
31
0.0
0
LINE
8
0
10
1052.7305
20
562.67444
30
0.0
11
1018.87756
21
528.82153
31
0.0
0
3DFACE
8
0
10
1018.87756
20
559.6815
30
0.0
11
1014.87756
21
566.6815
31
0.0
12
1022.87756
22
566.6815
32
0.0
13
1022.8777
23
566.68164
33
1.0E-4
0
3DFACE
8
0
10
1269.1215
20
560.0
30
0.0
11
1265.1215
21
567.0
31
0.0
12
1273.1215
22
567.0
32
0.0
13
1273.1216
23
567.0001
33
1.0E-4
0
LINE
8
0
10
1269.1215
20
560.0
30
0.0
11
1236.538
21
560.0
31
0.0
0
LINE
8
0
10
1236.538
20
560.0
30
0.0
11
1206.7695
21
530.23157
31
0.0
0
LINE
8
0
10
1206.7695
20
530.23157
30
0.0
11
1206.7695
21
558.8278
31
0.0
0
LINE
8
0
10
1206.7695
20
558.8278
30
0.0
11
1206.7695
21
587.39154
31
0.0
0
LINE
8
0
10
1206.7695
20
587.39154
30
0.0
11
1174.4735
21
619.68756
31
0.0
0
3DFACE
8
0
10
1137.1727
20
619.68756
30
0.0
11
1133.1727
21
626.68756
31
0.0
12
1141.1727
22
626.68756
32
0.0
13
1141.1729
23
626.6877
33
1.0E-4
0
3DFACE
8
0
10
1601.4705
20
560.0
30
0.0
11
1597.4705
21
567.0
31
0.0
12
1605.4705
22
567.0
32
0.0
13
1605.4706
23
567.0001
33
1.0E-4
0
LINE
8
0
10
1601.4705
20
560.0
30
0.0
11
1571.5442
21
560.0
31
0.0
0
LINE
8
0
10
1571.5442
20
560.0
30
0.0
11
1531.8215
21
520.27734
31
0.0
0
LINE
8
0
10
1531.8215
20
520.27734
30
0.0
11
1498.8008
21
553.2981
31
0.0
0
LINE
8
0
10
1498.8008
20
553.2981
30
0.0
11
1498.8008
21
573.3887
31
0.0
0
LINE
8
0
10
1498.8008
20
573.3887
30
0.0
11
1469.136
21
603.0534
31
0.0
0
3DFACE
8
0
10
1469.136
20
626.94244
30
0.0
11
1465.136
21
633.94244
31
0.0
12
1473.136
22
633.94244
32
0.0
13
1473.1361
23
633.94257
33
1.0E-4
0
3DFACE
8
0
10
1589.145
20
560.0
30
0.0
11
1585.145
21
567.0
31
0.0
12
1593.145
22
567.0
32
0.0
13
1593.1451
23
567.0001
33
1.0E-4
0
LINE
8
0
10
1589.145
20
560.0
30
0.0
11
1554.1033
21
595.04175
31
0.0
0
LINE
8
0
10
1554.1033
20
595.04175
30
0.0
11
1554.1033
21
625.7048
31
0.0
0
LINE
8
0
10
1554.1033
20
625.7048
30
0.0
11
1515.1923
21
625.7048
31
0.0
0
LINE
8
0
10
1515.1923
20
625.7048
30
0.0
11
1480.214
21
625.7048
31
0.0
0
LINE
8
0
10
1480.214
20
625.7048
30
0.0
11
1480.214
21
592.5828
31
0.0
0
3DFACE
8
0
10
1453.461
20
592.5828
30
0.0
11
1449.461
21
599.5828
31
0.0
12
1457.461
22
599.5828
32
0.0
13
1457.4612
23
599.58295
33
1.0E-4
0
3DFACE
8
0
10
1064.0803
20
560.0
30
0.0
11
1060.0803
21
567.0
31
0.0
12
1068.0803
22
567.0
32
0.0
13
1068.0804
23
567.0001
33
1.0E-4
0
LINE
8
0
10
1064.0803
20
560.0
30
0.0
11
1040.3397
21
583.7406
31
0.0
0
LINE
8
0
10
1040.3397
20
583.7406
30
0.0
11
1040.3397
21
622.2959
31
0.0
0
LINE
8
0
10
1040.3397
20
622.2959
30
0.0
11
1040.3397
21
602.2585
31
0.0
0
LINE
8
0
10
1040.3397
20
602.2585
30
0.0
11
1003.3353
21
639.2629
31
0.0
0
LINE
8
0
10
1003.3353
20
639.2629
30
0.0
11
982.8977
21
639.2629
31
0.0
0
3DFACE
8
0
10
982.8977
20
604.11395
30
0.0
11
978.8977
21
611.11395
31
0.0
12
986.8977
22
611.11395
32
0.0
13
986.8978
23
611.1141
33
1.0E-4
0
3DFACE
8
0
10
1717.1056
20
560.0
30
0.0
11
1713.1056
21
567.0
31
0.0
12
1721.1056
22
567.0
32
0.0
13
1721.1057
23
567.0001
33
1.0E-4
0
LINE
8
0
10
1717.1056
20
560.0
30
0.0
11
1693.6875
21
536.5819
31
0.0
0
LINE
8
0
10
1693.6875
20
536.5819
30
0.0
11
1655.9893
21
536.5819
31
0.0
0
LINE
8
0
10
1655.9893
20
536.5819
30
0.0
11
1616.1074
21
576.4637
31
0.0
0
LINE
8
0
10
1616.1074
20
576.4637
30
0.0
11
1616.1074
21
616.4342
31
0.0
0
LINE
8
0
10
1616.1074
20
616.4342
30
0.0
11
1616.1074
21
577.14636
31
0.0
0
3DFACE
8
0
10
1591.7579
20
577.14636
30
0.0
11
1587.7579
21
584.14636
31
0.0
12
1595.7579
22
584.14636
32
0.0
13
1595.758
23
584.1465
33
1.0E-4
0
3DFACE
8
0
10
1246.1279
20
560.0
30
0.0
11
1242.1279
21
567.0
31
0.0
12
1250.1279
22
567.0
32
0.0
13
1250.128
23
567.0001
33
1.0E-4
0
LINE
8
0
10
1246.1279
20
560.0
30
0.0
11
1219.9476
21
560.0
31
0.0
0
LINE
8
0
10
1219.9476
20
560.0
30
0.0
11
1219.9476
21
598.69354
31
0.0
0
LINE
8
0
10
1219.9476
20
598.69354
30
0.0
11
1185.6461
21
564.392
31
0.0
0
LINE
8
0
10
1185.6461
20
564.392
30
0.0
11
1162.8159
21
587.2222
31
0.0
0
LINE
8
0
10
1162.8159
20
587.2222
30
0.0
11
1133.6777
21
558.0841
31
0.0
0
3DFACE
8
0
10
1103.338
20
588.4238
30
0.0
11
1099.338
21
595.4238
31
0.0
12
1107.338
22
595.4238
32
0.0
13
1107.3381
23
595.42395
33
1.0E-4
0
3DFACE
8
0
10
1765.4104
20
560.0
30
0.0
11
1761.4104
21
567.0
31
0.0
12
1769.4104
22
567.0
32
0.0
13
1769.4105
23
567.0001
33
1.0E-4
0
LINE
8
0
10
1765.4104
20
560.0
30
0.0
11
1734.3223
21
528.91187
31
0.0
0
LINE
8
0
10
1734.3223
20
528.91187
30
0.0
11
1706.2485
21
556.98553
31
0.0
0
LINE
8
0
10
1706.2485
20
556.98553
30
0.0
11
1685.3323
21
556.98553
31
0.0
0
LINE
8
0
10
1685.3323
20
556.98553
30
0.0
11
1655.2803
21
556.98553
31
0.0
0
LINE
8
0
10
1655.2803
20
556.98553
30
0.0
11
1621.9128
21
556.98553
31
0.0
0
3DFACE
8
0
10
1585.9694
20
521.0421
30
0.0
11
1581.9694
21
528.0421
31
0.0
12
1589.9694
22
528.0421
32
0.0
13
1589.9695
23
528.04224
33
1.0E-4
0
3DFACE
8
0
10
1283.9048
20
560.0
30
0.0
11
1279.9048
21
567.0
31
0.0
12
1287.9048
22
567.0
32
0.0
13
1287.9049
23
567.0001
33
1.0E-4
0
LINE
8
0
10
1283.9048
20
560.0
30
0.0
11
1261.522
21
537.61725
31
0.0
0
LINE
8
0
10
1261.522
20
537.61725
30
0.0
11
1223.2753
21
537.61725
31
0.0
0
LINE
8
0
10
1223.2753
20
537.61725
30
0.0
11
1187.6875
21
573.205
31
0.0
0
LINE
8
0
10
1187.6875
20
573.205
30
0.0
11
1150.3088
21
573.205
31
0.0
0
LINE
8
0
10
1150.3088
20
573.205
30
0.0
11
1117.3092
21
540.20544
31
0.0
0
3DFACE
8
0
10
1081.2861
20
576.2285
30
0.0
11
1077.2861
21
583.2285
31
0.0
12
1085.2861
22
583.2285
32
0.0
13
1085.2863
23
583.22864
33
1.0E-4
0
3DFACE
8
0
10
1475.1321
20
560.0
30
0.0
11
1471.1321
21
567.0
31
0.0
12
1479.1321
22
567.0
32
0.0
13
1479.1322
23
567.0001
33
1.0E-4
0
LINE
8
0
10
1475.1321
20
560.0
30
0.0
11
1445.5051
21
530.37305
31
0.0
0
LINE
8
0
10
1445.5051
20
530.37305
30
0.0
11
1412.6161
21
530.37305
31
0.0
0
LINE
8
0
10
1412.6161
20
530.37305
30
0.0
11
1412.6161
21
566.92145
31
0.0
0
LINE
8
0
10
1412.6161
20
566.92145
30
0.0
11
1379.474
21
600.06354
31
0.0
0
LINE
8
0
10
1379.474
20
600.06354
30
0.0
11
1379.474
21
631.0667
31
0.0
0
3DFACE
8
0
10
1379.474
20
605.8229
30
0.0
11
1375.474
21
612.8229
31
0.0
12
1383.474
22
612.8229
32
0.0
13
1383.4741
23
612.823
33
1.0E-4
0
3DFACE
8
0
10
1168.7642
20
560.0
30
0.0
11
1164.7642
21
567.0
31
0.0
12
1172.7642
22
567.0
32
0.0
13
1172.7643
23
567.0001
33
1.0E-4
0
LINE
8
0
10
1168.7642
20
560.0
30
0.0
11
1141.599
21
587.16516
31
0.0
0
LINE
8
0
10
1141.599
20
587.16516
30
0.0
11
1141.599
21
626.5522
31
0.0
0
LINE
8
0
10
1141.599
20
626.5522
30
0.0
11
1141.599
21
593.4478
31
0.0
0
LINE
8
0
10
1141.599
20
593.4478
30
0.0
11
1141.599
21
622.18915
31
0.0
0
LINE
8
0
10
1141.599
20
622.18915
30
0.0
11
1115.1501
21
648.638
31
0.0
0
3DFACE
8
0
10
1115.1501
20
620.4899
30
0.0
11
1111.1501
21
627.4899
31
0.0
12
1119.1501
22
627.4899
32
0.0
13
1119.1503
23
627.49005
33
1.0E-4
0
3DFACE
8
0
10
1502.6077
20
560.0
30
0.0
11
1498.6077
21
567.0
31
0.0
12
1506.6077
22
567.0
32
0.0
13
1506.6078
23
567.0001
33
1.0E-4
0
LINE
8
0
10
1502.6077
20
560.0
30
0.0
11
1471.1761
21
560.0
31
0.0
0
LINE
8
0
10
1471.1761
20
560.0
30
0.0
11
1431.7167
21
599.4594
31
0.0
0
LINE
8
0
10
1431.7167
20
599.4594
30
0.0
11
1408.7576
21
622.41846
31
0.0
0
LINE
8
0
10
1408.7576
20
622.41846
30
0.0
11
1381.5619
21
649.6142
31
0.0
0
LINE
8
0
10
1381.5619
20
649.6142
30
0.0
11
1358.2886
21
649.6142
31
0.0
0
3DFACE
8
0
10
1335.9677
20
671.9352
30
0.0
11
1331.9677
21
678.9352
31
0.0
12
1339.9677
22
678.9352
32
0.0
13
1339.9678
23
678.9353
33
1.0E-4
0
3DFACE
8
0
10
1810.3767
20
560.0
30
0.0
11
1806.3767
21
567.0
31
0.0
12
1814.3767
22
567.0
32
0.0
13
1814.3768
23
567.0001
33
1.0E-4
0
LINE
8
0
10
1810.3767
20
560.0
30
0.0
11
1788.733
21
581.6436
31
0.0
0
LINE
8
0
10
1788.733
20
581.6436
30
0.0
11
1788.733
21
602.2693
31
0.0
0
LINE
8
0
10
1788.733
20
602.2693
30
0.0
11
1757.5737
21
633.4286
31
0.0
0
LINE
8
0
10
1757.5737
20
633.4286
30
0.0
11
1723.6456
21
667.3567
31
0.0
0
LINE
8
0
10
1723.6456
20
667.3567
30
0.0
11
1696.3435
21
667.3567
31
0.0
0
3DFACE
8
0
10
1664.9678
20
698.7324
30
0.0
11
1660.9678
21
705.7324
31
0.0
12
1668.9678
22
705.7324
32
0.0
13
1668.9679
23
705.73254
33
1.0E-4
0
3DFACE
8
0
10
1697.6477
20
560.0
30
0.0
11
1693.6477
21
567.0
31
0.0
12
1701.6477
22
567.0
32
0.0
13
1701.6478
23
567.0001
33
1.0E-4
0
LINE
8
0
10
1697.6477
20
560.0
30
0.0
11
1659.0842
21
560.0
31
0.0
0
LINE
8
0
10
1659.0842
20
560.0
30
0.0
11
1626.8689
21
560.0
31
0.0
0
LINE
8
0
10
1626.8689
20
560.0
30
0.0
11
1626.8689
21
587.83685
31
0.0
0
LINE
8
0
10
1626.8689
20
587.83685
30
0.0
11
1594.749
21
555.71704
31
0.0
0
LINE
8
0
10
1594.749
20
555.71704
30
0.0
11
1560.1224
21
590.3436
31
0.0
0
3DFACE
8
0
10
1523.534
20
553.7553
30
0.0
11
1519.534
21
560.7553
31
0.0
12
1527.534
22
560.7553
32
0.0
13
1527.5342
23
560.75543
33
1.0E-4
0
3DFACE
8
0
10
1723.9777
20
560.0
30
0.0
11
1719.9777
21
567.0
31
0.0
12
1727.9777
22
567.0
32
0.0
13
1727.9778
23
567.0001
33
1.0E-4
0
LINE
8
0
10
1723.9777
20
560.0
30
0.0
11
1700.2734
21
536.2958
31
0.0
0
LINE
8
0
10
1700.2734
20
536.2958
30
0.0
11
1671.8096
21
507.83188
31
0.0
0
LINE
8
0
10
1671.8096
20
507.83188
30
0.0
11
1649.4169
21
530.2246
31
0.0
0
LINE
8
0
10
1649.4169
20
530.2246
30
0.0
11
1649.4169
21
569.02496
31
0.0
0
LINE
8
0
10
1649.4169
20
569.02496
30
0.0
11
1609.5852
21
569.02496
31
0.0
0
3DFACE
8
0
10
1587.7283
20
569.02496
30
0.0
11
1583.7283
21
576.02496
31
0.0
12
1591.7283
22
576.02496
32
0.0
13
1591.7284
23
576.0251
33
1.0E-4
0
3DFACE
8
0
10
1379.0746
20
560.0
30
0.0
11
1375.0746
21
567.0
31
0.0
12
1383.0746
22
567.0
32
0.0
13
1383.0747
23
567.0001
33
1.0E-4
0
LINE
8
0
10
1379.0746
20
560.0
30
0.0
11
1414.174
21
560.0
31
0.0
0
LINE
8
0
10
1414.174
20
560.0
30
0.0
11
1382.4905
21
528.3165
31
0.0
0
LINE
8
0
10
1382.4905
20
528.3165
30
0.0
11
1402.7782
21
528.3165
31
0.0
0
LINE
8
0
10
1402.7782
20
528.3165
30
0.0
11
1423.9844
21
528.3165
31
0.0
0
LINE
8
0
10
1423.9844
20
528.3165
30
0.0
11
1384.1025
21
528.3165
31
0.0
0
3DFACE
8
0
10
1416.0804
20
560.29443
30
0.0
11
1412.0804
21
567.29443
31
0.0
12
1420.0804
22
567.29443
32
0.0
13
1420.0806
23
567.29456
33
1.0E-4
0
3DFACE
8
0
10
1552.9933
20
560.0
30
0.0
11
1548.9933
21
567.0
31
0.0
12
1556.9933
22
567.0
32
0.0
13
1556.9934
23
567.0001
33
1.0E-4
0
LINE
8
0
10
1552.9933
20
560.0
30
0.0
11
1516.4529
21
560.0
31
0.0
0
LINE
8
0
10
1516.4529
20
560.0
30
0.0
11
1488.8584
21
587.5945
31
0.0
0
LINE
8
0
10
1488.8584
20
587.5945
30
0.0
11
1458.9703
21
557.7064
31
0.0
0
LINE
8
0
10
1458.9703
20
557.7064
30
0.0
11
1437.669
21
536.40497
31
0.0
0
LINE
8
0
10
1437.669
20
536.40497
30
0.0
11
1437.669
21
560.5521
31
0.0
0
3DFACE
8
0
10
1409.3151
20
560.5521
30
0.0
11
1405.3151
21
567.5521
31
0.0
12
1413.3151
22
567.5521
32
0.0
13
1413.3152
23
567.55225
33
1.0E-4
0
3DFACE
8
0
10
1602.4779
20
560.0
30
0.0
11
1598.4779
21
567.0
31
0.0
12
1606.4779
22
567.0
32
0.0
13
1606.478
23
567.0001
33
1.0E-4
0
LINE
8
0
10
1602.4779
20
560.0
30
0.0
11
1563.3517
21
599.1262
31
0.0
0
LINE
8
0
10
1563.3517
20
599.1262
30
0.0
11
1529.3278
21
599.1262
31
0.0
0
LINE
8
0
10
1529.3278
20
599.1262
30
0.0
11
1529.3278
21
626.6816
31
0.0
0
LINE
8
0
10
1529.3278
20
626.6816
30
0.0
11
1561.9948
21
659.3485
31
0.0
0
LINE
8
0
10
1561.9948
20
659.3485
30
0.0
11
1526.4613
21
659.3485
31
0.0
0
3DFACE
8
0
10
1556.7045
20
659.3485
30
0.0
11
1552.7045
21
666.3485
31
0.0
12
1560.7045
22
666.3485
32
0.0
13
1560.7046
23
666.34863
33
1.0E-4
0
3DFACE
8
0
10
1795.6978
20
560.0
30
0.0
11
1791.6978
21
567.0
31
0.0
12
1799.6978
22
567.0
32
0.0
13
1799.6979
23
567.0001
33
1.0E-4
0
LINE
8
0
10
1795.6978
20
560.0
30
0.0
11
1756.2417
21
560.0
31
0.0
0
LINE
8
0
10
1756.2417
20
560.0
30
0.0
11
1731.675
21
560.0
31
0.0
0
LINE
8
0
10
1731.675
20
560.0
30
0.0
11
1693.6444
21
521.9694
31
0.0
0
LINE
8
0
10
1693.6444
20
521.9694
30
0.0
11
1667.8563
21
547.7575
31
0.0
0
LINE
8
0
10
1667.8563
20
547.7575
30
0.0
11
1634.7188
21
580.895
31
0.0
0
3DFACE
8
0
10
1634.7188
20
607.3544
30
0.0
11
1630.7188
21
614.3544
31
0.0
12
1638.7188
22
614.3544
32
0.0
13
1638.7189
23
614.3545
33
1.0E-4
0
3DFACE
8
0
10
1631.1567
20
560.0
30
0.0
11
1627.1567
21
567.0
31
0.0
12
1635.1567
22
567.0
32
0.0
13
1635.1569
23
567.0001
33
1.0E-4
0
LINE
8
0
10
1631.1567
20
560.0
30
0.0
11
1605.6703
21
585.48645
31
0.0
0
LINE
8
0
10
1605.6703
20
585.48645
30
0.0
11
1605.6703
21
623.0494
31
0.0
0
LINE
8
0
10
1605.6703
20
623.0494
30
0.0
11
1605.6703
21
585.3147
31
0.0
0
LINE
8
0
10
1605.6703
20
585.3147
30
0.0
11
1571.6934
21
619.2916
31
0.0
0
LINE
8
0
10
1571.6934
20
619.2916
30
0.0
11
1548.3995
21
619.2916
31
0.0
0
3DFACE
8
0
10
1582.0964
20
652.9885
30
0.0
11
1578.0964
21
659.9885
31
0.0
12
1586.0964
22
659.9885
32
0.0
13
1586.0966
23
659.98865
33
1.0E-4
0
3DFACE
8
0
10
1711.3247
20
560.0
30
0.0
11
1707.3247
21
567.0
31
0.0
12
1715.3247
22
567.0
32
0.0
13
1715.3248
23
567.0001
33
1.0E-4
0
LINE
8
0
10
1711.3247
20
560.0
30
0.0
11
1711.3247
21
581.7996
31
0.0
0
LINE
8
0
10
1711.3247
20
581.7996
30
0.0
11
1690.1635
21
602.96094
31
0.0
0
LINE
8
0
10
1690.1635
20
602.96094
30
0.0
11
1690.1635
21
635.41565
31
0.0
0
LINE
8
0
10
1690.1635
20
635.41565
30
0.0
11
1720.7194
21
604.8598
31
0.0
0
LINE
8
0
10
1720.7194
20
604.8598
30
0.0
11
1695.8861
21
604.8598
31
0.0
0
3DFACE
8
0
10
1734.901
20
565.8449
30
0.0
11
1730.901
21
572.8449
31
0.0
12
1738.901
22
572.8449
32
0.0
13
1738.9011
23
572.84503
33
1.0E-4
0
3DFACE
8
0
10
1804.1462
20
560.0
30
0.0
11
1800.1462
21
567.0
31
0.0
12
1808.1462
22
567.0
32
0.0
13
1808.1464
23
567.0001
33
1.0E-4
0
LINE
8
0
10
1804.1462
20
560.0
30
0.0
11
1804.1462
21
581.1227
31
0.0
0
LINE
8
0
10
1804.1462
20
581.1227
30
0.0
11
1777.9188
21
607.3501
31
0.0
0
LINE
8
0
10
1777.9188
20
607.3501
30
0.0
11
1748.3308
21
607.3501
31
0.0
0
LINE
8
0
10
1748.3308
20
607.3501
30
0.0
11
1724.5046
21
583.524
31
0.0
0
LINE
8
0
10
1724.5046
20
583.524
30
0.0
11
1685.6432
21
583.524
31
0.0
0
3DFACE
8
0
10
1685.6432
20
608.08453
30
0.0
11
1681.6432
21
615.08453
31
0.0
12
1689.6432
22
615.08453
32
0.0
13
1689.6433
23
615.08466
33
1.0E-4
0
3DFACE
8
0
10
1676.3228
20
560.0
30
0.0
11
1672.3228
21
567.0
31
0.0
12
1680.3228
22
567.0
32
0.0
13
1680.3229
23
567.0001
33
1.0E-4
0
LINE
8
0
10
1676.3228
20
560.0
30
0.0
11
1676.3228
21
584.2529
31
0.0
0
LINE
8
0
10
1676.3228
20
584.2529
30
0.0
11
1715.3618
21
584.2529
31
0.0
0
LINE
8
0
10
1715.3618
20
584.2529
30
0.0
11
1684.0938
21
552.9848
31
0.0
0
LINE
8
0
10
1684.0938
20
552.9848
30
0.0
11
1717.6941
21
519.3845
31
0.0
0
LINE
8
0
10
1717.6941
20
519.3845
30
0.0
11
1717.6941
21
547.37537
31
0.0
0
3DFACE
8
0
10
1717.6941
20
569.0245
30
0.0
11
1713.6941
21
576.0245
31
0.0
12
1721.6941
22
576.0245
32
0.0
13
1721.6942
23
576.0246
33
1.0E-4
0
3DFACE
8
0
10
617.5178
20
760.0
30
0.0
11
613.5178
21
767.0
31
0.0
12
621.5178
22
767.0
32
0.0
13
621.51794
23
767.0001
33
1.0E-4
0
LINE
8
0
10
617.5178
20
760.0
30
0.0
11
581.2356
21
796.2822
31
0.0
0
LINE
8
0
10
581.2356
20
796.2822
30
0.0
11
552.0858
21
796.2822
31
0.0
0
LINE
8
0
10
552.0858
20
796.2822
30
0.0
11
552.0858
21
836.0808
31
0.0
0
LINE
8
0
10
552.0858
20
836.0808
30
0.0
11
521.6824
21
836.0808
31
0.0
0
LINE
8
0
10
521.6824
20
836.0808
30
0.0
11
493.75974
21
864.0035
31
0.0
0
LINE
8
0
10
493.75974
20
864.0035
30
0.0
11
461.24585
21
896.5174
31
0.0
0
3DFACE
8
0
10
461.24585
20
868.5225
30
0.0
11
457.24585
21
875.5225
31
0.0
12
465.24585
22
875.5225
32
0.0
13
465.24594
23
875.52264
33
1.0E-4
0
3DFACE
8
0
10
1251.4885
20
760.0
30
0.0
11
1247.4885
21
767.0
31
0.0
12
1255.4885
22
767.0
32
0.0
13
1255.4886
23
767.0001
33
1.0E-4
0
LINE
8
0
10
1251.4885
20
760.0
30
0.0
11
1226.3439
21
760.0
31
0.0
0
LINE
8
0
10
1226.3439
20
760.0
30
0.0
11
1198.6821
21
760.0
31
0.0
0
LINE
8
0
10
1198.6821
20
760.0
30
0.0
11
1162.5194
21
723.83734
31
0.0
0
LINE
8
0
10
1162.5194
20
723.83734
30
0.0
11
1123.367
21
684.68494
31
0.0
0
LINE
8
0
10
1123.367
20
684.68494
30
0.0
11
1091.0033
21
652.3212
31
0.0
0
LINE
8
0
10
1091.0033
20
652.3212
30
0.0
11
1054.9288
21
652.3212
31
0.0
0
3DFACE
8
0
10
1054.9288
20
673.81775
30
0.0
11
1050.9288
21
680.81775
31
0.0
12
1058.9288
22
680.81775
32
0.0
13
1058.929
23
680.8179
33
1.0E-4
0
3DFACE
8
0
10
412.45203
20
760.0
30
0.0
11
408.45203
21
767.0
31
0.0
12
416.45203
22
767.0
32
0.0
13
416.45212
23
767.0001
33
1.0E-4
0
LINE
8
0
10
412.45203
20
760.0
30
0.0
11
385.35007
21
760.0
31
0.0
0
LINE
8
0
10
385.35007
20
760.0
30
0.0
11
361.13782
21
760.0
31
0.0
0
LINE
8
0
10
361.13782
20
760.0
30
0.0
11
338.30197
21
782.8359
31
0.0
0
LINE
8
0
10
338.30197
20
782.8359
30
0.0
11
338.30197
21
810.11334
31
0.0
0
LINE
8
0
10
338.30197
20
810.11334
30
0.0
11
338.30197
21
783.5512
31
0.0
0
LINE
8
0
10
338.30197
20
783.5512
30
0.0
11
373.2759
21
748.5773
31
0.0
0
3DFACE
8
0
10
337.48676
20
748.5773
30
0.0
11
333.48676
21
755.5773
31
0.0
12
341.48676
22
755.5773
32
0.0
13
341.48685
23
755.5774
33
1.0E-4
0
3DFACE
8
0
10
882.8093
20
760.0
30
0.0
11
878.8093
21
767.0
31
0.0
12
886.8093
22
767.0
32
0.0
13
886.80945
23
767.0001
33
1.0E-4
0
LINE
8
0
10
882.8093
20
760.0
30
0.0
11
882.8093
21
796.70715
31
0.0
0
LINE
8
0
10
882.8093
20
796.70715
30
0.0
11
882.8093
21
820.57214
31
0.0
0
LINE
8
0
10
882.8093
20
820.57214
30
0.0
11
882.8093
21
786.39056
31
0.0
0
LINE
8
0
10
882.8093
20
786.39056
30
0.0
11
842.9739
21
786.39056
31
0.0
0
LINE
8
0
10
842.9739
20
786.39056
30
0.0
11
806.9428
21
822.42163
31
0.0
0
LINE
8
0
10
806.9428
20
822.42163
30
0.0
11
772.759
21
856.60547
31
0.0
0
3DFACE
8
0
10
738.10864
20
821.95514
30
0.0
11
734.10864
21
828.95514
31
0.0
12
742.10864
22
828.95514
32
0.0
13
742.10876
23
828.95526
33
1.0E-4
0
3DFACE
8
0
10
568.5823
20
760.0
30
0.0
11
564.5823
21
767.0
31
0.0
12
572.5823
22
767.0
32
0.0
13
572.5824
23
767.0001
33
1.0E-4
0
LINE
8
0
10
568.5823
20
760.0
30
0.0
11
542.0122
21
733.42993
31
0.0
0
LINE
8
0
10
542.0122
20
733.42993
30
0.0
11
509.3133
21
700.731
31
0.0
0
LINE
8
0
10
509.3133
20
700.731
30
0.0
11
487.68942
21
722.3549
31
0.0
0
LINE
8
0
10
487.68942
20
722.3549
30
0.0
11
487.68942
21
749.15924
31
0.0
0
LINE
8
0
10
487.68942
20
749.15924
30
0.0
11
521.57855
21
715.27014
31
0.0
0
LINE
8
0
10
521.57855
20
715.27014
30
0.0
11
492.3659
21
744.4828
31
0.0
0
3DFACE
8
0
10
492.3659
20
770.46564
30
0.0
11
488.3659
21
777.46564
31
0.0
12
496.3659
22
777.46564
32
0.0
13
496.366
23
777.46576
33
1.0E-4
0
3DFACE
8
0
10
461.90457
20
760.0
30
0.0
11
457.90457
21
767.0
31
0.0
12
465.90457
22
767.0
32
0.0
13
465.90466
23
767.0001
33
1.0E-4
0
LINE
8
0
10
461.90457
20
760.0
30
0.0
11
484.4426
21
760.0
31
0.0
0
LINE
8
0
10
484.4426
20
760.0
30
0.0
11
484.4426
21
786.9516
31
0.0
0
LINE
8
0
10
484.4426
20
786.9516
30
0.0
11
511.74576
21
759.64844
31
0.0
0
LINE
8
0
10
511.74576
20
759.64844
30
0.0
11
471.92758
21
759.64844
31
0.0
0
LINE
8
0
10
471.92758
20
759.64844
30
0.0
11
510.44382
21
759.64844
31
0.0
0
LINE
8
0
10
510.44382
20
759.64844
30
0.0
11
510.44382
21
783.45337
31
0.0
0
3DFACE
8
0
10
487.45178
20
806.44543
30
0.0
11
483.45178
21
813.44543
31
0.0
12
491.45178
22
813.44543
32
0.0
13
491.45187
23
813.44556
33
1.0E-4
0
3DFACE
8
0
10
714.7405
20
760.0
30
0.0
11
710.7405
21
767.0
31
0.0
12
718.7405
22
767.0
32
0.0
13
718.7406
23
767.0001
33
1.0E-4
0
LINE
8
0
10
714.7405
20
760.0
30
0.0
11
686.70013
21
731.95966
31
0.0
0
LINE
8
0
10
686.70013
20
731.95966
30
0.0
11
650.5347
21
768.12506
31
0.0
0
LINE
8
0
10
650.5347
20
768.12506
30
0.0
11
675.5083
21
793.09863
31
0.0
0
LINE
8
0
10
675.5083
20
793.09863
30
0.0
11
675.5083
21
827.785
31
0.0
0
LINE
8
0
10
675.5083
20
827.785
30
0.0
11
637.21484
21
789.4915
31
0.0
0
LINE
8
0
10
637.21484
20
789.4915
30
0.0
11
637.21484
21
810.21185
31
0.0
0
3DFACE
8
0
10
674.5654
20
772.86127
30
0.0
11
670.5654
21
779.86127
31
0.0
12
678.5654
22
779.86127
32
0.0
13
678.56555
23
779.8614
33
1.0E-4
0
3DFACE
8
0
10
937.74133
20
760.0
30
0.0
11
933.74133
21
767.0
31
0.0
12
941.74133
22
767.0
32
0.0
13
941.74146
23
767.0001
33
1.0E-4
0
LINE
8
0
10
937.74133
20
760.0
30
0.0
11
937.74133
21
797.5225
31
0.0
0
LINE
8
0
10
937.74133
20
797.5225
30
0.0
11
908.2093
21
767.9905
31
0.0
0
LINE
8
0
10
908.2093
20
767.9905
30
0.0
11
870.856
21
767.9905
31
0.0
0
LINE
8
0
10
870.856
20
767.9905
30
0.0
11
870.856
21
794.31665
31
0.0
0
LINE
8
0
10
870.856
20
794.31665
30
0.0
11
837.11725
21
828.0554
31
0.0
0
LINE
8
0
10
837.11725
20
828.0554
30
0.0
11
799.8684
21
790.8066
31
0.0
0
3DFACE
8
0
10
779.1893
20
790.8066
30
0.0
11
775.1893
21
797.8066
31
0.0
12
783.1893
22
797.8066
32
0.0
13
783.1894
23
797.8067
33
1.0E-4
0
3DFACE
8
0
10
1622.7063
20
760.0
30
0.0
11
1618.7063
21
767.0
31
0.0
12
1626.7063
22
767.0
32
0.0
13
1626.7064
23
767.0001
33
1.0E-4
0
LINE
8
0
10
1622.7063
20
760.0
30
0.0
11
1595.897
21
760.0
31
0.0
0
LINE
8
0
10
1595.897
20
760.0
30
0.0
11
1561.4385
21
794.4585
31
0.0
0
LINE
8
0
10
1561.4385
20
794.4585
30
0.0
11
1535.1099
21
768.12994
31
0.0
0
LINE
8
0
10
1535.1099
20
768.12994
30
0.0
11
1501.2473
21
801.99255
31
0.0
0
LINE
8
0
10
1501.2473
20
801.99255
30
0.0
11
1470.9174
21
771.6626
31
0.0
0
LINE
8
0
10
1470.9174
20
771.6626
30
0.0
11
1470.9174
21
799.9612
31
0.0
0
3DFACE
8
0
10
1438.3368
20
799.9612
30
0.0
11
1434.3368
21
806.9612
31
0.0
12
1442.3368
22
806.9612
32
0.0
13
1442.3369
23
806.9613
33
1.0E-4
0
3DFACE
8
0
10
1366.6287
20
760.0
30
0.0
11
1362.6287
21
767.0
31
0.0
12
1370.6287
22
767.0
32
0.0
13
1370.6288
23
767.0001
33
1.0E-4
0
LINE
8
0
10
1366.6287
20
760.0
30
0.0
11
1326.7676
21
760.0
31
0.0
0
LINE
8
0
10
1326.7676
20
760.0
30
0.0
11
1292.4276
21
794.3399
31
0.0
0
LINE
8
0
10
1292.4276
20
794.3399
30
0.0
11
1292.4276
21
833.82446
31
0.0
0
LINE
8
0
10
1292.4276
20
833.82446
30
0.0
11
1292.4276
21
799.57355
31
0.0
0
LINE
8
0
10
1292.4276
20
799.57355
30
0.0
11
1267.8876
21
775.0335
31
0.0
0
LINE
8
0
10
1267.8876
20
775.0335
30
0.0
11
1246.8806
21
775.0335
31
0.0
0
3DFACE
8
0
10
1209.9476
20
811.9665
30
0.0
11
1205.9476
21
818.9665
31
0.0
12
1213.9476
22
818.9665
32
0.0
13
1213.9478
23
818.9666
33
1.0E-4
0
3DFACE
8
0
10
1547.8423
20
760.0
30
0.0
11
1543.8423
21
767.0
31
0.0
12
1551.8423
22
767.0
32
0.0
13
1551.8424
23
767.0001
33
1.0E-4
0
LINE
8
0
10
1547.8423
20
760.0
30
0.0
11
1522.2887
21
760.0
31
0.0
0
LINE
8
0
10
1522.2887
20
760.0
30
0.0
11
1499.1902
21
736.9014
31
0.0
0
LINE
8
0
10
1499.1902
20
736.9014
30
0.0
11
1468.3777
21
706.0889
31
0.0
0
LINE
8
0
10
1468.3777
20
706.0889
30
0.0
11
1436.8671
21
674.5783
31
0.0
0
LINE
8
0
10
1436.8671
20
674.5783
30
0.0
11
1398.6439
21
674.5783
31
0.0
0
LINE
8
0
10
1398.6439
20
674.5783
30
0.0
11
1398.6439
21
707.1852
31
0.0
0
3DFACE
8
0
10
1367.7462
20
738.0829
30
0.0
11
1363.7462
21
745.0829
31
0.0
12
1371.7462
22
745.0829
32
0.0
13
1371.7463
23
745.083
33
1.0E-4
0
3DFACE
8
0
10
1326.3254
20
760.0
30
0.0
11
1322.3254
21
767.0
31
0.0
12
1330.3254
22
767.0
32
0.0
13
1330.3256
23
767.0001
33
1.0E-4
0
LINE
8
0
10
1326.3254
20
760.0
30
0.0
11
1326.3254
21
792.1948
31
0.0
0
LINE
8
0
10
1326.3254
20
792.1948
30
0.0
11
1296.659
21
821.8612
31
0.0
0
LINE
8
0
10
1296.659
20
821.8612
30
0.0
11
1296.659
21
788.7027
31
0.0
0
LINE
8
0
10
1296.659
20
788.7027
30
0.0
11
1296.659
21
815.57605
31
0.0
0
LINE
8
0
10
1296.659
20
815.57605
30
0.0
11
1257.0803
21
815.57605
31
0.0
0
LINE
8
0
10
1257.0803
20
815.57605
30
0.0
11
1257.0803
21
794.54266
31
0.0
0
3DFACE
8
0
10
1224.0651
20
761.52747
30
0.0
11
1220.0651
21
768.52747
31
0.0
12
1228.0651
22
768.52747
32
0.0
13
1228.0652
23
768.5276
33
1.0E-4
0
3DFACE
8
0
10
1772.6873
20
760.0
30
0.0
11
1768.6873
21
767.0
31
0.0
12
1776.6873
22
767.0
32
0.0
13
1776.6874
23
767.0001
33
1.0E-4
0
LINE
8
0
10
1772.6873
20
760.0
30
0.0
11
1772.6873
21
795.7124
31
0.0
0
LINE
8
0
10
1772.6873
20
795.7124
30
0.0
11
1772.6873
21
829.78217
31
0.0
0
LINE
8
0
10
1772.6873
20
829.78217
30
0.0
11
1739.8511
21
829.78217
31
0.0
0
LINE
8
0
10
1739.8511
20
829.78217
30
0.0
11
1739.8511
21
808.5195
31
0.0
0
LINE
8
0
10
1739.8511
20
808.5195
30
0.0
11
1703.6176
21
844.753
31
0.0
0
LINE
8
0
10
1703.6176
20
844.753
30
0.0
11
1703.6176
21
818.70074
31
0.0
0
3DFACE
8
0
10
1674.8458
20
789.9291
30
0.0
11
1670.8458
21
796.9291
31
0.0
12
1678.8458
22
796.9291
32
0.0
13
1678.846
23
796.9292
33
1.0E-4
0
3DFACE
8
0
10
1199.7079
20
760.0
30
0.0
11
1195.7079
21
767.0
31
0.0
12
1203.7079
22
767.0
32
0.0
13
1203.708
23
767.0001
33
1.0E-4
0
LINE
8
0
10
1199.7079
20
760.0
30
0.0
11
1166.636
21
760.0
31
0.0
0
LINE
8
0
10
1166.636
20
760.0
30
0.0
11
1141.2653
21
785.37067
31
0.0
0
LINE
8
0
10
1141.2653
20
785.37067
30
0.0
11
1141.2653
21
815.25354
31
0.0
0
LINE
8
0
10
1141.2653
20
815.25354
30
0.0
11
1113.0151
21
787.0035
31
0.0
0
LINE
8
0
10
1113.0151
20
787.0035
30
0.0
11
1077.5605
21
822.45807
31
0.0
0
LINE
8
0
10
1077.5605
20
822.45807
30
0.0
11
1077.5605
21
784.654
31
0.0
0
3DFACE
8
0
10
1051.7701
20
784.654
30
0.0
11
1047.7701
21
791.654
31
0.0
12
1055.7701
22
791.654
32
0.0
13
1055.7703
23
791.6541
33
1.0E-4
0
3DFACE
8
0
10
1468.4272
20
760.0
30
0.0
11
1464.4272
21
767.0
31
0.0
12
1472.4272
22
767.0
32
0.0
13
1472.4274
23
767.0001
33
1.0E-4
0
LINE
8
0
10
1468.4272
20
760.0
30
0.0
11
1447.2743
21
738.84705
31
0.0
0
LINE
8
0
10
1447.2743
20
738.84705
30
0.0
11
1447.2743
21
767.0791
31
0.0
0
LINE
8
0
10
1447.2743
20
767.0791
30
0.0
11
1424.9869
21
789.3664
31
0.0
0
LINE
8
0
10
1424.9869
20
789.3664
30
0.0
11
1397.1466
21
789.3664
31
0.0
0
LINE
8
0
10
1397.1466
20
789.3664
30
0.0
11
1375.9353
21
810.57776
31
0.0
0
LINE
8
0
10
1375.9353
20
810.57776
30
0.0
11
1338.3369
21
772.97943
31
0.0
0
3DFACE
8
0
10
1304.25
20
772.97943
30
0.0
11
1300.25
21
779.97943
31
0.0
12
1308.25
22
779.97943
32
0.0
13
1308.2501
23
779.97955
33
1.0E-4
0
3DFACE
8
0
10
1212.861
20
760.0
30
0.0
11
1208.861
21
767.0
31
0.0
12
1216.861
22
767.0
32
0.0
13
1216.8611
23
767.0001
33
1.0E-4
0
LINE
8
0
10
1212.861
20
760.0
30
0.0
11
1212.861
21
784.872
31
0.0
0
LINE
8
0
10
1212.861
20
784.872
30
0.0
11
1212.861
21
806.0048
31
0.0
0
LINE
8
0
10
1212.861
20
806.0048
30
0.0
11
1186.9686
21
806.0048
31
0.0
0
LINE
8
0
10
1186.9686
20
806.0048
30
0.0
11
1186.9686
21
779.6374
31
0.0
0
LINE
8
0
10
1186.9686
20
779.6374
30
0.0
11
1165.294
21
779.6374
31
0.0
0
LINE
8
0
10
1165.294
20
779.6374
30
0.0
11
1126.36
21
740.7034
31
0.0
0
3DFACE
8
0
10
1089.084
20
777.9795
30
0.0
11
1085.084
21
784.9795
31
0.0
12
1093.084
22
784.9795
32
0.0
13
1093.0841
23
784.9796
33
1.0E-4
0
3DFACE
8
0
10
1420.451
20
760.0
30
0.0
11
1416.451
21
767.0
31
0.0
12
1424.451
22
767.0
32
0.0
13
1424.4512
23
767.0001
33
1.0E-4
0
LINE
8
0
10
1420.451
20
760.0
30
0.0
11
1420.451
21
792.4344
31
0.0
0
LINE
8
0
10
1420.451
20
792.4344
30
0.0
11
1420.451
21
819.7951
31
0.0
0
LINE
8
0
10
1420.451
20
819.7951
30
0.0
11
1420.451
21
785.5577
31
0.0
0
LINE
8
0
10
1420.451
20
785.5577
30
0.0
11
1380.6957
21
785.5577
31
0.0
0
LINE
8
0
10
1380.6957
20
785.5577
30
0.0
11
1340.9188
21
745.7808
31
0.0
0
LINE
8
0
10
1340.9188
20
745.7808
30
0.0
11
1317.517
21
769.1827
31
0.0
0
3DFACE
8
0
10
1296.5009
20
790.1988
30
0.0
11
1292.5009
21
797.1988
31
0.0
12
1300.5009
22
797.1988
32
0.0
13
1300.501
23
797.1989
33
1.0E-4
0
3DFACE
8
0
10
1820.438
20
760.0
30
0.0
11
1816.438
21
767.0
31
0.0
12
1824.438
22
767.0
32
0.0
13
1824.4381
23
767.0001
33
1.0E-4
0
LINE
8
0
10
1820.438
20
760.0
30
0.0
11
1820.438
21
797.35516
31
0.0
0
LINE
8
0
10
1820.438
20
797.35516
30
0.0
11
1799.8472
21
797.35516
31
0.0
0
LINE
8
0
10
1799.8472
20
797.35516
30
0.0
11
1799.8472
21
824.91113
31
0.0
0
LINE
8
0
10
1799.8472
20
824.91113
30
0.0
11
1762.0352
21
862.72314
31
0.0
0
LINE
8
0
10
1762.0352
20
862.72314
30
0.0
11
1762.0352
21
822.88855
31
0.0
0
LINE
8
0
10
1762.0352
20
822.88855
30
0.0
11
1729.1305
21
789.9839
31
0.0
0
3DFACE
8
0
10
1702.203
20
763.05646
30
0.0
11
1698.203
21
770.05646
31
0.0
12
1706.203
22
770.05646
32
0.0
13
1706.2031
23
770.0566
33
1.0E-4
0
3DFACE
8
0
10
1453.3857
20
760.0
30
0.0
11
1449.3857
21
767.0
31
0.0
12
1457.3857
22
767.0
32
0.0
13
1457.3859
23
767.0001
33
1.0E-4
0
LINE
8
0
10
1453.3857
20
760.0
30
0.0
11
1414.8112
21
798.5746
31
0.0
0
LINE
8
0
10
1414.8112
20
798.5746
30
0.0
11
1390.518
21
822.86774
31
0.0
0
LINE
8
0
10
1390.518
20
822.86774
30
0.0
11
1370.115
21
822.86774
31
0.0
0
LINE
8
0
10
1370.115
20
822.86774
30
0.0
11
1339.1554
21
791.90814
31
0.0
0
LINE
8
0
10
1339.1554
20
791.90814
30
0.0
11
1300.154
21
830.90955
31
0.0
0
LINE
8
0
10
1300.154
20
830.90955
30
0.0
11
1274.0312
21
857.03235
31
0.0
0
3DFACE
8
0
10
1239.1449
20
857.03235
30
0.0
11
1235.1449
21
864.03235
31
0.0
12
1243.1449
22
864.03235
32
0.0
13
1243.145
23
864.0325
33
1.0E-4
0
3DFACE
8
0
10
1342.6427
20
760.0
30
0.0
11
1338.6427
21
767.0
31
0.0
12
1346.6427
22
767.0
32
0.0
13
1346.6428
23
767.0001
33
1.0E-4
0
LINE
8
0
10
1342.6427
20
760.0
30
0.0
11
1342.6427
21
781.4457
31
0.0
0
LINE
8
0
10
1342.6427
20
781.4457
30
0.0
11
1307.8607
21
746.66364
31
0.0
0
LINE
8
0
10
1307.8607
20
746.66364
30
0.0
11
1280.6897
21
773.8346
31
0.0
0
LINE
8
0
10
1280.6897
20
773.8346
30
0.0
11
1251.0605
21
744.20544
31
0.0
0
LINE
8
0
10
1251.0605
20
744.20544
30
0.0
11
1274.2878
21
767.43274
31
0.0
0
LINE
8
0
10
1274.2878
20
767.43274
30
0.0
11
1274.2878
21
799.60645
31
0.0
0
3DFACE
8
0
10
1240.4895
20
799.60645
30
0.0
11
1236.4895
21
806.60645
31
0.0
12
1244.4895
22
806.60645
32
0.0
13
1244.4896
23
806.60657
33
1.0E-4
0
3DFACE
8
0
10
1571.6108
20
760.0
30
0.0
11
1567.6108
21
767.0
31
0.0
12
1575.6108
22
767.0
32
0.0
13
1575.611
23
767.0001
33
1.0E-4
0
LINE
8
0
10
1571.6108
20
760.0
30
0.0
11
1571.6108
21
784.4716
31
0.0
0
LINE
8
0
10
1571.6108
20
784.4716
30
0.0
11
1547.6038
21
808.4787
31
0.0
0
LINE
8
0
10
1547.6038
20
808.4787
30
0.0
11
1516.9869
21
839.0955
31
0.0
0
LINE
8
0
10
1516.9869
20
839.0955
30
0.0
11
1496.56
21
818.66864
31
0.0
0
LINE
8
0
10
1496.56
20
818.66864
30
0.0
11
1469.8376
21
845.39105
31
0.0
0
LINE
8
0
10
1469.8376
20
845.39105
30
0.0
11
1444.8359
21
870.39276
31
0.0
0
3DFACE
8
0
10
1444.8359
20
832.7269
30
0.0
11
1440.8359
21
839.7269
31
0.0
12
1448.8359
22
839.7269
32
0.0
13
1448.836
23
839.72705
33
1.0E-4
0
3DFACE
8
0
10
1361.4294
20
760.0
30
0.0
11
1357.4294
21
767.0
31
0.0
12
1365.4294
22
767.0
32
0.0
13
1365.4296
23
767.0001
33
1.0E-4
0
LINE
8
0
10
1361.4294
20
760.0
30
0.0
11
1393.5343
21
727.89514
31
0.0
0
LINE
8
0
10
1393.5343
20
727.89514
30
0.0
11
1424.6917
21
696.73785
31
0.0
0
LINE
8
0
10
1424.6917
20
696.73785
30
0.0
11
1424.6917
21
736.574
31
0.0
0
LINE
8
0
10
1424.6917
20
736.574
30
0.0
11
1398.4758
21
762.7898
31
0.0
0
LINE
8
0
10
1398.4758
20
762.7898
30
0.0
11
1425.9302
21
735.3355
31
0.0
0
LINE
8
0
10
1425.9302
20
735.3355
30
0.0
11
1399.8104
21
761.4553
31
0.0
0
3DFACE
8
0
10
1435.0105
20
726.2552
30
0.0
11
1431.0105
21
733.2552
31
0.0
12
1439.0105
22
733.2552
32
0.0
13
1439.0106
23
733.2553
33
1.0E-4
0
3DFACE
8
0
10
1551.8599
20
760.0
30
0.0
11
1547.8599
21
767.0
31
0.0
12
1555.8599
22
767.0
32
0.0
13
1555.86
23
767.0001
33
1.0E-4
0
LINE
8
0
10
1551.8599
20
760.0
30
0.0
11
1551.8599
21
793.41565
31
0.0
0
LINE
8
0
10
1551.8599
20
793.41565
30
0.0
11
1518.6498
21
760.20557
31
0.0
0
LINE
8
0
10
1518.6498
20
760.20557
30
0.0
11
1518.6498
21
794.0607
31
0.0
0
LINE
8
0
10
1518.6498
20
794.0607
30
0.0
11
1489.2914
21
794.0607
31
0.0
0
LINE
8
0
10
1489.2914
20
794.0607
30
0.0
11
1449.8131
21
754.5825
31
0.0
0
LINE
8
0
10
1449.8131
20
754.5825
30
0.0
11
1420.8987
21
754.5825
31
0.0
0
3DFACE
8
0
10
1420.8987
20
782.3957
30
0.0
11
1416.8987
21
789.3957
31
0.0
12
1424.8987
22
789.3957
32
0.0
13
1424.8988
23
789.3958
33
1.0E-4
0
3DFACE
8
0
10
1803.2126
20
760.0
30
0.0
11
1799.2126
21
767.0
31
0.0
12
1807.2126
22
767.0
32
0.0
13
1807.2128
23
767.0001
33
1.0E-4
0
LINE
8
0
10
1803.2126
20
760.0
30
0.0
11
1803.2126
21
790.55145
31
0.0
0
LINE
8
0
10
1803.2126
20
790.55145
30
0.0
11
1769.9552
21
790.55145
31
0.0
0
LINE
8
0
10
1769.9552
20
790.55145
30
0.0
11
1736.5854
21
790.55145
31
0.0
0
LINE
8
0
10
1736.5854
20
790.55145
30
0.0
11
1716.4728
21
790.55145
31
0.0
0
LINE
8
0
10
1716.4728
20
790.55145
30
0.0
11
1716.4728
21
826.2284
31
0.0
0
LINE
8
0
10
1716.4728
20
826.2284
30
0.0
11
1716.4728
21
803.3497
31
0.0
0
3DFACE
8
0
10
1716.4728
20
834.00354
30
0.0
11
1712.4728
21
841.00354
31
0.0
12
1720.4728
22
841.00354
32
0.0
13
1720.4729
23
841.00366
33
1.0E-4
0
3DFACE
8
0
10
1829.8098
20
760.0
30
0.0
11
1825.8098
21
767.0
31
0.0
12
1833.8098
22
767.0
32
0.0
13
1833.8099
23
767.0001
33
1.0E-4
0
LINE
8
0
10
1829.8098
20
760.0
30
0.0
11
1808.4275
21
760.0
31
0.0
0
LINE
8
0
10
1808.4275
20
760.0
30
0.0
11
1768.7704
21
799.65717
31
0.0
0
LINE
8
0
10
1768.7704
20
799.65717
30
0.0
11
1746.3439
21
799.65717
31
0.0
0
LINE
8
0
10
1746.3439
20
799.65717
30
0.0
11
1726.1072
21
799.65717
31
0.0
0
LINE
8
0
10
1726.1072
20
799.65717
30
0.0
11
1694.1833
21
831.581
31
0.0
0
LINE
8
0
10
1694.1833
20
831.581
30
0.0
11
1668.9501
21
831.581
31
0.0
0
3DFACE
8
0
10
1648.1799
20
852.3512
30
0.0
11
1644.1799
21
859.3512
31
0.0
12
1652.1799
22
859.3512
32
0.0
13
1652.18
23
859.3513
33
1.0E-4
0
3DFACE
8
0
10
1643.6018
20
760.0
30
0.0
11
1639.6018
21
767.0
31
0.0
12
1647.6018
22
767.0
32
0.0
13
1647.6019
23
767.0001
33
1.0E-4
0
LINE
8
0
10
1643.6018
20
760.0
30
0.0
11
1610.4269
21
726.8251
31
0.0
0
LINE
8
0
10
1610.4269
20
726.8251
30
0.0
11
1585.5315
21
751.7205
31
0.0
0
LINE
8
0
10
1585.5315
20
751.7205
30
0.0
11
1550.9673
21
717.1564
31
0.0
0
LINE
8
0
10
1550.9673
20
717.1564
30
0.0
11
1590.2078
21
717.1564
31
0.0
0
LINE
8
0
10
1590.2078
20
717.1564
30
0.0
11
1590.2078
21
755.8612
31
0.0
0
LINE
8
0
10
1590.2078
20
755.8612
30
0.0
11
1551.8798
21
755.8612
31
0.0
0
3DFACE
8
0
10
1551.8798
20
786.1989
30
0.0
11
1547.8798
21
793.1989
31
0.0
12
1555.8798
22
793.1989
32
0.0
13
1555.8799
23
793.19904
33
1.0E-4
0
3DFACE
8
0
10
1547.3416
20
760.0
30
0.0
11
1543.3416
21
767.0
31
0.0
12
1551.3416
22
767.0
32
0.0
13
1551.3417
23
767.0001
33
1.0E-4
0
LINE
8
0
10
1547.3416
20
760.0
30
0.0
11
1579.3743
21
727.96735
31
0.0
0
LINE
8
0
10
1579.3743
20
727.96735
30
0.0
11
1579.3743
21
751.83746
31
0.0
0
LINE
8
0
10
1579.3743
20
751.83746
30
0.0
11
1544.3207
21
716.7839
31
0.0
0
LINE
8
0
10
1544.3207
20
716.7839
30
0.0
11
1544.3207
21
747.76074
31
0.0
0
LINE
8
0
10
1544.3207
20
747.76074
30
0.0
11
1567.575
21
724.50653
31
0.0
0
LINE
8
0
10
1567.575
20
724.50653
30
0.0
11
1567.575
21
746.50073
31
0.0
0
3DFACE
8
0
10
1567.575
20
780.76215
30
0.0
11
1563.575
21
787.76215
31
0.0
12
1571.575
22
787.76215
32
0.0
13
1571.5751
23
787.76227
33
1.0E-4
0
3DFACE
8
0
10
1843.3057
20
760.0
30
0.0
11
1839.3057
21
767.0
31
0.0
12
1847.3057
22
767.0
32
0.0
13
1847.3058
23
767.0001
33
1.0E-4
0
LINE
8
0
10
1843.3057
20
760.0
30
0.0
11
1803.4224
21
760.0
31
0.0
0
LINE
8
0
10
1803.4224
20
760.0
30
0.0
11
1767.9303
21
724.50793
31
0.0
0
LINE
8
0
10
1767.9303
20
724.50793
30
0.0
11
1767.9303
21
759.38904
31
0.0
0
LINE
8
0
10
1767.9303
20
759.38904
30
0.0
11
1732.4156
21
794.9037
31
0.0
0
LINE
8
0
10
1732.4156
20
794.9037
30
0.0
11
1704.4232
21
822.8962
31
0.0
0
LINE
8
0
10
1704.4232
20
822.8962
30
0.0
11
1704.4232
21
791.4385
31
0.0
0
3DFACE
8
0
10
1737.4827
20
758.37897
30
0.0
11
1733.4827
21
765.37897
31
0.0
12
1741.4827
22
765.37897
32
0.0
13
1741.4828
23
765.3791
33
1.0E-4
0
3DFACE
8
0
10
1862.6484
20
760.0
30
0.0
11
1858.6484
21
767.0
31
0.0
12
1866.6484
22
767.0
32
0.0
13
1866.6486
23
767.0001
33
1.0E-4
0
LINE
8
0
10
1862.6484
20
760.0
30
0.0
11
1832.3257
21
729.67725
31
0.0
0
LINE
8
0
10
1832.3257
20
729.67725
30
0.0
11
1832.3257
21
768.069
31
0.0
0
LINE
8
0
10
1832.3257
20
768.069
30
0.0
11
1832.3257
21
790.4133
31
0.0
0
LINE
8
0
10
1832.3257
20
790.4133
30
0.0
11
1793.6781
21
790.4133
31
0.0
0
LINE
8
0
10
1793.6781
20
790.4133
30
0.0
11
1773.1531
21
790.4133
31
0.0
0
LINE
8
0
10
1773.1531
20
790.4133
30
0.0
11
1773.1531
21
819.4072
31
0.0
0
3DFACE
8
0
10
1739.8202
20
852.74005
30
0.0
11
1735.8202
21
859.74005
31
0.0
12
1743.8202
22
859.74005
32
0.0
13
1743.8203
23
859.7402
33
1.0E-4
0
3DFACE
8
0
10
1898.0752
20
760.0
30
0.0
11
1894.0752
21
767.0
31
0.0
12
1902.0752
22
767.0
32
0.0
13
1902.0753
23
767.0001
33
1.0E-4
0
LINE
8
0
10
1898.0752
20
760.0
30
0.0
11
1864.4539
21
793.6213
31
0.0
0
LINE
8
0
10
1864.4539
20
793.6213
30
0.0
11
1864.4539
21
821.7071
31
0.0
0
LINE
8
0
10
1864.4539
20
821.7071
30
0.0
11
1842.9568
21
821.7071
31
0.0
0
LINE
8
0
10
1842.9568
20
821.7071
30
0.0
11
1842.9568
21
798.36804
31
0.0
0
LINE
8
0
10
1842.9568
20
798.36804
30
0.0
11
1810.8341
21
766.2454
31
0.0
0
LINE
8
0
10
1810.8341
20
766.2454
30
0.0
11
1774.5846
21
729.9959
31
0.0
0
3DFACE
8
0
10
1751.5311
20
753.04944
30
0.0
11
1747.5311
21
760.04944
31
0.0
12
1755.5311
22
760.04944
32
0.0
13
1755.5312
23
760.04956
33
1.0E-4
0
3DFACE
8
0
10
903.7009
20
960.0
30
0.0
11
899.7009
21
967.0
31
0.0
12
907.7009
22
967.0
32
0.0
13
907.70105
23
967.0001
33
1.0E-4
0
LINE
8
0
10
903.7009
20
960.0
30
0.0
11
871.628
21
992.07294
31
0.0
0
LINE
8
0
10
871.628
20
992.07294
30
0.0
11
833.5845
21
1030.1165
31
0.0
0
LINE
8
0
10
833.5845
20
1030.1165
30
0.0
11
812.68854
21
1051.0123
31
0.0
0
LINE
8
0
10
812.68854
20
1051.0123
30
0.0
11
784.6734
21
1022.9972
31
0.0
0
LINE
8
0
10
784.6734
20
1022.9972
30
0.0
11
784.6734
21
997.9285
31
0.0
0
LINE
8
0
10
784.6734
20
997.9285
30
0.0
11
751.1405
21
964.3956
31
0.0
0
LINE
8
0
10
751.1405
20
964.3956
30
0.0
11
725.0735
21
938.3286
31
0.0
0
3DFACE
8
0
10
694.69525
20
907.9504
30
0.0
11
690.69525
21
914.9504
31
0.0
12
698.69525
22
914.9504
32
0.0
13
698.6954
23
914.9505
33
1.0E-4
0
3DFACE
8
0
10
1320.6101
20
960.0
30
0.0
11
1316.6101
21
967.0
31
0.0
12
1324.6101
22
967.0
32
0.0
13
1324.6102
23
967.0001
33
1.0E-4
0
LINE
8
0
10
1320.6101
20
960.0
30
0.0
11
1320.6101
21
981.3674
31
0.0
0
LINE
8
0
10
1320.6101
20
981.3674
30
0.0
11
1286.8008
21
947.55804
31
0.0
0
LINE
8
0
10
1286.8008
20
947.55804
30
0.0
11
1256.3484
21
947.55804
31
0.0
0
LINE
8
0
10
1256.3484
20
947.55804
30
0.0
11
1217.9271
21
947.55804
31
0.0
0
LINE
8
0
10
1217.9271
20
947.55804
30
0.0
11
1183.4517
21
982.0335
31
0.0
0
LINE
8
0
10
1183.4517
20
982.0335
30
0.0
11
1152.8105
21
1012.6747
31
0.0
0
LINE
8
0
10
1152.8105
20
1012.6747
30
0.0
11
1115.0493
21
1050.4359
31
0.0
0
3DFACE
8
0
10
1092.321
20
1073.1642
30
0.0
11
1088.321
21
1080.1642
31
0.0
12
1096.321
22
1080.1642
32
0.0
13
1096.3212
23
1080.1643
33
1.0E-4
0
3DFACE
8
0
10
656.7593
20
960.0
30
0.0
11
652.7593
21
967.0
31
0.0
12
660.7593
22
967.0
32
0.0
13
660.7594
23
967.0001
33
1.0E-4
0
LINE
8
0
10
656.7593
20
960.0
30
0.0
11
617.7861
21
921.0268
31
0.0
0
LINE
8
0
10
617.7861
20
921.0268
30
0.0
11
578.1617
21
881.4024
31
0.0
0
LINE
8
0
10
578.1617
20
881.4024
30
0.0
11
539.9349
21
881.4024
31
0.0
0
LINE
8
0
10
539.9349
20
881.4024
30
0.0
11
512.31555
21
853.7831
31
0.0
0
LINE
8
0
10
512.31555
20
853.7831
30
0.0
11
491.81085
21
833.2784
31
0.0
0
LINE
8
0
10
491.81085
20
833.2784
30
0.0
11
469.53076
21
833.2784
31
0.0
0
LINE
8
0
10
469.53076
20
833.2784
30
0.0
11
443.2261
21
859.58307
31
0.0
0
3DFACE
8
0
10
408.4987
20
824.85565
30
0.0
11
404.4987
21
831.85565
31
0.0
12
412.4987
22
831.85565
32
0.0
13
412.49878
23
831.8558
33
1.0E-4
0
3DFACE
8
0
10
1717.5499
20
960.0
30
0.0
11
1713.5499
21
967.0
31
0.0
12
1721.5499
22
967.0
32
0.0
13
1721.55
23
967.0001
33
1.0E-4
0
LINE
8
0
10
1717.5499
20
960.0
30
0.0
11
1693.4108
21
984.13916
31
0.0
0
LINE
8
0
10
1693.4108
20
984.13916
30
0.0
11
1671.121
21
984.13916
31
0.0
0
LINE
8
0
10
1671.121
20
984.13916
30
0.0
11
1636.5499
21
949.5681
31
0.0
0
LINE
8
0
10
1636.5499
20
949.5681
30
0.0
11
1606.7578
21
979.3602
31
0.0
0
LINE
8
0
10
1606.7578
20
979.3602
30
0.0
11
1584.7318
21
957.3342
31
0.0
0
LINE
8
0
10
1584.7318
20
957.3342
30
0.0
11
1554.1749
21
987.8912
31
0.0
0
LINE
8
0
10
1554.1749
20
987.8912
30
0.0
11
1524.5874
21
958.30365
31
0.0
0
3DFACE
8
0
10
1488.8732
20
958.30365
30
0.0
11
1484.8732
21
965.30365
31
0.0
12
1492.8732
22
965.30365
32
0.0
13
1492.8733
23
965.3038
33
1.0E-4
0
3DFACE
8
0
10
1512.3086
20
960.0
30
0.0
11
1508.3086
21
967.0
31
0.0
12
1516.3086
22
967.0
32
0.0
13
1516.3087
23
967.0001
33
1.0E-4
0
LINE
8
0
10
1512.3086
20
960.0
30
0.0
11
1486.2454
21
933.93677
31
0.0
0
LINE
8
0
10
1486.2454
20
933.93677
30
0.0
11
1451.4413
21
968.74084
31
0.0
0
LINE
8
0
10
1451.4413
20
968.74084
30
0.0
11
1451.4413
21
990.6943
31
0.0
0
LINE
8
0
10
1451.4413
20
990.6943
30
0.0
11
1451.4413
21
1021.6858
31
0.0
0
LINE
8
0
10
1451.4413
20
1021.6858
30
0.0
11
1417.6241
21
1021.6858
31
0.0
0
LINE
8
0
10
1417.6241
20
1021.6858
30
0.0
11
1397.2762
21
1021.6858
31
0.0
0
LINE
8
0
10
1397.2762
20
1021.6858
30
0.0
11
1397.2762
21
996.1578
31
0.0
0
3DFACE
8
0
10
1364.002
20
996.1578
30
0.0
11
1360.002
21
1003.1578
31
0.0
12
1368.002
22
1003.1578
32
0.0
13
1368.0021
23
1003.1579
33
1.0E-4
0
3DFACE
8
0
10
746.32697
20
960.0
30
0.0
11
742.32697
21
967.0
31
0.0
12
750.32697
22
967.0
32
0.0
13
750.3271
23
967.0001
33
1.0E-4
0
LINE
8
0
10
746.32697
20
960.0
30
0.0
11
724.72406
21
960.0
31
0.0
0
LINE
8
0
10
724.72406
20
960.0
30
0.0
11
694.4844
21
990.2397
31
0.0
0
LINE
8
0
10
694.4844
20
990.2397
30
0.0
11
694.4844
21
1020.518
31
0.0
0
LINE
8
0
10
694.4844
20
1020.518
30
0.0
11
664.0342
21
1020.518
31
0.0
0
LINE
8
0
10
664.0342
20
1020.518
30
0.0
11
664.0342
21
990.68896
31
0.0
0
LINE
8
0
10
664.0342
20
990.68896
30
0.0
11
643.6519
21
1011.0712
31
0.0
0
LINE
8
0
10
643.6519
20
1011.0712
30
0.0
11
610.0626
21
1011.0712
31
0.0
0
3DFACE
8
0
10
573.37115
20
974.37976
30
0.0
11
569.37115
21
981.37976
31
0.0
12
577.37115
22
981.37976
32
0.0
13
577.3713
23
981.3799
33
1.0E-4
0
3DFACE
8
0
10
1281.0928
20
960.0
30
0.0
11
1277.0928
21
967.0
31
0.0
12
1285.0928
22
967.0
32
0.0
13
1285.0929
23
967.0001
33
1.0E-4
0
LINE
8
0
10
1281.0928
20
960.0
30
0.0
11
1244.6749
21
923.58215
31
0.0
0
LINE
8
0
10
1244.6749
20
923.58215
30
0.0
11
1211.8474
21
956.40967
31
0.0
0
LINE
8
0
10
1211.8474
20
956.40967
30
0.0
11
1178.3561
21
989.901
31
0.0
0
LINE
8
0
10
1178.3561
20
989.901
30
0.0
11
1150.6638
21
989.901
31
0.0
0
LINE
8
0
10
1150.6638
20
989.901
30
0.0
11
1150.6638
21
1018.05096
31
0.0
0
LINE
8
0
10
1150.6638
20
1018.05096
30
0.0
11
1111.9385
21
1056.7764
31
0.0
0
LINE
8
0
10
1111.9385
20
1056.7764
30
0.0
11
1074.3068
21
1056.7764
31
0.0
0
3DFACE
8
0
10
1039.3253
20
1056.7764
30
0.0
11
1035.3253
21
1063.7764
31
0.0
12
1043.3253
22
1063.7764
32
0.0
13
1043.3254
23
1063.7765
33
1.0E-4
0
3DFACE
8
0
10
740.82404
20
960.0
30
0.0
11
736.82404
21
967.0
31
0.0
12
744.82404
22
967.0
32
0.0
13
744.82416
23
967.0001
33
1.0E-4
0
LINE
8
0
10
740.82404
20
960.0
30
0.0
11
704.46545
21
960.0
31
0.0
0
LINE
8
0
10
704.46545
20
960.0
30
0.0
11
704.46545
21
981.50543
31
0.0
0
LINE
8
0
10
704.46545
20
981.50543
30
0.0
11
704.46545
21
1009.001
31
0.0
0
LINE
8
0
10
704.46545
20
1009.001
30
0.0
11
673.9748
21
1039.4917
31
0.0
0
LINE
8
0
10
673.9748
20
1039.4917
30
0.0
11
673.9748
21
1002.096
31
0.0
0
LINE
8
0
10
673.9748
20
1002.096
30
0.0
11
650.1941
21
1002.096
31
0.0
0
LINE
8
0
10
650.1941
20
1002.096
30
0.0
11
684.47546
21
1036.3773
31
0.0
0
3DFACE
8
0
10
650.09436
20
1036.3773
30
0.0
11
646.09436
21
1043.3773
31
0.0
12
654.09436
22
1043.3773
32
0.0
13
654.0945
23
1043.3774
33
1.0E-4
0
3DFACE
8
0
10
1577.6543
20
960.0
30
0.0
11
1573.6543
21
967.0
31
0.0
12
1581.6543
22
967.0
32
0.0
13
1581.6544
23
967.0001
33
1.0E-4
0
LINE
8
0
10
1577.6543
20
960.0
30
0.0
11
1577.6543
21
994.10565
31
0.0
0
LINE
8
0
10
1577.6543
20
994.10565
30
0.0
11
1556.5969
21
994.10565
31
0.0
0
LINE
8
0
10
1556.5969
20
994.10565
30
0.0
11
1521.5082
21
994.10565
31
0.0
0
LINE
8
0
10
1521.5082
20
994.10565
30
0.0
11
1488.6611
21
994.10565
31
0.0
0
LINE
8
0
10
1488.6611
20
994.10565
30
0.0
11
1450.938
21
994.10565
31
0.0
0
LINE
8
0
10
1450.938
20
994.10565
30
0.0
11
1424.0858
21
994.10565
31
0.0
0
LINE
8
0
10
1424.0858
20
994.10565
30
0.0
11
1393.656
21
1024.5354
31
0.0
0
3DFACE
8
0
10
1359.1521
20
1059.0393
30
0.0
11
1355.1521
21
1066.0393
31
0.0
12
1363.1521
22
1066.0393
32
0.0
13
1363.1522
23
1066.0394
33
1.0E-4
0
3DFACE
8
0
10
784.9757
20
960.0
30
0.0
11
780.9757
21
967.0
31
0.0
12
788.9757
22
967.0
32
0.0
13
788.9758
23
967.0001
33
1.0E-4
0
LINE
8
0
10
784.9757
20
960.0
30
0.0
11
784.9757
21
993.0033
31
0.0
0
LINE
8
0
10
784.9757
20
993.0033
30
0.0
11
809.4913
21
968.48773
31
0.0
0
LINE
8
0
10
809.4913
20
968.48773
30
0.0
11
809.4913
21
1000.439
31
0.0
0
LINE
8
0
10
809.4913
20
1000.439
30
0.0
11
778.6498
21
969.59753
31
0.0
0
LINE
8
0
10
778.6498
20
969.59753
30
0.0
11
812.8083
21
935.439
31
0.0
0
LINE
8
0
10
812.8083
20
935.439
30
0.0
11
773.8329
21
935.439
31
0.0
0
LINE
8
0
10
773.8329
20
935.439
30
0.0
11
808.5582
21
970.16437
31
0.0
0
3DFACE
8
0
10
777.54987
20
939.156
30
0.0
11
773.54987
21
946.156
31
0.0
12
781.54987
22
946.156
32
0.0
13
781.55
23
946.1561
33
1.0E-4
0
3DFACE
8
0
10
1207.321
20
960.0
30
0.0
11
1203.321
21
967.0
31
0.0
12
1211.321
22
967.0
32
0.0
13
1211.3212
23
967.0001
33
1.0E-4
0
LINE
8
0
10
1207.321
20
960.0
30
0.0
11
1181.0763
21
986.2447
31
0.0
0
LINE
8
0
10
1181.0763
20
986.2447
30
0.0
11
1181.0763
21
1021.7031
31
0.0
0
LINE
8
0
10
1181.0763
20
1021.7031
30
0.0
11
1141.1245
21
981.75134
31
0.0
0
LINE
8
0
10
1141.1245
20
981.75134
30
0.0
11
1141.1245
21
1013.56744
31
0.0
0
LINE
8
0
10
1141.1245
20
1013.56744
30
0.0
11
1141.1245
21
973.6405
31
0.0
0
LINE
8
0
10
1141.1245
20
973.6405
30
0.0
11
1113.536
21
946.05206
31
0.0
0
LINE
8
0
10
1113.536
20
946.05206
30
0.0
11
1087.0718
21
919.5879
31
0.0
0
3DFACE
8
0
10
1048.4418
20
958.2179
30
0.0
11
1044.4418
21
965.2179
31
0.0
12
1052.4418
22
965.2179
32
0.0
13
1052.4419
23
965.218
33
1.0E-4
0
3DFACE
8
0
10
1283.1072
20
960.0
30
0.0
11
1279.1072
21
967.0
31
0.0
12
1287.1072
22
967.0
32
0.0
13
1287.1073
23
967.0001
33
1.0E-4
0
LINE
8
0
10
1283.1072
20
960.0
30
0.0
11
1251.9225
21
928.8153
31
0.0
0
LINE
8
0
10
1251.9225
20
928.8153
30
0.0
11
1214.4812
21
891.3741
31
0.0
0
LINE
8
0
10
1214.4812
20
891.3741
30
0.0
11
1186.6844
21
891.3741
31
0.0
0
LINE
8
0
10
1186.6844
20
891.3741
30
0.0
11
1150.805
21
855.4947
31
0.0
0
LINE
8
0
10
1150.805
20
855.4947
30
0.0
11
1127.362
21
878.9376
31
0.0
0
LINE
8
0
10
1127.362
20
878.9376
30
0.0
11
1088.3549
21
839.9304
31
0.0
0
LINE
8
0
10
1088.3549
20
839.9304
30
0.0
11
1054.3469
21
873.9383
31
0.0
0
3DFACE
8
0
10
1022.7878
20
873.9383
30
0.0
11
1018.7878
21
880.9383
31
0.0
12
1026.7878
22
880.9383
32
0.0
13
1026.788
23
880.9384
33
1.0E-4
0
3DFACE
8
0
10
1804.771
20
960.0
30
0.0
11
1800.771
21
967.0
31
0.0
12
1808.771
22
967.0
32
0.0
13
1808.7711
23
967.0001
33
1.0E-4
0
LINE
8
0
10
1804.771
20
960.0
30
0.0
11
1774.0547
21
960.0
31
0.0
0
LINE
8
0
10
1774.0547
20
960.0
30
0.0
11
1774.0547
21
994.5679
31
0.0
0
LINE
8
0
10
1774.0547
20
994.5679
30
0.0
11
1774.0547
21
1018.24963
31
0.0
0
LINE
8
0
10
1774.0547
20
1018.24963
30
0.0
11
1753.3475
21
997.5425
31
0.0
0
LINE
8
0
10
1753.3475
20
997.5425
30
0.0
11
1753.3475
21
1037.3792
31
0.0
0
LINE
8
0
10
1753.3475
20
1037.3792
30
0.0
11
1723.7462
21
1066.9805
31
0.0
0
LINE
8
0
10
1723.7462
20
1066.9805
30
0.0
11
1698.9315
21
1042.1658
31
0.0
0
3DFACE
8
0
10
1663.1985
20
1042.1658
30
0.0
11
1659.1985
21
1049.1658
31
0.0
12
1667.1985
22
1049.1658
32
0.0
13
1667.1986
23
1049.1659
33
1.0E-4
0
3DFACE
8
0
10
1598.1978
20
960.0
30
0.0
11
1594.1978
21
967.0
31
0.0
12
1602.1978
22
967.0
32
0.0
13
1602.1979
23
967.0001
33
1.0E-4
0
LINE
8
0
10
1598.1978
20
960.0
30
0.0
11
1566.3247
21
991.873
31
0.0
0
LINE
8
0
10
1566.3247
20
991.873
30
0.0
11
1543.6704
21
969.2187
31
0.0
0
LINE
8
0
10
1543.6704
20
969.2187
30
0.0
11
1505.2395
21
1007.64954
31
0.0
0
LINE
8
0
10
1505.2395
20
1007.64954
30
0.0
11
1505.2395
21
974.0643
31
0.0
0
LINE
8
0
10
1505.2395
20
974.0643
30
0.0
11
1471.4712
21
1007.83264
31
0.0
0
LINE
8
0
10
1471.4712
20
1007.83264
30
0.0
11
1440.287
21
1039.0168
31
0.0
0
LINE
8
0
10
1440.287
20
1039.0168
30
0.0
11
1440.287
21
1014.19354
31
0.0
0
3DFACE
8
0
10
1418.4912
20
1035.9893
30
0.0
11
1414.4912
21
1042.9893
31
0.0
12
1422.4912
22
1042.9893
32
0.0
13
1422.4913
23
1042.9894
33
1.0E-4
0
3DFACE
8
0
10
1603.2161
20
960.0
30
0.0
11
1599.2161
21
967.0
31
0.0
12
1607.2161
22
967.0
32
0.0
13
1607.2162
23
967.0001
33
1.0E-4
0
LINE
8
0
10
1603.2161
20
960.0
30
0.0
11
1575.014
21
960.0
31
0.0
0
LINE
8
0
10
1575.014
20
960.0
30
0.0
11
1575.014
21
984.6971
31
0.0
0
LINE
8
0
10
1575.014
20
984.6971
30
0.0
11
1536.1836
21
1023.5275
31
0.0
0
LINE
8
0
10
1536.1836
20
1023.5275
30
0.0
11
1514.93
21
1023.5275
31
0.0
0
LINE
8
0
10
1514.93
20
1023.5275
30
0.0
11
1486.8173
21
995.41473
31
0.0
0
LINE
8
0
10
1486.8173
20
995.41473
30
0.0
11
1458.9293
21
967.5268
31
0.0
0
LINE
8
0
10
1458.9293
20
967.5268
30
0.0
11
1433.8201
21
992.6361
31
0.0
0
3DFACE
8
0
10
1406.4929
20
1019.96326
30
0.0
11
1402.4929
21
1026.9633
31
0.0
12
1410.4929
22
1026.9633
32
0.0
13
1410.493
23
1026.9634
33
1.0E-4
0
3DFACE
8
0
10
1698.9122
20
960.0
30
0.0
11
1694.9122
21
967.0
31
0.0
12
1702.9122
22
967.0
32
0.0
13
1702.9124
23
967.0001
33
1.0E-4
0
LINE
8
0
10
1698.9122
20
960.0
30
0.0
11
1678.5776
21
939.6654
31
0.0
0
LINE
8
0
10
1678.5776
20
939.6654
30
0.0
11
1678.5776
21
962.0768
31
0.0
0
LINE
8
0
10
1678.5776
20
962.0768
30
0.0
11
1678.5776
21
990.75354
31
0.0
0
LINE
8
0
10
1678.5776
20
990.75354
30
0.0
11
1653.7307
21
965.9066
31
0.0
0
LINE
8
0
10
1653.7307
20
965.9066
30
0.0
11
1630.1027
21
989.5346
31
0.0
0
LINE
8
0
10
1630.1027
20
989.5346
30
0.0
11
1630.1027
21
1011.17505
31
0.0
0
LINE
8
0
10
1630.1027
20
1011.17505
30
0.0
11
1592.4495
21
973.5219
31
0.0
0
3DFACE
8
0
10
1557.7838
20
1008.1876
30
0.0
11
1553.7838
21
1015.1876
31
0.0
12
1561.7838
22
1015.1876
32
0.0
13
1561.7839
23
1015.18774
33
1.0E-4
0
3DFACE
8
0
10
1124.139
20
960.0
30
0.0
11
1120.139
21
967.0
31
0.0
12
1128.139
22
967.0
32
0.0
13
1128.1392
23
967.0001
33
1.0E-4
0
LINE
8
0
10
1124.139
20
960.0
30
0.0
11
1090.8
21
926.661
31
0.0
0
LINE
8
0
10
1090.8
20
926.661
30
0.0
11
1112.8171
21
948.6781
31
0.0
0
LINE
8
0
10
1112.8171
20
948.6781
30
0.0
11
1112.8171
21
969.08966
31
0.0
0
LINE
8
0
10
1112.8171
20
969.08966
30
0.0
11
1077.2269
21
933.49945
31
0.0
0
LINE
8
0
10
1077.2269
20
933.49945
30
0.0
11
1112.4747
21
968.7472
31
0.0
0
LINE
8
0
10
1112.4747
20
968.7472
30
0.0
11
1112.4747
21
1005.70935
31
0.0
0
LINE
8
0
10
1112.4747
20
1005.70935
30
0.0
11
1074.2725
21
1043.9116
31
0.0
0
3DFACE
8
0
10
1109.2893
20
1043.9116
30
0.0
11
1105.2893
21
1050.9116
31
0.0
12
1113.2893
22
1050.9116
32
0.0
13
1113.2894
23
1050.9117
33
1.0E-4
0
3DFACE
8
0
10
1826.5856
20
960.0
30
0.0
11
1822.5856
21
967.0
31
0.0
12
1830.5856
22
967.0
32
0.0
13
1830.5857
23
967.0001
33
1.0E-4
0
LINE
8
0
10
1826.5856
20
960.0
30
0.0
11
1789.7031
21
996.8825
31
0.0
0
LINE
8
0
10
1789.7031
20
996.8825
30
0.0
11
1765.1884
21
972.36774
31
0.0
0
LINE
8
0
10
1765.1884
20
972.36774
30
0.0
11
1731.143
21
938.3223
31
0.0
0
LINE
8
0
10
1731.143
20
938.3223
30
0.0
11
1705.2162
21
912.3955
31
0.0
0
LINE
8
0
10
1705.2162
20
912.3955
30
0.0
11
1705.2162
21
932.9258
31
0.0
0
LINE
8
0
10
1705.2162
20
932.9258
30
0.0
11
1668.8956
21
896.60516
31
0.0
0
LINE
8
0
10
1668.8956
20
896.60516
30
0.0
11
1668.8956
21
926.9436
31
0.0
0
3DFACE
8
0
10
1644.1862
20
902.23413
30
0.0
11
1640.1862
21
909.23413
31
0.0
12
1648.1862
22
909.23413
32
0.0
13
1648.1863
23
909.23425
33
1.0E-4
0
3DFACE
8
0
10
1407.1941
20
960.0
30
0.0
11
1403.1941
21
967.0
31
0.0
12
1411.1941
22
967.0
32
0.0
13
1411.1942
23
967.0001
33
1.0E-4
0
LINE
8
0
10
1407.1941
20
960.0
30
0.0
11
1369.232
21
960.0
31
0.0
0
LINE
8
0
10
1369.232
20
960.0
30
0.0
11
1334.4292
21
994.80286
31
0.0
0
LINE
8
0
10
1334.4292
20
994.80286
30
0.0
11
1303.541
21
963.9147
31
0.0
0
LINE
8
0
10
1303.541
20
963.9147
30
0.0
11
1282.7415
21
963.9147
31
0.0
0
LINE
8
0
10
1282.7415
20
963.9147
30
0.0
11
1248.1056
21
929.27875
31
0.0
0
LINE
8
0
10
1248.1056
20
929.27875
30
0.0
11
1280.9156
21
962.0888
31
0.0
0
LINE
8
0
10
1280.9156
20
962.0888
30
0.0
11
1259.7592
21
962.0888
31
0.0
0
3DFACE
8
0
10
1259.7592
20
992.9557
30
0.0
11
1255.7592
21
999.9557
31
0.0
12
1263.7592
22
999.9557
32
0.0
13
1263.7593
23
999.9558
33
1.0E-4
0
3DFACE
8
0
10
1538.2368
20
960.0
30
0.0
11
1534.2368
21
967.0
31
0.0
12
1542.2368
22
967.0
32
0.0
13
1542.2369
23
967.0001
33
1.0E-4
0
LINE
8
0
10
1538.2368
20
960.0
30
0.0
11
1538.2368
21
981.7982
31
0.0
0
LINE
8
0
10
1538.2368
20
981.7982
30
0.0
11
1538.2368
21
1012.476
31
0.0
0
LINE
8
0
10
1538.2368
20
1012.476
30
0.0
11
1516.828
21
1012.476
31
0.0
0
LINE
8
0
10
1516.828
20
1012.476
30
0.0
11
1486.5421
21
1042.762
31
0.0
0
LINE
8
0
10
1486.5421
20
1042.762
30
0.0
11
1486.5421
21
1014.27594
31
0.0
0
LINE
8
0
10
1486.5421
20
1014.27594
30
0.0
11
1449.3049
21
1014.27594
31
0.0
0
LINE
8
0
10
1449.3049
20
1014.27594
30
0.0
11
1427.6677
21
1035.9131
31
0.0
0
3DFACE
8
0
10
1392.2865
20
1071.2943
30
0.0
11
1388.2865
21
1078.2943
31
0.0
12
1396.2865
22
1078.2943
32
0.0
13
1396.2866
23
1078.2944
33
1.0E-4
0
3DFACE
8
0
10
1784.7947
20
960.0
30
0.0
11
1780.7947
21
967.0
31
0.0
12
1788.7947
22
967.0
32
0.0
13
1788.7948
23
967.0001
33
1.0E-4
0
LINE
8
0
10
1784.7947
20
960.0
30
0.0
11
1750.5402
21
994.2546
31
0.0
0
LINE
8
0
10
1750.5402
20
994.2546
30
0.0
11
1720.7993
21
1023.99536
31
0.0
0
LINE
8
0
10
1720.7993
20
1023.99536
30
0.0
11
1720.7993
21
989.8362
31
0.0
0
LINE
8
0
10
1720.7993
20
989.8362
30
0.0
11
1683.0665
21
952.1034
31
0.0
0
LINE
8
0
10
1683.0665
20
952.1034
30
0.0
11
1655.6035
21
979.5664
31
0.0
0
LINE
8
0
10
1655.6035
20
979.5664
30
0.0
11
1620.553
21
979.5664
31
0.0
0
LINE
8
0
10
1620.553
20
979.5664
30
0.0
11
1583.4487
21
942.4621
31
0.0
0
3DFACE
8
0
10
1560.048
20
965.86285
30
0.0
11
1556.048
21
972.86285
31
0.0
12
1564.048
22
972.86285
32
0.0
13
1564.0481
23
972.863
33
1.0E-4
0
3DFACE
8
0
10
1873.1125
20
960.0
30
0.0
11
1869.1125
21
967.0
31
0.0
12
1877.1125
22
967.0
32
0.0
13
1877.1127
23
967.0001
33
1.0E-4
0
LINE
8
0
10
1873.1125
20
960.0
30
0.0
11
1847.8329
21
934.72034
31
0.0
0
LINE
8
0
10
1847.8329
20
934.72034
30
0.0
11
1847.8329
21
958.9893
31
0.0
0
LINE
8
0
10
1847.8329
20
958.9893
30
0.0
11
1826.7998
21
937.9563
31
0.0
0
LINE
8
0
10
1826.7998
20
937.9563
30
0.0
11
1826.7998
21
959.99
31
0.0
0
LINE
8
0
10
1826.7998
20
959.99
30
0.0
11
1826.7998
21
993.2185
31
0.0
0
LINE
8
0
10
1826.7998
20
993.2185
30
0.0
11
1796.3044
21
962.72314
31
0.0
0
LINE
8
0
10
1796.3044
20
962.72314
30
0.0
11
1764.5812
21
962.72314
31
0.0
0
3DFACE
8
0
10
1736.0088
20
962.72314
30
0.0
11
1732.0088
21
969.72314
31
0.0
12
1740.0088
22
969.72314
32
0.0
13
1740.0089
23
969.72327
33
1.0E-4
0
3DFACE
8
0
10
1409.9016
20
960.0
30
0.0
11
1405.9016
21
967.0
31
0.0
12
1413.9016
22
967.0
32
0.0
13
1413.9017
23
967.0001
33
1.0E-4
0
LINE
8
0
10
1409.9016
20
960.0
30
0.0
11
1409.9016
21
991.14575
31
0.0
0
LINE
8
0
10
1409.9016
20
991.14575
30
0.0
11
1383.5425
21
964.7867
31
0.0
0
LINE
8
0
10
1383.5425
20
964.7867
30
0.0
11
1419.5879
21
1000.83203
31
0.0
0
LINE
8
0
10
1419.5879
20
1000.83203
30
0.0
11
1392.1901
21
1000.83203
31
0.0
0
LINE
8
0
10
1392.1901
20
1000.83203
30
0.0
11
1413.2657
21
979.7564
31
0.0
0
LINE
8
0
10
1413.2657
20
979.7564
30
0.0
11
1413.2657
21
1015.8894
31
0.0
0
LINE
8
0
10
1413.2657
20
1015.8894
30
0.0
11
1413.2657
21
982.38776
31
0.0
0
3DFACE
8
0
10
1390.139
20
982.38776
30
0.0
11
1386.139
21
989.38776
31
0.0
12
1394.139
22
989.38776
32
0.0
13
1394.1392
23
989.3879
33
1.0E-4
0
3DFACE
8
0
10
1570.4358
20
960.0
30
0.0
11
1566.4358
21
967.0
31
0.0
12
1574.4358
22
967.0
32
0.0
13
1574.4359
23
967.0001
33
1.0E-4
0
LINE
8
0
10
1570.4358
20
960.0
30
0.0
11
1540.0636
21
929.62787
31
0.0
0
LINE
8
0
10
1540.0636
20
929.62787
30
0.0
11
1509.4812
21
899.0455
31
0.0
0
LINE
8
0
10
1509.4812
20
899.0455
30
0.0
11
1477.9071
21
867.4714
31
0.0
0
LINE
8
0
10
1477.9071
20
867.4714
30
0.0
11
1477.9071
21
897.34906
31
0.0
0
LINE
8
0
10
1477.9071
20
897.34906
30
0.0
11
1441.9277
21
861.36975
31
0.0
0
LINE
8
0
10
1441.9277
20
861.36975
30
0.0
11
1404.2112
21
861.36975
31
0.0
0
LINE
8
0
10
1404.2112
20
861.36975
30
0.0
11
1436.3339
21
829.24713
31
0.0
0
3DFACE
8
0
10
1411.2493
20
829.24713
30
0.0
11
1407.2493
21
836.24713
31
0.0
12
1415.2493
22
836.24713
32
0.0
13
1415.2494
23
836.24725
33
1.0E-4
0
3DFACE
8
0
10
1729.1334
20
960.0
30
0.0
11
1725.1334
21
967.0
31
0.0
12
1733.1334
22
967.0
32
0.0
13
1733.1335
23
967.0001
33
1.0E-4
0
LINE
8
0
10
1729.1334
20
960.0
30
0.0
11
1705.6901
21
960.0
31
0.0
0
LINE
8
0
10
1705.6901
20
960.0
30
0.0
11
1683.563
21
937.873
31
0.0
0
LINE
8
0
10
1683.563
20
937.873
30
0.0
11
1683.563
21
969.1213
31
0.0
0
LINE
8
0
10
1683.563
20
969.1213
30
0.0
11
1644.3873
21
1008.29694
31
0.0
0
LINE
8
0
10
1644.3873
20
1008.29694
30
0.0
11
1614.345
21
1008.29694
31
0.0
0
LINE
8
0
10
1614.345
20
1008.29694
30
0.0
11
1588.5896
21
1008.29694
31
0.0
0
LINE
8
0
10
1588.5896
20
1008.29694
30
0.0
11
1561.6403
21
1035.2462
31
0.0
0
3DFACE
8
0
10
1521.8383
20
995.4442
30
0.0
11
1517.8383
21
1002.4442
31
0.0
12
1525.8383
22
1002.4442
32
0.0
13
1525.8384
23
1002.44434
33
1.0E-4
0
3DFACE
8
0
10
1610.9839
20
960.0
30
0.0
11
1606.9839
21
967.0
31
0.0
12
1614.9839
22
967.0
32
0.0
13
1614.984
23
967.0001
33
1.0E-4
0
LINE
8
0
10
1610.9839
20
960.0
30
0.0
11
1576.261
21
925.27716
31
0.0
0
LINE
8
0
10
1576.261
20
925.27716
30
0.0
11
1538.1736
21
887.1898
31
0.0
0
LINE
8
0
10
1538.1736
20
887.1898
30
0.0
11
1538.1736
21
907.9423
31
0.0
0
LINE
8
0
10
1538.1736
20
907.9423
30
0.0
11
1563.4978
21
933.26654
31
0.0
0
LINE
8
0
10
1563.4978
20
933.26654
30
0.0
11
1530.7932
21
900.56195
31
0.0
0
LINE
8
0
10
1530.7932
20
900.56195
30
0.0
11
1564.0131
21
900.56195
31
0.0
0
LINE
8
0
10
1564.0131
20
900.56195
30
0.0
11
1541.3225
21
923.2525
31
0.0
0
3DFACE
8
0
10
1578.9095
20
923.2525
30
0.0
11
1574.9095
21
930.2525
31
0.0
12
1582.9095
22
930.2525
32
0.0
13
1582.9097
23
930.2526
33
1.0E-4
0
3DFACE
8
0
10
1619.7305
20
960.0
30
0.0
11
1615.7305
21
967.0
31
0.0
12
1623.7305
22
967.0
32
0.0
13
1623.7306
23
967.0001
33
1.0E-4
0
LINE
8
0
10
1619.7305
20
960.0
30
0.0
11
1582.5684
21
922.83795
31
0.0
0
LINE
8
0
10
1582.5684
20
922.83795
30
0.0
11
1550.2456
21
955.1607
31
0.0
0
LINE
8
0
10
1550.2456
20
955.1607
30
0.0
11
1575.3048
21
980.21985
31
0.0
0
LINE
8
0
10
1575.3048
20
980.21985
30
0.0
11
1543.2577
21
1012.2669
31
0.0
0
LINE
8
0
10
1543.2577
20
1012.2669
30
0.0
11
1571.5281
21
1040.5374
31
0.0
0
LINE
8
0
10
1571.5281
20
1040.5374
30
0.0
11
1540.9521
21
1040.5374
31
0.0
0
LINE
8
0
10
1540.9521
20
1040.5374
30
0.0
11
1577.4104
21
1040.5374
31
0.0
0
3DFACE
8
0
10
1577.4104
20
1003.71387
30
0.0
11
1573.4104
21
1010.71387
31
0.0
12
1581.4104
22
1010.71387
32
0.0
13
1581.4105
23
1010.714
33
1.0E-4
0
3DFACE
8
0
10
1804.8921
20
960.0
30
0.0
11
1800.8921
21
967.0
31
0.0
12
1808.8921
22
967.0
32
0.0
13
1808.8922
23
967.0001
33
1.0E-4
0
LINE
8
0
10
1804.8921
20
960.0
30
0.0
11
1784.7633
21
960.0
31
0.0
0
LINE
8
0
10
1784.7633
20
960.0
30
0.0
11
1757.0945
21
960.0
31
0.0
0
LINE
8
0
10
1757.0945
20
960.0
30
0.0
11
1757.0945
21
980.492
31
0.0
0
LINE
8
0
10
1757.0945
20
980.492
30
0.0
11
1732.9073
21
980.492
31
0.0
0
LINE
8
0
10
1732.9073
20
980.492
30
0.0
11
1705.5491
21
980.492
31
0.0
0
LINE
8
0
10
1705.5491
20
980.492
30
0.0
11
1681.0275
21
980.492
31
0.0
0
LINE
8
0
10
1681.0275
20
980.492
30
0.0
11
1712.8226
21
1012.2872
31
0.0
0
3DFACE
8
0
10
1692.337
20
1032.7728
30
0.0
11
1688.337
21
1039.7728
31
0.0
12
1696.337
22
1039.7728
32
0.0
13
1696.3372
23
1039.773
33
1.0E-4
0
3DFACE
8
0
10
1829.5636
20
960.0
30
0.0
11
1825.5636
21
967.0
31
0.0
12
1833.5636
22
967.0
32
0.0
13
1833.5637
23
967.0001
33
1.0E-4
0
LINE
8
0
10
1829.5636
20
960.0
30
0.0
11
1802.9111
21
933.34753
31
0.0
0
LINE
8
0
10
1802.9111
20
933.34753
30
0.0
11
1773.5504
21
903.9868
31
0.0
0
LINE
8
0
10
1773.5504
20
903.9868
30
0.0
11
1773.5504
21
931.5408
31
0.0
0
LINE
8
0
10
1773.5504
20
931.5408
30
0.0
11
1733.5662
21
891.5565
31
0.0
0
LINE
8
0
10
1733.5662
20
891.5565
30
0.0
11
1733.5662
21
917.87384
31
0.0
0
LINE
8
0
10
1733.5662
20
917.87384
30
0.0
11
1693.6879
21
917.87384
31
0.0
0
LINE
8
0
10
1693.6879
20
917.87384
30
0.0
11
1693.6879
21
952.56177
31
0.0
0
3DFACE
8
0
10
1693.6879
20
974.95245
30
0.0
11
1689.6879
21
981.95245
31
0.0
12
1697.6879
22
981.95245
32
0.0
13
1697.688
23
981.9526
33
1.0E-4
0
3DFACE
8
0
10
1677.1459
20
960.0
30
0.0
11
1673.1459
21
967.0
31
0.0
12
1681.1459
22
967.0
32
0.0
13
1681.146
23
967.0001
33
1.0E-4
0
LINE
8
0
10
1677.1459
20
960.0
30
0.0
11
1677.1459
21
989.12646
31
0.0
0
LINE
8
0
10
1677.1459
20
989.12646
30
0.0
11
1677.1459
21
1011.5656
31
0.0
0
LINE
8
0
10
1677.1459
20
1011.5656
30
0.0
11
1714.867
21
973.8446
31
0.0
0
LINE
8
0
10
1714.867
20
973.8446
30
0.0
11
1687.1006
21
946.07825
31
0.0
0
LINE
8
0
10
1687.1006
20
946.07825
30
0.0
11
1719.6073
21
946.07825
31
0.0
0
LINE
8
0
10
1719.6073
20
946.07825
30
0.0
11
1698.5427
21
946.07825
31
0.0
0
LINE
8
0
10
1698.5427
20
946.07825
30
0.0
11
1722.8086
21
946.07825
31
0.0
0
3DFACE
8
0
10
1696.6685
20
972.2183
30
0.0
11
1692.6685
21
979.2183
31
0.0
12
1700.6685
22
979.2183
32
0.0
13
1700.6686
23
979.21844
33
1.0E-4
0
3DFACE
8
0
10
1286.2112
20
1160.0
30
0.0
11
1282.2112
21
1167.0
31
0.0
12
1290.2112
22
1167.0
32
0.0
13
1290.2113
23
1167.0001
33
1.0E-4
0
LINE
8
0
10
1286.2112
20
1160.0
30
0.0
11
1286.2112
21
1180.166
31
0.0
0
LINE
8
0
10
1286.2112
20
1180.166
30
0.0
11
1265.6614
21
1159.6162
31
0.0
0
LINE
8
0
10
1265.6614
20
1159.6162
30
0.0
11
1226.3878
21
1159.6162
31
0.0
0
LINE
8
0
10
1226.3878
20
1159.6162
30
0.0
11
1205.577
21
1180.427
31
0.0
0
LINE
8
0
10
1205.577
20
1180.427
30
0.0
11
1180.3701
21
1205.6339
31
0.0
0
LINE
8
0
10
1180.3701
20
1205.6339
30
0.0
11
1153.2739
21
1178.5377
31
0.0
0
3DFACE
8
0
10
1131.0148
20
1156.2786
30
0.0
11
1127.0148
21
1163.2786
31
0.0
12
1135.0148
22
1163.2786
32
0.0
13
1135.0149
23
1163.2787
33
1.0E-4
0
3DFACE
8
0
10
702.8605
20
1160.0
30
0.0
11
698.8605
21
1167.0
31
0.0
12
706.8605
22
1167.0
32
0.0
13
706.8606
23
1167.0001
33
1.0E-4
0
LINE
8
0
10
702.8605
20
1160.0
30
0.0
11
663.09283
21
1160.0
31
0.0
0
LINE
8
0
10
663.09283
20
1160.0
30
0.0
11
636.2402
21
1186.8527
31
0.0
0
LINE
8
0
10
636.2402
20
1186.8527
30
0.0
11
614.4929
21
1186.8527
31
0.0
0
LINE
8
0
10
614.4929
20
1186.8527
30
0.0
11
582.83167
21
1155.1914
31
0.0
0
LINE
8
0
10
582.83167
20
1155.1914
30
0.0
11
545.4841
21
1192.539
31
0.0
0
LINE
8
0
10
545.4841
20
1192.539
30
0.0
11
523.28784
21
1170.3427
31
0.0
0
3DFACE
8
0
10
496.66956
20
1143.7244
30
0.0
11
492.66956
21
1150.7244
31
0.0
12
500.66956
22
1150.7244
32
0.0
13
500.66965
23
1150.7245
33
1.0E-4
0
3DFACE
8
0
10
351.5274
20
1160.0
30
0.0
11
347.5274
21
1167.0
31
0.0
12
355.5274
22
1167.0
32
0.0
13
355.5275
23
1167.0001
33
1.0E-4
0
LINE
8
0
10
351.5274
20
1160.0
30
0.0
11
351.5274
21
1198.9847
31
0.0
0
LINE
8
0
10
351.5274
20
1198.9847
30
0.0
11
383.87155
21
1198.9847
31
0.0
0
LINE
8
0
10
383.87155
20
1198.9847
30
0.0
11
344.3786
21
1159.4918
31
0.0
0
LINE
8
0
10
344.3786
20
1159.4918
30
0.0
11
371.6366
21
1159.4918
31
0.0
0
LINE
8
0
10
371.6366
20
1159.4918
30
0.0
11
343.18134
21
1131.0366
31
0.0
0
LINE
8
0
10
343.18134
20
1131.0366
30
0.0
11
373.94946
21
1131.0366
31
0.0
0
3DFACE
8
0
10
346.53122
20
1103.6184
30
0.0
11
342.53122
21
1110.6184
31
0.0
12
350.53122
22
1110.6184
32
0.0
13
350.5313
23
1110.6185
33
1.0E-4
0
3DFACE
8
0
10
1493.4763
20
1160.0
30
0.0
11
1489.4763
21
1167.0
31
0.0
12
1497.4763
22
1167.0
32
0.0
13
1497.4764
23
1167.0001
33
1.0E-4
0
LINE
8
0
10
1493.4763
20
1160.0
30
0.0
11
1467.4113
21
1186.0651
31
0.0
0
LINE
8
0
10
1467.4113
20
1186.0651
30
0.0
11
1467.4113
21
1210.2699
31
0.0
0
LINE
8
0
10
1467.4113
20
1210.2699
30
0.0
11
1467.4113
21
1183.7108
31
0.0
0
LINE
8
0
10
1467.4113
20
1183.7108
30
0.0
11
1430.0619
21
1183.7108
31
0.0
0
LINE
8
0
10
1430.0619
20
1183.7108
30
0.0
11
1408.7701
21
1162.4191
31
0.0
0
LINE
8
0
10
1408.7701
20
1162.4191
30
0.0
11
1379.5593
21
1162.4191
31
0.0
0
3DFACE
8
0
10
1354.6692
20
1137.5289
30
0.0
11
1350.6692
21
1144.5289
31
0.0
12
1358.6692
22
1144.5289
32
0.0
13
1358.6693
23
1144.529
33
1.0E-4
0
3DFACE
8
0
10
922.7581
20
1160.0
30
0.0
11
918.7581
21
1167.0
31
0.0
12
926.7581
22
1167.0
32
0.0
13
926.75824
23
1167.0001
33
1.0E-4
0
LINE
8
0
10
922.7581
20
1160.0
30
0.0
11
885.0224
21
1122.2643
31
0.0
0
LINE
8
0
10
885.0224
20
1122.2643
30
0.0
11
852.02264
21
1089.2645
31
0.0
0
LINE
8
0
10
852.02264
20
1089.2645
30
0.0
11
814.9539
21
1089.2645
31
0.0
0
LINE
8
0
10
814.9539
20
1089.2645
30
0.0
11
778.0387
21
1126.1797
31
0.0
0
LINE
8
0
10
778.0387
20
1126.1797
30
0.0
11
743.24396
21
1126.1797
31
0.0
0
LINE
8
0
10
743.24396
20
1126.1797
30
0.0
11
714.536
21
1154.8876
31
0.0
0
3DFACE
8
0
10
688.0902
20
1128.4418
30
0.0
11
684.0902
21
1135.4418
31
0.0
12
692.0902
22
1135.4418
32
0.0
13
692.09033
23
1135.4419
33
1.0E-4
0
3DFACE
8
0
10
1887.4851
20
1160.0
30
0.0
11
1883.4851
21
1167.0
31
0.0
12
1891.4851
22
1167.0
32
0.0
13
1891.4852
23
1167.0001
33
1.0E-4
0
LINE
8
0
10
1887.4851
20
1160.0
30
0.0
11
1854.205
21
1193.2802
31
0.0
0
LINE
8
0
10
1854.205
20
1193.2802
30
0.0
11
1833.8761
21
1213.609
31
0.0
0
LINE
8
0
10
1833.8761
20
1213.609
30
0.0
11
1802.2988
21
1245.1863
31
0.0
0
LINE
8
0
10
1802.2988
20
1245.1863
30
0.0
11
1782.0789
21
1224.9663
31
0.0
0
LINE
8
0
10
1782.0789
20
1224.9663
30
0.0
11
1745.8865
21
1261.1587
31
0.0
0
LINE
8
0
10
1745.8865
20
1261.1587
30
0.0
11
1718.7526
21
1261.1587
31
0.0
0
3DFACE
8
0
10
1690.0548
20
1289.8564
30
0.0
11
1686.0548
21
1296.8564
31
0.0
12
1694.0548
22
1296.8564
32
0.0
13
1694.0549
23
1296.8566
33
1.0E-4
0
3DFACE
8
0
10
812.22266
20
1160.0
30
0.0
11
808.22266
21
1167.0
31
0.0
12
816.22266
22
1167.0
32
0.0
13
816.2228
23
1167.0001
33
1.0E-4
0
LINE
8
0
10
812.22266
20
1160.0
30
0.0
11
812.22266
21
1192.4135
31
0.0
0
LINE
8
0
10
812.22266
20
1192.4135
30
0.0
11
812.22266
21
1214.0157
31
0.0
0
LINE
8
0
10
812.22266
20
1214.0157
30
0.0
11
776.3673
21
1249.8711
31
0.0
0
LINE
8
0
10
776.3673
20
1249.8711
30
0.0
11
755.781
21
1229.2848
31
0.0
0
LINE
8
0
10
755.781
20
1229.2848
30
0.0
11
720.6422
21
1229.2848
31
0.0
0
LINE
8
0
10
720.6422
20
1229.2848
30
0.0
11
694.5662
21
1255.3607
31
0.0
0
3DFACE
8
0
10
694.5662
20
1215.5049
30
0.0
11
690.5662
21
1222.5049
31
0.0
12
698.5662
22
1222.5049
32
0.0
13
698.56635
23
1222.505
33
1.0E-4
0
3DFACE
8
0
10
888.75745
20
1160.0
30
0.0
11
884.75745
21
1167.0
31
0.0
12
892.75745
22
1167.0
32
0.0
13
892.75757
23
1167.0001
33
1.0E-4
0
LINE
8
0
10
888.75745
20
1160.0
30
0.0
11
888.75745
21
1186.4047
31
0.0
0
LINE
8
0
10
888.75745
20
1186.4047
30
0.0
11
857.4246
21
1186.4047
31
0.0
0
LINE
8
0
10
857.4246
20
1186.4047
30
0.0
11
833.1273
21
1210.702
31
0.0
0
LINE
8
0
10
833.1273
20
1210.702
30
0.0
11
796.67883
21
1210.702
31
0.0
0
LINE
8
0
10
796.67883
20
1210.702
30
0.0
11
774.2634
21
1188.2866
31
0.0
0
LINE
8
0
10
774.2634
20
1188.2866
30
0.0
11
742.6434
21
1219.9066
31
0.0
0
3DFACE
8
0
10
722.5674
20
1199.8307
30
0.0
11
718.5674
21
1206.8307
31
0.0
12
726.5674
22
1206.8307
32
0.0
13
726.5675
23
1206.8308
33
1.0E-4
0
3DFACE
8
0
10
1541.0771
20
1160.0
30
0.0
11
1537.0771
21
1167.0
31
0.0
12
1545.0771
22
1167.0
32
0.0
13
1545.0773
23
1167.0001
33
1.0E-4
0
LINE
8
0
10
1541.0771
20
1160.0
30
0.0
11
1501.6456
21
1160.0
31
0.0
0
LINE
8
0
10
1501.6456
20
1160.0
30
0.0
11
1501.6456
21
1187.5298
31
0.0
0
LINE
8
0
10
1501.6456
20
1187.5298
30
0.0
11
1466.2872
21
1222.8882
31
0.0
0
LINE
8
0
10
1466.2872
20
1222.8882
30
0.0
11
1446.277
21
1222.8882
31
0.0
0
LINE
8
0
10
1446.277
20
1222.8882
30
0.0
11
1446.277
21
1186.1664
31
0.0
0
LINE
8
0
10
1446.277
20
1186.1664
30
0.0
11
1407.1947
21
1147.0841
31
0.0
0
3DFACE
8
0
10
1385.6115
20
1147.0841
30
0.0
11
1381.6115
21
1154.0841
31
0.0
12
1389.6115
22
1154.0841
32
0.0
13
1389.6116
23
1154.0842
33
1.0E-4
0
3DFACE
8
0
10
1826.0382
20
1160.0
30
0.0
11
1822.0382
21
1167.0
31
0.0
12
1830.0382
22
1167.0
32
0.0
13
1830.0383
23
1167.0001
33
1.0E-4
0
LINE
8
0
10
1826.0382
20
1160.0
30
0.0
11
1786.3519
21
1120.3137
31
0.0
0
LINE
8
0
10
1786.3519
20
1120.3137
30
0.0
11
1786.3519
21
1150.0214
31
0.0
0
LINE
8
0
10
1786.3519
20
1150.0214
30
0.0
11
1754.6345
21
1118.304
31
0.0
0
LINE
8
0
10
1754.6345
20
1118.304
30
0.0
11
1714.6616
21
1078.331
31
0.0
0
LINE
8
0
10
1714.6616
20
1078.331
30
0.0
11
1676.6884
21
1040.3578
31
0.0
0
LINE
8
0
10
1676.6884
20
1040.3578
30
0.0
11
1647.5692
21
1040.3578
31
0.0
0
3DFACE
8
0
10
1647.5692
20
1077.2216
30
0.0
11
1643.5692
21
1084.2216
31
0.0
12
1651.5692
22
1084.2216
32
0.0
13
1651.5693
23
1084.2217
33
1.0E-4
0
3DFACE
8
0
10
1192.0826
20
1160.0
30
0.0
11
1188.0826
21
1167.0
31
0.0
12
1196.0826
22
1167.0
32
0.0
13
1196.0828
23
1167.0001
33
1.0E-4
0
LINE
8
0
10
1192.0826
20
1160.0
30
0.0
11
1152.3007
21
1160.0
31
0.0
0
LINE
8
0
10
1152.3007
20
1160.0
30
0.0
11
1120.9231
21
1128.6224
31
0.0
0
LINE
8
0
10
1120.9231
20
1128.6224
30
0.0
11
1120.9231
21
1165.4559
31
0.0
0
LINE
8
0
10
1120.9231
20
1165.4559
30
0.0
11
1120.9231
21
1195.2975
31
0.0
0
LINE
8
0
10
1120.9231
20
1195.2975
30
0.0
11
1097.2692
21
1195.2975
31
0.0
0
LINE
8
0
10
1097.2692
20
1195.2975
30
0.0
11
1063.7802
21
1161.8085
31
0.0
0
3DFACE
8
0
10
1063.7802
20
1188.0526
30
0.0
11
1059.7802
21
1195.0526
31
0.0
12
1067.7802
22
1195.0526
32
0.0
13
1067.7803
23
1195.0527
33
1.0E-4
0
3DFACE
8
0
10
1729.7993
20
1160.0
30
0.0
11
1725.7993
21
1167.0
31
0.0
12
1733.7993
22
1167.0
32
0.0
13
1733.7994
23
1167.0001
33
1.0E-4
0
LINE
8
0
10
1729.7993
20
1160.0
30
0.0
11
1704.4392
21
1160.0
31
0.0
0
LINE
8
0
10
1704.4392
20
1160.0
30
0.0
11
1704.4392
21
1191.1816
31
0.0
0
LINE
8
0
10
1704.4392
20
1191.1816
30
0.0
11
1665.0248
21
1151.7672
31
0.0
0
LINE
8
0
10
1665.0248
20
1151.7672
30
0.0
11
1639.427
21
1151.7672
31
0.0
0
LINE
8
0
10
1639.427
20
1151.7672
30
0.0
11
1616.1044
21
1151.7672
31
0.0
0
LINE
8
0
10
1616.1044
20
1151.7672
30
0.0
11
1616.1044
21
1173.118
31
0.0
0
3DFACE
8
0
10
1616.1044
20
1202.1382
30
0.0
11
1612.1044
21
1209.1382
31
0.0
12
1620.1044
22
1209.1382
32
0.0
13
1620.1045
23
1209.1383
33
1.0E-4
0
3DFACE
8
0
10
934.68024
20
1160.0
30
0.0
11
930.68024
21
1167.0
31
0.0
12
938.68024
22
1167.0
32
0.0
13
938.68036
23
1167.0001
33
1.0E-4
0
LINE
8
0
10
934.68024
20
1160.0
30
0.0
11
973.5923
21
1160.0
31
0.0
0
LINE
8
0
10
973.5923
20
1160.0
30
0.0
11
933.639
21
1160.0
31
0.0
0
LINE
8
0
10
933.639
20
1160.0
30
0.0
11
933.639
21
1190.2927
31
0.0
0
LINE
8
0
10
933.639
20
1190.2927
30
0.0
11
956.9061
21
1213.5598
31
0.0
0
LINE
8
0
10
956.9061
20
1213.5598
30
0.0
11
922.4651
21
1179.1188
31
0.0
0
LINE
8
0
10
922.4651
20
1179.1188
30
0.0
11
958.67523
21
1215.3289
31
0.0
0
3DFACE
8
0
10
920.68463
20
1215.3289
30
0.0
11
916.68463
21
1222.3289
31
0.0
12
924.68463
22
1222.3289
32
0.0
13
924.68475
23
1222.329
33
1.0E-4
0
3DFACE
8
0
10
1736.2424
20
1160.0
30
0.0
11
1732.2424
21
1167.0
31
0.0
12
1740.2424
22
1167.0
32
0.0
13
1740.2426
23
1167.0001
33
1.0E-4
0
LINE
8
0
10
1736.2424
20
1160.0
30
0.0
11
1701.116
21
1160.0
31
0.0
0
LINE
8
0
10
1701.116
20
1160.0
30
0.0
11
1669.8849
21
1128.7689
31
0.0
0
LINE
8
0
10
1669.8849
20
1128.7689
30
0.0
11
1641.7223
21
1128.7689
31
0.0
0
LINE
8
0
10
1641.7223
20
1128.7689
30
0.0
11
1608.7249
21
1095.7715
31
0.0
0
LINE
8
0
10
1608.7249
20
1095.7715
30
0.0
11
1578.7288
21
1095.7715
31
0.0
0
LINE
8
0
10
1578.7288
20
1095.7715
30
0.0
11
1555.6742
21
1118.826
31
0.0
0
3DFACE
8
0
10
1533.9991
20
1140.5011
30
0.0
11
1529.9991
21
1147.5011
31
0.0
12
1537.9991
22
1147.5011
32
0.0
13
1537.9993
23
1147.5012
33
1.0E-4
0
3DFACE
8
0
10
1670.2161
20
1160.0
30
0.0
11
1666.2161
21
1167.0
31
0.0
12
1674.2161
22
1167.0
32
0.0
13
1674.2162
23
1167.0001
33
1.0E-4
0
LINE
8
0
10
1670.2161
20
1160.0
30
0.0
11
1670.2161
21
1181.3553
31
0.0
0
LINE
8
0
10
1670.2161
20
1181.3553
30
0.0
11
1644.3104
21
1155.4497
31
0.0
0
LINE
8
0
10
1644.3104
20
1155.4497
30
0.0
11
1617.5885
21
1182.1716
31
0.0
0
LINE
8
0
10
1617.5885
20
1182.1716
30
0.0
11
1580.2003
21
1144.7834
31
0.0
0
LINE
8
0
10
1580.2003
20
1144.7834
30
0.0
11
1551.9575
21
1144.7834
31
0.0
0
LINE
8
0
10
1551.9575
20
1144.7834
30
0.0
11
1514.9628
21
1144.7834
31
0.0
0
3DFACE
8
0
10
1489.5125
20
1119.3331
30
0.0
11
1485.5125
21
1126.3331
31
0.0
12
1493.5125
22
1126.3331
32
0.0
13
1493.5126
23
1126.3333
33
1.0E-4
0
3DFACE
8
0
10
1787.0159
20
1160.0
30
0.0
11
1783.0159
21
1167.0
31
0.0
12
1791.0159
22
1167.0
32
0.0
13
1791.016
23
1167.0001
33
1.0E-4
0
LINE
8
0
10
1787.0159
20
1160.0
30
0.0
11
1760.139
21
1160.0
31
0.0
0
LINE
8
0
10
1760.139
20
1160.0
30
0.0
11
1760.139
21
1180.1061
31
0.0
0
LINE
8
0
10
1760.139
20
1180.1061
30
0.0
11
1726.8153
21
1146.7823
31
0.0
0
LINE
8
0
10
1726.8153
20
1146.7823
30
0.0
11
1695.2539
21
1146.7823
31
0.0
0
LINE
8
0
10
1695.2539
20
1146.7823
30
0.0
11
1668.5272
21
1120.0557
31
0.0
0
LINE
8
0
10
1668.5272
20
1120.0557
30
0.0
11
1631.3444
21
1082.8728
31
0.0
0
3DFACE
8
0
10
1631.3444
20
1114.9669
30
0.0
11
1627.3444
21
1121.9669
31
0.0
12
1635.3444
22
1121.9669
32
0.0
13
1635.3445
23
1121.967
33
1.0E-4
0
3DFACE
8
0
10
1496.345
20
1160.0
30
0.0
11
1492.345
21
1167.0
31
0.0
12
1500.345
22
1167.0
32
0.0
13
1500.3451
23
1167.0001
33
1.0E-4
0
LINE
8
0
10
1496.345
20
1160.0
30
0.0
11
1474.7594
21
1138.4144
31
0.0
0
LINE
8
0
10
1474.7594
20
1138.4144
30
0.0
11
1445.8503
21
1109.5054
31
0.0
0
LINE
8
0
10
1445.8503
20
1109.5054
30
0.0
11
1445.8503
21
1145.594
31
0.0
0
LINE
8
0
10
1445.8503
20
1145.594
30
0.0
11
1409.8711
21
1145.594
31
0.0
0
LINE
8
0
10
1409.8711
20
1145.594
30
0.0
11
1373.1178
21
1145.594
31
0.0
0
LINE
8
0
10
1373.1178
20
1145.594
30
0.0
11
1337.6421
21
1145.594
31
0.0
0
3DFACE
8
0
10
1307.4308
20
1145.594
30
0.0
11
1303.4308
21
1152.594
31
0.0
12
1311.4308
22
1152.594
32
0.0
13
1311.4309
23
1152.5941
33
1.0E-4
0
3DFACE
8
0
10
1866.1929
20
1160.0
30
0.0
11
1862.1929
21
1167.0
31
0.0
12
1870.1929
22
1167.0
32
0.0
13
1870.193
23
1167.0001
33
1.0E-4
0
LINE
8
0
10
1866.1929
20
1160.0
30
0.0
11
1839.7072
21
1186.4857
31
0.0
0
LINE
8
0
10
1839.7072
20
1186.4857
30
0.0
11
1839.7072
21
1223.5999
31
0.0
0
LINE
8
0
10
1839.7072
20
1223.5999
30
0.0
11
1804.5173
21
1258.7897
31
0.0
0
LINE
8
0
10
1804.5173
20
1258.7897
30
0.0
11
1773.3928
21
1227.6652
31
0.0
0
LINE
8
0
10
1773.3928
20
1227.6652
30
0.0
11
1773.3928
21
1198.2794
31
0.0
0
LINE
8
0
10
1773.3928
20
1198.2794
30
0.0
11
1748.7286
21
1173.6152
31
0.0
0
3DFACE
8
0
10
1728.2462
20
1153.1328
30
0.0
11
1724.2462
21
1160.1328
31
0.0
12
1732.2462
22
1160.1328
32
0.0
13
1732.2463
23
1160.1329
33
1.0E-4
0
3DFACE
8
0
10
1611.25
20
1160.0
30
0.0
11
1607.25
21
1167.0
31
0.0
12
1615.25
22
1167.0
32
0.0
13
1615.2501
23
1167.0001
33
1.0E-4
0
LINE
8
0
10
1611.25
20
1160.0
30
0.0
11
1611.25
21
1183.3188
31
0.0
0
LINE
8
0
10
1611.25
20
1183.3188
30
0.0
11
1588.3098
21
1183.3188
31
0.0
0
LINE
8
0
10
1588.3098
20
1183.3188
30
0.0
11
1588.3098
21
1206.6108
31
0.0
0
LINE
8
0
10
1588.3098
20
1206.6108
30
0.0
11
1560.5055
21
1178.8065
31
0.0
0
LINE
8
0
10
1560.5055
20
1178.8065
30
0.0
11
1526.9155
21
1178.8065
31
0.0
0
LINE
8
0
10
1526.9155
20
1178.8065
30
0.0
11
1506.3019
21
1199.4202
31
0.0
0
3DFACE
8
0
10
1506.3019
20
1227.6904
30
0.0
11
1502.3019
21
1234.6904
31
0.0
12
1510.3019
22
1234.6904
32
0.0
13
1510.302
23
1234.6906
33
1.0E-4
0
3DFACE
8
0
10
1629.293
20
1160.0
30
0.0
11
1625.293
21
1167.0
31
0.0
12
1633.293
22
1167.0
32
0.0
13
1633.2931
23
1167.0001
33
1.0E-4
0
LINE
8
0
10
1629.293
20
1160.0
30
0.0
11
1599.0317
21
1160.0
31
0.0
0
LINE
8
0
10
1599.0317
20
1160.0
30
0.0
11
1572.8644
21
1186.1674
31
0.0
0
LINE
8
0
10
1572.8644
20
1186.1674
30
0.0
11
1551.4803
21
1186.1674
31
0.0
0
LINE
8
0
10
1551.4803
20
1186.1674
30
0.0
11
1551.4803
21
1214.8643
31
0.0
0
LINE
8
0
10
1551.4803
20
1214.8643
30
0.0
11
1520.3715
21
1183.7554
31
0.0
0
LINE
8
0
10
1520.3715
20
1183.7554
30
0.0
11
1482.8188
21
1221.308
31
0.0
0
3DFACE
8
0
10
1461.761
20
1242.3658
30
0.0
11
1457.761
21
1249.3658
31
0.0
12
1465.761
22
1249.3658
32
0.0
13
1465.7611
23
1249.366
33
1.0E-4
0
3DFACE
8
0
10
1470.0759
20
1160.0
30
0.0
11
1466.0759
21
1167.0
31
0.0
12
1474.0759
22
1167.0
32
0.0
13
1474.076
23
1167.0001
33
1.0E-4
0
LINE
8
0
10
1470.0759
20
1160.0
30
0.0
11
1470.0759
21
1198.3472
31
0.0
0
LINE
8
0
10
1470.0759
20
1198.3472
30
0.0
11
1442.1997
21
1198.3472
31
0.0
0
LINE
8
0
10
1442.1997
20
1198.3472
30
0.0
11
1402.95
21
1237.5969
31
0.0
0
LINE
8
0
10
1402.95
20
1237.5969
30
0.0
11
1381.468
21
1237.5969
31
0.0
0
LINE
8
0
10
1381.468
20
1237.5969
30
0.0
11
1381.468
21
1215.7397
31
0.0
0
LINE
8
0
10
1381.468
20
1215.7397
30
0.0
11
1359.5588
21
1193.8306
31
0.0
0
3DFACE
8
0
10
1359.5588
20
1232.7527
30
0.0
11
1355.5588
21
1239.7527
31
0.0
12
1363.5588
22
1239.7527
32
0.0
13
1363.559
23
1239.7528
33
1.0E-4
0
3DFACE
8
0
10
1723.4943
20
1160.0
30
0.0
11
1719.4943
21
1167.0
31
0.0
12
1727.4943
22
1167.0
32
0.0
13
1727.4944
23
1167.0001
33
1.0E-4
0
LINE
8
0
10
1723.4943
20
1160.0
30
0.0
11
1697.7256
21
1134.2313
31
0.0
0
LINE
8
0
10
1697.7256
20
1134.2313
30
0.0
11
1672.1464
21
1159.8105
31
0.0
0
LINE
8
0
10
1672.1464
20
1159.8105
30
0.0
11
1651.4238
21
1139.088
31
0.0
0
LINE
8
0
10
1651.4238
20
1139.088
30
0.0
11
1625.8795
21
1113.5437
31
0.0
0
LINE
8
0
10
1625.8795
20
1113.5437
30
0.0
11
1587.827
21
1151.5962
31
0.0
0
LINE
8
0
10
1587.827
20
1151.5962
30
0.0
11
1560.8198
21
1151.5962
31
0.0
0
3DFACE
8
0
10
1525.6962
20
1116.4725
30
0.0
11
1521.6962
21
1123.4725
31
0.0
12
1529.6962
22
1123.4725
32
0.0
13
1529.6963
23
1123.4727
33
1.0E-4
0
3DFACE
8
0
10
1787.9033
20
1160.0
30
0.0
11
1783.9033
21
1167.0
31
0.0
12
1791.9033
22
1167.0
32
0.0
13
1791.9034
23
1167.0001
33
1.0E-4
0
LINE
8
0
10
1787.9033
20
1160.0
30
0.0
11
1754.9883
21
1192.915
31
0.0
0
LINE
8
0
10
1754.9883
20
1192.915
30
0.0
11
1723.9263
21
1161.853
31
0.0
0
LINE
8
0
10
1723.9263
20
1161.853
30
0.0
11
1686.3329
21
1199.4464
31
0.0
0
LINE
8
0
10
1686.3329
20
1199.4464
30
0.0
11
1648.8204
21
1161.934
31
0.0
0
LINE
8
0
10
1648.8204
20
1161.934
30
0.0
11
1616.7651
21
1193.9893
31
0.0
0
LINE
8
0
10
1616.7651
20
1193.9893
30
0.0
11
1616.7651
21
1215.1471
31
0.0
0
3DFACE
8
0
10
1577.9332
20
1215.1471
30
0.0
11
1573.9332
21
1222.1471
31
0.0
12
1581.9332
22
1222.1471
32
0.0
13
1581.9333
23
1222.1472
33
1.0E-4
0
3DFACE
8
0
10
1446.5515
20
1160.0
30
0.0
11
1442.5515
21
1167.0
31
0.0
12
1450.5515
22
1167.0
32
0.0
13
1450.5516
23
1167.0001
33
1.0E-4
0
LINE
8
0
10
1446.5515
20
1160.0
30
0.0
11
1422.6906
21
1136.139
31
0.0
0
LINE
8
0
10
1422.6906
20
1136.139
30
0.0
11
1422.6906
21
1164.726
31
0.0
0
LINE
8
0
10
1422.6906
20
1164.726
30
0.0
11
1394.7275
21
1192.689
31
0.0
0
LINE
8
0
10
1394.7275
20
1192.689
30
0.0
11
1394.7275
21
1218.8896
31
0.0
0
LINE
8
0
10
1394.7275
20
1218.8896
30
0.0
11
1416.3077
21
1240.4698
31
0.0
0
LINE
8
0
10
1416.3077
20
1240.4698
30
0.0
11
1386.9673
21
1211.1294
31
0.0
0
3DFACE
8
0
10
1416.0156
20
1240.1777
30
0.0
11
1412.0156
21
1247.1777
31
0.0
12
1420.0156
22
1247.1777
32
0.0
13
1420.0157
23
1247.1779
33
1.0E-4
0
3DFACE
8
0
10
1722.6785
20
1160.0
30
0.0
11
1718.6785
21
1167.0
31
0.0
12
1726.6785
22
1167.0
32
0.0
13
1726.6786
23
1167.0001
33
1.0E-4
0
LINE
8
0
10
1722.6785
20
1160.0
30
0.0
11
1722.6785
21
1185.568
31
0.0
0
LINE
8
0
10
1722.6785
20
1185.568
30
0.0
11
1684.4559
21
1147.3455
31
0.0
0
LINE
8
0
10
1684.4559
20
1147.3455
30
0.0
11
1645.9292
21
1147.3455
31
0.0
0
LINE
8
0
10
1645.9292
20
1147.3455
30
0.0
11
1619.0447
21
1147.3455
31
0.0
0
LINE
8
0
10
1619.0447
20
1147.3455
30
0.0
11
1587.8159
21
1178.5742
31
0.0
0
LINE
8
0
10
1587.8159
20
1178.5742
30
0.0
11
1563.0791
21
1203.311
31
0.0
0
3DFACE
8
0
10
1533.7712
20
1232.6189
30
0.0
11
1529.7712
21
1239.6189
31
0.0
12
1537.7712
22
1239.6189
32
0.0
13
1537.7714
23
1239.619
33
1.0E-4
0
3DFACE
8
0
10
1816.7017
20
1160.0
30
0.0
11
1812.7017
21
1167.0
31
0.0
12
1820.7017
22
1167.0
32
0.0
13
1820.7018
23
1167.0001
33
1.0E-4
0
LINE
8
0
10
1816.7017
20
1160.0
30
0.0
11
1782.2046
21
1160.0
31
0.0
0
LINE
8
0
10
1782.2046
20
1160.0
30
0.0
11
1743.4307
21
1121.2261
31
0.0
0
LINE
8
0
10
1743.4307
20
1121.2261
30
0.0
11
1710.1547
21
1087.9501
31
0.0
0
LINE
8
0
10
1710.1547
20
1087.9501
30
0.0
11
1710.1547
21
1117.9976
31
0.0
0
LINE
8
0
10
1710.1547
20
1117.9976
30
0.0
11
1710.1547
21
1151.152
31
0.0
0
LINE
8
0
10
1710.1547
20
1151.152
30
0.0
11
1676.3107
21
1184.996
31
0.0
0
3DFACE
8
0
10
1639.2181
20
1222.0885
30
0.0
11
1635.2181
21
1229.0885
31
0.0
12
1643.2181
22
1229.0885
32
0.0
13
1643.2183
23
1229.0886
33
1.0E-4
0
3DFACE
8
0
10
1805.3142
20
1160.0
30
0.0
11
1801.3142
21
1167.0
31
0.0
12
1809.3142
22
1167.0
32
0.0
13
1809.3143
23
1167.0001
33
1.0E-4
0
LINE
8
0
10
1805.3142
20
1160.0
30
0.0
11
1773.4625
21
1191.8517
31
0.0
0
LINE
8
0
10
1773.4625
20
1191.8517
30
0.0
11
1773.4625
21
1224.8423
31
0.0
0
LINE
8
0
10
1773.4625
20
1224.8423
30
0.0
11
1749.9198
21
1224.8423
31
0.0
0
LINE
8
0
10
1749.9198
20
1224.8423
30
0.0
11
1711.1217
21
1263.6404
31
0.0
0
LINE
8
0
10
1711.1217
20
1263.6404
30
0.0
11
1676.57
21
1229.0886
31
0.0
0
LINE
8
0
10
1676.57
20
1229.0886
30
0.0
11
1676.57
21
1192.342
31
0.0
0
3DFACE
8
0
10
1654.9159
20
1213.9961
30
0.0
11
1650.9159
21
1220.9961
31
0.0
12
1658.9159
22
1220.9961
32
0.0
13
1658.916
23
1220.9962
33
1.0E-4
0
3DFACE
8
0
10
1689.8535
20
1160.0
30
0.0
11
1685.8535
21
1167.0
31
0.0
12
1693.8535
22
1167.0
32
0.0
13
1693.8536
23
1167.0001
33
1.0E-4
0
LINE
8
0
10
1689.8535
20
1160.0
30
0.0
11
1717.8213
21
1160.0
31
0.0
0
LINE
8
0
10
1717.8213
20
1160.0
30
0.0
11
1717.8213
21
1194.9711
31
0.0
0
LINE
8
0
10
1717.8213
20
1194.9711
30
0.0
11
1717.8213
21
1230.7573
31
0.0
0
LINE
8
0
10
1717.8213
20
1230.7573
30
0.0
11
1685.7622
21
1262.8164
31
0.0
0
LINE
8
0
10
1685.7622
20
1262.8164
30
0.0
11
1723.4117
21
1262.8164
31
0.0
0
LINE
8
0
10
1723.4117
20
1262.8164
30
0.0
11
1696.7944
21
1236.1991
31
0.0
0
3DFACE
8
0
10
1696.7944
20
1202.2146
30
0.0
11
1692.7944
21
1209.2146
31
0.0
12
1700.7944
22
1209.2146
32
0.0
13
1700.7946
23
1209.2147
33
1.0E-4
0
3DFACE
8
0
10
1677.2593
20
1160.0
30
0.0
11
1673.2593
21
1167.0
31
0.0
12
1681.2593
22
1167.0
32
0.0
13
1681.2594
23
1167.0001
33
1.0E-4
0
LINE
8
0
10
1677.2593
20
1160.0
30
0.0
11
1711.5122
21
1125.7471
31
0.0
0
LINE
8
0
10
1711.5122
20
1125.7471
30
0.0
11
1684.1138
21
1153.1455
31
0.0
0
LINE
8
0
10
1684.1138
20
1153.1455
30
0.0
11
1684.1138
21
1174.5999
31
0.0
0
LINE
8
0
10
1684.1138
20
1174.5999
30
0.0
11
1712.5828
21
1203.0688
31
0.0
0
LINE
8
0
10
1712.5828
20
1203.0688
30
0.0
11
1689.6875
21
1225.9641
31
0.0
0
LINE
8
0
10
1689.6875
20
1225.9641
30
0.0
11
1721.7607
21
1193.8909
31
0.0
0
3DFACE
8
0
10
1697.4637
20
1218.1879
30
0.0
11
1693.4637
21
1225.1879
31
0.0
12
1701.4637
22
1225.1879
32
0.0
13
1701.4639
23
1225.188
33
1.0E-4
0
3DFACE
8
0
10
1849.6887
20
1160.0
30
0.0
11
1845.6887
21
1167.0
31
0.0
12
1853.6887
22
1167.0
32
0.0
13
1853.6888
23
1167.0001
33
1.0E-4
0
LINE
8
0
10
1849.6887
20
1160.0
30
0.0
11
1822.587
21
1160.0
31
0.0
0
LINE
8
0
10
1822.587
20
1160.0
30
0.0
11
1791.4585
21
1160.0
31
0.0
0
LINE
8
0
10
1791.4585
20
1160.0
30
0.0
11
1763.1108
21
1160.0
31
0.0
0
LINE
8
0
10
1763.1108
20
1160.0
30
0.0
11
1729.5428
21
1193.568
31
0.0
0
LINE
8
0
10
1729.5428
20
1193.568
30
0.0
11
1729.5428
21
1215.1364
31
0.0
0
LINE
8
0
10
1729.5428
20
1215.1364
30
0.0
11
1699.6926
21
1244.9866
31
0.0
0
3DFACE
8
0
10
1735.9137
20
1208.7655
30
0.0
11
1731.9137
21
1215.7655
31
0.0
12
1739.9137
22
1215.7655
32
0.0
13
1739.9138
23
1215.7656
33
1.0E-4
0
3DFACE
8
0
10
344.42523
20
1360.0
30
0.0
11
340.42523
21
1367.0
31
0.0
12
348.42523
22
1367.0
32
0.0
13
348.42532
23
1367.0001
33
1.0E-4
0
LINE
8
0
10
344.42523
20
1360.0
30
0.0
11
344.42523
21
1392.6399
31
0.0
0
LINE
8
0
10
344.42523
20
1392.6399
30
0.0
11
368.6898
21
1416.9044
31
0.0
0
LINE
8
0
10
368.6898
20
1416.9044
30
0.0
11
342.13397
21
1416.9044
31
0.0
0
LINE
8
0
10
342.13397
20
1416.9044
30
0.0
11
381.6831
21
1377.3552
31
0.0
0
LINE
8
0
10
381.6831
20
1377.3552
30
0.0
11
348.98865
21
1344.6608
31
0.0
0
3DFACE
8
0
10
372.58942
20
1321.0599
30
0.0
11
368.58942
21
1328.0599
31
0.0
12
376.58942
22
1328.0599
32
0.0
13
376.5895
23
1328.06
33
1.0E-4
0
3DFACE
8
0
10
1741.7714
20
1360.0
30
0.0
11
1737.7714
21
1367.0
31
0.0
12
1745.7714
22
1367.0
32
0.0
13
1745.7715
23
1367.0001
33
1.0E-4
0
LINE
8
0
10
1741.7714
20
1360.0
30
0.0
11
1712.3518
21
1389.4196
31
0.0
0
LINE
8
0
10
1712.3518
20
1389.4196
30
0.0
11
1685.687
21
1416.0844
31
0.0
0
LINE
8
0
10
1685.687
20
1416.0844
30
0.0
11
1647.6892
21
1416.0844
31
0.0
0
LINE
8
0
10
1647.6892
20
1416.0844
30
0.0
11
1647.6892
21
1382.0681
31
0.0
0
LINE
8
0
10
1647.6892
20
1382.0681
30
0.0
11
1612.5358
21
1417.2216
31
0.0
0
3DFACE
8
0
10
1584.7225
20
1417.2216
30
0.0
11
1580.7225
21
1424.2216
31
0.0
12
1588.7225
22
1424.2216
32
0.0
13
1588.7227
23
1424.2217
33
1.0E-4
0
3DFACE
8
0
10
746.7411
20
1360.0
30
0.0
11
742.7411
21
1367.0
31
0.0
12
750.7411
22
1367.0
32
0.0
13
750.7412
23
1367.0001
33
1.0E-4
0
LINE
8
0
10
746.7411
20
1360.0
30
0.0
11
746.7411
21
1397.0327
31
0.0
0
LINE
8
0
10
746.7411
20
1397.0327
30
0.0
11
715.2632
21
1428.5106
31
0.0
0
LINE
8
0
10
715.2632
20
1428.5106
30
0.0
11
692.4324
21
1405.6798
31
0.0
0
LINE
8
0
10
692.4324
20
1405.6798
30
0.0
11
655.02496
21
1443.0873
31
0.0
0
LINE
8
0
10
655.02496
20
1443.0873
30
0.0
11
655.02496
21
1404.3921
31
0.0
0
3DFACE
8
0
10
628.66455
20
1378.0317
30
0.0
11
624.66455
21
1385.0317
31
0.0
12
632.66455
22
1385.0317
32
0.0
13
632.6647
23
1385.0319
33
1.0E-4
0
3DFACE
8
0
10
613.0193
20
1360.0
30
0.0
11
609.0193
21
1367.0
31
0.0
12
617.0193
22
1367.0
32
0.0
13
617.0194
23
1367.0001
33
1.0E-4
0
LINE
8
0
10
613.0193
20
1360.0
30
0.0
11
592.50653
21
1339.4873
31
0.0
0
LINE
8
0
10
592.50653
20
1339.4873
30
0.0
11
567.27136
21
1314.2521
31
0.0
0
LINE
8
0
10
567.27136
20
1314.2521
30
0.0
11
535.33734
21
1282.3181
31
0.0
0
LINE
8
0
10
535.33734
20
1282.3181
30
0.0
11
501.84515
21
1248.8259
31
0.0
0
LINE
8
0
10
501.84515
20
1248.8259
30
0.0
11
533.4839
21
1248.8259
31
0.0
0
3DFACE
8
0
10
500.6404
20
1248.8259
30
0.0
11
496.6404
21
1255.8259
31
0.0
12
504.6404
22
1255.8259
32
0.0
13
504.6405
23
1255.826
33
1.0E-4
0
3DFACE
8
0
10
1599.7521
20
1360.0
30
0.0
11
1595.7521
21
1367.0
31
0.0
12
1603.7521
22
1367.0
32
0.0
13
1603.7522
23
1367.0001
33
1.0E-4
0
LINE
8
0
10
1599.7521
20
1360.0
30
0.0
11
1599.7521
21
1394.6372
31
0.0
0
LINE
8
0
10
1599.7521
20
1394.6372
30
0.0
11
1576.0616
21
1370.9468
31
0.0
0
LINE
8
0
10
1576.0616
20
1370.9468
30
0.0
11
1543.4691
21
1370.9468
31
0.0
0
LINE
8
0
10
1543.4691
20
1370.9468
30
0.0
11
1523.2081
21
1350.6858
31
0.0
0
LINE
8
0
10
1523.2081
20
1350.6858
30
0.0
11
1523.2081
21
1390.3173
31
0.0
0
3DFACE
8
0
10
1523.2081
20
1413.2062
30
0.0
11
1519.2081
21
1420.2062
31
0.0
12
1527.2081
22
1420.2062
32
0.0
13
1527.2083
23
1420.2063
33
1.0E-4
0
3DFACE
8
0
10
1574.0881
20
1360.0
30
0.0
11
1570.0881
21
1367.0
31
0.0
12
1578.0881
22
1367.0
32
0.0
13
1578.0883
23
1367.0001
33
1.0E-4
0
LINE
8
0
10
1574.0881
20
1360.0
30
0.0
11
1542.1226
21
1328.0344
31
0.0
0
LINE
8
0
10
1542.1226
20
1328.0344
30
0.0
11
1517.2953
21
1303.2072
31
0.0
0
LINE
8
0
10
1517.2953
20
1303.2072
30
0.0
11
1485.238
21
1335.2644
31
0.0
0
LINE
8
0
10
1485.238
20
1335.2644
30
0.0
11
1485.238
21
1368.9128
31
0.0
0
LINE
8
0
10
1485.238
20
1368.9128
30
0.0
11
1485.238
21
1389.3319
31
0.0
0
3DFACE
8
0
10
1458.8884
20
1362.9823
30
0.0
11
1454.8884
21
1369.9823
31
0.0
12
1462.8884
22
1369.9823
32
0.0
13
1462.8885
23
1369.9824
33
1.0E-4
0
3DFACE
8
0
10
1757.5249
20
1360.0
30
0.0
11
1753.5249
21
1367.0
31
0.0
12
1761.5249
22
1367.0
32
0.0
13
1761.525
23
1367.0001
33
1.0E-4
0
LINE
8
0
10
1757.5249
20
1360.0
30
0.0
11
1718.7711
21
1398.7538
31
0.0
0
LINE
8
0
10
1718.7711
20
1398.7538
30
0.0
11
1697.137
21
1420.388
31
0.0
0
LINE
8
0
10
1697.137
20
1420.388
30
0.0
11
1670.6317
21
1446.8932
31
0.0
0
LINE
8
0
10
1670.6317
20
1446.8932
30
0.0
11
1637.8315
21
1479.6934
31
0.0
0
LINE
8
0
10
1637.8315
20
1479.6934
30
0.0
11
1617.737
21
1479.6934
31
0.0
0
3DFACE
8
0
10
1578.2678
20
1519.1626
30
0.0
11
1574.2678
21
1526.1626
31
0.0
12
1582.2678
22
1526.1626
32
0.0
13
1582.268
23
1526.1627
33
1.0E-4
0
3DFACE
8
0
10
1857.7615
20
1360.0
30
0.0
11
1853.7615
21
1367.0
31
0.0
12
1861.7615
22
1367.0
32
0.0
13
1861.7616
23
1367.0001
33
1.0E-4
0
LINE
8
0
10
1857.7615
20
1360.0
30
0.0
11
1837.083
21
1380.6785
31
0.0
0
LINE
8
0
10
1837.083
20
1380.6785
30
0.0
11
1812.1567
21
1405.6047
31
0.0
0
LINE
8
0
10
1812.1567
20
1405.6047
30
0.0
11
1784.3596
21
1377.8076
31
0.0
0
LINE
8
0
10
1784.3596
20
1377.8076
30
0.0
11
1758.4702
21
1377.8076
31
0.0
0
LINE
8
0
10
1758.4702
20
1377.8076
30
0.0
11
1726.1483
21
1377.8076
31
0.0
0
3DFACE
8
0
10
1726.1483
20
1406.4253
30
0.0
11
1722.1483
21
1413.4253
31
0.0
12
1730.1483
22
1413.4253
32
0.0
13
1730.1484
23
1413.4254
33
1.0E-4
0
3DFACE
8
0
10
1035.4033
20
1360.0
30
0.0
11
1031.4033
21
1367.0
31
0.0
12
1039.4033
22
1367.0
32
0.0
13
1039.4034
23
1367.0001
33
1.0E-4
0
LINE
8
0
10
1035.4033
20
1360.0
30
0.0
11
1003.1348
21
1360.0
31
0.0
0
LINE
8
0
10
1003.1348
20
1360.0
30
0.0
11
980.83307
21
1337.6982
31
0.0
0
LINE
8
0
10
980.83307
20
1337.6982
30
0.0
11
954.15344
21
1311.0187
31
0.0
0
LINE
8
0
10
954.15344
20
1311.0187
30
0.0
11
919.32306
21
1345.8491
31
0.0
0
LINE
8
0
10
919.32306
20
1345.8491
30
0.0
11
919.32306
21
1369.3253
31
0.0
0
3DFACE
8
0
10
884.72144
20
1334.7238
30
0.0
11
880.72144
21
1341.7238
31
0.0
12
888.72144
22
1341.7238
32
0.0
13
888.72156
23
1341.7239
33
1.0E-4
0
3DFACE
8
0
10
1322.7477
20
1360.0
30
0.0
11
1318.7477
21
1367.0
31
0.0
12
1326.7477
22
1367.0
32
0.0
13
1326.7478
23
1367.0001
33
1.0E-4
0
LINE
8
0
10
1322.7477
20
1360.0
30
0.0
11
1289.6049
21
1326.8572
31
0.0
0
LINE
8
0
10
1289.6049
20
1326.8572
30
0.0
11
1263.4238
21
1353.0382
31
0.0
0
LINE
8
0
10
1263.4238
20
1353.0382
30
0.0
11
1242.4823
21
1332.0967
31
0.0
0
LINE
8
0
10
1242.4823
20
1332.0967
30
0.0
11
1220.5865
21
1332.0967
31
0.0
0
LINE
8
0
10
1220.5865
20
1332.0967
30
0.0
11
1220.5865
21
1361.3535
31
0.0
0
3DFACE
8
0
10
1197.2028
20
1337.9697
30
0.0
11
1193.2028
21
1344.9697
31
0.0
12
1201.2028
22
1344.9697
32
0.0
13
1201.2029
23
1344.9698
33
1.0E-4
0
3DFACE
8
0
10
1718.2656
20
1360.0
30
0.0
11
1714.2656
21
1367.0
31
0.0
12
1722.2656
22
1367.0
32
0.0
13
1722.2657
23
1367.0001
33
1.0E-4
0
LINE
8
0
10
1718.2656
20
1360.0
30
0.0
11
1683.5267
21
1360.0
31
0.0
0
LINE
8
0
10
1683.5267
20
1360.0
30
0.0
11
1651.4475
21
1360.0
31
0.0
0
LINE
8
0
10
1651.4475
20
1360.0
30
0.0
11
1618.8662
21
1392.5813
31
0.0
0
LINE
8
0
10
1618.8662
20
1392.5813
30
0.0
11
1581.7258
21
1392.5813
31
0.0
0
LINE
8
0
10
1581.7258
20
1392.5813
30
0.0
11
1545.0604
21
1392.5813
31
0.0
0
3DFACE
8
0
10
1508.725
20
1356.2458
30
0.0
11
1504.725
21
1363.2458
31
0.0
12
1512.725
22
1363.2458
32
0.0
13
1512.7251
23
1363.246
33
1.0E-4
0
3DFACE
8
0
10
1676.0576
20
1360.0
30
0.0
11
1672.0576
21
1367.0
31
0.0
12
1680.0576
22
1367.0
32
0.0
13
1680.0577
23
1367.0001
33
1.0E-4
0
LINE
8
0
10
1676.0576
20
1360.0
30
0.0
11
1676.0576
21
1382.6201
31
0.0
0
LINE
8
0
10
1676.0576
20
1382.6201
30
0.0
11
1676.0576
21
1408.6951
31
0.0
0
LINE
8
0
10
1676.0576
20
1408.6951
30
0.0
11
1637.9161
21
1408.6951
31
0.0
0
LINE
8
0
10
1637.9161
20
1408.6951
30
0.0
11
1613.842
21
1408.6951
31
0.0
0
LINE
8
0
10
1613.842
20
1408.6951
30
0.0
11
1613.842
21
1374.3667
31
0.0
0
3DFACE
8
0
10
1613.842
20
1412.8014
30
0.0
11
1609.842
21
1419.8014
31
0.0
12
1617.842
22
1419.8014
32
0.0
13
1617.8422
23
1419.8015
33
1.0E-4
0
3DFACE
8
0
10
1827.8754
20
1360.0
30
0.0
11
1823.8754
21
1367.0
31
0.0
12
1831.8754
22
1367.0
32
0.0
13
1831.8755
23
1367.0001
33
1.0E-4
0
LINE
8
0
10
1827.8754
20
1360.0
30
0.0
11
1827.8754
21
1386.6008
31
0.0
0
LINE
8
0
10
1827.8754
20
1386.6008
30
0.0
11
1827.8754
21
1423.9674
31
0.0
0
LINE
8
0
10
1827.8754
20
1423.9674
30
0.0
11
1805.7625
21
1401.8545
31
0.0
0
LINE
8
0
10
1805.7625
20
1401.8545
30
0.0
11
1767.481
21
1401.8545
31
0.0
0
LINE
8
0
10
1767.481
20
1401.8545
30
0.0
11
1767.481
21
1421.9087
31
0.0
0
3DFACE
8
0
10
1734.547
20
1421.9087
30
0.0
11
1730.547
21
1428.9087
31
0.0
12
1738.547
22
1428.9087
32
0.0
13
1738.5471
23
1428.9088
33
1.0E-4
0
3DFACE
8
0
10
1017.1196
20
1360.0
30
0.0
11
1013.1196
21
1367.0
31
0.0
12
1021.1196
22
1367.0
32
0.0
13
1021.11975
23
1367.0001
33
1.0E-4
0
LINE
8
0
10
1017.1196
20
1360.0
30
0.0
11
988.7701
21
1331.6504
31
0.0
0
LINE
8
0
10
988.7701
20
1331.6504
30
0.0
11
964.6951
21
1307.5754
31
0.0
0
LINE
8
0
10
964.6951
20
1307.5754
30
0.0
11
964.6951
21
1331.861
31
0.0
0
LINE
8
0
10
964.6951
20
1331.861
30
0.0
11
944.2517
21
1311.4175
31
0.0
0
LINE
8
0
10
944.2517
20
1311.4175
30
0.0
11
983.5621
21
1272.1072
31
0.0
0
3DFACE
8
0
10
983.5621
20
1295.9696
30
0.0
11
979.5621
21
1302.9696
31
0.0
12
987.5621
22
1302.9696
32
0.0
13
987.5622
23
1302.9697
33
1.0E-4
0
3DFACE
8
0
10
1185.5349
20
1360.0
30
0.0
11
1181.5349
21
1367.0
31
0.0
12
1189.5349
22
1367.0
32
0.0
13
1189.535
23
1367.0001
33
1.0E-4
0
LINE
8
0
10
1185.5349
20
1360.0
30
0.0
11
1159.8264
21
1360.0
31
0.0
0
LINE
8
0
10
1159.8264
20
1360.0
30
0.0
11
1123.8083
21
1360.0
31
0.0
0
LINE
8
0
10
1123.8083
20
1360.0
30
0.0
11
1123.8083
21
1382.0267
31
0.0
0
LINE
8
0
10
1123.8083
20
1382.0267
30
0.0
11
1092.1674
21
1382.0267
31
0.0
0
LINE
8
0
10
1092.1674
20
1382.0267
30
0.0
11
1065.0775
21
1354.9369
31
0.0
0
3DFACE
8
0
10
1035.4299
20
1354.9369
30
0.0
11
1031.4299
21
1361.9369
31
0.0
12
1039.4299
22
1361.9369
32
0.0
13
1039.43
23
1361.937
33
1.0E-4
0
3DFACE
8
0
10
1849.7969
20
1360.0
30
0.0
11
1845.7969
21
1367.0
31
0.0
12
1853.7969
22
1367.0
32
0.0
13
1853.797
23
1367.0001
33
1.0E-4
0
LINE
8
0
10
1849.7969
20
1360.0
30
0.0
11
1829.1271
21
1339.3302
31
0.0
0
LINE
8
0
10
1829.1271
20
1339.3302
30
0.0
11
1829.1271
21
1371.1306
31
0.0
0
LINE
8
0
10
1829.1271
20
1371.1306
30
0.0
11
1791.7551
21
1408.5026
31
0.0
0
LINE
8
0
10
1791.7551
20
1408.5026
30
0.0
11
1757.5098
21
1408.5026
31
0.0
0
LINE
8
0
10
1757.5098
20
1408.5026
30
0.0
11
1723.0325
21
1374.0253
31
0.0
0
3DFACE
8
0
10
1685.1023
20
1411.9554
30
0.0
11
1681.1023
21
1418.9554
31
0.0
12
1689.1023
22
1418.9554
32
0.0
13
1689.1024
23
1418.9556
33
1.0E-4
0
3DFACE
8
0
10
1304.3499
20
1360.0
30
0.0
11
1300.3499
21
1367.0
31
0.0
12
1308.3499
22
1367.0
32
0.0
13
1308.35
23
1367.0001
33
1.0E-4
0
LINE
8
0
10
1304.3499
20
1360.0
30
0.0
11
1274.115
21
1390.2349
31
0.0
0
LINE
8
0
10
1274.115
20
1390.2349
30
0.0
11
1274.115
21
1429.373
31
0.0
0
LINE
8
0
10
1274.115
20
1429.373
30
0.0
11
1241.4258
21
1462.0623
31
0.0
0
LINE
8
0
10
1241.4258
20
1462.0623
30
0.0
11
1218.2151
21
1485.273
31
0.0
0
LINE
8
0
10
1218.2151
20
1485.273
30
0.0
11
1218.2151
21
1464.3859
31
0.0
0
3DFACE
8
0
10
1180.3754
20
1426.5461
30
0.0
11
1176.3754
21
1433.5461
31
0.0
12
1184.3754
22
1433.5461
32
0.0
13
1184.3755
23
1433.5463
33
1.0E-4
0
3DFACE
8
0
10
1720.315
20
1360.0
30
0.0
11
1716.315
21
1367.0
31
0.0
12
1724.315
22
1367.0
32
0.0
13
1724.3151
23
1367.0001
33
1.0E-4
0
LINE
8
0
10
1720.315
20
1360.0
30
0.0
11
1692.2214
21
1331.9065
31
0.0
0
LINE
8
0
10
1692.2214
20
1331.9065
30
0.0
11
1666.6163
21
1331.9065
31
0.0
0
LINE
8
0
10
1666.6163
20
1331.9065
30
0.0
11
1641.8197
21
1356.7031
31
0.0
0
LINE
8
0
10
1641.8197
20
1356.7031
30
0.0
11
1620.2853
21
1378.2375
31
0.0
0
LINE
8
0
10
1620.2853
20
1378.2375
30
0.0
11
1620.2853
21
1413.0181
31
0.0
0
3DFACE
8
0
10
1596.802
20
1413.0181
30
0.0
11
1592.802
21
1420.0181
31
0.0
12
1600.802
22
1420.0181
32
0.0
13
1600.8021
23
1420.0182
33
1.0E-4
0
3DFACE
8
0
10
1680.0637
20
1360.0
30
0.0
11
1676.0637
21
1367.0
31
0.0
12
1684.0637
22
1367.0
32
0.0
13
1684.0638
23
1367.0001
33
1.0E-4
0
LINE
8
0
10
1680.0637
20
1360.0
30
0.0
11
1680.0637
21
1383.6798
31
0.0
0
LINE
8
0
10
1680.0637
20
1383.6798
30
0.0
11
1645.2144
21
1348.8304
31
0.0
0
LINE
8
0
10
1645.2144
20
1348.8304
30
0.0
11
1645.2144
21
1383.2633
31
0.0
0
LINE
8
0
10
1645.2144
20
1383.2633
30
0.0
11
1621.4214
21
1383.2633
31
0.0
0
LINE
8
0
10
1621.4214
20
1383.2633
30
0.0
11
1621.4214
21
1404.9988
31
0.0
0
3DFACE
8
0
10
1598.8091
20
1382.3865
30
0.0
11
1594.8091
21
1389.3865
31
0.0
12
1602.8091
22
1389.3865
32
0.0
13
1602.8092
23
1389.3866
33
1.0E-4
0
3DFACE
8
0
10
1850.6573
20
1360.0
30
0.0
11
1846.6573
21
1367.0
31
0.0
12
1854.6573
22
1367.0
32
0.0
13
1854.6575
23
1367.0001
33
1.0E-4
0
LINE
8
0
10
1850.6573
20
1360.0
30
0.0
11
1817.7178
21
1327.0604
31
0.0
0
LINE
8
0
10
1817.7178
20
1327.0604
30
0.0
11
1797.4608
21
1347.3174
31
0.0
0
LINE
8
0
10
1797.4608
20
1347.3174
30
0.0
11
1797.4608
21
1378.2914
31
0.0
0
LINE
8
0
10
1797.4608
20
1378.2914
30
0.0
11
1758.7928
21
1378.2914
31
0.0
0
LINE
8
0
10
1758.7928
20
1378.2914
30
0.0
11
1735.7861
21
1355.2847
31
0.0
0
3DFACE
8
0
10
1735.7861
20
1390.8518
30
0.0
11
1731.7861
21
1397.8518
31
0.0
12
1739.7861
22
1397.8518
32
0.0
13
1739.7863
23
1397.8519
33
1.0E-4
0
3DFACE
8
0
10
1826.6661
20
1360.0
30
0.0
11
1822.6661
21
1367.0
31
0.0
12
1830.6661
22
1367.0
32
0.0
13
1830.6663
23
1367.0001
33
1.0E-4
0
LINE
8
0
10
1826.6661
20
1360.0
30
0.0
11
1791.5573
21
1324.8911
31
0.0
0
LINE
8
0
10
1791.5573
20
1324.8911
30
0.0
11
1761.8218
21
1295.1556
31
0.0
0
LINE
8
0
10
1761.8218
20
1295.1556
30
0.0
11
1735.1604
21
1321.817
31
0.0
0
LINE
8
0
10
1735.1604
20
1321.817
30
0.0
11
1697.9806
21
1358.9968
31
0.0
0
LINE
8
0
10
1697.9806
20
1358.9968
30
0.0
11
1697.9806
21
1394.4824
31
0.0
0
3DFACE
8
0
10
1676.0444
20
1394.4824
30
0.0
11
1672.0444
21
1401.4824
31
0.0
12
1680.0444
22
1401.4824
32
0.0
13
1680.0446
23
1401.4825
33
1.0E-4
0
3DFACE
8
0
10
1703.916
20
1360.0
30
0.0
11
1699.916
21
1367.0
31
0.0
12
1707.916
22
1367.0
32
0.0
13
1707.9161
23
1367.0001
33
1.0E-4
0
LINE
8
0
10
1703.916
20
1360.0
30
0.0
11
1683.7401
21
1339.8241
31
0.0
0
LINE
8
0
10
1683.7401
20
1339.8241
30
0.0
11
1650.7456
21
1339.8241
31
0.0
0
LINE
8
0
10
1650.7456
20
1339.8241
30
0.0
11
1610.8293
21
1339.8241
31
0.0
0
LINE
8
0
10
1610.8293
20
1339.8241
30
0.0
11
1575.9744
21
1304.9691
31
0.0
0
LINE
8
0
10
1575.9744
20
1304.9691
30
0.0
11
1550.9536
21
1304.9691
31
0.0
0
3DFACE
8
0
10
1528.6628
20
1282.6783
30
0.0
11
1524.6628
21
1289.6783
31
0.0
12
1532.6628
22
1289.6783
32
0.0
13
1532.663
23
1289.6785
33
1.0E-4
0
3DFACE
8
0
10
1835.8837
20
1360.0
30
0.0
11
1831.8837
21
1367.0
31
0.0
12
1839.8837
22
1367.0
32
0.0
13
1839.8838
23
1367.0001
33
1.0E-4
0
LINE
8
0
10
1835.8837
20
1360.0
30
0.0
11
1811.1493
21
1360.0
31
0.0
0
LINE
8
0
10
1811.1493
20
1360.0
30
0.0
11
1783.6979
21
1387.4514
31
0.0
0
LINE
8
0
10
1783.6979
20
1387.4514
30
0.0
11
1783.6979
21
1416.6414
31
0.0
0
LINE
8
0
10
1783.6979
20
1416.6414
30
0.0
11
1753.1123
21
1386.0558
31
0.0
0
LINE
8
0
10
1753.1123
20
1386.0558
30
0.0
11
1716.134
21
1349.0775
31
0.0
0
3DFACE
8
0
10
1716.134
20
1369.8401
30
0.0
11
1712.134
21
1376.8401
31
0.0
12
1720.134
22
1376.8401
32
0.0
13
1720.1342
23
1376.8402
33
1.0E-4
0
3DFACE
8
0
10
1385.7628
20
1360.0
30
0.0
11
1381.7628
21
1367.0
31
0.0
12
1389.7628
22
1367.0
32
0.0
13
1389.763
23
1367.0001
33
1.0E-4
0
LINE
8
0
10
1385.7628
20
1360.0
30
0.0
11
1421.405
21
1324.3578
31
0.0
0
LINE
8
0
10
1421.405
20
1324.3578
30
0.0
11
1395.7498
21
1298.7025
31
0.0
0
LINE
8
0
10
1395.7498
20
1298.7025
30
0.0
11
1423.2772
21
1271.175
31
0.0
0
LINE
8
0
10
1423.2772
20
1271.175
30
0.0
11
1390.8339
21
1303.6184
31
0.0
0
LINE
8
0
10
1390.8339
20
1303.6184
30
0.0
11
1420.3086
21
1274.1437
31
0.0
0
3DFACE
8
0
10
1394.0857
20
1300.3666
30
0.0
11
1390.0857
21
1307.3666
31
0.0
12
1398.0857
22
1307.3666
32
0.0
13
1398.0858
23
1307.3667
33
1.0E-4
0
3DFACE
8
0
10
1603.1116
20
1360.0
30
0.0
11
1599.1116
21
1367.0
31
0.0
12
1607.1116
22
1367.0
32
0.0
13
1607.1117
23
1367.0001
33
1.0E-4
0
LINE
8
0
10
1603.1116
20
1360.0
30
0.0
11
1563.8579
21
1399.2537
31
0.0
0
LINE
8
0
10
1563.8579
20
1399.2537
30
0.0
11
1563.8579
21
1419.5151
31
0.0
0
LINE
8
0
10
1563.8579
20
1419.5151
30
0.0
11
1529.5537
21
1419.5151
31
0.0
0
LINE
8
0
10
1529.5537
20
1419.5151
30
0.0
11
1555.102
21
1445.0635
31
0.0
0
LINE
8
0
10
1555.102
20
1445.0635
30
0.0
11
1555.102
21
1414.761
31
0.0
0
3DFACE
8
0
10
1517.0645
20
1452.7986
30
0.0
11
1513.0645
21
1459.7986
31
0.0
12
1521.0645
22
1459.7986
32
0.0
13
1521.0646
23
1459.7987
33
1.0E-4
0
3DFACE
8
0
10
1815.3147
20
1360.0
30
0.0
11
1811.3147
21
1367.0
31
0.0
12
1819.3147
22
1367.0
32
0.0
13
1819.3148
23
1367.0001
33
1.0E-4
0
LINE
8
0
10
1815.3147
20
1360.0
30
0.0
11
1790.5789
21
1384.7358
31
0.0
0
LINE
8
0
10
1790.5789
20
1384.7358
30
0.0
11
1759.2366
21
1416.0781
31
0.0
0
LINE
8
0
10
1759.2366
20
1416.0781
30
0.0
11
1736.971
21
1438.3438
31
0.0
0
LINE
8
0
10
1736.971
20
1438.3438
30
0.0
11
1736.971
21
1398.6149
31
0.0
0
LINE
8
0
10
1736.971
20
1398.6149
30
0.0
11
1702.176
21
1398.6149
31
0.0
0
3DFACE
8
0
10
1670.563
20
1367.0018
30
0.0
11
1666.563
21
1374.0018
31
0.0
12
1674.563
22
1374.0018
32
0.0
13
1674.5631
23
1374.002
33
1.0E-4
0
3DFACE
8
0
10
1548.1233
20
1360.0
30
0.0
11
1544.1233
21
1367.0
31
0.0
12
1552.1233
22
1367.0
32
0.0
13
1552.1234
23
1367.0001
33
1.0E-4
0
LINE
8
0
10
1548.1233
20
1360.0
30
0.0
11
1581.5878
21
1393.4645
31
0.0
0
LINE
8
0
10
1581.5878
20
1393.4645
30
0.0
11
1552.1106
21
1363.9873
31
0.0
0
LINE
8
0
10
1552.1106
20
1363.9873
30
0.0
11
1572.7655
21
1343.3324
31
0.0
0
LINE
8
0
10
1572.7655
20
1343.3324
30
0.0
11
1542.9878
21
1373.1101
31
0.0
0
LINE
8
0
10
1542.9878
20
1373.1101
30
0.0
11
1578.7496
21
1408.872
31
0.0
0
3DFACE
8
0
10
1556.6506
20
1408.872
30
0.0
11
1552.6506
21
1415.872
31
0.0
12
1560.6506
22
1415.872
32
0.0
13
1560.6508
23
1415.8721
33
1.0E-4
0
3DFACE
8
0
10
1693.7396
20
1360.0
30
0.0
11
1689.7396
21
1367.0
31
0.0
12
1697.7396
22
1367.0
32
0.0
13
1697.7397
23
1367.0001
33
1.0E-4
0
LINE
8
0
10
1693.7396
20
1360.0
30
0.0
11
1722.7361
21
1331.0035
31
0.0
0
LINE
8
0
10
1722.7361
20
1331.0035
30
0.0
11
1692.1372
21
1361.6024
31
0.0
0
LINE
8
0
10
1692.1372
20
1361.6024
30
0.0
11
1692.1372
21
1398.1951
31
0.0
0
LINE
8
0
10
1692.1372
20
1398.1951
30
0.0
11
1723.4905
21
1429.5483
31
0.0
0
LINE
8
0
10
1723.4905
20
1429.5483
30
0.0
11
1695.2043
21
1457.8345
31
0.0
0
3DFACE
8
0
10
1731.7001
20
1457.8345
30
0.0
11
1727.7001
21
1464.8345
31
0.0
12
1735.7001
22
1464.8345
32
0.0
13
1735.7002
23
1464.8346
33
1.0E-4
0
3DFACE
8
0
10
1894.999
20
1360.0
30
0.0
11
1890.999
21
1367.0
31
0.0
12
1898.999
22
1367.0
32
0.0
13
1898.9991
23
1367.0001
33
1.0E-4
0
LINE
8
0
10
1894.999
20
1360.0
30
0.0
11
1894.999
21
1395.0353
31
0.0
0
LINE
8
0
10
1894.999
20
1395.0353
30
0.0
11
1872.1213
21
1395.0353
31
0.0
0
LINE
8
0
10
1872.1213
20
1395.0353
30
0.0
11
1832.6953
21
1355.6093
31
0.0
0
LINE
8
0
10
1832.6953
20
1355.6093
30
0.0
11
1804.3351
21
1355.6093
31
0.0
0
LINE
8
0
10
1804.3351
20
1355.6093
30
0.0
11
1780.4197
21
1331.6938
31
0.0
0
3DFACE
8
0
10
1780.4197
20
1355.9912
30
0.0
11
1776.4197
21
1362.9912
31
0.0
12
1784.4197
22
1362.9912
32
0.0
13
1784.4198
23
1362.9913
33
1.0E-4
0
3DFACE
8
0
10
1865.5884
20
1360.0
30
0.0
11
1861.5884
21
1367.0
31
0.0
12
1869.5884
22
1367.0
32
0.0
13
1869.5885
23
1367.0001
33
1.0E-4
0
LINE
8
0
10
1865.5884
20
1360.0
30
0.0
11
1842.3408
21
1360.0
31
0.0
0
LINE
8
0
10
1842.3408
20
1360.0
30
0.0
11
1842.3408
21
1395.47
31
0.0
0
LINE
8
0
10
1842.3408
20
1395.47
30
0.0
11
1805.017
21
1432.7938
31
0.0
0
LINE
8
0
10
1805.017
20
1432.7938
30
0.0
11
1768.9769
21
1468.8339
31
0.0
0
LINE
8
0
10
1768.9769
20
1468.8339
30
0.0
11
1731.3591
21
1468.8339
31
0.0
0
3DFACE
8
0
10
1701.12
20
1468.8339
30
0.0
11
1697.12
21
1475.8339
31
0.0
12
1705.12
22
1475.8339
32
0.0
13
1705.1201
23
1475.834
33
1.0E-4
0
3DFACE
8
0
10
1595.0762
20
1560.0
30
0.0
11
1591.0762
21
1567.0
31
0.0
12
1599.0762
22
1567.0
32
0.0
13
1599.0763
23
1567.0001
33
1.0E-4
0
LINE
8
0
10
1595.0762
20
1560.0
30
0.0
11
1555.1287
21
1560.0
31
0.0
0
LINE
8
0
10
1555.1287
20
1560.0
30
0.0
11
1529.6484
21
1560.0
31
0.0
0
LINE
8
0
10
1529.6484
20
1560.0
30
0.0
11
1491.0573
21
1598.5912
31
0.0
0
LINE
8
0
10
1491.0573
20
1598.5912
30
0.0
11
1491.0573
21
1634.6437
31
0.0
0
3DFACE
8
0
10
1462.1705
20
1634.6437
30
0.0
11
1458.1705
21
1641.6437
31
0.0
12
1466.1705
22
1641.6437
32
0.0
13
1466.1707
23
1641.6438
33
1.0E-4
0
3DFACE
8
0
10
1213.8782
20
1560.0
30
0.0
11
1209.8782
21
1567.0
31
0.0
12
1217.8782
22
1567.0
32
0.0
13
1217.8783
23
1567.0001
33
1.0E-4
0
LINE
8
0
10
1213.8782
20
1560.0
30
0.0
11
1189.8479
21
1584.0303
31
0.0
0
LINE
8
0
10
1189.8479
20
1584.0303
30
0.0
11
1160.3973
21
1554.5797
31
0.0
0
LINE
8
0
10
1160.3973
20
1554.5797
30
0.0
11
1160.3973
21
1575.587
31
0.0
0
LINE
8
0
10
1160.3973
20
1575.587
30
0.0
11
1139.9742
21
1596.0101
31
0.0
0
3DFACE
8
0
10
1110.3737
20
1596.0101
30
0.0
11
1106.3737
21
1603.0101
31
0.0
12
1114.3737
22
1603.0101
32
0.0
13
1114.3738
23
1603.0103
33
1.0E-4
0
3DFACE
8
0
10
1873.2297
20
1560.0
30
0.0
11
1869.2297
21
1567.0
31
0.0
12
1877.2297
22
1567.0
32
0.0
13
1877.2299
23
1567.0001
33
1.0E-4
0
LINE
8
0
10
1873.2297
20
1560.0
30
0.0
11
1839.0917
21
1594.1381
31
0.0
0
LINE
8
0
10
1839.0917
20
1594.1381
30
0.0
11
1807.4205
21
1625.8092
31
0.0
0
LINE
8
0
10
1807.4205
20
1625.8092
30
0.0
11
1807.4205
21
1594.7996
31
0.0
0
LINE
8
0
10
1807.4205
20
1594.7996
30
0.0
11
1807.4205
21
1630.8652
31
0.0
0
3DFACE
8
0
10
1784.2094
20
1654.0764
30
0.0
11
1780.2094
21
1661.0764
31
0.0
12
1788.2094
22
1661.0764
32
0.0
13
1788.2095
23
1661.0765
33
1.0E-4
0
3DFACE
8
0
10
791.5984
20
1560.0
30
0.0
11
787.5984
21
1567.0
31
0.0
12
795.5984
22
1567.0
32
0.0
13
795.5985
23
1567.0001
33
1.0E-4
0
LINE
8
0
10
791.5984
20
1560.0
30
0.0
11
771.0191
21
1539.4208
31
0.0
0
LINE
8
0
10
771.0191
20
1539.4208
30
0.0
11
750.66534
21
1539.4208
31
0.0
0
LINE
8
0
10
750.66534
20
1539.4208
30
0.0
11
717.37415
21
1572.7119
31
0.0
0
LINE
8
0
10
717.37415
20
1572.7119
30
0.0
11
717.37415
21
1601.3629
31
0.0
0
3DFACE
8
0
10
680.2517
20
1564.2405
30
0.0
11
676.2517
21
1571.2405
31
0.0
12
684.2517
22
1571.2405
32
0.0
13
684.25183
23
1571.2406
33
1.0E-4
0
3DFACE
8
0
10
997.46643
20
1560.0
30
0.0
11
993.46643
21
1567.0
31
0.0
12
1001.46643
22
1567.0
32
0.0
13
1001.46655
23
1567.0001
33
1.0E-4
0
LINE
8
0
10
997.46643
20
1560.0
30
0.0
11
975.73926
21
1560.0
31
0.0
0
LINE
8
0
10
975.73926
20
1560.0
30
0.0
11
938.80444
21
1596.9348
31
0.0
0
LINE
8
0
10
938.80444
20
1596.9348
30
0.0
11
908.2874
21
1596.9348
31
0.0
0
LINE
8
0
10
908.2874
20
1596.9348
30
0.0
11
878.2393
21
1566.8867
31
0.0
0
3DFACE
8
0
10
856.21344
20
1588.9126
30
0.0
11
852.21344
21
1595.9126
31
0.0
12
860.21344
22
1595.9126
32
0.0
13
860.21356
23
1595.9127
33
1.0E-4
0
3DFACE
8
0
10
513.18634
20
1560.0
30
0.0
11
509.18634
21
1567.0
31
0.0
12
517.18634
22
1567.0
32
0.0
13
517.18646
23
1567.0001
33
1.0E-4
0
LINE
8
0
10
513.18634
20
1560.0
30
0.0
11
485.64072
21
1560.0
31
0.0
0
LINE
8
0
10
485.64072
20
1560.0
30
0.0
11
510.47067
21
1560.0
31
0.0
0
LINE
8
0
10
510.47067
20
1560.0
30
0.0
11
480.96643
21
1560.0
31
0.0
0
LINE
8
0
10
480.96643
20
1560.0
30
0.0
11
513.84375
21
1592.8773
31
0.0
0
3DFACE
8
0
10
475.06702
20
1554.1006
30
0.0
11
471.06702
21
1561.1006
31
0.0
12
479.06702
22
1561.1006
32
0.0
13
479.0671
23
1561.1007
33
1.0E-4
0
3DFACE
8
0
10
1594.5486
20
1560.0
30
0.0
11
1590.5486
21
1567.0
31
0.0
12
1598.5486
22
1567.0
32
0.0
13
1598.5487
23
1567.0001
33
1.0E-4
0
LINE
8
0
10
1594.5486
20
1560.0
30
0.0
11
1555.2561
21
1599.2925
31
0.0
0
LINE
8
0
10
1555.2561
20
1599.2925
30
0.0
11
1555.2561
21
1619.7163
31
0.0
0
LINE
8
0
10
1555.2561
20
1619.7163
30
0.0
11
1519.2468
21
1619.7163
31
0.0
0
LINE
8
0
10
1519.2468
20
1619.7163
30
0.0
11
1494.3168
21
1594.7863
31
0.0
0
3DFACE
8
0
10
1467.6038
20
1621.4993
30
0.0
11
1463.6038
21
1628.4993
31
0.0
12
1471.6038
22
1628.4993
32
0.0
13
1471.6039
23
1628.4994
33
1.0E-4
0
3DFACE
8
0
10
1135.6633
20
1560.0
30
0.0
11
1131.6633
21
1567.0
31
0.0
12
1139.6633
22
1567.0
32
0.0
13
1139.6635
23
1567.0001
33
1.0E-4
0
LINE
8
0
10
1135.6633
20
1560.0
30
0.0
11
1099.8655
21
1524.2021
31
0.0
0
LINE
8
0
10
1099.8655
20
1524.2021
30
0.0
11
1073.6598
21
1497.9965
31
0.0
0
LINE
8
0
10
1073.6598
20
1497.9965
30
0.0
11
1050.8353
21
1475.172
31
0.0
0
LINE
8
0
10
1050.8353
20
1475.172
30
0.0
11
1050.8353
21
1504.153
31
0.0
0
3DFACE
8
0
10
1030.5077
20
1504.153
30
0.0
11
1026.5077
21
1511.153
31
0.0
12
1034.5077
22
1511.153
32
0.0
13
1034.5078
23
1511.1531
33
1.0E-4
0
3DFACE
8
0
10
1625.1816
20
1560.0
30
0.0
11
1621.1816
21
1567.0
31
0.0
12
1629.1816
22
1567.0
32
0.0
13
1629.1818
23
1567.0001
33
1.0E-4
0
LINE
8
0
10
1625.1816
20
1560.0
30
0.0
11
1601.5458
21
1536.3641
31
0.0
0
LINE
8
0
10
1601.5458
20
1536.3641
30
0.0
11
1573.8427
21
1508.661
31
0.0
0
LINE
8
0
10
1573.8427
20
1508.661
30
0.0
11
1553.7804
21
1508.661
31
0.0
0
LINE
8
0
10
1553.7804
20
1508.661
30
0.0
11
1553.7804
21
1529.9337
31
0.0
0
3DFACE
8
0
10
1519.1588
20
1529.9337
30
0.0
11
1515.1588
21
1536.9337
31
0.0
12
1523.1588
22
1536.9337
32
0.0
13
1523.1589
23
1536.9338
33
1.0E-4
0
3DFACE
8
0
10
1733.9878
20
1560.0
30
0.0
11
1729.9878
21
1567.0
31
0.0
12
1737.9878
22
1567.0
32
0.0
13
1737.9879
23
1567.0001
33
1.0E-4
0
LINE
8
0
10
1733.9878
20
1560.0
30
0.0
11
1694.8608
21
1599.127
31
0.0
0
LINE
8
0
10
1694.8608
20
1599.127
30
0.0
11
1660.9257
21
1599.127
31
0.0
0
LINE
8
0
10
1660.9257
20
1599.127
30
0.0
11
1660.9257
21
1620.8347
31
0.0
0
LINE
8
0
10
1660.9257
20
1620.8347
30
0.0
11
1640.2484
21
1620.8347
31
0.0
0
3DFACE
8
0
10
1612.9845
20
1620.8347
30
0.0
11
1608.9845
21
1627.8347
31
0.0
12
1616.9845
22
1627.8347
32
0.0
13
1616.9846
23
1627.8348
33
1.0E-4
0
3DFACE
8
0
10
1851.9082
20
1560.0
30
0.0
11
1847.9082
21
1567.0
31
0.0
12
1855.9082
22
1567.0
32
0.0
13
1855.9083
23
1567.0001
33
1.0E-4
0
LINE
8
0
10
1851.9082
20
1560.0
30
0.0
11
1815.6145
21
1560.0
31
0.0
0
LINE
8
0
10
1815.6145
20
1560.0
30
0.0
11
1776.5747
21
1599.0398
31
0.0
0
LINE
8
0
10
1776.5747
20
1599.0398
30
0.0
11
1742.7006
21
1599.0398
31
0.0
0
LINE
8
0
10
1742.7006
20
1599.0398
30
0.0
11
1703.2734
21
1638.4669
31
0.0
0
3DFACE
8
0
10
1680.9414
20
1660.799
30
0.0
11
1676.9414
21
1667.799
31
0.0
12
1684.9414
22
1667.799
32
0.0
13
1684.9415
23
1667.7991
33
1.0E-4
0
3DFACE
8
0
10
1385.8999
20
1560.0
30
0.0
11
1381.8999
21
1567.0
31
0.0
12
1389.8999
22
1567.0
32
0.0
13
1389.9
23
1567.0001
33
1.0E-4
0
LINE
8
0
10
1385.8999
20
1560.0
30
0.0
11
1385.8999
21
1598.0105
31
0.0
0
LINE
8
0
10
1385.8999
20
1598.0105
30
0.0
11
1352.4031
21
1631.5073
31
0.0
0
LINE
8
0
10
1352.4031
20
1631.5073
30
0.0
11
1330.7472
21
1653.1632
31
0.0
0
LINE
8
0
10
1330.7472
20
1653.1632
30
0.0
11
1330.7472
21
1630.9684
31
0.0
0
3DFACE
8
0
10
1330.7472
20
1593.0372
30
0.0
11
1326.7472
21
1600.0372
31
0.0
12
1334.7472
22
1600.0372
32
0.0
13
1334.7473
23
1600.0374
33
1.0E-4
0
3DFACE
8
0
10
1621.6575
20
1560.0
30
0.0
11
1617.6575
21
1567.0
31
0.0
12
1625.6575
22
1567.0
32
0.0
13
1625.6576
23
1567.0001
33
1.0E-4
0
LINE
8
0
10
1621.6575
20
1560.0
30
0.0
11
1582.9327
21
1560.0
31
0.0
0
LINE
8
0
10
1582.9327
20
1560.0
30
0.0
11
1561.5693
21
1560.0
31
0.0
0
LINE
8
0
10
1561.5693
20
1560.0
30
0.0
11
1561.5693
21
1599.3883
31
0.0
0
LINE
8
0
10
1561.5693
20
1599.3883
30
0.0
11
1540.6165
21
1599.3883
31
0.0
0
3DFACE
8
0
10
1505.1501
20
1563.922
30
0.0
11
1501.1501
21
1570.922
31
0.0
12
1509.1501
22
1570.922
32
0.0
13
1509.1503
23
1570.9221
33
1.0E-4
0
3DFACE
8
0
10
1610.6196
20
1560.0
30
0.0
11
1606.6196
21
1567.0
31
0.0
12
1614.6196
22
1567.0
32
0.0
13
1614.6198
23
1567.0001
33
1.0E-4
0
LINE
8
0
10
1610.6196
20
1560.0
30
0.0
11
1585.2954
21
1534.6758
31
0.0
0
LINE
8
0
10
1585.2954
20
1534.6758
30
0.0
11
1585.2954
21
1564.3433
31
0.0
0
LINE
8
0
10
1585.2954
20
1564.3433
30
0.0
11
1585.2954
21
1589.0295
31
0.0
0
LINE
8
0
10
1585.2954
20
1589.0295
30
0.0
11
1585.2954
21
1626.2798
31
0.0
0
3DFACE
8
0
10
1560.4938
20
1601.4781
30
0.0
11
1556.4938
21
1608.4781
31
0.0
12
1564.4938
22
1608.4781
32
0.0
13
1564.4939
23
1608.4783
33
1.0E-4
0
3DFACE
8
0
10
1645.3281
20
1560.0
30
0.0
11
1641.3281
21
1567.0
31
0.0
12
1649.3281
22
1567.0
32
0.0
13
1649.3282
23
1567.0001
33
1.0E-4
0
LINE
8
0
10
1645.3281
20
1560.0
30
0.0
11
1623.2502
21
1582.0779
31
0.0
0
LINE
8
0
10
1623.2502
20
1582.0779
30
0.0
11
1597.2227
21
1556.0503
31
0.0
0
LINE
8
0
10
1597.2227
20
1556.0503
30
0.0
11
1558.1011
21
1516.9287
31
0.0
0
LINE
8
0
10
1558.1011
20
1516.9287
30
0.0
11
1523.7104
21
1482.5381
31
0.0
0
3DFACE
8
0
10
1493.9973
20
1482.5381
30
0.0
11
1489.9973
21
1489.5381
31
0.0
12
1497.9973
22
1489.5381
32
0.0
13
1497.9974
23
1489.5382
33
1.0E-4
0
3DFACE
8
0
10
1474.8794
20
1560.0
30
0.0
11
1470.8794
21
1567.0
31
0.0
12
1478.8794
22
1567.0
32
0.0
13
1478.8795
23
1567.0001
33
1.0E-4
0
LINE
8
0
10
1474.8794
20
1560.0
30
0.0
11
1474.8794
21
1590.9116
31
0.0
0
LINE
8
0
10
1474.8794
20
1590.9116
30
0.0
11
1444.144
21
1621.647
31
0.0
0
LINE
8
0
10
1444.144
20
1621.647
30
0.0
11
1420.3308
21
1645.4602
31
0.0
0
LINE
8
0
10
1420.3308
20
1645.4602
30
0.0
11
1387.4163
21
1612.5457
31
0.0
0
3DFACE
8
0
10
1362.6685
20
1637.2935
30
0.0
11
1358.6685
21
1644.2935
31
0.0
12
1366.6685
22
1644.2935
32
0.0
13
1366.6686
23
1644.2936
33
1.0E-4
0
3DFACE
8
0
10
1159.1979
20
1560.0
30
0.0
11
1155.1979
21
1567.0
31
0.0
12
1163.1979
22
1567.0
32
0.0
13
1163.198
23
1567.0001
33
1.0E-4
0
LINE
8
0
10
1159.1979
20
1560.0
30
0.0
11
1137.9908
21
1581.207
31
0.0
0
LINE
8
0
10
1137.9908
20
1581.207
30
0.0
11
1137.9908
21
1602.6909
31
0.0
0
LINE
8
0
10
1137.9908
20
1602.6909
30
0.0
11
1137.9908
21
1637.3508
31
0.0
0
LINE
8
0
10
1137.9908
20
1637.3508
30
0.0
11
1137.9908
21
1605.6113
31
0.0
0
3DFACE
8
0
10
1115.0294
20
1605.6113
30
0.0
11
1111.0294
21
1612.6113
31
0.0
12
1119.0294
22
1612.6113
32
0.0
13
1119.0295
23
1612.6115
33
1.0E-4
0
3DFACE
8
0
10
1618.5297
20
1560.0
30
0.0
11
1614.5297
21
1567.0
31
0.0
12
1622.5297
22
1567.0
32
0.0
13
1622.5298
23
1567.0001
33
1.0E-4
0
LINE
8
0
10
1618.5297
20
1560.0
30
0.0
11
1618.5297
21
1597.9998
31
0.0
0
LINE
8
0
10
1618.5297
20
1597.9998
30
0.0
11
1587.2251
21
1629.3043
31
0.0
0
LINE
8
0
10
1587.2251
20
1629.3043
30
0.0
11
1554.0128
21
1662.5166
31
0.0
0
LINE
8
0
10
1554.0128
20
1662.5166
30
0.0
11
1515.0844
21
1623.5881
31
0.0
0
3DFACE
8
0
10
1479.7025
20
1588.2063
30
0.0
11
1475.7025
21
1595.2063
31
0.0
12
1483.7025
22
1595.2063
32
0.0
13
1483.7026
23
1595.2064
33
1.0E-4
0
3DFACE
8
0
10
1323.1592
20
1560.0
30
0.0
11
1319.1592
21
1567.0
31
0.0
12
1327.1592
22
1567.0
32
0.0
13
1327.1593
23
1567.0001
33
1.0E-4
0
LINE
8
0
10
1323.1592
20
1560.0
30
0.0
11
1293.7886
21
1589.3706
31
0.0
0
LINE
8
0
10
1293.7886
20
1589.3706
30
0.0
11
1293.7886
21
1617.3683
31
0.0
0
LINE
8
0
10
1293.7886
20
1617.3683
30
0.0
11
1266.4978
21
1590.0775
31
0.0
0
LINE
8
0
10
1266.4978
20
1590.0775
30
0.0
11
1237.3417
21
1590.0775
31
0.0
0
3DFACE
8
0
10
1276.052
20
1551.3672
30
0.0
11
1272.052
21
1558.3672
31
0.0
12
1280.052
22
1558.3672
32
0.0
13
1280.0521
23
1558.3673
33
1.0E-4
0
3DFACE
8
0
10
1551.3003
20
1560.0
30
0.0
11
1547.3003
21
1567.0
31
0.0
12
1555.3003
22
1567.0
32
0.0
13
1555.3004
23
1567.0001
33
1.0E-4
0
LINE
8
0
10
1551.3003
20
1560.0
30
0.0
11
1551.3003
21
1596.0876
31
0.0
0
LINE
8
0
10
1551.3003
20
1596.0876
30
0.0
11
1513.6642
21
1633.7238
31
0.0
0
LINE
8
0
10
1513.6642
20
1633.7238
30
0.0
11
1478.4307
21
1668.9573
31
0.0
0
LINE
8
0
10
1478.4307
20
1668.9573
30
0.0
11
1445.4125
21
1635.9391
31
0.0
0
3DFACE
8
0
10
1412.2129
20
1602.7395
30
0.0
11
1408.2129
21
1609.7395
31
0.0
12
1416.2129
22
1609.7395
32
0.0
13
1416.213
23
1609.7396
33
1.0E-4
0
3DFACE
8
0
10
1387.5435
20
1560.0
30
0.0
11
1383.5435
21
1567.0
31
0.0
12
1391.5435
22
1567.0
32
0.0
13
1391.5436
23
1567.0001
33
1.0E-4
0
LINE
8
0
10
1387.5435
20
1560.0
30
0.0
11
1358.9421
21
1531.3987
31
0.0
0
LINE
8
0
10
1358.9421
20
1531.3987
30
0.0
11
1327.4789
21
1499.9354
31
0.0
0
LINE
8
0
10
1327.4789
20
1499.9354
30
0.0
11
1327.4789
21
1528.1132
31
0.0
0
LINE
8
0
10
1327.4789
20
1528.1132
30
0.0
11
1327.4789
21
1561.96
31
0.0
0
3DFACE
8
0
10
1304.4896
20
1584.9492
30
0.0
11
1300.4896
21
1591.9492
31
0.0
12
1308.4896
22
1591.9492
32
0.0
13
1308.4897
23
1591.9493
33
1.0E-4
0
3DFACE
8
0
10
1382.6244
20
1560.0
30
0.0
11
1378.6244
21
1567.0
31
0.0
12
1386.6244
22
1567.0
32
0.0
13
1386.6245
23
1567.0001
33
1.0E-4
0
LINE
8
0
10
1382.6244
20
1560.0
30
0.0
11
1382.6244
21
1592.2051
31
0.0
0
LINE
8
0
10
1382.6244
20
1592.2051
30
0.0
11
1382.6244
21
1616.5245
31
0.0
0
LINE
8
0
10
1382.6244
20
1616.5245
30
0.0
11
1405.7727
21
1593.3762
31
0.0
0
LINE
8
0
10
1405.7727
20
1593.3762
30
0.0
11
1405.7727
21
1618.4735
31
0.0
0
3DFACE
8
0
10
1380.095
20
1592.7958
30
0.0
11
1376.095
21
1599.7958
31
0.0
12
1384.095
22
1599.7958
32
0.0
13
1384.0951
23
1599.7959
33
1.0E-4
0
3DFACE
8
0
10
1529.3712
20
1560.0
30
0.0
11
1525.3712
21
1567.0
31
0.0
12
1533.3712
22
1567.0
32
0.0
13
1533.3713
23
1567.0001
33
1.0E-4
0
LINE
8
0
10
1529.3712
20
1560.0
30
0.0
11
1498.3822
21
1590.989
31
0.0
0
LINE
8
0
10
1498.3822
20
1590.989
30
0.0
11
1465.6987
21
1623.6725
31
0.0
0
LINE
8
0
10
1465.6987
20
1623.6725
30
0.0
11
1441.566
21
1599.5398
31
0.0
0
LINE
8
0
10
1441.566
20
1599.5398
30
0.0
11
1441.566
21
1637.9064
31
0.0
0
3DFACE
8
0
10
1403.9288
20
1675.5436
30
0.0
11
1399.9288
21
1682.5436
31
0.0
12
1407.9288
22
1682.5436
32
0.0
13
1407.929
23
1682.5437
33
1.0E-4
0
3DFACE
8
0
10
1723.2117
20
1560.0
30
0.0
11
1719.2117
21
1567.0
31
0.0
12
1727.2117
22
1567.0
32
0.0
13
1727.2118
23
1567.0001
33
1.0E-4
0
LINE
8
0
10
1723.2117
20
1560.0
30
0.0
11
1691.5345
21
1560.0
31
0.0
0
LINE
8
0
10
1691.5345
20
1560.0
30
0.0
11
1667.5117
21
1535.9772
31
0.0
0
LINE
8
0
10
1667.5117
20
1535.9772
30
0.0
11
1645.7465
21
1514.2119
31
0.0
0
LINE
8
0
10
1645.7465
20
1514.2119
30
0.0
11
1645.7465
21
1546.3948
31
0.0
0
3DFACE
8
0
10
1606.6022
20
1585.5391
30
0.0
11
1602.6022
21
1592.5391
31
0.0
12
1610.6022
22
1592.5391
32
0.0
13
1610.6023
23
1592.5392
33
1.0E-4
0
3DFACE
8
0
10
1603.0183
20
1560.0
30
0.0
11
1599.0183
21
1567.0
31
0.0
12
1607.0183
22
1567.0
32
0.0
13
1607.0184
23
1567.0001
33
1.0E-4
0
LINE
8
0
10
1603.0183
20
1560.0
30
0.0
11
1578.6176
21
1560.0
31
0.0
0
LINE
8
0
10
1578.6176
20
1560.0
30
0.0
11
1550.5266
21
1588.091
31
0.0
0
LINE
8
0
10
1550.5266
20
1588.091
30
0.0
11
1587.726
21
1550.8916
31
0.0
0
LINE
8
0
10
1587.726
20
1550.8916
30
0.0
11
1587.726
21
1576.1611
31
0.0
0
3DFACE
8
0
10
1553.1136
20
1576.1611
30
0.0
11
1549.1136
21
1583.1611
31
0.0
12
1557.1136
22
1583.1611
32
0.0
13
1557.1138
23
1583.1613
33
1.0E-4
0
3DFACE
8
0
10
1646.5798
20
1560.0
30
0.0
11
1642.5798
21
1567.0
31
0.0
12
1650.5798
22
1567.0
32
0.0
13
1650.58
23
1567.0001
33
1.0E-4
0
LINE
8
0
10
1646.5798
20
1560.0
30
0.0
11
1608.8453
21
1597.7345
31
0.0
0
LINE
8
0
10
1608.8453
20
1597.7345
30
0.0
11
1581.4907
21
1625.0891
31
0.0
0
LINE
8
0
10
1581.4907
20
1625.0891
30
0.0
11
1548.1913
21
1625.0891
31
0.0
0
LINE
8
0
10
1548.1913
20
1625.0891
30
0.0
11
1580.5927
21
1592.6877
31
0.0
0
3DFACE
8
0
10
1580.5927
20
1627.2716
30
0.0
11
1576.5927
21
1634.2716
31
0.0
12
1584.5927
22
1634.2716
32
0.0
13
1584.5928
23
1634.2717
33
1.0E-4
0
3DFACE
8
0
10
1823.3474
20
1560.0
30
0.0
11
1819.3474
21
1567.0
31
0.0
12
1827.3474
22
1567.0
32
0.0
13
1827.3475
23
1567.0001
33
1.0E-4
0
LINE
8
0
10
1823.3474
20
1560.0
30
0.0
11
1802.8367
21
1560.0
31
0.0
0
LINE
8
0
10
1802.8367
20
1560.0
30
0.0
11
1774.5535
21
1531.7168
31
0.0
0
LINE
8
0
10
1774.5535
20
1531.7168
30
0.0
11
1734.8003
21
1531.7168
31
0.0
0
LINE
8
0
10
1734.8003
20
1531.7168
30
0.0
11
1734.8003
21
1561.6182
31
0.0
0
3DFACE
8
0
10
1734.8003
20
1587.6351
30
0.0
11
1730.8003
21
1594.6351
31
0.0
12
1738.8003
22
1594.6351
32
0.0
13
1738.8004
23
1594.6353
33
1.0E-4
0
3DFACE
8
0
10
1783.4332
20
1560.0
30
0.0
11
1779.4332
21
1567.0
31
0.0
12
1787.4332
22
1567.0
32
0.0
13
1787.4333
23
1567.0001
33
1.0E-4
0
LINE
8
0
10
1783.4332
20
1560.0
30
0.0
11
1748.8939
21
1560.0
31
0.0
0
LINE
8
0
10
1748.8939
20
1560.0
30
0.0
11
1748.8939
21
1590.2295
31
0.0
0
LINE
8
0
10
1748.8939
20
1590.2295
30
0.0
11
1715.4071
21
1590.2295
31
0.0
0
LINE
8
0
10
1715.4071
20
1590.2295
30
0.0
11
1690.3966
21
1615.24
31
0.0
0
3DFACE
8
0
10
1723.3651
20
1615.24
30
0.0
11
1719.3651
21
1622.24
31
0.0
12
1727.3651
22
1622.24
32
0.0
13
1727.3652
23
1622.2401
33
1.0E-4
0
3DFACE
8
0
10
1795.9498
20
1560.0
30
0.0
11
1791.9498
21
1567.0
31
0.0
12
1799.9498
22
1567.0
32
0.0
13
1799.95
23
1567.0001
33
1.0E-4
0
LINE
8
0
10
1795.9498
20
1560.0
30
0.0
11
1772.6249
21
1536.675
31
0.0
0
LINE
8
0
10
1772.6249
20
1536.675
30
0.0
11
1752.5145
21
1536.675
31
0.0
0
LINE
8
0
10
1752.5145
20
1536.675
30
0.0
11
1726.0931
21
1510.2537
31
0.0
0
LINE
8
0
10
1726.0931
20
1510.2537
30
0.0
11
1701.1022
21
1510.2537
31
0.0
0
3DFACE
8
0
10
1731.373
20
1540.5245
30
0.0
11
1727.373
21
1547.5245
31
0.0
12
1735.373
22
1547.5245
32
0.0
13
1735.3732
23
1547.5247
33
1.0E-4
0
3DFACE
8
0
10
1874.5681
20
1560.0
30
0.0
11
1870.5681
21
1567.0
31
0.0
12
1878.5681
22
1567.0
32
0.0
13
1878.5682
23
1567.0001
33
1.0E-4
0
LINE
8
0
10
1874.5681
20
1560.0
30
0.0
11
1847.7964
21
1560.0
31
0.0
0
LINE
8
0
10
1847.7964
20
1560.0
30
0.0
11
1827.7694
21
1539.973
31
0.0
0
LINE
8
0
10
1827.7694
20
1539.973
30
0.0
11
1796.0338
21
1571.7086
31
0.0
0
LINE
8
0
10
1796.0338
20
1571.7086
30
0.0
11
1759.9414
21
1571.7086
31
0.0
0
3DFACE
8
0
10
1759.9414
20
1599.9891
30
0.0
11
1755.9414
21
1606.9891
31
0.0
12
1763.9414
22
1606.9891
32
0.0
13
1763.9415
23
1606.9893
33
1.0E-4
0
3DFACE
8
0
10
524.53796
20
1760.0
30
0.0
11
520.53796
21
1767.0
31
0.0
12
528.53796
22
1767.0
32
0.0
13
528.5381
23
1767.0001
33
1.0E-4
0
LINE
8
0
10
524.53796
20
1760.0
30
0.0
11
524.53796
21
1793.2639
31
0.0
0
LINE
8
0
10
524.53796
20
1793.2639
30
0.0
11
524.53796
21
1823.7021
31
0.0
0
LINE
8
0
10
524.53796
20
1823.7021
30
0.0
11
489.78732
21
1823.7021
31
0.0
0
3DFACE
8
0
10
454.68515
20
1823.7021
30
0.0
11
450.68515
21
1830.7021
31
0.0
12
458.68515
22
1830.7021
32
0.0
13
458.68524
23
1830.7023
33
1.0E-4
0
3DFACE
8
0
10
863.6004
20
1760.0
30
0.0
11
859.6004
21
1767.0
31
0.0
12
867.6004
22
1767.0
32
0.0
13
867.6005
23
1767.0001
33
1.0E-4
0
LINE
8
0
10
863.6004
20
1760.0
30
0.0
11
835.8834
21
1760.0
31
0.0
0
LINE
8
0
10
835.8834
20
1760.0
30
0.0
11
812.43933
21
1760.0
31
0.0
0
LINE
8
0
10
812.43933
20
1760.0
30
0.0
11
774.20593
21
1721.7666
31
0.0
0
3DFACE
8
0
10
774.20593
20
1758.1162
30
0.0
11
770.20593
21
1765.1162
31
0.0
12
778.20593
22
1765.1162
32
0.0
13
778.20605
23
1765.1163
33
1.0E-4
0
3DFACE
8
0
10
1588.9902
20
1760.0
30
0.0
11
1584.9902
21
1767.0
31
0.0
12
1592.9902
22
1767.0
32
0.0
13
1592.9904
23
1767.0001
33
1.0E-4
0
LINE
8
0
10
1588.9902
20
1760.0
30
0.0
11
1564.0815
21
1784.9087
31
0.0
0
LINE
8
0
10
1564.0815
20
1784.9087
30
0.0
11
1530.9678
21
1784.9087
31
0.0
0
LINE
8
0
10
1530.9678
20
1784.9087
30
0.0
11
1507.3894
21
1784.9087
31
0.0
0
3DFACE
8
0
10
1468.4678
20
1823.8303
30
0.0
11
1464.4678
21
1830.8303
31
0.0
12
1472.4678
22
1830.8303
32
0.0
13
1472.4679
23
1830.8304
33
1.0E-4
0
3DFACE
8
0
10
1478.8933
20
1760.0
30
0.0
11
1474.8933
21
1767.0
31
0.0
12
1482.8933
22
1767.0
32
0.0
13
1482.8934
23
1767.0001
33
1.0E-4
0
LINE
8
0
10
1478.8933
20
1760.0
30
0.0
11
1478.8933
21
1781.9545
31
0.0
0
LINE
8
0
10
1478.8933
20
1781.9545
30
0.0
11
1450.8756
21
1809.9722
31
0.0
0
LINE
8
0
10
1450.8756
20
1809.9722
30
0.0
11
1414.0166
21
1846.8312
31
0.0
0
3DFACE
8
0
10
1414.0166
20
1816.3442
30
0.0
11
1410.0166
21
1823.3442
31
0.0
12
1418.0166
22
1823.3442
32
0.0
13
1418.0167
23
1823.3444
33
1.0E-4
0
3DFACE
8
0
10
1711.585
20
1760.0
30
0.0
11
1707.585
21
1767.0
31
0.0
12
1715.585
22
1767.0
32
0.0
13
1715.5851
23
1767.0001
33
1.0E-4
0
LINE
8
0
10
1711.585
20
1760.0
30
0.0
11
1673.8783
21
1797.7067
31
0.0
0
LINE
8
0
10
1673.8783
20
1797.7067
30
0.0
11
1646.6326
21
1824.9524
31
0.0
0
LINE
8
0
10
1646.6326
20
1824.9524
30
0.0
11
1610.0508
21
1824.9524
31
0.0
0
3DFACE
8
0
10
1610.0508
20
1791.7793
30
0.0
11
1606.0508
21
1798.7793
31
0.0
12
1614.0508
22
1798.7793
32
0.0
13
1614.0509
23
1798.7794
33
1.0E-4
0
3DFACE
8
0
10
1483.9907
20
1760.0
30
0.0
11
1479.9907
21
1767.0
31
0.0
12
1487.9907
22
1767.0
32
0.0
13
1487.9908
23
1767.0001
33
1.0E-4
0
LINE
8
0
10
1483.9907
20
1760.0
30
0.0
11
1452.5602
21
1728.5695
31
0.0
0
LINE
8
0
10
1452.5602
20
1728.5695
30
0.0
11
1452.5602
21
1758.6091
31
0.0
0
LINE
8
0
10
1452.5602
20
1758.6091
30
0.0
11
1425.2212
21
1731.2701
31
0.0
0
3DFACE
8
0
10
1385.4751
20
1771.0162
30
0.0
11
1381.4751
21
1778.0162
31
0.0
12
1389.4751
22
1778.0162
32
0.0
13
1389.4752
23
1778.0164
33
1.0E-4
0
3DFACE
8
0
10
1455.3335
20
1760.0
30
0.0
11
1451.3335
21
1767.0
31
0.0
12
1459.3335
22
1767.0
32
0.0
13
1459.3336
23
1767.0001
33
1.0E-4
0
LINE
8
0
10
1455.3335
20
1760.0
30
0.0
11
1431.8595
21
1760.0
31
0.0
0
LINE
8
0
10
1431.8595
20
1760.0
30
0.0
11
1403.8497
21
1731.9902
31
0.0
0
LINE
8
0
10
1403.8497
20
1731.9902
30
0.0
11
1403.8497
21
1752.922
31
0.0
0
3DFACE
8
0
10
1366.2555
20
1715.3278
30
0.0
11
1362.2555
21
1722.3278
31
0.0
12
1370.2555
22
1722.3278
32
0.0
13
1370.2556
23
1722.3279
33
1.0E-4
0
3DFACE
8
0
10
996.2993
20
1760.0
30
0.0
11
992.2993
21
1767.0
31
0.0
12
1000.2993
22
1767.0
32
0.0
13
1000.29944
23
1767.0001
33
1.0E-4
0
LINE
8
0
10
996.2993
20
1760.0
30
0.0
11
965.70746
21
1790.5919
31
0.0
0
LINE
8
0
10
965.70746
20
1790.5919
30
0.0
11
934.7185
21
1790.5919
31
0.0
0
LINE
8
0
10
934.7185
20
1790.5919
30
0.0
11
908.61334
21
1764.4867
31
0.0
0
3DFACE
8
0
10
908.61334
20
1789.5176
30
0.0
11
904.61334
21
1796.5176
31
0.0
12
912.61334
22
1796.5176
32
0.0
13
912.61346
23
1796.5177
33
1.0E-4
0
3DFACE
8
0
10
623.373
20
1760.0
30
0.0
11
619.373
21
1767.0
31
0.0
12
627.373
22
1767.0
32
0.0
13
627.3731
23
1767.0001
33
1.0E-4
0
LINE
8
0
10
623.373
20
1760.0
30
0.0
11
653.0652
21
1760.0
31
0.0
0
LINE
8
0
10
653.0652
20
1760.0
30
0.0
11
653.0652
21
1791.9987
31
0.0
0
LINE
8
0
10
653.0652
20
1791.9987
30
0.0
11
682.1548
21
1791.9987
31
0.0
0
3DFACE
8
0
10
648.762
20
1758.606
30
0.0
11
644.762
21
1765.606
31
0.0
12
652.762
22
1765.606
32
0.0
13
652.76215
23
1765.6061
33
1.0E-4
0
3DFACE
8
0
10
1051.3405
20
1760.0
30
0.0
11
1047.3405
21
1767.0
31
0.0
12
1055.3405
22
1767.0
32
0.0
13
1055.3406
23
1767.0001
33
1.0E-4
0
LINE
8
0
10
1051.3405
20
1760.0
30
0.0
11
1051.3405
21
1787.1843
31
0.0
0
LINE
8
0
10
1051.3405
20
1787.1843
30
0.0
11
1017.7175
21
1753.5614
31
0.0
0
LINE
8
0
10
1017.7175
20
1753.5614
30
0.0
11
985.37134
21
1785.9076
31
0.0
0
3DFACE
8
0
10
964.19196
20
1785.9076
30
0.0
11
960.19196
21
1792.9076
31
0.0
12
968.19196
22
1792.9076
32
0.0
13
968.1921
23
1792.9077
33
1.0E-4
0
3DFACE
8
0
10
1475.4004
20
1760.0
30
0.0
11
1471.4004
21
1767.0
31
0.0
12
1479.4004
22
1767.0
32
0.0
13
1479.4005
23
1767.0001
33
1.0E-4
0
LINE
8
0
10
1475.4004
20
1760.0
30
0.0
11
1451.1852
21
1760.0
31
0.0
0
LINE
8
0
10
1451.1852
20
1760.0
30
0.0
11
1425.184
21
1733.9988
31
0.0
0
LINE
8
0
10
1425.184
20
1733.9988
30
0.0
11
1397.3481
21
1733.9988
31
0.0
0
3DFACE
8
0
10
1373.1521
20
1758.1948
30
0.0
11
1369.1521
21
1765.1948
31
0.0
12
1377.1521
22
1765.1948
32
0.0
13
1377.1522
23
1765.195
33
1.0E-4
0
3DFACE
8
0
10
852.0394
20
1760.0
30
0.0
11
848.0394
21
1767.0
31
0.0
12
856.0394
22
1767.0
32
0.0
13
856.03955
23
1767.0001
33
1.0E-4
0
LINE
8
0
10
852.0394
20
1760.0
30
0.0
11
852.0394
21
1785.5831
31
0.0
0
LINE
8
0
10
852.0394
20
1785.5831
30
0.0
11
831.546
21
1806.0765
31
0.0
0
LINE
8
0
10
831.546
20
1806.0765
30
0.0
11
831.546
21
1773.5894
31
0.0
0
3DFACE
8
0
10
831.546
20
1794.2711
30
0.0
11
827.546
21
1801.2711
31
0.0
12
835.546
22
1801.2711
32
0.0
13
835.54614
23
1801.2712
33
1.0E-4
0
3DFACE
8
0
10
1032.4606
20
1760.0
30
0.0
11
1028.4606
21
1767.0
31
0.0
12
1036.4606
22
1767.0
32
0.0
13
1036.4607
23
1767.0001
33
1.0E-4
0
LINE
8
0
10
1032.4606
20
1760.0
30
0.0
11
1032.4606
21
1793.7494
31
0.0
0
LINE
8
0
10
1032.4606
20
1793.7494
30
0.0
11
996.29926
21
1793.7494
31
0.0
0
LINE
8
0
10
996.29926
20
1793.7494
30
0.0
11
965.3699
21
1824.6787
31
0.0
0
3DFACE
8
0
10
943.5756
20
1846.473
30
0.0
11
939.5756
21
1853.473
31
0.0
12
947.5756
22
1853.473
32
0.0
13
947.57574
23
1853.4731
33
1.0E-4
0
3DFACE
8
0
10
1698.5095
20
1760.0
30
0.0
11
1694.5095
21
1767.0
31
0.0
12
1702.5095
22
1767.0
32
0.0
13
1702.5096
23
1767.0001
33
1.0E-4
0
LINE
8
0
10
1698.5095
20
1760.0
30
0.0
11
1673.1903
21
1785.3192
31
0.0
0
LINE
8
0
10
1673.1903
20
1785.3192
30
0.0
11
1673.1903
21
1822.1764
31
0.0
0
LINE
8
0
10
1673.1903
20
1822.1764
30
0.0
11
1647.048
21
1822.1764
31
0.0
0
3DFACE
8
0
10
1647.048
20
1795.2175
30
0.0
11
1643.048
21
1802.2175
31
0.0
12
1651.048
22
1802.2175
32
0.0
13
1651.0481
23
1802.2177
33
1.0E-4
0
3DFACE
8
0
10
1154.4033
20
1760.0
30
0.0
11
1150.4033
21
1767.0
31
0.0
12
1158.4033
22
1767.0
32
0.0
13
1158.4034
23
1767.0001
33
1.0E-4
0
LINE
8
0
10
1154.4033
20
1760.0
30
0.0
11
1118.8752
21
1724.4719
31
0.0
0
LINE
8
0
10
1118.8752
20
1724.4719
30
0.0
11
1095.3276
21
1700.9243
31
0.0
0
LINE
8
0
10
1095.3276
20
1700.9243
30
0.0
11
1071.8909
21
1700.9243
31
0.0
0
3DFACE
8
0
10
1043.1903
20
1672.2238
30
0.0
11
1039.1903
21
1679.2238
31
0.0
12
1047.1903
22
1679.2238
32
0.0
13
1047.1904
23
1679.2239
33
1.0E-4
0
3DFACE
8
0
10
1244.8414
20
1760.0
30
0.0
11
1240.8414
21
1767.0
31
0.0
12
1248.8414
22
1767.0
32
0.0
13
1248.8416
23
1767.0001
33
1.0E-4
0
LINE
8
0
10
1244.8414
20
1760.0
30
0.0
11
1205.6938
21
1720.8524
31
0.0
0
LINE
8
0
10
1205.6938
20
1720.8524
30
0.0
11
1173.389
21
1753.1572
31
0.0
0
LINE
8
0
10
1173.389
20
1753.1572
30
0.0
11
1173.389
21
1780.9789
31
0.0
0
3DFACE
8
0
10
1138.535
20
1780.9789
30
0.0
11
1134.535
21
1787.9789
31
0.0
12
1142.535
22
1787.9789
32
0.0
13
1142.5352
23
1787.979
33
1.0E-4
0
3DFACE
8
0
10
1859.3835
20
1760.0
30
0.0
11
1855.3835
21
1767.0
31
0.0
12
1863.3835
22
1767.0
32
0.0
13
1863.3837
23
1767.0001
33
1.0E-4
0
LINE
8
0
10
1859.3835
20
1760.0
30
0.0
11
1859.3835
21
1784.4739
31
0.0
0
LINE
8
0
10
1859.3835
20
1784.4739
30
0.0
11
1834.798
21
1784.4739
31
0.0
0
LINE
8
0
10
1834.798
20
1784.4739
30
0.0
11
1810.659
21
1784.4739
31
0.0
0
3DFACE
8
0
10
1810.659
20
1812.2023
30
0.0
11
1806.659
21
1819.2023
31
0.0
12
1814.659
22
1819.2023
32
0.0
13
1814.6592
23
1819.2024
33
1.0E-4
0
3DFACE
8
0
10
1174.808
20
1760.0
30
0.0
11
1170.808
21
1767.0
31
0.0
12
1178.808
22
1767.0
32
0.0
13
1178.8081
23
1767.0001
33
1.0E-4
0
LINE
8
0
10
1174.808
20
1760.0
30
0.0
11
1153.488
21
1738.68
31
0.0
0
LINE
8
0
10
1153.488
20
1738.68
30
0.0
11
1153.488
21
1774.0242
31
0.0
0
LINE
8
0
10
1153.488
20
1774.0242
30
0.0
11
1127.25
21
1800.2622
31
0.0
0
3DFACE
8
0
10
1089.2894
20
1762.3016
30
0.0
11
1085.2894
21
1769.3016
31
0.0
12
1093.2894
22
1769.3016
32
0.0
13
1093.2896
23
1769.3018
33
1.0E-4
0
3DFACE
8
0
10
1399.3052
20
1760.0
30
0.0
11
1395.3052
21
1767.0
31
0.0
12
1403.3052
22
1767.0
32
0.0
13
1403.3053
23
1767.0001
33
1.0E-4
0
LINE
8
0
10
1399.3052
20
1760.0
30
0.0
11
1399.3052
21
1793.4087
31
0.0
0
LINE
8
0
10
1399.3052
20
1793.4087
30
0.0
11
1369.9747
21
1822.7391
31
0.0
0
LINE
8
0
10
1369.9747
20
1822.7391
30
0.0
11
1342.5776
21
1822.7391
31
0.0
0
3DFACE
8
0
10
1342.5776
20
1795.1608
30
0.0
11
1338.5776
21
1802.1608
31
0.0
12
1346.5776
22
1802.1608
32
0.0
13
1346.5778
23
1802.1609
33
1.0E-4
0
3DFACE
8
0
10
1364.1575
20
1760.0
30
0.0
11
1360.1575
21
1767.0
31
0.0
12
1368.1575
22
1767.0
32
0.0
13
1368.1576
23
1767.0001
33
1.0E-4
0
LINE
8
0
10
1364.1575
20
1760.0
30
0.0
11
1343.0782
21
1738.9208
31
0.0
0
LINE
8
0
10
1343.0782
20
1738.9208
30
0.0
11
1343.0782
21
1768.9465
31
0.0
0
LINE
8
0
10
1343.0782
20
1768.9465
30
0.0
11
1343.0782
21
1802.5067
31
0.0
0
3DFACE
8
0
10
1310.2625
20
1835.3225
30
0.0
11
1306.2625
21
1842.3225
31
0.0
12
1314.2625
22
1842.3225
32
0.0
13
1314.2626
23
1842.3226
33
1.0E-4
0
3DFACE
8
0
10
1513.053
20
1760.0
30
0.0
11
1509.053
21
1767.0
31
0.0
12
1517.053
22
1767.0
32
0.0
13
1517.0531
23
1767.0001
33
1.0E-4
0
LINE
8
0
10
1513.053
20
1760.0
30
0.0
11
1487.9543
21
1734.9014
31
0.0
0
LINE
8
0
10
1487.9543
20
1734.9014
30
0.0
11
1454.029
21
1768.8267
31
0.0
0
LINE
8
0
10
1454.029
20
1768.8267
30
0.0
11
1427.7279
21
1742.5255
31
0.0
0
3DFACE
8
0
10
1406.5773
20
1742.5255
30
0.0
11
1402.5773
21
1749.5255
31
0.0
12
1410.5773
22
1749.5255
32
0.0
13
1410.5774
23
1749.5256
33
1.0E-4
0
3DFACE
8
0
10
1434.1283
20
1760.0
30
0.0
11
1430.1283
21
1767.0
31
0.0
12
1438.1283
22
1767.0
32
0.0
13
1438.1284
23
1767.0001
33
1.0E-4
0
LINE
8
0
10
1434.1283
20
1760.0
30
0.0
11
1396.8846
21
1760.0
31
0.0
0
LINE
8
0
10
1396.8846
20
1760.0
30
0.0
11
1422.9797
21
1760.0
31
0.0
0
LINE
8
0
10
1422.9797
20
1760.0
30
0.0
11
1422.9797
21
1785.8741
31
0.0
0
3DFACE
8
0
10
1396.1886
20
1785.8741
30
0.0
11
1392.1886
21
1792.8741
31
0.0
12
1400.1886
22
1792.8741
32
0.0
13
1400.1887
23
1792.8743
33
1.0E-4
0
3DFACE
8
0
10
1662.6875
20
1760.0
30
0.0
11
1658.6875
21
1767.0
31
0.0
12
1666.6875
22
1767.0
32
0.0
13
1666.6876
23
1767.0001
33
1.0E-4
0
LINE
8
0
10
1662.6875
20
1760.0
30
0.0
11
1625.3207
21
1722.6332
31
0.0
0
LINE
8
0
10
1625.3207
20
1722.6332
30
0.0
11
1601.8729
21
1746.0809
31
0.0
0
LINE
8
0
10
1601.8729
20
1746.0809
30
0.0
11
1572.2046
21
1775.7493
31
0.0
0
3DFACE
8
0
10
1539.818
20
1743.3627
30
0.0
11
1535.818
21
1750.3627
31
0.0
12
1543.818
22
1750.3627
32
0.0
13
1543.8181
23
1750.3628
33
1.0E-4
0
3DFACE
8
0
10
1531.8054
20
1760.0
30
0.0
11
1527.8054
21
1767.0
31
0.0
12
1535.8054
22
1767.0
32
0.0
13
1535.8055
23
1767.0001
33
1.0E-4
0
LINE
8
0
10
1531.8054
20
1760.0
30
0.0
11
1493.1987
21
1798.6067
31
0.0
0
LINE
8
0
10
1493.1987
20
1798.6067
30
0.0
11
1459.355
21
1832.4504
31
0.0
0
LINE
8
0
10
1459.355
20
1832.4504
30
0.0
11
1438.096
21
1832.4504
31
0.0
0
3DFACE
8
0
10
1398.8722
20
1871.6742
30
0.0
11
1394.8722
21
1878.6742
31
0.0
12
1402.8722
22
1878.6742
32
0.0
13
1402.8723
23
1878.6743
33
1.0E-4
0
3DFACE
8
0
10
1763.5593
20
1760.0
30
0.0
11
1759.5593
21
1767.0
31
0.0
12
1767.5593
22
1767.0
32
0.0
13
1767.5594
23
1767.0001
33
1.0E-4
0
LINE
8
0
10
1763.5593
20
1760.0
30
0.0
11
1735.9615
21
1787.5978
31
0.0
0
LINE
8
0
10
1735.9615
20
1787.5978
30
0.0
11
1699.8618
21
1751.498
31
0.0
0
LINE
8
0
10
1699.8618
20
1751.498
30
0.0
11
1660.19
21
1711.8262
31
0.0
0
3DFACE
8
0
10
1638.5345
20
1690.1708
30
0.0
11
1634.5345
21
1697.1708
31
0.0
12
1642.5345
22
1697.1708
32
0.0
13
1642.5347
23
1697.1709
33
1.0E-4
0
3DFACE
8
0
10
1886.0316
20
1760.0
30
0.0
11
1882.0316
21
1767.0
31
0.0
12
1890.0316
22
1767.0
32
0.0
13
1890.0317
23
1767.0001
33
1.0E-4
0
LINE
8
0
10
1886.0316
20
1760.0
30
0.0
11
1853.6426
21
1727.611
31
0.0
0
LINE
8
0
10
1853.6426
20
1727.611
30
0.0
11
1830.4126
21
1750.841
31
0.0
0
LINE
8
0
10
1830.4126
20
1750.841
30
0.0
11
1793.1716
21
1788.0819
31
0.0
0
3DFACE
8
0
10
1793.1716
20
1817.2812
30
0.0
11
1789.1716
21
1824.2812
31
0.0
12
1797.1716
22
1824.2812
32
0.0
13
1797.1718
23
1824.2814
33
1.0E-4
0
3DFACE
8
0
10
1831.832
20
1760.0
30
0.0
11
1827.832
21
1767.0
31
0.0
12
1835.832
22
1767.0
32
0.0
13
1835.8322
23
1767.0001
33
1.0E-4
0
LINE
8
0
10
1831.832
20
1760.0
30
0.0
11
1799.5387
21
1760.0
31
0.0
0
LINE
8
0
10
1799.5387
20
1760.0
30
0.0
11
1799.5387
21
1784.6162
31
0.0
0
LINE
8
0
10
1799.5387
20
1784.6162
30
0.0
11
1772.1207
21
1757.1982
31
0.0
0
3DFACE
8
0
10
1739.6598
20
1724.7373
30
0.0
11
1735.6598
21
1731.7373
31
0.0
12
1743.6598
22
1731.7373
32
0.0
13
1743.6599
23
1731.7374
33
1.0E-4
0
3DFACE
8
0
10
1744.606
20
1760.0
30
0.0
11
1740.606
21
1767.0
31
0.0
12
1748.606
22
1767.0
32
0.0
13
1748.6061
23
1767.0001
33
1.0E-4
0
LINE
8
0
10
1744.606
20
1760.0
30
0.0
11
1711.4167
21
1793.1892
31
0.0
0
LINE
8
0
10
1711.4167
20
1793.1892
30
0.0
11
1681.1195
21
1823.4865
31
0.0
0
LINE
8
0
10
1681.1195
20
1823.4865
30
0.0
11
1681.1195
21
1801.1313
31
0.0
0
3DFACE
8
0
10
1706.6162
20
1801.1313
30
0.0
11
1702.6162
21
1808.1313
31
0.0
12
1710.6162
22
1808.1313
32
0.0
13
1710.6163
23
1808.1315
33
1.0E-4
0
3DFACE
8
0
10
1845.0388
20
1760.0
30
0.0
11
1841.0388
21
1767.0
31
0.0
12
1849.0388
22
1767.0
32
0.0
13
1849.039
23
1767.0001
33
1.0E-4
0
LINE
8
0
10
1845.0388
20
1760.0
30
0.0
11
1818.2473
21
1786.7915
31
0.0
0
LINE
8
0
10
1818.2473
20
1786.7915
30
0.0
11
1789.381
21
1786.7915
31
0.0
0
LINE
8
0
10
1789.381
20
1786.7915
30
0.0
11
1789.381
21
1819.4176
31
0.0
0
3DFACE
8
0
10
1789.381
20
1795.6833
30
0.0
11
1785.381
21
1802.6833
31
0.0
12
1793.381
22
1802.6833
32
0.0
13
1793.3811
23
1802.6835
33
1.0E-4
0
3DFACE
8
0
10
1847.7137
20
1760.0
30
0.0
11
1843.7137
21
1767.0
31
0.0
12
1851.7137
22
1767.0
32
0.0
13
1851.7139
23
1767.0001
33
1.0E-4
0
LINE
8
0
10
1847.7137
20
1760.0
30
0.0
11
1819.6294
21
1760.0
31
0.0
0
LINE
8
0
10
1819.6294
20
1760.0
30
0.0
11
1789.8848
21
1760.0
31
0.0
0
LINE
8
0
10
1789.8848
20
1760.0
30
0.0
11
1751.5596
21
1721.6748
31
0.0
0
3DFACE
8
0
10
1731.5375
20
1701.6527
30
0.0
11
1727.5375
21
1708.6527
31
0.0
12
1735.5375
22
1708.6527
32
0.0
13
1735.5376
23
1708.6528
33
1.0E-4
0
ENDSEC
0
EOF
